  0
SECTION
  2
HEADER
  9
$ACADVER
  1
AC1032
  9
$ACADMAINTVER
 90
      228
  9
$DWGCODEPAGE
  3
ANSI_1250
  9
$REQUIREDVERSIONS
160
                 0
  9
$INSBASE
 10
0.0
 20
0.0
 30
0.0
  9
$EXTMIN
 10
1.000000000000000E+20
 20
1.000000000000000E+20
 30
1.000000000000000E+20
  9
$EXTMAX
 10
-1.000000000000000E+20
 20
-1.000000000000000E+20
 30
-1.000000000000000E+20
  9
$LIMMIN
 10
0.0
 20
0.0
  9
$LIMMAX
 10
12.0
 20
9.0
  9
$ORTHOMODE
 70
     0
  9
$REGENMODE
 70
     1
  9
$FILLMODE
 70
     1
  9
$QTEXTMODE
 70
     0
  9
$MIRRTEXT
 70
     0
  9
$LTSCALE
 40
1.0
  9
$ATTMODE
 70
     1
  9
$TEXTSIZE
 40
0.2
  9
$TRACEWID
 40
0.05
  9
$TEXTSTYLE
  7
Standard
  9
$CLAYER
  8
0
  9
$CELTYPE
  6
ByLayer
  9
$CECOLOR
 62
   256
  9
$CELTSCALE
 40
1.0
  9
$DISPSILH
 70
     0
  9
$DIMSCALE
 40
1.0
  9
$DIMASZ
 40
0.18
  9
$DIMEXO
 40
0.0625
  9
$DIMDLI
 40
0.38
  9
$DIMRND
 40
0.0
  9
$DIMDLE
 40
0.0
  9
$DIMEXE
 40
0.18
  9
$DIMTP
 40
0.0
  9
$DIMTM
 40
0.0
  9
$DIMTXT
 40
0.18
  9
$DIMCEN
 40
0.09
  9
$DIMTSZ
 40
0.0
  9
$DIMTOL
 70
     0
  9
$DIMLIM
 70
     0
  9
$DIMTIH
 70
     1
  9
$DIMTOH
 70
     1
  9
$DIMSE1
 70
     0
  9
$DIMSE2
 70
     0
  9
$DIMTAD
 70
     0
  9
$DIMZIN
 70
     0
  9
$DIMBLK
  1

  9
$DIMASO
 70
     1
  9
$DIMSHO
 70
     1
  9
$DIMPOST
  1

  9
$DIMAPOST
  1

  9
$DIMALT
 70
     0
  9
$DIMALTD
 70
     2
  9
$DIMALTF
 40
25.4
  9
$DIMLFAC
 40
1.0
  9
$DIMTOFL
 70
     0
  9
$DIMTVP
 40
0.0
  9
$DIMTIX
 70
     0
  9
$DIMSOXD
 70
     0
  9
$DIMSAH
 70
     0
  9
$DIMBLK1
  1

  9
$DIMBLK2
  1

  9
$DIMSTYLE
  2
Standard
  9
$DIMCLRD
 70
     0
  9
$DIMCLRE
 70
     0
  9
$DIMCLRT
 70
     0
  9
$DIMTFAC
 40
1.0
  9
$DIMGAP
 40
0.09
  9
$DIMJUST
 70
     0
  9
$DIMSD1
 70
     0
  9
$DIMSD2
 70
     0
  9
$DIMTOLJ
 70
     1
  9
$DIMTZIN
 70
     0
  9
$DIMALTZ
 70
     0
  9
$DIMALTTZ
 70
     0
  9
$DIMUPT
 70
     0
  9
$DIMDEC
 70
     4
  9
$DIMTDEC
 70
     4
  9
$DIMALTU
 70
     2
  9
$DIMALTTD
 70
     2
  9
$DIMTXSTY
  7
Standard
  9
$DIMAUNIT
 70
     0
  9
$DIMADEC
 70
     0
  9
$DIMALTRND
 40
0.0
  9
$DIMAZIN
 70
     0
  9
$DIMDSEP
 70
    46
  9
$DIMATFIT
 70
     3
  9
$DIMFRAC
 70
     0
  9
$DIMLDRBLK
  1

  9
$DIMLUNIT
 70
     2
  9
$DIMLWD
 70
    -2
  9
$DIMLWE
 70
    -2
  9
$DIMTMOVE
 70
     0
  9
$DIMFXL
 40
1.0
  9
$DIMFXLON
 70
     0
  9
$DIMJOGANG
 40
0.7853981633974483
  9
$DIMTFILL
 70
     0
  9
$DIMTFILLCLR
 70
     0
  9
$DIMARCSYM
 70
     0
  9
$DIMLTYPE
  6

  9
$DIMLTEX1
  6

  9
$DIMLTEX2
  6

  9
$DIMTXTDIRECTION
 70
     0
  9
$LUNITS
 70
     2
  9
$LUPREC
 70
     4
  9
$SKETCHINC
 40
0.1
  9
$FILLETRAD
 40
0.0
  9
$AUNITS
 70
     0
  9
$AUPREC
 70
     0
  9
$MENU
  1
.
  9
$ELEVATION
 40
0.0
  9
$PELEVATION
 40
0.0
  9
$THICKNESS
 40
0.0
  9
$LIMCHECK
 70
     0
  9
$CHAMFERA
 40
0.0
  9
$CHAMFERB
 40
0.0
  9
$CHAMFERC
 40
0.0
  9
$CHAMFERD
 40
0.0
  9
$SKPOLY
 70
     0
  9
$TDCREATE
 40
2460061.422557870
  9
$TDUCREATE
 40
2460061.339224537
  9
$TDUPDATE
 40
2460061.422557870
  9
$TDUUPDATE
 40
2460061.339224537
  9
$TDINDWG
 40
0.0000115741
  9
$TDUSRTIMER
 40
0.0000115741
  9
$USRTIMER
 70
     1
  9
$ANGBASE
 50
0.0
  9
$ANGDIR
 70
     0
  9
$PDMODE
 70
     0
  9
$PDSIZE
 40
0.0
  9
$PLINEWID
 40
0.0
  9
$SPLFRAME
 70
     0
  9
$SPLINETYPE
 70
     6
  9
$SPLINESEGS
 70
     8
  9
$HANDSEED
  5
DF
  9
$SURFTAB1
 70
     6
  9
$SURFTAB2
 70
     6
  9
$SURFTYPE
 70
     6
  9
$SURFU
 70
     6
  9
$SURFV
 70
     6
  9
$UCSBASE
  2

  9
$UCSNAME
  2

  9
$UCSORG
 10
0.0
 20
0.0
 30
0.0
  9
$UCSXDIR
 10
1.0
 20
0.0
 30
0.0
  9
$UCSYDIR
 10
0.0
 20
1.0
 30
0.0
  9
$UCSORTHOREF
  2

  9
$UCSORTHOVIEW
 70
     0
  9
$UCSORGTOP
 10
0.0
 20
0.0
 30
0.0
  9
$UCSORGBOTTOM
 10
0.0
 20
0.0
 30
0.0
  9
$UCSORGLEFT
 10
0.0
 20
0.0
 30
0.0
  9
$UCSORGRIGHT
 10
0.0
 20
0.0
 30
0.0
  9
$UCSORGFRONT
 10
0.0
 20
0.0
 30
0.0
  9
$UCSORGBACK
 10
0.0
 20
0.0
 30
0.0
  9
$PUCSBASE
  2

  9
$PUCSNAME
  2

  9
$PUCSORG
 10
0.0
 20
0.0
 30
0.0
  9
$PUCSXDIR
 10
1.0
 20
0.0
 30
0.0
  9
$PUCSYDIR
 10
0.0
 20
1.0
 30
0.0
  9
$PUCSORTHOREF
  2

  9
$PUCSORTHOVIEW
 70
     0
  9
$PUCSORGTOP
 10
0.0
 20
0.0
 30
0.0
  9
$PUCSORGBOTTOM
 10
0.0
 20
0.0
 30
0.0
  9
$PUCSORGLEFT
 10
0.0
 20
0.0
 30
0.0
  9
$PUCSORGRIGHT
 10
0.0
 20
0.0
 30
0.0
  9
$PUCSORGFRONT
 10
0.0
 20
0.0
 30
0.0
  9
$PUCSORGBACK
 10
0.0
 20
0.0
 30
0.0
  9
$USERI1
 70
     0
  9
$USERI2
 70
     0
  9
$USERI3
 70
     0
  9
$USERI4
 70
     0
  9
$USERI5
 70
     0
  9
$USERR1
 40
0.0
  9
$USERR2
 40
0.0
  9
$USERR3
 40
0.0
  9
$USERR4
 40
0.0
  9
$USERR5
 40
0.0
  9
$WORLDVIEW
 70
     1
  9
$SHADEDGE
 70
     3
  9
$SHADEDIF
 70
    70
  9
$TILEMODE
 70
     1
  9
$MAXACTVP
 70
    64
  9
$PINSBASE
 10
0.0
 20
0.0
 30
0.0
  9
$PLIMCHECK
 70
     0
  9
$PEXTMIN
 10
1.000000000000000E+20
 20
1.000000000000000E+20
 30
1.000000000000000E+20
  9
$PEXTMAX
 10
-1.000000000000000E+20
 20
-1.000000000000000E+20
 30
-1.000000000000000E+20
  9
$PLIMMIN
 10
0.0
 20
0.0
  9
$PLIMMAX
 10
12.0
 20
9.0
  9
$UNITMODE
 70
     0
  9
$VISRETAIN
 70
     1
  9
$PLINEGEN
 70
     0
  9
$PSLTSCALE
 70
     1
  9
$TREEDEPTH
 70
  3020
  9
$CMLSTYLE
  2
Standard
  9
$CMLJUST
 70
     0
  9
$CMLSCALE
 40
1.0
  9
$PROXYGRAPHICS
 70
     1
  9
$MEASUREMENT
 70
     0
  9
$CELWEIGHT
370
    -1
  9
$ENDCAPS
280
     0
  9
$JOINSTYLE
280
     0
  9
$LWDISPLAY
290
     1
  9
$INSUNITS
 70
     4
  9
$HYPERLINKBASE
  1

  9
$STYLESHEET
  1

  9
$XEDIT
290
     1
  9
$CEPSNTYPE
380
     0
  9
$PSTYLEMODE
290
     1
  9
$FINGERPRINTGUID
  2
{68550309-C9E2-7149-94FD-BA9018F7EDEC}
  9
$VERSIONGUID
  2
{8A12E885-7F09-0F45-8E09-D8D51DBE7FE3}
  9
$EXTNAMES
290
     1
  9
$PSVPSCALE
 40
0.0
  9
$OLESTARTUP
290
     0
  9
$SORTENTS
280
   127
  9
$INDEXCTL
280
     0
  9
$HIDETEXT
280
     1
  9
$XCLIPFRAME
280
     2
  9
$HALOGAP
280
     0
  9
$OBSCOLOR
 70
   257
  9
$OBSLTYPE
280
     0
  9
$INTERSECTIONDISPLAY
280
     0
  9
$INTERSECTIONCOLOR
 70
   257
  9
$DIMASSOC
280
     2
  9
$PROJECTNAME
  1

  9
$CAMERADISPLAY
290
     0
  9
$LENSLENGTH
 40
50.0
  9
$CAMERAHEIGHT
 40
0.0
  9
$STEPSPERSEC
 40
2.0
  9
$STEPSIZE
 40
6.0
  9
$3DDWFPREC
 40
2.0
  9
$PSOLWIDTH
 40
0.25
  9
$PSOLHEIGHT
 40
4.0
  9
$LOFTANG1
 40
1.570796326794896
  9
$LOFTANG2
 40
1.570796326794896
  9
$LOFTMAG1
 40
0.0
  9
$LOFTMAG2
 40
0.0
  9
$LOFTPARAM
 70
     7
  9
$LOFTNORMALS
280
     1
  9
$LATITUDE
 40
37.795
  9
$LONGITUDE
 40
-122.394
  9
$NORTHDIRECTION
 40
0.0
  9
$TIMEZONE
 70
 -8000
  9
$LIGHTGLYPHDISPLAY
280
     1
  9
$TILEMODELIGHTSYNCH
280
     1
  9
$CMATERIAL
347
11
  9
$SOLIDHIST
280
     0
  9
$SHOWHIST
280
     1
  9
$DWFFRAME
280
     2
  9
$DGNFRAME
280
     0
  9
$REALWORLDSCALE
290
     1
  9
$INTERFERECOLOR
 62
     1
  9
$INTERFEREOBJVS
345
33
  9
$INTERFEREVPVS
346
30
  9
$CSHADOW
280
     0
  9
$SHADOWPLANELOCATION
 40
0.0
  0
ENDSEC
  0
SECTION
  2
CLASSES
  0
CLASS
  1
ACDBDICTIONARYWDFLT
  2
AcDbDictionaryWithDefault
  3
ObjectDBX Classes
 90
        0
 91
        1
280
     0
281
     0
  0
CLASS
  1
MATERIAL
  2
AcDbMaterial
  3
ObjectDBX Classes
 90
     1153
 91
        3
280
     0
281
     0
  0
CLASS
  1
VISUALSTYLE
  2
AcDbVisualStyle
  3
ObjectDBX Classes
 90
     4095
 91
       24
280
     0
281
     0
  0
CLASS
  1
SCALE
  2
AcDbScale
  3
ObjectDBX Classes
 90
     1153
 91
       17
280
     0
281
     0
  0
CLASS
  1
TABLESTYLE
  2
AcDbTableStyle
  3
ObjectDBX Classes
 90
     4095
 91
        1
280
     0
281
     0
  0
CLASS
  1
MLEADERSTYLE
  2
AcDbMLeaderStyle
  3
ACDB_MLEADERSTYLE_CLASS
 90
     4095
 91
        1
280
     0
281
     0
  0
CLASS
  1
ACDBSECTIONVIEWSTYLE
  2
AcDbSectionViewStyle
  3
ObjectDBX Classes
 90
     1025
 91
        1
280
     0
281
     0
  0
CLASS
  1
ACDBDETAILVIEWSTYLE
  2
AcDbDetailViewStyle
  3
ObjectDBX Classes
 90
     1025
 91
        1
280
     0
281
     0
  0
CLASS
  1
IMAGEDEF
  2
AcDbRasterImageDef
  3
ISM
 90
        0
 91
        1
280
     0
281
     0
  0
CLASS
  1
IMAGE
  2
AcDbRasterImage
  3
ISM
 90
     2175
 91
        1
280
     0
281
     1
  0
CLASS
  1
DICTIONARYVAR
  2
AcDbDictionaryVar
  3
ObjectDBX Classes
 90
        0
 91
        5
280
     0
281
     0
  0
CLASS
  1
CELLSTYLEMAP
  2
AcDbCellStyleMap
  3
ObjectDBX Classes
 90
     1152
 91
        1
280
     0
281
     0
  0
ENDSEC
  0
SECTION
  2
TABLES
  0
TABLE
  2
VPORT
  5
8
330
0
100
AcDbSymbolTable
 70
     1
  0
VPORT
  5
57
330
8
100
AcDbSymbolTableRecord
100
AcDbViewportTableRecord
  2
*Active
 70
     0
 10
0.0
 20
0.0
 11
1.0
 21
1.0
 12
0.0
 22
0.0
 13
0.0
 23
0.0
 14
1.0
 24
1.0
 15
0.0
 25
0.0
 16
0.0
 26
0.0
 36
1.0
 17
104.9999970067687
 27
-148.5000119155985
 37
0.0
 40
214.1999938938081
 41
1.414285868084602
 42
50.0
 43
0.0
 44
0.0
 50
0.0
 51
0.0
 71
     0
 72
   100
 73
     1
 74
     1
 75
     0
 76
     0
 77
     0
 78
     0
281
     0
 65
     1
110
0.0
120
0.0
130
0.0
111
1.0
121
0.0
131
0.0
112
0.0
122
1.0
132
0.0
 79
     0
146
0.0
 60
     3
 61
     5
292
     1
282
     1
141
0.0
142
0.0
 63
   250
421
  3355443
  0
ENDTAB
  0
TABLE
  2
LTYPE
  5
5
330
0
100
AcDbSymbolTable
 70
     1
  0
LTYPE
  5
5B
330
5
100
AcDbSymbolTableRecord
100
AcDbLinetypeTableRecord
  2
ByBlock
 70
     0
  3

 72
    65
 73
     0
 40
0.0
  0
LTYPE
  5
5C
330
5
100
AcDbSymbolTableRecord
100
AcDbLinetypeTableRecord
  2
ByLayer
 70
     0
  3

 72
    65
 73
     0
 40
0.0
  0
LTYPE
  5
5D
330
5
100
AcDbSymbolTableRecord
100
AcDbLinetypeTableRecord
  2
Continuous
 70
     0
  3
Solid line
 72
    65
 73
     0
 40
0.0
  0
ENDTAB
  0
TABLE
  2
LAYER
  5
2
330
0
100
AcDbSymbolTable
 70
     6
  0
LAYER
  5
54
330
2
100
AcDbSymbolTableRecord
100
AcDbLayerTableRecord
  2
0
 70
     0
 62
     7
  6
Continuous
370
    -3
390
F
347
21
348
0
  0
LAYER
  5
78
330
2
100
AcDbSymbolTableRecord
100
AcDbLayerTableRecord
  2
Wings
 70
     0
 62
     7
  6
Continuous
370
     0
390
F
347
21
348
0
  0
LAYER
  5
79
330
2
100
AcDbSymbolTableRecord
100
AcDbLayerTableRecord
  2
Example
 70
     0
 62
     7
  6
Continuous
370
     0
390
F
347
21
348
0
  0
LAYER
  5
7A
330
2
100
AcDbSymbolTableRecord
100
AcDbLayerTableRecord
  2
Palette
 70
     0
 62
     7
  6
Continuous
370
     0
390
F
347
21
348
0
  0
LAYER
  5
7E
330
2
100
AcDbSymbolTableRecord
100
AcDbLayerTableRecord
  2
Potential color
 70
     0
 62
     7
  6
Continuous
370
     0
390
F
347
21
348
0
  0
LAYER
  5
7F
330
2
100
AcDbSymbolTableRecord
100
AcDbLayerTableRecord
  2
Logo
 70
     0
 62
     7
  6
Continuous
370
     0
390
F
347
21
348
0
  0
ENDTAB
  0
TABLE
  2
STYLE
  5
3
330
0
100
AcDbSymbolTable
 70
     2
  0
STYLE
  5
55
330
3
100
AcDbSymbolTableRecord
100
AcDbTextStyleTableRecord
  2
Standard
 70
     0
 40
0.0
 41
1.0
 50
0.0
 71
     0
 42
0.2
  3
txt
  4

  0
STYLE
  5
5A
330
3
100
AcDbSymbolTableRecord
100
AcDbTextStyleTableRecord
  2
Annotative
 70
     0
 40
0.0
 41
1.0
 50
0.0
 71
     0
 42
0.2
  3
txt
  4

1001
AcadAnnotative
1000
AnnotativeData
1002
{
1070
     1
1070
     1
1002
}
  0
ENDTAB
  0
TABLE
  2
VIEW
  5
6
330
0
100
AcDbSymbolTable
 70
     0
  0
ENDTAB
  0
TABLE
  2
UCS
  5
7
330
0
100
AcDbSymbolTable
 70
     0
  0
ENDTAB
  0
TABLE
  2
APPID
  5
9
330
0
100
AcDbSymbolTable
 70
     2
  0
APPID
  5
56
330
9
100
AcDbSymbolTableRecord
100
AcDbRegAppTableRecord
  2
ACAD
 70
     0
  0
APPID
  5
5E
330
9
100
AcDbSymbolTableRecord
100
AcDbRegAppTableRecord
  2
AcadAnnotative
 70
     0
  0
ENDTAB
  0
TABLE
  2
DIMSTYLE
  5
A
330
0
100
AcDbSymbolTable
 70
     2
100
AcDbDimStyleTable
 71
     0
  0
DIMSTYLE
105
58
330
A
100
AcDbSymbolTableRecord
100
AcDbDimStyleTableRecord
  2
Standard
 70
     0
340
55
  0
DIMSTYLE
105
59
330
A
100
AcDbSymbolTableRecord
100
AcDbDimStyleTableRecord
  2
Annotative
 70
     0
340
55
1001
AcadAnnotative
1000
AnnotativeData
1002
{
1070
     1
1070
     1
1002
}
  0
ENDTAB
  0
TABLE
  2
BLOCK_RECORD
  5
1
330
0
100
AcDbSymbolTable
 70
    10
  0
BLOCK_RECORD
  5
70
330
1
100
AcDbSymbolTableRecord
100
AcDbBlockTableRecord
  2
*Model_Space
340
73
 70
     0
280
     1
281
     0
  0
BLOCK_RECORD
  5
6C
330
1
100
AcDbSymbolTableRecord
100
AcDbBlockTableRecord
  2
*Paper_Space
340
6F
 70
     0
280
     1
281
     0
  0
BLOCK_RECORD
  5
74
330
1
100
AcDbSymbolTableRecord
100
AcDbBlockTableRecord
  2
*Paper_Space0
340
77
 70
     0
280
     1
281
     0
  0
BLOCK_RECORD
  5
80
330
1
100
AcDbSymbolTableRecord
100
AcDbBlockTableRecord
  2
Block_0
340
0
102
{BLKREFS
331
81
102
}
 70
     0
280
     1
281
     0
  0
BLOCK_RECORD
  5
84
330
1
100
AcDbSymbolTableRecord
100
AcDbBlockTableRecord
  2
Block_1
340
0
102
{BLKREFS
331
85
102
}
 70
     0
280
     1
281
     0
  0
BLOCK_RECORD
  5
88
330
1
100
AcDbSymbolTableRecord
100
AcDbBlockTableRecord
  2
Block_2
340
0
102
{BLKREFS
331
89
102
}
 70
     0
280
     1
281
     0
  0
BLOCK_RECORD
  5
8C
330
1
100
AcDbSymbolTableRecord
100
AcDbBlockTableRecord
  2
Block_3
340
0
102
{BLKREFS
331
8D
102
}
 70
     0
280
     1
281
     0
  0
BLOCK_RECORD
  5
94
330
1
100
AcDbSymbolTableRecord
100
AcDbBlockTableRecord
  2
Block_4
340
0
102
{BLKREFS
331
95
102
}
 70
     0
280
     1
281
     0
  0
BLOCK_RECORD
  5
98
330
1
100
AcDbSymbolTableRecord
100
AcDbBlockTableRecord
  2
Block_5
340
0
102
{BLKREFS
331
99
102
}
 70
     0
280
     1
281
     0
  0
BLOCK_RECORD
  5
AD
330
1
100
AcDbSymbolTableRecord
100
AcDbBlockTableRecord
  2
Block_6
340
0
102
{BLKREFS
331
AE
102
}
 70
     0
280
     1
281
     0
  0
BLOCK_RECORD
  5
BE
330
1
100
AcDbSymbolTableRecord
100
AcDbBlockTableRecord
  2
Block_7
340
0
102
{BLKREFS
331
BF
102
}
 70
     0
280
     1
281
     0
  0
BLOCK_RECORD
  5
C2
330
1
100
AcDbSymbolTableRecord
100
AcDbBlockTableRecord
  2
Block_8
340
0
102
{BLKREFS
331
C3
102
}
 70
     0
280
     1
281
     0
  0
ENDTAB
  0
ENDSEC
  0
SECTION
  2
BLOCKS
  0
BLOCK
  5
71
330
70
100
AcDbEntity
  8
0
100
AcDbBlockBegin
  2
*Model_Space
 70
     0
 10
0.0
 20
0.0
 30
0.0
  3
*Model_Space
  1

  0
ENDBLK
  5
72
330
70
100
AcDbEntity
  8
0
100
AcDbBlockEnd
  0
BLOCK
  5
6D
330
6C
100
AcDbEntity
 67
     1
  8
0
100
AcDbBlockBegin
  2
*Paper_Space
 70
     0
 10
0.0
 20
0.0
 30
0.0
  3
*Paper_Space
  1

  0
ENDBLK
  5
6E
330
6C
100
AcDbEntity
 67
     1
  8
0
100
AcDbBlockEnd
  0
BLOCK
  5
75
330
74
100
AcDbEntity
 67
     1
  8
0
100
AcDbBlockBegin
  2
*Paper_Space0
 70
     0
 10
0.0
 20
0.0
 30
0.0
  3
*Paper_Space0
  1

  0
ENDBLK
  5
76
330
74
100
AcDbEntity
 67
     1
  8
0
100
AcDbBlockEnd
  0
BLOCK
  5
82
330
80
100
AcDbEntity
  8
0
100
AcDbBlockBegin
  2
Block_0
 70
     0
 10
0.0
 20
0.0
 30
0.0
  3
Block_0
  1

  0
INSERT
  5
85
330
80
100
AcDbEntity
  8
Logo
100
AcDbBlockReference
  2
Block_1
 10
0.0
 20
0.0
 30
0.0
  0
ENDBLK
  5
83
330
80
100
AcDbEntity
  8
0
100
AcDbBlockEnd
  0
BLOCK
  5
86
330
84
100
AcDbEntity
  8
0
100
AcDbBlockBegin
  2
Block_1
 70
     0
 10
0.0
 20
0.0
 30
0.0
  3
Block_1
  1

  0
ENDBLK
  5
87
330
84
100
AcDbEntity
  8
0
100
AcDbBlockEnd
  0
BLOCK
  5
8A
330
88
100
AcDbEntity
  8
0
100
AcDbBlockBegin
  2
Block_2
 70
     0
 10
0.0
 20
0.0
 30
0.0
  3
Block_2
  1

  0
INSERT
  5
8D
330
88
100
AcDbEntity
  8
Logo
100
AcDbBlockReference
  2
Block_3
 10
0.0
 20
0.0
 30
0.0
  0
ENDBLK
  5
8B
330
88
100
AcDbEntity
  8
0
100
AcDbBlockEnd
  0
BLOCK
  5
8E
330
8C
100
AcDbEntity
  8
0
100
AcDbBlockBegin
  2
Block_3
 70
     0
 10
0.0
 20
0.0
 30
0.0
  3
Block_3
  1

  0
SPLINE
  5
90
330
8C
100
AcDbEntity
  8
Logo
100
AcDbSpline
210
0.0
220
0.0
230
1.0
 70
     9
 71
     3
 72
   131
 73
   127
 74
     0
 42
0.0000000001
 43
0.0000000001
 40
0.0
 40
0.0
 40
0.0
 40
0.0
 40
1.0
 40
1.0
 40
1.0
 40
2.0
 40
2.0
 40
2.0
 40
3.0
 40
3.0
 40
3.0
 40
4.0
 40
4.0
 40
4.0
 40
5.0
 40
5.0
 40
5.0
 40
6.0
 40
6.0
 40
6.0
 40
7.0
 40
7.0
 40
7.0
 40
8.0
 40
8.0
 40
8.0
 40
9.0
 40
9.0
 40
9.0
 40
10.0
 40
10.0
 40
10.0
 40
11.0
 40
11.0
 40
11.0
 40
12.0
 40
12.0
 40
12.0
 40
13.0
 40
13.0
 40
13.0
 40
14.0
 40
14.0
 40
14.0
 40
15.0
 40
15.0
 40
15.0
 40
16.0
 40
16.0
 40
16.0
 40
17.0
 40
17.0
 40
17.0
 40
18.0
 40
18.0
 40
18.0
 40
19.0
 40
19.0
 40
19.0
 40
20.0
 40
20.0
 40
20.0
 40
21.0
 40
21.0
 40
21.0
 40
22.0
 40
22.0
 40
22.0
 40
23.0
 40
23.0
 40
23.0
 40
24.0
 40
24.0
 40
24.0
 40
25.0
 40
25.0
 40
25.0
 40
26.0
 40
26.0
 40
26.0
 40
27.0
 40
27.0
 40
27.0
 40
28.0
 40
28.0
 40
28.0
 40
29.0
 40
29.0
 40
29.0
 40
30.0
 40
30.0
 40
30.0
 40
31.0
 40
31.0
 40
31.0
 40
32.0
 40
32.0
 40
32.0
 40
33.0
 40
33.0
 40
33.0
 40
34.0
 40
34.0
 40
34.0
 40
35.0
 40
35.0
 40
35.0
 40
36.0
 40
36.0
 40
36.0
 40
37.0
 40
37.0
 40
37.0
 40
38.0
 40
38.0
 40
38.0
 40
39.0
 40
39.0
 40
39.0
 40
40.0
 40
40.0
 40
40.0
 40
41.0
 40
41.0
 40
41.0
 40
42.0
 40
42.0
 40
42.0
 40
42.0
 10
76.70711803637877
 20
-172.9506835505123
 30
0.0
 10
76.70711803637877
 20
-172.9506835505123
 30
0.0
 10
76.70711803637877
 20
-166.320597289149
 30
0.0
 10
76.70711803637877
 20
-166.320597289149
 30
0.0
 10
77.90876734163392
 20
-167.3289767376816
 30
0.0
 10
79.21411402099508
 20
-168.085175196694
 30
0.0
 10
80.62298581968802
 20
-168.589192666186
 30
0.0
 10
82.03202987315519
 20
-169.0935546452266
 30
0.0
 10
83.45450979901483
 20
-169.3453911251983
 30
0.0
 10
84.89128687113829
 20
-169.3453911251983
 30
0.0
 10
85.73361271728186
 20
-169.3453911251983
 30
0.0
 10
86.46914060338271
 20
-169.2695990245228
 30
0.0
 10
87.09787052944081
 20
-169.1176703136233
 30
0.0
 10
87.72625594595039
 20
-168.9657416027238
 30
0.0
 10
88.25094398835394
 20
-168.7549017590265
 30
0.0
 10
88.67245142097425
 20
-168.48549529208
 30
0.0
 10
89.0937865988203
 20
-168.216433334682
 30
0.0
 10
89.40815156184935
 20
-167.898795530942
 30
0.0
 10
89.61520180051286
 20
-167.5325818808599
 30
0.0
 10
89.82242429395064
 20
-167.1667127403263
 30
0.0
 10
89.92612166805667
 20
-166.7694932308771
 30
0.0
 10
89.92612166805667
 20
-166.3412678620605
 30
0.0
 10
89.92612166805667
 20
-165.7611137823444
 30
0.0
 10
89.7602403204419
 20
-165.2429714213629
 30
0.0
 10
89.42882213476085
 20
-164.7871852886643
 30
0.0
 10
89.09723169430556
 20
-164.3313991559657
 30
0.0
 10
88.64471840231798
 20
-163.9100639781197
 30
0.0
 10
88.07162676834668
 20
-163.5231797551261
 30
0.0
 10
87.49836287960111
 20
-163.1366400416811
 30
0.0
 10
86.81812877603851
 20
-162.7638807101771
 30
0.0
 10
86.03075220288467
 20
-162.4045572510655
 30
0.0
 10
85.24354788450509
 20
-162.0455783015025
 30
0.0
 10
84.39398733784248
 20
-161.6793646514204
 30
0.0
 10
83.48224281767111
 20
-161.3062608103679
 30
0.0
 10
81.16179875358108
 20
-160.3395670172067
 30
0.0
 10
79.43167180088861
 20
-159.1585882848631
 30
0.0
 10
78.29203421436798
 20
-157.7633246133369
 30
0.0
 10
77.15256888262158
 20
-156.3684054513593
 30
0.0
 10
76.58275008936126
 20
-154.6834092495236
 30
0.0
 10
76.58275008936126
 20
-152.7079914982813
 30
0.0
 10
76.58275008936126
 20
-151.1611436254042
 30
0.0
 10
76.8934977021308
 20
-149.8313367680977
 30
0.0
 10
77.51516518244414
 20
-148.7194322002333
 30
0.0
 10
78.1366604079832
 20
-147.6076998871432
 30
0.0
 10
78.9826036043863
 20
-146.6925102714866
 30
0.0
 10
80.05333928120194
 20
-145.9740356080377
 30
0.0
 10
81.12355819369481
 20
-145.2560777089116
 30
0.0
 10
82.36344805883623
 20
-144.7277723162486
 30
0.0
 10
83.77231985752914
 20
-144.3891194300485
 30
0.0
 10
85.18136391099632
 20
-144.050811053397
 30
0.0
 10
86.67309025610951
 20
-143.881484610297
 30
0.0
 10
88.2478434024172
 20
-143.881484610297
 30
0.0
 10
89.79469127529439
 20
-143.881484610297
 30
0.0
 10
91.16566702364956
 20
-143.974674443173
 30
0.0
 10
92.36059839270847
 20
-144.1612263636993
 30
0.0
 10
93.55518525221885
 20
-144.3476060294513
 30
0.0
 10
94.65692678840175
 20
-144.6344102285983
 30
0.0
 10
95.66530623693436
 20
-145.0209499420434
 30
0.0
 10
95.66530623693436
 20
-145.0209499420434
 30
0.0
 10
95.66530623693436
 20
-151.2159206436196
 30
0.0
 10
95.66530623693436
 20
-151.2159206436196
 30
0.0
 10
95.16800670363855
 20
-150.8710665855461
 30
0.0
 10
94.62574867426024
 20
-150.5668646541986
 30
0.0
 10
94.03887665834792
 20
-150.3043483782225
 30
0.0
 10
93.45166013288709
 20
-150.042176611795
 30
0.0
 10
92.84756263954852
 20
-149.8244465771272
 30
0.0
 10
92.2258951592352
 20
-149.6518472933162
 30
0.0
 10
91.60439993369612
 20
-149.4792480095052
 30
0.0
 10
90.98600529409379
 20
-149.3514349670024
 30
0.0
 10
90.37157251429947
 20
-149.2684081658079
 30
0.0
 10
89.75679522495664
 20
-149.1853813646134
 30
0.0
 10
89.17302379498105
 20
-149.1440402187904
 30
0.0
 10
88.62077498869551
 20
-149.1440402187904
 30
0.0
 10
87.86095917942366
 20
-149.1440402187904
 30
0.0
 10
87.17038978940532
 20
-149.2167317335291
 30
0.0
 10
86.54872230909198
 20
-149.3617702534582
 30
0.0
 10
85.92722708355292
 20
-149.5068087733872
 30
0.0
 10
85.40202227682659
 20
-149.710758426114
 30
0.0
 10
84.97414141755855
 20
-149.9729301925415
 30
0.0
 10
84.54574379396772
 20
-150.2354464685175
 30
0.0
 10
84.21432560828669
 20
-150.5496391767723
 30
0.0
 10
83.97954235096692
 20
-150.9155083173058
 30
0.0
 10
83.74458683887288
 20
-151.2817219673879
 30
0.0
 10
83.62728133760013
 20
-151.6927218587782
 30
0.0
 10
83.62728133760013
 20
-152.1485079914768
 30
0.0
 10
83.62728133760013
 20
-152.6456352699983
 30
0.0
 10
83.75853947558814
 20
-153.0910861162411
 30
0.0
 10
84.02105575156419
 20
-153.4848605302052
 30
0.0
 10
84.2832275179917
 20
-153.8786349441692
 30
0.0
 10
84.65615910426999
 20
-154.2513942756732
 30
0.0
 10
85.13985051039908
 20
-154.6034830342658
 30
0.0
 10
85.62319740697963
 20
-154.9559163024068
 30
0.0
 10
86.21024167766618
 20
-155.3014593795774
 30
0.0
 10
86.90098332245879
 20
-155.6397677562289
 30
0.0
 10
87.59155271247712
 20
-155.978420642429
 30
0.0
 10
88.37203909466046
 20
-156.3270643055363
 30
0.0
 10
89.24227021423458
 20
-156.6860432550993
 30
0.0
 10
90.43013913754872
 20
-157.1831705336208
 30
0.0
 10
91.49708520933058
 20
-157.7116481810582
 30
0.0
 10
92.44345293912871
 20
-158.2711316878627
 30
0.0
 10
93.38947615937833
 20
-158.8302706851188
 30
0.0
 10
94.20096840092893
 20
-159.4624457066622
 30
0.0
 10
94.87792966378052
 20
-160.1669677333958
 30
0.0
 10
95.55454641708358
 20
-160.8711452505808
 30
0.0
 10
96.0725165232909
 20
-161.6759195559352
 30
0.0
 10
96.43201223717673
 20
-162.5806016303618
 30
0.0
 10
96.79099118673976
 20
-163.4856282143369
 30
0.0
 10
96.97065291629554
 20
-164.5384493946293
 30
0.0
 10
96.97065291629554
 20
-165.7404432094329
 30
0.0
 10
96.97065291629554
 20
-167.3978786473866
 30
0.0
 10
96.65628795326648
 20
-168.7896972234276
 30
0.0
 10
96.02790253675692
 20
-169.9152099184587
 30
0.0
 10
95.39917261069883
 20
-171.0414116325869
 30
0.0
 10
94.54651147809949
 20
-171.952983897984
 30
0.0
 10
93.46905786508761
 20
-172.6502712241985
 30
0.0
 10
92.3916042520757
 20
-173.3479030599616
 30
0.0
 10
91.13810625976757
 20
-173.8488199435169
 30
0.0
 10
89.70856388816313
 20
-174.1523328557675
 30
0.0
 10
88.27884926178446
 20
-174.4561902775665
 30
0.0
 10
86.76955292969649
 20
-174.608118988466
 30
0.0
 10
85.18136391099632
 20
-174.608118988466
 30
0.0
 10
83.55131698215037
 20
-174.608118988466
 30
0.0
 10
82.00085175901369
 20
-174.4699706595075
 30
0.0
 10
80.52979598681201
 20
-174.1936740015904
 30
0.0
 10
79.05874021461032
 20
-173.9177218532219
 30
0.0
 10
77.78457164939067
 20
-173.5032768663464
 30
0.0
 10
76.70711803637877
 20
-172.9506835505123
 30
0.0
  0
HATCH
  5
91
330
8C
100
AcDbEntity
  8
Logo
 62
   177
420
  3682696
440
 33554687
100
AcDbHatch
 10
0.0
 20
0.0
 30
0.0
210
0.0
220
0.0
230
1.0
  2
SOLID
 70
     1
 71
     1
 91
        1
 92
        1
 93
        1
 72
     4
 94
        3
 73
     0
 74
     0
 95
      131
 96
      127
 40
0.0
 40
0.0
 40
0.0
 40
0.0
 40
1.0
 40
1.0
 40
1.0
 40
2.0
 40
2.0
 40
2.0
 40
3.0
 40
3.0
 40
3.0
 40
4.0
 40
4.0
 40
4.0
 40
5.0
 40
5.0
 40
5.0
 40
6.0
 40
6.0
 40
6.0
 40
7.0
 40
7.0
 40
7.0
 40
8.0
 40
8.0
 40
8.0
 40
9.0
 40
9.0
 40
9.0
 40
10.0
 40
10.0
 40
10.0
 40
11.0
 40
11.0
 40
11.0
 40
12.0
 40
12.0
 40
12.0
 40
13.0
 40
13.0
 40
13.0
 40
14.0
 40
14.0
 40
14.0
 40
15.0
 40
15.0
 40
15.0
 40
16.0
 40
16.0
 40
16.0
 40
17.0
 40
17.0
 40
17.0
 40
18.0
 40
18.0
 40
18.0
 40
19.0
 40
19.0
 40
19.0
 40
20.0
 40
20.0
 40
20.0
 40
21.0
 40
21.0
 40
21.0
 40
22.0
 40
22.0
 40
22.0
 40
23.0
 40
23.0
 40
23.0
 40
24.0
 40
24.0
 40
24.0
 40
25.0
 40
25.0
 40
25.0
 40
26.0
 40
26.0
 40
26.0
 40
27.0
 40
27.0
 40
27.0
 40
28.0
 40
28.0
 40
28.0
 40
29.0
 40
29.0
 40
29.0
 40
30.0
 40
30.0
 40
30.0
 40
31.0
 40
31.0
 40
31.0
 40
32.0
 40
32.0
 40
32.0
 40
33.0
 40
33.0
 40
33.0
 40
34.0
 40
34.0
 40
34.0
 40
35.0
 40
35.0
 40
35.0
 40
36.0
 40
36.0
 40
36.0
 40
37.0
 40
37.0
 40
37.0
 40
38.0
 40
38.0
 40
38.0
 40
39.0
 40
39.0
 40
39.0
 40
40.0
 40
40.0
 40
40.0
 40
41.0
 40
41.0
 40
41.0
 40
42.0
 40
42.0
 40
42.0
 40
42.0
 10
76.70711803637877
 20
-172.9506835505123
 10
76.70711803637877
 20
-172.9506835505123
 10
76.70711803637877
 20
-166.320597289149
 10
76.70711803637877
 20
-166.320597289149
 10
77.90876734163392
 20
-167.3289767376816
 10
79.21411402099508
 20
-168.085175196694
 10
80.62298581968802
 20
-168.589192666186
 10
82.03202987315519
 20
-169.0935546452266
 10
83.45450979901483
 20
-169.3453911251983
 10
84.89128687113829
 20
-169.3453911251983
 10
85.73361271728186
 20
-169.3453911251983
 10
86.46914060338271
 20
-169.2695990245228
 10
87.09787052944081
 20
-169.1176703136233
 10
87.72625594595039
 20
-168.9657416027238
 10
88.25094398835394
 20
-168.7549017590265
 10
88.67245142097425
 20
-168.48549529208
 10
89.0937865988203
 20
-168.216433334682
 10
89.40815156184935
 20
-167.898795530942
 10
89.61520180051286
 20
-167.5325818808599
 10
89.82242429395064
 20
-167.1667127403263
 10
89.92612166805667
 20
-166.7694932308771
 10
89.92612166805667
 20
-166.3412678620605
 10
89.92612166805667
 20
-165.7611137823444
 10
89.7602403204419
 20
-165.2429714213629
 10
89.42882213476085
 20
-164.7871852886643
 10
89.09723169430556
 20
-164.3313991559657
 10
88.64471840231798
 20
-163.9100639781197
 10
88.07162676834668
 20
-163.5231797551261
 10
87.49836287960111
 20
-163.1366400416811
 10
86.81812877603851
 20
-162.7638807101771
 10
86.03075220288467
 20
-162.4045572510655
 10
85.24354788450509
 20
-162.0455783015025
 10
84.39398733784248
 20
-161.6793646514204
 10
83.48224281767111
 20
-161.3062608103679
 10
81.16179875358108
 20
-160.3395670172067
 10
79.43167180088861
 20
-159.1585882848631
 10
78.29203421436798
 20
-157.7633246133369
 10
77.15256888262158
 20
-156.3684054513593
 10
76.58275008936126
 20
-154.6834092495236
 10
76.58275008936126
 20
-152.7079914982813
 10
76.58275008936126
 20
-151.1611436254042
 10
76.8934977021308
 20
-149.8313367680977
 10
77.51516518244414
 20
-148.7194322002333
 10
78.1366604079832
 20
-147.6076998871432
 10
78.9826036043863
 20
-146.6925102714866
 10
80.05333928120194
 20
-145.9740356080377
 10
81.12355819369481
 20
-145.2560777089116
 10
82.36344805883623
 20
-144.7277723162486
 10
83.77231985752914
 20
-144.3891194300485
 10
85.18136391099632
 20
-144.050811053397
 10
86.67309025610951
 20
-143.881484610297
 10
88.2478434024172
 20
-143.881484610297
 10
89.79469127529439
 20
-143.881484610297
 10
91.16566702364956
 20
-143.974674443173
 10
92.36059839270847
 20
-144.1612263636993
 10
93.55518525221885
 20
-144.3476060294513
 10
94.65692678840175
 20
-144.6344102285983
 10
95.66530623693436
 20
-145.0209499420434
 10
95.66530623693436
 20
-145.0209499420434
 10
95.66530623693436
 20
-151.2159206436196
 10
95.66530623693436
 20
-151.2159206436196
 10
95.16800670363855
 20
-150.8710665855461
 10
94.62574867426024
 20
-150.5668646541986
 10
94.03887665834792
 20
-150.3043483782225
 10
93.45166013288709
 20
-150.042176611795
 10
92.84756263954852
 20
-149.8244465771272
 10
92.2258951592352
 20
-149.6518472933162
 10
91.60439993369612
 20
-149.4792480095052
 10
90.98600529409379
 20
-149.3514349670024
 10
90.37157251429947
 20
-149.2684081658079
 10
89.75679522495664
 20
-149.1853813646134
 10
89.17302379498105
 20
-149.1440402187904
 10
88.62077498869551
 20
-149.1440402187904
 10
87.86095917942366
 20
-149.1440402187904
 10
87.17038978940532
 20
-149.2167317335291
 10
86.54872230909198
 20
-149.3617702534582
 10
85.92722708355292
 20
-149.5068087733872
 10
85.40202227682659
 20
-149.710758426114
 10
84.97414141755855
 20
-149.9729301925415
 10
84.54574379396772
 20
-150.2354464685175
 10
84.21432560828669
 20
-150.5496391767723
 10
83.97954235096692
 20
-150.9155083173058
 10
83.74458683887288
 20
-151.2817219673879
 10
83.62728133760013
 20
-151.6927218587782
 10
83.62728133760013
 20
-152.1485079914768
 10
83.62728133760013
 20
-152.6456352699983
 10
83.75853947558814
 20
-153.0910861162411
 10
84.02105575156419
 20
-153.4848605302052
 10
84.2832275179917
 20
-153.8786349441692
 10
84.65615910426999
 20
-154.2513942756732
 10
85.13985051039908
 20
-154.6034830342658
 10
85.62319740697963
 20
-154.9559163024068
 10
86.21024167766618
 20
-155.3014593795774
 10
86.90098332245879
 20
-155.6397677562289
 10
87.59155271247712
 20
-155.978420642429
 10
88.37203909466046
 20
-156.3270643055363
 10
89.24227021423458
 20
-156.6860432550993
 10
90.43013913754872
 20
-157.1831705336208
 10
91.49708520933058
 20
-157.7116481810582
 10
92.44345293912871
 20
-158.2711316878627
 10
93.38947615937833
 20
-158.8302706851188
 10
94.20096840092893
 20
-159.4624457066622
 10
94.87792966378052
 20
-160.1669677333958
 10
95.55454641708358
 20
-160.8711452505808
 10
96.0725165232909
 20
-161.6759195559352
 10
96.43201223717673
 20
-162.5806016303618
 10
96.79099118673976
 20
-163.4856282143369
 10
96.97065291629554
 20
-164.5384493946293
 10
96.97065291629554
 20
-165.7404432094329
 10
96.97065291629554
 20
-167.3978786473866
 10
96.65628795326648
 20
-168.7896972234276
 10
96.02790253675692
 20
-169.9152099184587
 10
95.39917261069883
 20
-171.0414116325869
 10
94.54651147809949
 20
-171.952983897984
 10
93.46905786508761
 20
-172.6502712241985
 10
92.3916042520757
 20
-173.3479030599616
 10
91.13810625976757
 20
-173.8488199435169
 10
89.70856388816313
 20
-174.1523328557675
 10
88.27884926178446
 20
-174.4561902775665
 10
86.76955292969649
 20
-174.608118988466
 10
85.18136391099632
 20
-174.608118988466
 10
83.55131698215037
 20
-174.608118988466
 10
82.00085175901369
 20
-174.4699706595075
 10
80.52979598681201
 20
-174.1936740015904
 10
79.05874021461032
 20
-173.9177218532219
 10
77.78457164939067
 20
-173.5032768663464
 10
76.70711803637877
 20
-172.9506835505123
 97
        0
 97
        1
330
90
 75
     2
 76
     1
 98
        1
 10
0.0
 20
0.0
450
        0
451
        0
460
0.0
461
0.0
452
        0
462
0.0
453
        0
470

  0
SPLINE
  5
92
330
8C
100
AcDbEntity
  8
Logo
100
AcDbSpline
210
0.0
220
0.0
230
1.0
 70
    11
 71
     3
 72
    35
 73
    31
 74
     0
 42
0.0000000001
 43
0.0000000001
 40
0.0
 40
0.0
 40
0.0
 40
0.0
 40
1.0
 40
1.0
 40
1.0
 40
2.0
 40
2.0
 40
2.0
 40
3.0
 40
3.0
 40
3.0
 40
4.0
 40
4.0
 40
4.0
 40
5.0
 40
5.0
 40
5.0
 40
6.0
 40
6.0
 40
6.0
 40
7.0
 40
7.0
 40
7.0
 40
8.0
 40
8.0
 40
8.0
 40
9.0
 40
9.0
 40
9.0
 40
10.0
 40
10.0
 40
10.0
 40
10.0
 10
119.036661754095
 20
-149.8278916726125
 30
0.0
 10
119.036661754095
 20
-149.8278916726125
 30
0.0
 10
108.5528916829312
 20
-149.8278916726125
 30
0.0
 10
108.5528916829312
 20
-149.8278916726125
 30
0.0
 10
108.5528916829312
 20
-149.8278916726125
 30
0.0
 10
108.5528916829312
 20
-157.1211588148863
 30
0.0
 10
108.5528916829312
 20
-157.1211588148863
 30
0.0
 10
108.5528916829312
 20
-157.1211588148863
 30
0.0
 10
118.1874457169809
 20
-157.1211588148863
 30
0.0
 10
118.1874457169809
 20
-157.1211588148863
 30
0.0
 10
118.1874457169809
 20
-157.1211588148863
 30
0.0
 10
118.1874457169809
 20
-162.5495957709945
 30
0.0
 10
118.1874457169809
 20
-162.5495957709945
 30
0.0
 10
118.1874457169809
 20
-162.5495957709945
 30
0.0
 10
108.5528916829312
 20
-162.5495957709945
 30
0.0
 10
108.5528916829312
 20
-162.5495957709945
 30
0.0
 10
108.5528916829312
 20
-162.5495957709945
 30
0.0
 10
108.5528916829312
 20
-174.090321137033
 30
0.0
 10
108.5528916829312
 20
-174.090321137033
 30
0.0
 10
108.5528916829312
 20
-174.090321137033
 30
0.0
 10
101.8602769385106
 20
-174.090321137033
 30
0.0
 10
101.8602769385106
 20
-174.090321137033
 30
0.0
 10
101.8602769385106
 20
-174.090321137033
 30
0.0
 10
101.8602769385106
 20
-144.3787841435928
 30
0.0
 10
101.8602769385106
 20
-144.3787841435928
 30
0.0
 10
101.8602769385106
 20
-144.3787841435928
 30
0.0
 10
119.036661754095
 20
-144.3787841435928
 30
0.0
 10
119.036661754095
 20
-144.3787841435928
 30
0.0
 10
119.036661754095
 20
-144.3787841435928
 30
0.0
 10
119.036661754095
 20
-149.8278916726125
 30
0.0
 10
119.036661754095
 20
-149.8278916726125
 30
0.0
  0
HATCH
  5
93
330
8C
100
AcDbEntity
  8
Logo
 62
   177
420
  3682696
440
 33554687
100
AcDbHatch
 10
0.0
 20
0.0
 30
0.0
210
0.0
220
0.0
230
1.0
  2
SOLID
 70
     1
 71
     1
 91
        1
 92
        1
 93
        1
 72
     4
 94
        3
 73
     0
 74
     0
 95
       35
 96
       31
 40
0.0
 40
0.0
 40
0.0
 40
0.0
 40
1.0
 40
1.0
 40
1.0
 40
2.0
 40
2.0
 40
2.0
 40
3.0
 40
3.0
 40
3.0
 40
4.0
 40
4.0
 40
4.0
 40
5.0
 40
5.0
 40
5.0
 40
6.0
 40
6.0
 40
6.0
 40
7.0
 40
7.0
 40
7.0
 40
8.0
 40
8.0
 40
8.0
 40
9.0
 40
9.0
 40
9.0
 40
10.0
 40
10.0
 40
10.0
 40
10.0
 10
119.036661754095
 20
-149.8278916726125
 10
119.036661754095
 20
-149.8278916726125
 10
108.5528916829312
 20
-149.8278916726125
 10
108.5528916829312
 20
-149.8278916726125
 10
108.5528916829312
 20
-149.8278916726125
 10
108.5528916829312
 20
-157.1211588148863
 10
108.5528916829312
 20
-157.1211588148863
 10
108.5528916829312
 20
-157.1211588148863
 10
118.1874457169809
 20
-157.1211588148863
 10
118.1874457169809
 20
-157.1211588148863
 10
118.1874457169809
 20
-157.1211588148863
 10
118.1874457169809
 20
-162.5495957709945
 10
118.1874457169809
 20
-162.5495957709945
 10
118.1874457169809
 20
-162.5495957709945
 10
108.5528916829312
 20
-162.5495957709945
 10
108.5528916829312
 20
-162.5495957709945
 10
108.5528916829312
 20
-162.5495957709945
 10
108.5528916829312
 20
-174.090321137033
 10
108.5528916829312
 20
-174.090321137033
 10
108.5528916829312
 20
-174.090321137033
 10
101.8602769385106
 20
-174.090321137033
 10
101.8602769385106
 20
-174.090321137033
 10
101.8602769385106
 20
-174.090321137033
 10
101.8602769385106
 20
-144.3787841435928
 10
101.8602769385106
 20
-144.3787841435928
 10
101.8602769385106
 20
-144.3787841435928
 10
119.036661754095
 20
-144.3787841435928
 10
119.036661754095
 20
-144.3787841435928
 10
119.036661754095
 20
-144.3787841435928
 10
119.036661754095
 20
-149.8278916726125
 10
119.036661754095
 20
-149.8278916726125
 97
        0
 97
        1
330
92
 75
     2
 76
     1
 98
        1
 10
0.0
 20
0.0
450
        0
451
        0
460
0.0
461
0.0
452
        0
462
0.0
453
        0
470

  0
ENDBLK
  5
8F
330
8C
100
AcDbEntity
  8
0
100
AcDbBlockEnd
  0
BLOCK
  5
96
330
94
100
AcDbEntity
  8
0
100
AcDbBlockBegin
  2
Block_4
 70
     0
 10
0.0
 20
0.0
 30
0.0
  3
Block_4
  1

  0
INSERT
  5
99
330
94
100
AcDbEntity
  8
Logo
100
AcDbBlockReference
  2
Block_5
 10
0.0
 20
0.0
 30
0.0
  0
ENDBLK
  5
97
330
94
100
AcDbEntity
  8
0
100
AcDbBlockEnd
  0
BLOCK
  5
9A
330
98
100
AcDbEntity
  8
0
100
AcDbBlockBegin
  2
Block_5
 70
     0
 10
0.0
 20
0.0
 30
0.0
  3
Block_5
  1

  0
SPLINE
  5
9C
330
98
100
AcDbEntity
  8
Logo
100
AcDbSpline
210
0.0
220
0.0
230
1.0
 70
     9
 71
     3
 72
    26
 73
    22
 74
     0
 42
0.0000000001
 43
0.0000000001
 40
0.0
 40
0.0
 40
0.0
 40
0.0
 40
1.0
 40
1.0
 40
1.0
 40
2.0
 40
2.0
 40
2.0
 40
3.0
 40
3.0
 40
3.0
 40
4.0
 40
4.0
 40
4.0
 40
5.0
 40
5.0
 40
5.0
 40
6.0
 40
6.0
 40
6.0
 40
7.0
 40
7.0
 40
7.0
 40
7.0
 10
78.50890297516444
 20
-177.5695230675868
 30
0.0
 10
78.50890297516444
 20
-177.1602457239391
 30
0.0
 10
78.38591306634102
 20
-176.8667235885958
 30
0.0
 10
78.14010550346845
 20
-176.6889566615569
 30
0.0
 10
77.89412568582161
 20
-176.511189734518
 30
0.0
 10
77.51275361560445
 20
-176.4223062709986
 30
0.0
 10
76.99581703804271
 20
-176.4223062709986
 30
0.0
 10
76.99581703804271
 20
-176.4223062709986
 30
0.0
 10
76.16124265674094
 20
-176.4223062709986
 30
0.0
 10
76.16124265674094
 20
-176.4223062709986
 30
0.0
 10
76.16124265674094
 20
-176.4223062709986
 30
0.0
 10
76.16124265674094
 20
-178.8455864353233
 30
0.0
 10
76.16124265674094
 20
-178.8455864353233
 30
0.0
 10
76.16124265674094
 20
-178.8455864353233
 30
0.0
 10
76.8934977021308
 20
-178.8455864353233
 30
0.0
 10
76.8934977021308
 20
-178.8455864353233
 30
0.0
 10
77.42834877621582
 20
-178.8455864353233
 30
0.0
 10
77.83142494799005
 20
-178.7360323988924
 30
0.0
 10
78.10238170790497
 20
-178.517268835579
 30
0.0
 10
78.37351072259412
 20
-178.2981607627171
 30
0.0
 10
78.50890297516444
 20
-177.9822455067197
 30
0.0
 10
78.50890297516444
 20
-177.5695230675868
 30
0.0
  0
SPLINE
  5
9D
330
98
100
AcDbEntity
  8
Logo
100
AcDbSpline
210
0.0
220
0.0
230
1.0
 70
     9
 71
     3
 72
    38
 73
    34
 74
     0
 42
0.0000000001
 43
0.0000000001
 40
0.0
 40
0.0
 40
0.0
 40
0.0
 40
1.0
 40
1.0
 40
1.0
 40
2.0
 40
2.0
 40
2.0
 40
3.0
 40
3.0
 40
3.0
 40
4.0
 40
4.0
 40
4.0
 40
5.0
 40
5.0
 40
5.0
 40
6.0
 40
6.0
 40
6.0
 40
7.0
 40
7.0
 40
7.0
 40
8.0
 40
8.0
 40
8.0
 40
9.0
 40
9.0
 40
9.0
 40
10.0
 40
10.0
 40
10.0
 40
11.0
 40
11.0
 40
11.0
 40
11.0
 10
79.23599037732642
 20
-177.5264593740211
 30
0.0
 10
79.23599037732642
 20
-177.799310936453
 30
0.0
 10
79.18293590685357
 20
-178.0504583973276
 30
0.0
 10
79.07699922068214
 20
-178.2802462661938
 30
0.0
 10
78.9710625345107
 20
-178.51003413506
 30
0.0
 10
78.81947833315972
 20
-178.7084716350104
 30
0.0
 10
78.6220743618549
 20
-178.8752142564965
 30
0.0
 10
78.42467039055009
 20
-179.0423013875311
 30
0.0
 10
78.18403047090538
 20
-179.1732150159706
 30
0.0
 10
77.90049911246931
 20
-179.2682996513635
 30
0.0
 10
77.616795499259
 20
-179.3633842867563
 30
0.0
 10
77.29743514777634
 20
-179.4109266044528
 30
0.0
 10
76.94207354847282
 20
-179.4109266044528
 30
0.0
 10
76.94207354847282
 20
-179.4109266044528
 30
0.0
 10
76.16124265674094
 20
-179.4109266044528
 30
0.0
 10
76.16124265674094
 20
-179.4109266044528
 30
0.0
 10
76.16124265674094
 20
-179.4109266044528
 30
0.0
 10
76.16124265674094
 20
-181.6295680969537
 30
0.0
 10
76.16124265674094
 20
-181.6295680969537
 30
0.0
 10
76.16124265674094
 20
-181.6295680969537
 30
0.0
 10
75.46119925413818
 20
-181.6295680969537
 30
0.0
 10
75.46119925413818
 20
-181.6295680969537
 30
0.0
 10
75.46119925413818
 20
-181.6295680969537
 30
0.0
 10
75.46119925413818
 20
-175.8407741530884
 30
0.0
 10
75.46119925413818
 20
-175.8407741530884
 30
0.0
 10
75.46119925413818
 20
-175.8407741530884
 30
0.0
 10
77.12518037351384
 20
-175.8407741530884
 30
0.0
 10
77.12518037351384
 20
-175.8407741530884
 30
0.0
 10
77.80351967455954
 20
-175.8407741530884
 30
0.0
 10
78.3249348762521
 20
-175.9861571825659
 30
0.0
 10
78.68942597859152
 20
-176.276923241521
 30
0.0
 10
79.0537448261567
 20
-176.5676893004761
 30
0.0
 10
79.23599037732642
 20
-176.9842013446428
 30
0.0
 10
79.23599037732642
 20
-177.5264593740211
 30
0.0
  0
HATCH
  5
9E
330
98
100
AcDbEntity
  8
Logo
 62
    18
420
        0
440
 33554687
100
AcDbHatch
 10
0.0
 20
0.0
 30
0.0
210
0.0
220
0.0
230
1.0
  2
SOLID
 70
     1
 71
     1
 91
        2
 92
        1
 93
        1
 72
     4
 94
        3
 73
     0
 74
     0
 95
       26
 96
       22
 40
0.0
 40
0.0
 40
0.0
 40
0.0
 40
1.0
 40
1.0
 40
1.0
 40
2.0
 40
2.0
 40
2.0
 40
3.0
 40
3.0
 40
3.0
 40
4.0
 40
4.0
 40
4.0
 40
5.0
 40
5.0
 40
5.0
 40
6.0
 40
6.0
 40
6.0
 40
7.0
 40
7.0
 40
7.0
 40
7.0
 10
78.50890297516444
 20
-177.5695230675868
 10
78.50890297516444
 20
-177.1602457239391
 10
78.38591306634102
 20
-176.8667235885958
 10
78.14010550346845
 20
-176.6889566615569
 10
77.89412568582161
 20
-176.511189734518
 10
77.51275361560445
 20
-176.4223062709986
 10
76.99581703804271
 20
-176.4223062709986
 10
76.99581703804271
 20
-176.4223062709986
 10
76.16124265674094
 20
-176.4223062709986
 10
76.16124265674094
 20
-176.4223062709986
 10
76.16124265674094
 20
-176.4223062709986
 10
76.16124265674094
 20
-178.8455864353233
 10
76.16124265674094
 20
-178.8455864353233
 10
76.16124265674094
 20
-178.8455864353233
 10
76.8934977021308
 20
-178.8455864353233
 10
76.8934977021308
 20
-178.8455864353233
 10
77.42834877621582
 20
-178.8455864353233
 10
77.83142494799005
 20
-178.7360323988924
 10
78.10238170790497
 20
-178.517268835579
 10
78.37351072259412
 20
-178.2981607627171
 10
78.50890297516444
 20
-177.9822455067197
 10
78.50890297516444
 20
-177.5695230675868
 97
        0
 97
        1
330
9C
 92
        1
 93
        1
 72
     4
 94
        3
 73
     0
 74
     0
 95
       38
 96
       34
 40
0.0
 40
0.0
 40
0.0
 40
0.0
 40
1.0
 40
1.0
 40
1.0
 40
2.0
 40
2.0
 40
2.0
 40
3.0
 40
3.0
 40
3.0
 40
4.0
 40
4.0
 40
4.0
 40
5.0
 40
5.0
 40
5.0
 40
6.0
 40
6.0
 40
6.0
 40
7.0
 40
7.0
 40
7.0
 40
8.0
 40
8.0
 40
8.0
 40
9.0
 40
9.0
 40
9.0
 40
10.0
 40
10.0
 40
10.0
 40
11.0
 40
11.0
 40
11.0
 40
11.0
 10
79.23599037732642
 20
-177.5264593740211
 10
79.23599037732642
 20
-177.799310936453
 10
79.18293590685357
 20
-178.0504583973276
 10
79.07699922068214
 20
-178.2802462661938
 10
78.9710625345107
 20
-178.51003413506
 10
78.81947833315972
 20
-178.7084716350104
 10
78.6220743618549
 20
-178.8752142564965
 10
78.42467039055009
 20
-179.0423013875311
 10
78.18403047090538
 20
-179.1732150159706
 10
77.90049911246931
 20
-179.2682996513635
 10
77.616795499259
 20
-179.3633842867563
 10
77.29743514777634
 20
-179.4109266044528
 10
76.94207354847282
 20
-179.4109266044528
 10
76.94207354847282
 20
-179.4109266044528
 10
76.16124265674094
 20
-179.4109266044528
 10
76.16124265674094
 20
-179.4109266044528
 10
76.16124265674094
 20
-179.4109266044528
 10
76.16124265674094
 20
-181.6295680969537
 10
76.16124265674094
 20
-181.6295680969537
 10
76.16124265674094
 20
-181.6295680969537
 10
75.46119925413818
 20
-181.6295680969537
 10
75.46119925413818
 20
-181.6295680969537
 10
75.46119925413818
 20
-181.6295680969537
 10
75.46119925413818
 20
-175.8407741530884
 10
75.46119925413818
 20
-175.8407741530884
 10
75.46119925413818
 20
-175.8407741530884
 10
77.12518037351384
 20
-175.8407741530884
 10
77.12518037351384
 20
-175.8407741530884
 10
77.80351967455954
 20
-175.8407741530884
 10
78.3249348762521
 20
-175.9861571825659
 10
78.68942597859152
 20
-176.276923241521
 10
79.0537448261567
 20
-176.5676893004761
 10
79.23599037732642
 20
-176.9842013446428
 10
79.23599037732642
 20
-177.5264593740211
 97
        0
 97
        1
330
9D
 75
     2
 76
     1
 98
        1
 10
0.0
 20
0.0
450
        0
451
        0
460
0.0
461
0.0
452
        0
462
0.0
453
        0
470

  0
SPLINE
  5
9F
330
98
100
AcDbEntity
  8
Logo
100
AcDbSpline
210
0.0
220
0.0
230
1.0
 70
    11
 71
     3
 72
    26
 73
    22
 74
     0
 42
0.0000000001
 43
0.0000000001
 40
0.0
 40
0.0
 40
0.0
 40
0.0
 40
1.0
 40
1.0
 40
1.0
 40
2.0
 40
2.0
 40
2.0
 40
3.0
 40
3.0
 40
3.0
 40
4.0
 40
4.0
 40
4.0
 40
5.0
 40
5.0
 40
5.0
 40
6.0
 40
6.0
 40
6.0
 40
7.0
 40
7.0
 40
7.0
 40
7.0
 10
83.09845918061428
 20
-176.4223062709986
 30
0.0
 10
83.09845918061428
 20
-176.4223062709986
 30
0.0
 10
83.09845918061428
 20
-178.6085638659381
 30
0.0
 10
83.09845918061428
 20
-178.6085638659381
 30
0.0
 10
83.09845918061428
 20
-178.6085638659381
 30
0.0
 10
84.0406927958301
 20
-178.6085638659381
 30
0.0
 10
84.0406927958301
 20
-178.6085638659381
 30
0.0
 10
84.48579913252439
 20
-178.6085638659381
 30
0.0
 10
84.83323701221184
 20
-178.5021104154439
 30
0.0
 10
85.08266192534392
 20
-178.2881699858099
 30
0.0
 10
85.33225909325027
 20
-178.0749185752729
 30
0.0
 10
85.45697154981631
 20
-177.7831189876723
 30
0.0
 10
85.45697154981631
 20
-177.4131157325564
 30
0.0
 10
85.45697154981631
 20
-177.0903102855885
 30
0.0
 10
85.34741751338536
 20
-176.8443304679417
 30
0.0
 10
85.12848169529775
 20
-176.6755207891644
 30
0.0
 10
84.90954587721011
 20
-176.5067111103872
 30
0.0
 10
84.57571612468941
 20
-176.4223062709986
 30
0.0
 10
84.12699243773563
 20
-176.4223062709986
 30
0.0
 10
84.12699243773563
 20
-176.4223062709986
 30
0.0
 10
83.09845918061428
 20
-176.4223062709986
 30
0.0
 10
83.09845918061428
 20
-176.4223062709986
 30
0.0
  0
SPLINE
  5
A0
330
98
100
AcDbEntity
  8
Logo
100
AcDbSpline
210
0.0
220
0.0
230
1.0
 70
    11
 71
     3
 72
    74
 73
    70
 74
     0
 42
0.0000000001
 43
0.0000000001
 40
0.0
 40
0.0
 40
0.0
 40
0.0
 40
1.0
 40
1.0
 40
1.0
 40
2.0
 40
2.0
 40
2.0
 40
3.0
 40
3.0
 40
3.0
 40
4.0
 40
4.0
 40
4.0
 40
5.0
 40
5.0
 40
5.0
 40
6.0
 40
6.0
 40
6.0
 40
7.0
 40
7.0
 40
7.0
 40
8.0
 40
8.0
 40
8.0
 40
9.0
 40
9.0
 40
9.0
 40
10.0
 40
10.0
 40
10.0
 40
11.0
 40
11.0
 40
11.0
 40
12.0
 40
12.0
 40
12.0
 40
13.0
 40
13.0
 40
13.0
 40
14.0
 40
14.0
 40
14.0
 40
15.0
 40
15.0
 40
15.0
 40
16.0
 40
16.0
 40
16.0
 40
17.0
 40
17.0
 40
17.0
 40
18.0
 40
18.0
 40
18.0
 40
19.0
 40
19.0
 40
19.0
 40
20.0
 40
20.0
 40
20.0
 40
21.0
 40
21.0
 40
21.0
 40
22.0
 40
22.0
 40
22.0
 40
23.0
 40
23.0
 40
23.0
 40
23.0
 10
85.67780217042082
 20
-181.6295680969537
 30
0.0
 10
85.67780217042082
 20
-181.6295680969537
 30
0.0
 10
84.8645873811276
 20
-180.1219943126084
 30
0.0
 10
84.8645873811276
 20
-180.1219943126084
 30
0.0
 10
84.76416284773257
 20
-179.9352701373079
 30
0.0
 10
84.67252330782493
 20
-179.7816188786657
 30
0.0
 10
84.5900132709532
 20
-179.6613850462305
 30
0.0
 10
84.5073309793072
 20
-179.5411512137953
 30
0.0
 10
84.42395966856414
 20
-179.4460665784024
 30
0.0
 10
84.33955482917552
 20
-179.3761311400518
 30
0.0
 10
84.25532224456118
 20
-179.3061957017012
 30
0.0
 10
84.16368270465353
 20
-179.2576198553592
 30
0.0
 10
84.06498071900111
 20
-179.2307481105742
 30
0.0
 10
83.96627873334871
 20
-179.2038763657893
 30
0.0
 10
83.85052352504432
 20
-179.1904404933968
 30
0.0
 10
83.71771509408793
 20
-179.1904404933968
 30
0.0
 10
83.71771509408793
 20
-179.1904404933968
 30
0.0
 10
83.09845918061428
 20
-179.1904404933968
 30
0.0
 10
83.09845918061428
 20
-179.1904404933968
 30
0.0
 10
83.09845918061428
 20
-179.1904404933968
 30
0.0
 10
83.09845918061428
 20
-181.6295680969537
 30
0.0
 10
83.09845918061428
 20
-181.6295680969537
 30
0.0
 10
83.09845918061428
 20
-181.6295680969537
 30
0.0
 10
82.39841577801151
 20
-181.6295680969537
 30
0.0
 10
82.39841577801151
 20
-181.6295680969537
 30
0.0
 10
82.39841577801151
 20
-181.6295680969537
 30
0.0
 10
82.39841577801151
 20
-175.8407741530884
 30
0.0
 10
82.39841577801151
 20
-175.8407741530884
 30
0.0
 10
82.39841577801151
 20
-175.8407741530884
 30
0.0
 10
84.26686331443676
 20
-175.8407741530884
 30
0.0
 10
84.26686331443676
 20
-175.8407741530884
 30
0.0
 10
84.56124672365136
 20
-175.8407741530884
 30
0.0
 10
84.82686358556412
 20
-175.8769476556835
 30
0.0
 10
85.06388615494932
 20
-175.9486056417767
 30
0.0
 10
85.30073646956024
 20
-176.0202636278699
 30
0.0
 10
85.50279131977013
 20
-176.1218939446848
 30
0.0
 10
85.66970619603049
 20
-176.2528075731243
 30
0.0
 10
85.83662107229086
 20
-176.3840657111123
 30
0.0
 10
85.96391735047083
 20
-176.5435736320794
 30
0.0
 10
86.05193954011896
 20
-176.7320203551225
 30
0.0
 10
86.1399617297671
 20
-176.9204670781657
 30
0.0
 10
86.18388669720403
 20
-177.1295843741204
 30
0.0
 10
86.18388669720403
 20
-177.3593722429865
 30
0.0
 10
86.18388669720403
 20
-177.5712456153294
 30
0.0
 10
86.14978025190005
 20
-177.765204491149
 30
0.0
 10
86.08156736129211
 20
-177.9409043608967
 30
0.0
 10
86.01335447068416
 20
-178.116948740193
 30
0.0
 10
85.91551375890308
 20
-178.2740450943204
 30
0.0
 10
85.78804522594882
 20
-178.4121934232789
 30
0.0
 10
85.66057669299459
 20
-178.5503417522374
 30
0.0
 10
85.50537514138408
 20
-178.6654079414447
 30
0.0
 10
85.32226831634304
 20
-178.7567029718039
 30
0.0
 10
85.13933374607628
 20
-178.8483425117115
 30
0.0
 10
84.93469507425244
 20
-178.9155218736739
 30
0.0
 10
84.7085245556458
 20
-178.9585855672395
 30
0.0
 10
84.7085245556458
 20
-178.9585855672395
 30
0.0
 10
84.7085245556458
 20
-178.9747775160202
 30
0.0
 10
84.7085245556458
 20
-178.9747775160202
 30
0.0
 10
84.82324623530461
 20
-179.0216308146196
 30
0.0
 10
84.94003497225458
 20
-179.1077582017508
 30
0.0
 10
85.05854625694716
 20
-179.2335041869625
 30
0.0
 10
85.1768852868655
 20
-179.3589056626255
 30
0.0
 10
85.2953965715581
 20
-179.5259927936602
 30
0.0
 10
85.41390785625068
 20
-179.7340765609692
 30
0.0
 10
85.41390785625068
 20
-179.7340765609692
 30
0.0
 10
86.47999265416125
 20
-181.6295680969537
 30
0.0
 10
86.47999265416125
 20
-181.6295680969537
 30
0.0
 10
86.47999265416125
 20
-181.6295680969537
 30
0.0
 10
85.67780217042082
 20
-181.6295680969537
 30
0.0
 10
85.67780217042082
 20
-181.6295680969537
 30
0.0
  0
HATCH
  5
A1
330
98
100
AcDbEntity
  8
Logo
 62
    18
420
        0
440
 33554687
100
AcDbHatch
 10
0.0
 20
0.0
 30
0.0
210
0.0
220
0.0
230
1.0
  2
SOLID
 70
     1
 71
     1
 91
        2
 92
        1
 93
        1
 72
     4
 94
        3
 73
     0
 74
     0
 95
       26
 96
       22
 40
0.0
 40
0.0
 40
0.0
 40
0.0
 40
1.0
 40
1.0
 40
1.0
 40
2.0
 40
2.0
 40
2.0
 40
3.0
 40
3.0
 40
3.0
 40
4.0
 40
4.0
 40
4.0
 40
5.0
 40
5.0
 40
5.0
 40
6.0
 40
6.0
 40
6.0
 40
7.0
 40
7.0
 40
7.0
 40
7.0
 10
83.09845918061428
 20
-176.4223062709986
 10
83.09845918061428
 20
-176.4223062709986
 10
83.09845918061428
 20
-178.6085638659381
 10
83.09845918061428
 20
-178.6085638659381
 10
83.09845918061428
 20
-178.6085638659381
 10
84.0406927958301
 20
-178.6085638659381
 10
84.0406927958301
 20
-178.6085638659381
 10
84.48579913252439
 20
-178.6085638659381
 10
84.83323701221184
 20
-178.5021104154439
 10
85.08266192534392
 20
-178.2881699858099
 10
85.33225909325027
 20
-178.0749185752729
 10
85.45697154981631
 20
-177.7831189876723
 10
85.45697154981631
 20
-177.4131157325564
 10
85.45697154981631
 20
-177.0903102855885
 10
85.34741751338536
 20
-176.8443304679417
 10
85.12848169529775
 20
-176.6755207891644
 10
84.90954587721011
 20
-176.5067111103872
 10
84.57571612468941
 20
-176.4223062709986
 10
84.12699243773563
 20
-176.4223062709986
 10
84.12699243773563
 20
-176.4223062709986
 10
83.09845918061428
 20
-176.4223062709986
 10
83.09845918061428
 20
-176.4223062709986
 97
        0
 97
        1
330
9F
 92
        1
 93
        1
 72
     4
 94
        3
 73
     0
 74
     0
 95
       74
 96
       70
 40
0.0
 40
0.0
 40
0.0
 40
0.0
 40
1.0
 40
1.0
 40
1.0
 40
2.0
 40
2.0
 40
2.0
 40
3.0
 40
3.0
 40
3.0
 40
4.0
 40
4.0
 40
4.0
 40
5.0
 40
5.0
 40
5.0
 40
6.0
 40
6.0
 40
6.0
 40
7.0
 40
7.0
 40
7.0
 40
8.0
 40
8.0
 40
8.0
 40
9.0
 40
9.0
 40
9.0
 40
10.0
 40
10.0
 40
10.0
 40
11.0
 40
11.0
 40
11.0
 40
12.0
 40
12.0
 40
12.0
 40
13.0
 40
13.0
 40
13.0
 40
14.0
 40
14.0
 40
14.0
 40
15.0
 40
15.0
 40
15.0
 40
16.0
 40
16.0
 40
16.0
 40
17.0
 40
17.0
 40
17.0
 40
18.0
 40
18.0
 40
18.0
 40
19.0
 40
19.0
 40
19.0
 40
20.0
 40
20.0
 40
20.0
 40
21.0
 40
21.0
 40
21.0
 40
22.0
 40
22.0
 40
22.0
 40
23.0
 40
23.0
 40
23.0
 40
23.0
 10
85.67780217042082
 20
-181.6295680969537
 10
85.67780217042082
 20
-181.6295680969537
 10
84.8645873811276
 20
-180.1219943126084
 10
84.8645873811276
 20
-180.1219943126084
 10
84.76416284773257
 20
-179.9352701373079
 10
84.67252330782493
 20
-179.7816188786657
 10
84.5900132709532
 20
-179.6613850462305
 10
84.5073309793072
 20
-179.5411512137953
 10
84.42395966856414
 20
-179.4460665784024
 10
84.33955482917552
 20
-179.3761311400518
 10
84.25532224456118
 20
-179.3061957017012
 10
84.16368270465353
 20
-179.2576198553592
 10
84.06498071900111
 20
-179.2307481105742
 10
83.96627873334871
 20
-179.2038763657893
 10
83.85052352504432
 20
-179.1904404933968
 10
83.71771509408793
 20
-179.1904404933968
 10
83.71771509408793
 20
-179.1904404933968
 10
83.09845918061428
 20
-179.1904404933968
 10
83.09845918061428
 20
-179.1904404933968
 10
83.09845918061428
 20
-179.1904404933968
 10
83.09845918061428
 20
-181.6295680969537
 10
83.09845918061428
 20
-181.6295680969537
 10
83.09845918061428
 20
-181.6295680969537
 10
82.39841577801151
 20
-181.6295680969537
 10
82.39841577801151
 20
-181.6295680969537
 10
82.39841577801151
 20
-181.6295680969537
 10
82.39841577801151
 20
-175.8407741530884
 10
82.39841577801151
 20
-175.8407741530884
 10
82.39841577801151
 20
-175.8407741530884
 10
84.26686331443676
 20
-175.8407741530884
 10
84.26686331443676
 20
-175.8407741530884
 10
84.56124672365136
 20
-175.8407741530884
 10
84.82686358556412
 20
-175.8769476556835
 10
85.06388615494932
 20
-175.9486056417767
 10
85.30073646956024
 20
-176.0202636278699
 10
85.50279131977013
 20
-176.1218939446848
 10
85.66970619603049
 20
-176.2528075731243
 10
85.83662107229086
 20
-176.3840657111123
 10
85.96391735047083
 20
-176.5435736320794
 10
86.05193954011896
 20
-176.7320203551225
 10
86.1399617297671
 20
-176.9204670781657
 10
86.18388669720403
 20
-177.1295843741204
 10
86.18388669720403
 20
-177.3593722429865
 10
86.18388669720403
 20
-177.5712456153294
 10
86.14978025190005
 20
-177.765204491149
 10
86.08156736129211
 20
-177.9409043608967
 10
86.01335447068416
 20
-178.116948740193
 10
85.91551375890308
 20
-178.2740450943204
 10
85.78804522594882
 20
-178.4121934232789
 10
85.66057669299459
 20
-178.5503417522374
 10
85.50537514138408
 20
-178.6654079414447
 10
85.32226831634304
 20
-178.7567029718039
 10
85.13933374607628
 20
-178.8483425117115
 10
84.93469507425244
 20
-178.9155218736739
 10
84.7085245556458
 20
-178.9585855672395
 10
84.7085245556458
 20
-178.9585855672395
 10
84.7085245556458
 20
-178.9747775160202
 10
84.7085245556458
 20
-178.9747775160202
 10
84.82324623530461
 20
-179.0216308146196
 10
84.94003497225458
 20
-179.1077582017508
 10
85.05854625694716
 20
-179.2335041869625
 10
85.1768852868655
 20
-179.3589056626255
 10
85.2953965715581
 20
-179.5259927936602
 10
85.41390785625068
 20
-179.7340765609692
 10
85.41390785625068
 20
-179.7340765609692
 10
86.47999265416125
 20
-181.6295680969537
 10
86.47999265416125
 20
-181.6295680969537
 10
86.47999265416125
 20
-181.6295680969537
 10
85.67780217042082
 20
-181.6295680969537
 10
85.67780217042082
 20
-181.6295680969537
 97
        0
 97
        1
330
A0
 75
     2
 76
     1
 98
        1
 10
0.0
 20
0.0
450
        0
451
        0
460
0.0
461
0.0
452
        0
462
0.0
453
        0
470

  0
SPLINE
  5
A2
330
98
100
AcDbEntity
  8
Logo
100
AcDbSpline
210
0.0
220
0.0
230
1.0
 70
    11
 71
     3
 72
    53
 73
    49
 74
     0
 42
0.0000000001
 43
0.0000000001
 40
0.0
 40
0.0
 40
0.0
 40
0.0
 40
1.0
 40
1.0
 40
1.0
 40
2.0
 40
2.0
 40
2.0
 40
3.0
 40
3.0
 40
3.0
 40
4.0
 40
4.0
 40
4.0
 40
5.0
 40
5.0
 40
5.0
 40
6.0
 40
6.0
 40
6.0
 40
7.0
 40
7.0
 40
7.0
 40
8.0
 40
8.0
 40
8.0
 40
9.0
 40
9.0
 40
9.0
 40
10.0
 40
10.0
 40
10.0
 40
11.0
 40
11.0
 40
11.0
 40
12.0
 40
12.0
 40
12.0
 40
13.0
 40
13.0
 40
13.0
 40
14.0
 40
14.0
 40
14.0
 40
15.0
 40
15.0
 40
15.0
 40
16.0
 40
16.0
 40
16.0
 40
16.0
 10
94.0040811939469
 20
-178.7325873034071
 30
0.0
 10
94.0040811939469
 20
-178.3556938573208
 30
0.0
 10
93.95636662147619
 20
-178.0184190093148
 30
0.0
 10
93.8612819860833
 20
-177.7204182498407
 30
0.0
 10
93.7661973506904
 20
-177.4220729808181
 30
0.0
 10
93.6270154930863
 20
-177.1709255199434
 30
0.0
 10
93.44390866804529
 20
-176.9662868481195
 30
0.0
 10
93.26097409777851
 20
-176.7616481762957
 30
0.0
 10
93.03566485304317
 20
-176.6055853508139
 30
0.0
 10
92.76815318861352
 20
-176.4977538621255
 30
0.0
 10
92.50081377895813
 20
-176.3902668829858
 30
0.0
 10
92.19471704509368
 20
-176.3361788838673
 30
0.0
 10
91.85003524179444
 20
-176.3361788838673
 30
0.0
 10
91.51982283953325
 20
-176.3361788838673
 30
0.0
 10
91.21923825844518
 20
-176.3947455071166
 30
0.0
 10
90.94810924375604
 20
-176.511189734518
 30
0.0
 10
90.67715248384113
 20
-176.627978471468
 30
0.0
 10
90.44546981245808
 20
-176.7923095261144
 30
0.0
 10
90.25357799392967
 20
-177.0038383889088
 30
0.0
 10
90.06151392062699
 20
-177.2157117612516
 30
0.0
 10
89.91251354088992
 20
-177.4696152985145
 30
0.0
 10
89.8065768547185
 20
-177.765893510246
 30
0.0
 10
89.70064016854706
 20
-178.0621717219775
 30
0.0
 10
89.64775795284849
 20
-178.3898003026248
 30
0.0
 10
89.64775795284849
 20
-178.7487792521878
 30
0.0
 10
89.64775795284849
 20
-179.1112032972361
 30
0.0
 10
89.69702281828755
 20
-179.4388318778833
 30
0.0
 10
89.79589705871422
 20
-179.731320484581
 30
0.0
 10
89.89459904436662
 20
-180.0241536008273
 30
0.0
 10
90.03722599745598
 20
-180.275301061702
 30
0.0
 10
90.22395017275652
 20
-180.4854518863022
 30
0.0
 10
90.41050209328281
 20
-180.695258201354
 30
0.0
 10
90.63581133801813
 20
-180.8568331796122
 30
0.0
 10
90.89970565218827
 20
-180.9698323115284
 30
0.0
 10
91.16359996635841
 20
-181.0831759529931
 30
0.0
 10
91.46246199970383
 20
-181.1396755189512
 30
0.0
 10
91.79629175222455
 20
-181.1396755189512
 30
0.0
 10
92.14441865100903
 20
-181.1396755189512
 30
0.0
 10
92.45585528287561
 20
-181.0848985007357
 30
0.0
 10
92.73042939305003
 20
-180.9753444643048
 30
0.0
 10
93.00517575799871
 20
-180.8657904278738
 30
0.0
 10
93.2366861746075
 20
-180.7080050546494
 30
0.0
 10
93.42513289765067
 20
-180.5012993255344
 30
0.0
 10
93.61357962069382
 20
-180.2949381059679
 30
0.0
 10
93.75706784765448
 20
-180.0427571164476
 30
0.0
 10
93.85594208808116
 20
-179.7447563569735
 30
0.0
 10
93.95464407373356
 20
-179.4471001070479
 30
0.0
 10
94.0040811939469
 20
-179.1094807494935
 30
0.0
 10
94.0040811939469
 20
-178.7325873034071
 30
0.0
  0
SPLINE
  5
A3
330
98
100
AcDbEntity
  8
Logo
100
AcDbSpline
210
0.0
220
0.0
230
1.0
 70
     9
 71
     3
 72
    53
 73
    49
 74
     0
 42
0.0000000001
 43
0.0000000001
 40
0.0
 40
0.0
 40
0.0
 40
0.0
 40
1.0
 40
1.0
 40
1.0
 40
2.0
 40
2.0
 40
2.0
 40
3.0
 40
3.0
 40
3.0
 40
4.0
 40
4.0
 40
4.0
 40
5.0
 40
5.0
 40
5.0
 40
6.0
 40
6.0
 40
6.0
 40
7.0
 40
7.0
 40
7.0
 40
8.0
 40
8.0
 40
8.0
 40
9.0
 40
9.0
 40
9.0
 40
10.0
 40
10.0
 40
10.0
 40
11.0
 40
11.0
 40
11.0
 40
12.0
 40
12.0
 40
12.0
 40
13.0
 40
13.0
 40
13.0
 40
14.0
 40
14.0
 40
14.0
 40
15.0
 40
15.0
 40
15.0
 40
16.0
 40
16.0
 40
16.0
 40
16.0
 10
94.73099634133461
 20
-178.6571397122801
 30
0.0
 10
94.73099634133461
 20
-179.1384195515695
 30
0.0
 10
94.66002737433846
 20
-179.5680229585802
 30
0.0
 10
94.51826169512044
 20
-179.9469834619577
 30
0.0
 10
94.37632376112814
 20
-180.3255994557866
 30
0.0
 10
94.17633596820939
 20
-180.6477158836575
 30
0.0
 10
93.91778155204139
 20
-180.9133327455702
 30
0.0
 10
93.65939939064764
 20
-181.178949607483
 30
0.0
 10
93.35054658039501
 20
-181.3818657315643
 30
0.0
 10
92.99173988560623
 20
-181.5217366082654
 30
0.0
 10
92.63258868126895
 20
-181.6619519945151
 30
0.0
 10
92.23588593614243
 20
-181.7318874328656
 30
0.0
 10
91.80163165022667
 20
-181.7318874328656
 30
0.0
 10
91.36720510953667
 20
-181.7318874328656
 30
0.0
 10
90.97325844079836
 20
-181.6598849372239
 30
0.0
 10
90.61961938923746
 20
-181.5165689650375
 30
0.0
 10
90.26598033767657
 20
-181.3729084833026
 30
0.0
 10
89.96367320884589
 20
-181.171714906964
 30
0.0
 10
89.71235349319691
 20
-180.9133327455702
 30
0.0
 10
89.46103377754793
 20
-180.6549505841765
 30
0.0
 10
89.26621362785706
 20
-180.3462700286982
 30
0.0
 10
89.12806529889854
 20
-179.9872910791351
 30
0.0
 10
88.98991696994002
 20
-179.6283121295721
 30
0.0
 10
88.92084280546077
 20
-179.2335041869625
 30
0.0
 10
88.92084280546077
 20
-178.8025227417577
 30
0.0
 10
88.92084280546077
 20
-178.3501817045444
 30
0.0
 10
88.98888344129444
 20
-177.9364257367659
 30
0.0
 10
89.12548147728461
 20
-177.5612548384222
 30
0.0
 10
89.26173500372625
 20
-177.1860839400785
 30
0.0
 10
89.45827770115974
 20
-176.8639675122076
 30
0.0
 10
89.7151095695851
 20
-176.5949055548096
 30
0.0
 10
89.97159692846196
 20
-176.3254990878631
 30
0.0
 10
90.28492836284543
 20
-176.1163817919084
 30
0.0
 10
90.65475936318701
 20
-175.9675536669456
 30
0.0
 10
91.02441810875431
 20
-175.8183810324343
 30
0.0
 10
91.44437524840627
 20
-175.7439669699529
 30
0.0
 10
91.91480303691713
 20
-175.7439669699529
 30
0.0
 10
92.34182262231385
 20
-175.7439669699529
 30
0.0
 10
92.72870684530742
 20
-175.8176920133372
 30
0.0
 10
93.07511119634929
 20
-175.9647975905574
 30
0.0
 10
93.42151554739116
 20
-176.1119031677776
 30
0.0
 10
93.71762150434838
 20
-176.3155083109558
 30
0.0
 10
93.96360132199522
 20
-176.5759575296407
 30
0.0
 10
94.20940888486779
 20
-176.8360622387771
 30
0.0
 10
94.39888913655654
 20
-177.1440537751584
 30
0.0
 10
94.53169756751291
 20
-177.4992431196877
 30
0.0
 10
94.66450599846929
 20
-177.8547769737654
 30
0.0
 10
94.73099634133461
 20
-178.2406276681134
 30
0.0
 10
94.73099634133461
 20
-178.6571397122801
 30
0.0
  0
HATCH
  5
A4
330
98
100
AcDbEntity
  8
Logo
 62
    18
420
        0
440
 33554687
100
AcDbHatch
 10
0.0
 20
0.0
 30
0.0
210
0.0
220
0.0
230
1.0
  2
SOLID
 70
     1
 71
     1
 91
        2
 92
        1
 93
        1
 72
     4
 94
        3
 73
     0
 74
     0
 95
       53
 96
       49
 40
0.0
 40
0.0
 40
0.0
 40
0.0
 40
1.0
 40
1.0
 40
1.0
 40
2.0
 40
2.0
 40
2.0
 40
3.0
 40
3.0
 40
3.0
 40
4.0
 40
4.0
 40
4.0
 40
5.0
 40
5.0
 40
5.0
 40
6.0
 40
6.0
 40
6.0
 40
7.0
 40
7.0
 40
7.0
 40
8.0
 40
8.0
 40
8.0
 40
9.0
 40
9.0
 40
9.0
 40
10.0
 40
10.0
 40
10.0
 40
11.0
 40
11.0
 40
11.0
 40
12.0
 40
12.0
 40
12.0
 40
13.0
 40
13.0
 40
13.0
 40
14.0
 40
14.0
 40
14.0
 40
15.0
 40
15.0
 40
15.0
 40
16.0
 40
16.0
 40
16.0
 40
16.0
 10
94.0040811939469
 20
-178.7325873034071
 10
94.0040811939469
 20
-178.3556938573208
 10
93.95636662147619
 20
-178.0184190093148
 10
93.8612819860833
 20
-177.7204182498407
 10
93.7661973506904
 20
-177.4220729808181
 10
93.6270154930863
 20
-177.1709255199434
 10
93.44390866804529
 20
-176.9662868481195
 10
93.26097409777851
 20
-176.7616481762957
 10
93.03566485304317
 20
-176.6055853508139
 10
92.76815318861352
 20
-176.4977538621255
 10
92.50081377895813
 20
-176.3902668829858
 10
92.19471704509368
 20
-176.3361788838673
 10
91.85003524179444
 20
-176.3361788838673
 10
91.51982283953325
 20
-176.3361788838673
 10
91.21923825844518
 20
-176.3947455071166
 10
90.94810924375604
 20
-176.511189734518
 10
90.67715248384113
 20
-176.627978471468
 10
90.44546981245808
 20
-176.7923095261144
 10
90.25357799392967
 20
-177.0038383889088
 10
90.06151392062699
 20
-177.2157117612516
 10
89.91251354088992
 20
-177.4696152985145
 10
89.8065768547185
 20
-177.765893510246
 10
89.70064016854706
 20
-178.0621717219775
 10
89.64775795284849
 20
-178.3898003026248
 10
89.64775795284849
 20
-178.7487792521878
 10
89.64775795284849
 20
-179.1112032972361
 10
89.69702281828755
 20
-179.4388318778833
 10
89.79589705871422
 20
-179.731320484581
 10
89.89459904436662
 20
-180.0241536008273
 10
90.03722599745598
 20
-180.275301061702
 10
90.22395017275652
 20
-180.4854518863022
 10
90.41050209328281
 20
-180.695258201354
 10
90.63581133801813
 20
-180.8568331796122
 10
90.89970565218827
 20
-180.9698323115284
 10
91.16359996635841
 20
-181.0831759529931
 10
91.46246199970383
 20
-181.1396755189512
 10
91.79629175222455
 20
-181.1396755189512
 10
92.14441865100903
 20
-181.1396755189512
 10
92.45585528287561
 20
-181.0848985007357
 10
92.73042939305003
 20
-180.9753444643048
 10
93.00517575799871
 20
-180.8657904278738
 10
93.2366861746075
 20
-180.7080050546494
 10
93.42513289765067
 20
-180.5012993255344
 10
93.61357962069382
 20
-180.2949381059679
 10
93.75706784765448
 20
-180.0427571164476
 10
93.85594208808116
 20
-179.7447563569735
 10
93.95464407373356
 20
-179.4471001070479
 10
94.0040811939469
 20
-179.1094807494935
 10
94.0040811939469
 20
-178.7325873034071
 97
        0
 97
        1
330
A2
 92
        1
 93
        1
 72
     4
 94
        3
 73
     0
 74
     0
 95
       53
 96
       49
 40
0.0
 40
0.0
 40
0.0
 40
0.0
 40
1.0
 40
1.0
 40
1.0
 40
2.0
 40
2.0
 40
2.0
 40
3.0
 40
3.0
 40
3.0
 40
4.0
 40
4.0
 40
4.0
 40
5.0
 40
5.0
 40
5.0
 40
6.0
 40
6.0
 40
6.0
 40
7.0
 40
7.0
 40
7.0
 40
8.0
 40
8.0
 40
8.0
 40
9.0
 40
9.0
 40
9.0
 40
10.0
 40
10.0
 40
10.0
 40
11.0
 40
11.0
 40
11.0
 40
12.0
 40
12.0
 40
12.0
 40
13.0
 40
13.0
 40
13.0
 40
14.0
 40
14.0
 40
14.0
 40
15.0
 40
15.0
 40
15.0
 40
16.0
 40
16.0
 40
16.0
 40
16.0
 10
94.73099634133461
 20
-178.6571397122801
 10
94.73099634133461
 20
-179.1384195515695
 10
94.66002737433846
 20
-179.5680229585802
 10
94.51826169512044
 20
-179.9469834619577
 10
94.37632376112814
 20
-180.3255994557866
 10
94.17633596820939
 20
-180.6477158836575
 10
93.91778155204139
 20
-180.9133327455702
 10
93.65939939064764
 20
-181.178949607483
 10
93.35054658039501
 20
-181.3818657315643
 10
92.99173988560623
 20
-181.5217366082654
 10
92.63258868126895
 20
-181.6619519945151
 10
92.23588593614243
 20
-181.7318874328656
 10
91.80163165022667
 20
-181.7318874328656
 10
91.36720510953667
 20
-181.7318874328656
 10
90.97325844079836
 20
-181.6598849372239
 10
90.61961938923746
 20
-181.5165689650375
 10
90.26598033767657
 20
-181.3729084833026
 10
89.96367320884589
 20
-181.171714906964
 10
89.71235349319691
 20
-180.9133327455702
 10
89.46103377754793
 20
-180.6549505841765
 10
89.26621362785706
 20
-180.3462700286982
 10
89.12806529889854
 20
-179.9872910791351
 10
88.98991696994002
 20
-179.6283121295721
 10
88.92084280546077
 20
-179.2335041869625
 10
88.92084280546077
 20
-178.8025227417577
 10
88.92084280546077
 20
-178.3501817045444
 10
88.98888344129444
 20
-177.9364257367659
 10
89.12548147728461
 20
-177.5612548384222
 10
89.26173500372625
 20
-177.1860839400785
 10
89.45827770115974
 20
-176.8639675122076
 10
89.7151095695851
 20
-176.5949055548096
 10
89.97159692846196
 20
-176.3254990878631
 10
90.28492836284543
 20
-176.1163817919084
 10
90.65475936318701
 20
-175.9675536669456
 10
91.02441810875431
 20
-175.8183810324343
 10
91.44437524840627
 20
-175.7439669699529
 10
91.91480303691713
 20
-175.7439669699529
 10
92.34182262231385
 20
-175.7439669699529
 10
92.72870684530742
 20
-175.8176920133372
 10
93.07511119634929
 20
-175.9647975905574
 10
93.42151554739116
 20
-176.1119031677776
 10
93.71762150434838
 20
-176.3155083109558
 10
93.96360132199522
 20
-176.5759575296407
 10
94.20940888486779
 20
-176.8360622387771
 10
94.39888913655654
 20
-177.1440537751584
 10
94.53169756751291
 20
-177.4992431196877
 10
94.66450599846929
 20
-177.8547769737654
 10
94.73099634133461
 20
-178.2406276681134
 10
94.73099634133461
 20
-178.6571397122801
 97
        0
 97
        1
330
A3
 75
     2
 76
     1
 98
        1
 10
0.0
 20
0.0
450
        0
451
        0
460
0.0
461
0.0
452
        0
462
0.0
453
        0
470

  0
SPLINE
  5
A5
330
98
100
AcDbEntity
  8
Logo
100
AcDbSpline
210
0.0
220
0.0
230
1.0
 70
     9
 71
     3
 72
    41
 73
    37
 74
     0
 42
0.0000000001
 43
0.0000000001
 40
0.0
 40
0.0
 40
0.0
 40
0.0
 40
1.0
 40
1.0
 40
1.0
 40
2.0
 40
2.0
 40
2.0
 40
3.0
 40
3.0
 40
3.0
 40
4.0
 40
4.0
 40
4.0
 40
5.0
 40
5.0
 40
5.0
 40
6.0
 40
6.0
 40
6.0
 40
7.0
 40
7.0
 40
7.0
 40
8.0
 40
8.0
 40
8.0
 40
9.0
 40
9.0
 40
9.0
 40
10.0
 40
10.0
 40
10.0
 40
11.0
 40
11.0
 40
11.0
 40
12.0
 40
12.0
 40
12.0
 40
12.0
 10
99.33123234278873
 20
-179.599373327496
 30
0.0
 10
99.33123234278873
 20
-180.3104410356515
 30
0.0
 10
99.17671981027528
 20
-180.8433973072197
 30
0.0
 10
98.86803925479689
 20
-181.1989311612975
 30
0.0
 10
98.55935869931849
 20
-181.5541205058267
 30
0.0
 10
98.128549508888
 20
-181.7318874328656
 30
0.0
 10
97.57578393827968
 20
-181.7318874328656
 30
0.0
 10
97.36391056593681
 20
-181.7318874328656
 30
0.0
 10
97.18080374089577
 20
-181.7050156880807
 30
0.0
 10
97.0264634631566
 20
-181.6512721985108
 30
0.0
 10
97.0264634631566
 20
-181.6512721985108
 30
0.0
 10
97.0264634631566
 20
-181.0049722854779
 30
0.0
 10
97.0264634631566
 20
-181.0049722854779
 30
0.0
 10
97.18803844141481
 20
-181.0838649720901
 30
0.0
 10
97.37459036194108
 20
-181.1234835701705
 30
0.0
 10
97.58646373428394
 20
-181.1234835701705
 30
0.0
 10
97.76595320906546
 20
-181.1234835701705
 30
0.0
 10
97.92115476067596
 20
-181.09557829674
 30
0.0
 10
98.05224064388973
 20
-181.0397677498789
 30
0.0
 10
98.18332652710347
 20
-180.9843017125664
 30
0.0
 10
98.29184703488884
 20
-180.895418249047
 30
0.0
 10
98.37814667679436
 20
-180.7734618688691
 30
0.0
 10
98.4642740639256
 20
-180.6515054886913
 30
0.0
 10
98.52886960427404
 20
-180.4933756059183
 30
0.0
 10
98.57193329783967
 20
-180.2994167300987
 30
0.0
 10
98.61499699140528
 20
-180.1058023638277
 30
0.0
 10
98.6365288381881
 20
-179.8705023421851
 30
0.0
 10
98.6365288381881
 20
-179.5942056842681
 30
0.0
 10
98.6365288381881
 20
-179.5942056842681
 30
0.0
 10
98.6365288381881
 20
-175.8407741530884
 30
0.0
 10
98.6365288381881
 20
-175.8407741530884
 30
0.0
 10
98.6365288381881
 20
-175.8407741530884
 30
0.0
 10
99.33123234278873
 20
-175.8407741530884
 30
0.0
 10
99.33123234278873
 20
-175.8407741530884
 30
0.0
 10
99.33123234278873
 20
-175.8407741530884
 30
0.0
 10
99.33123234278873
 20
-179.599373327496
 30
0.0
 10
99.33123234278873
 20
-179.599373327496
 30
0.0
  0
HATCH
  5
A6
330
98
100
AcDbEntity
  8
Logo
 62
    18
420
        0
440
 33554687
100
AcDbHatch
 10
0.0
 20
0.0
 30
0.0
210
0.0
220
0.0
230
1.0
  2
SOLID
 70
     1
 71
     1
 91
        1
 92
        1
 93
        1
 72
     4
 94
        3
 73
     0
 74
     0
 95
       41
 96
       37
 40
0.0
 40
0.0
 40
0.0
 40
0.0
 40
1.0
 40
1.0
 40
1.0
 40
2.0
 40
2.0
 40
2.0
 40
3.0
 40
3.0
 40
3.0
 40
4.0
 40
4.0
 40
4.0
 40
5.0
 40
5.0
 40
5.0
 40
6.0
 40
6.0
 40
6.0
 40
7.0
 40
7.0
 40
7.0
 40
8.0
 40
8.0
 40
8.0
 40
9.0
 40
9.0
 40
9.0
 40
10.0
 40
10.0
 40
10.0
 40
11.0
 40
11.0
 40
11.0
 40
12.0
 40
12.0
 40
12.0
 40
12.0
 10
99.33123234278873
 20
-179.599373327496
 10
99.33123234278873
 20
-180.3104410356515
 10
99.17671981027528
 20
-180.8433973072197
 10
98.86803925479689
 20
-181.1989311612975
 10
98.55935869931849
 20
-181.5541205058267
 10
98.128549508888
 20
-181.7318874328656
 10
97.57578393827968
 20
-181.7318874328656
 10
97.36391056593681
 20
-181.7318874328656
 10
97.18080374089577
 20
-181.7050156880807
 10
97.0264634631566
 20
-181.6512721985108
 10
97.0264634631566
 20
-181.6512721985108
 10
97.0264634631566
 20
-181.0049722854779
 10
97.0264634631566
 20
-181.0049722854779
 10
97.18803844141481
 20
-181.0838649720901
 10
97.37459036194108
 20
-181.1234835701705
 10
97.58646373428394
 20
-181.1234835701705
 10
97.76595320906546
 20
-181.1234835701705
 10
97.92115476067596
 20
-181.09557829674
 10
98.05224064388973
 20
-181.0397677498789
 10
98.18332652710347
 20
-180.9843017125664
 10
98.29184703488884
 20
-180.895418249047
 10
98.37814667679436
 20
-180.7734618688691
 10
98.4642740639256
 20
-180.6515054886913
 10
98.52886960427404
 20
-180.4933756059183
 10
98.57193329783967
 20
-180.2994167300987
 10
98.61499699140528
 20
-180.1058023638277
 10
98.6365288381881
 20
-179.8705023421851
 10
98.6365288381881
 20
-179.5942056842681
 10
98.6365288381881
 20
-179.5942056842681
 10
98.6365288381881
 20
-175.8407741530884
 10
98.6365288381881
 20
-175.8407741530884
 10
98.6365288381881
 20
-175.8407741530884
 10
99.33123234278873
 20
-175.8407741530884
 10
99.33123234278873
 20
-175.8407741530884
 10
99.33123234278873
 20
-175.8407741530884
 10
99.33123234278873
 20
-179.599373327496
 10
99.33123234278873
 20
-179.599373327496
 97
        0
 97
        1
330
A5
 75
     2
 76
     1
 98
        1
 10
0.0
 20
0.0
450
        0
451
        0
460
0.0
461
0.0
452
        0
462
0.0
453
        0
470

  0
SPLINE
  5
A7
330
98
100
AcDbEntity
  8
Logo
100
AcDbSpline
210
0.0
220
0.0
230
1.0
 70
    11
 71
     3
 72
    41
 73
    37
 74
     0
 42
0.0000000001
 43
0.0000000001
 40
0.0
 40
0.0
 40
0.0
 40
0.0
 40
1.0
 40
1.0
 40
1.0
 40
2.0
 40
2.0
 40
2.0
 40
3.0
 40
3.0
 40
3.0
 40
4.0
 40
4.0
 40
4.0
 40
5.0
 40
5.0
 40
5.0
 40
6.0
 40
6.0
 40
6.0
 40
7.0
 40
7.0
 40
7.0
 40
8.0
 40
8.0
 40
8.0
 40
9.0
 40
9.0
 40
9.0
 40
10.0
 40
10.0
 40
10.0
 40
11.0
 40
11.0
 40
11.0
 40
12.0
 40
12.0
 40
12.0
 40
12.0
 10
102.7789116496525
 20
-181.6295680969537
 30
0.0
 10
102.7789116496525
 20
-181.6295680969537
 30
0.0
 10
102.7789116496525
 20
-175.8407741530884
 30
0.0
 10
102.7789116496525
 20
-175.8407741530884
 30
0.0
 10
102.7789116496525
 20
-175.8407741530884
 30
0.0
 10
105.8967230638036
 20
-175.8407741530884
 30
0.0
 10
105.8967230638036
 20
-175.8407741530884
 30
0.0
 10
105.8967230638036
 20
-175.8407741530884
 30
0.0
 10
105.8967230638036
 20
-176.4384982197792
 30
0.0
 10
105.8967230638036
 20
-176.4384982197792
 30
0.0
 10
105.8967230638036
 20
-176.4384982197792
 30
0.0
 10
103.4789550522553
 20
-176.4384982197792
 30
0.0
 10
103.4789550522553
 20
-176.4384982197792
 30
0.0
 10
103.4789550522553
 20
-176.4384982197792
 30
0.0
 10
103.4789550522553
 20
-178.4042697036628
 30
0.0
 10
103.4789550522553
 20
-178.4042697036628
 30
0.0
 10
103.4789550522553
 20
-178.4042697036628
 30
0.0
 10
105.7137884935368
 20
-178.4042697036628
 30
0.0
 10
105.7137884935368
 20
-178.4042697036628
 30
0.0
 10
105.7137884935368
 20
-178.4042697036628
 30
0.0
 10
105.7137884935368
 20
-178.9964816175773
 30
0.0
 10
105.7137884935368
 20
-178.9964816175773
 30
0.0
 10
105.7137884935368
 20
-178.9964816175773
 30
0.0
 10
103.4789550522553
 20
-178.9964816175773
 30
0.0
 10
103.4789550522553
 20
-178.9964816175773
 30
0.0
 10
103.4789550522553
 20
-178.9964816175773
 30
0.0
 10
103.4789550522553
 20
-181.0373561830393
 30
0.0
 10
103.4789550522553
 20
-181.0373561830393
 30
0.0
 10
103.4789550522553
 20
-181.0373561830393
 30
0.0
 10
106.0476182460575
 20
-181.0373561830393
 30
0.0
 10
106.0476182460575
 20
-181.0373561830393
 30
0.0
 10
106.0476182460575
 20
-181.0373561830393
 30
0.0
 10
106.0476182460575
 20
-181.6295680969537
 30
0.0
 10
106.0476182460575
 20
-181.6295680969537
 30
0.0
 10
106.0476182460575
 20
-181.6295680969537
 30
0.0
 10
102.7789116496525
 20
-181.6295680969537
 30
0.0
 10
102.7789116496525
 20
-181.6295680969537
 30
0.0
  0
HATCH
  5
A8
330
98
100
AcDbEntity
  8
Logo
 62
    18
420
        0
440
 33554687
100
AcDbHatch
 10
0.0
 20
0.0
 30
0.0
210
0.0
220
0.0
230
1.0
  2
SOLID
 70
     1
 71
     1
 91
        1
 92
        1
 93
        1
 72
     4
 94
        3
 73
     0
 74
     0
 95
       41
 96
       37
 40
0.0
 40
0.0
 40
0.0
 40
0.0
 40
1.0
 40
1.0
 40
1.0
 40
2.0
 40
2.0
 40
2.0
 40
3.0
 40
3.0
 40
3.0
 40
4.0
 40
4.0
 40
4.0
 40
5.0
 40
5.0
 40
5.0
 40
6.0
 40
6.0
 40
6.0
 40
7.0
 40
7.0
 40
7.0
 40
8.0
 40
8.0
 40
8.0
 40
9.0
 40
9.0
 40
9.0
 40
10.0
 40
10.0
 40
10.0
 40
11.0
 40
11.0
 40
11.0
 40
12.0
 40
12.0
 40
12.0
 40
12.0
 10
102.7789116496525
 20
-181.6295680969537
 10
102.7789116496525
 20
-181.6295680969537
 10
102.7789116496525
 20
-175.8407741530884
 10
102.7789116496525
 20
-175.8407741530884
 10
102.7789116496525
 20
-175.8407741530884
 10
105.8967230638036
 20
-175.8407741530884
 10
105.8967230638036
 20
-175.8407741530884
 10
105.8967230638036
 20
-175.8407741530884
 10
105.8967230638036
 20
-176.4384982197792
 10
105.8967230638036
 20
-176.4384982197792
 10
105.8967230638036
 20
-176.4384982197792
 10
103.4789550522553
 20
-176.4384982197792
 10
103.4789550522553
 20
-176.4384982197792
 10
103.4789550522553
 20
-176.4384982197792
 10
103.4789550522553
 20
-178.4042697036628
 10
103.4789550522553
 20
-178.4042697036628
 10
103.4789550522553
 20
-178.4042697036628
 10
105.7137884935368
 20
-178.4042697036628
 10
105.7137884935368
 20
-178.4042697036628
 10
105.7137884935368
 20
-178.4042697036628
 10
105.7137884935368
 20
-178.9964816175773
 10
105.7137884935368
 20
-178.9964816175773
 10
105.7137884935368
 20
-178.9964816175773
 10
103.4789550522553
 20
-178.9964816175773
 10
103.4789550522553
 20
-178.9964816175773
 10
103.4789550522553
 20
-178.9964816175773
 10
103.4789550522553
 20
-181.0373561830393
 10
103.4789550522553
 20
-181.0373561830393
 10
103.4789550522553
 20
-181.0373561830393
 10
106.0476182460575
 20
-181.0373561830393
 10
106.0476182460575
 20
-181.0373561830393
 10
106.0476182460575
 20
-181.0373561830393
 10
106.0476182460575
 20
-181.6295680969537
 10
106.0476182460575
 20
-181.6295680969537
 10
106.0476182460575
 20
-181.6295680969537
 10
102.7789116496525
 20
-181.6295680969537
 10
102.7789116496525
 20
-181.6295680969537
 97
        0
 97
        1
330
A7
 75
     2
 76
     1
 98
        1
 10
0.0
 20
0.0
450
        0
451
        0
460
0.0
461
0.0
452
        0
462
0.0
453
        0
470

  0
SPLINE
  5
A9
330
98
100
AcDbEntity
  8
Logo
100
AcDbSpline
210
0.0
220
0.0
230
1.0
 70
     9
 71
     3
 72
    74
 73
    70
 74
     0
 42
0.0000000001
 43
0.0000000001
 40
0.0
 40
0.0
 40
0.0
 40
0.0
 40
1.0
 40
1.0
 40
1.0
 40
2.0
 40
2.0
 40
2.0
 40
3.0
 40
3.0
 40
3.0
 40
4.0
 40
4.0
 40
4.0
 40
5.0
 40
5.0
 40
5.0
 40
6.0
 40
6.0
 40
6.0
 40
7.0
 40
7.0
 40
7.0
 40
8.0
 40
8.0
 40
8.0
 40
9.0
 40
9.0
 40
9.0
 40
10.0
 40
10.0
 40
10.0
 40
11.0
 40
11.0
 40
11.0
 40
12.0
 40
12.0
 40
12.0
 40
13.0
 40
13.0
 40
13.0
 40
14.0
 40
14.0
 40
14.0
 40
15.0
 40
15.0
 40
15.0
 40
16.0
 40
16.0
 40
16.0
 40
17.0
 40
17.0
 40
17.0
 40
18.0
 40
18.0
 40
18.0
 40
19.0
 40
19.0
 40
19.0
 40
20.0
 40
20.0
 40
20.0
 40
21.0
 40
21.0
 40
21.0
 40
22.0
 40
22.0
 40
22.0
 40
23.0
 40
23.0
 40
23.0
 40
23.0
 10
113.4208116035892
 20
-181.4194172723535
 30
0.0
 10
113.1875786392378
 20
-181.5238036655565
 30
0.0
 10
112.9264404014559
 20
-181.6016628235232
 30
0.0
 10
112.6373968902434
 20
-181.6536837653505
 30
0.0
 10
112.3483533790309
 20
-181.7057047071777
 30
0.0
 10
112.0441514476834
 20
-181.7318874328656
 30
0.0
 10
111.7247910962007
 20
-181.7318874328656
 30
0.0
 10
111.2831298549917
 20
-181.7318874328656
 30
0.0
 10
110.881087211863
 20
-181.6626410136121
 30
0.0
 10
110.5183186572662
 20
-181.5244926846536
 30
0.0
 10
110.1558946122179
 20
-181.3863443556951
 30
0.0
 10
109.8472140567396
 20
-181.1906629321329
 30
0.0
 10
109.5922769908311
 20
-180.9377929235155
 30
0.0
 10
109.3373399249226
 20
-180.6845784053497
 30
0.0
 10
109.1399359536178
 20
-180.3810654930991
 30
0.0
 10
109.0000650769166
 20
-180.0275986963125
 30
0.0
 10
108.859849690667
 20
-179.6741318995259
 30
0.0
 10
108.7899142523164
 20
-179.2817355237559
 30
0.0
 10
108.7899142523164
 20
-178.8510985880997
 30
0.0
 10
108.7899142523164
 20
-178.3880777548821
 30
0.0
 10
108.8681179198316
 20
-177.965364538842
 30
0.0
 10
109.0241807453134
 20
-177.5829589399793
 30
0.0
 10
109.1802435707952
 20
-177.2005533411165
 30
0.0
 10
109.3983181150115
 20
-176.8729247604693
 30
0.0
 10
109.6784043779623
 20
-176.6000731980374
 30
0.0
 10
109.9584906409131
 20
-176.3272216356057
 30
0.0
 10
110.2923203934338
 20
-176.1163817919084
 30
0.0
 10
110.6798936355245
 20
-175.9675536669456
 30
0.0
 10
111.0678113871636
 20
-175.8183810324343
 30
0.0
 10
111.4950032273346
 20
-175.7439669699529
 30
0.0
 10
111.9614691560374
 20
-175.7439669699529
 30
0.0
 10
112.51440698142
 20
-175.7439669699529
 30
0.0
 10
113.0008544639373
 20
-175.8194145610799
 30
0.0
 10
113.4208116035892
 20
-175.9699652337853
 30
0.0
 10
113.4208116035892
 20
-175.9699652337853
 30
0.0
 10
113.4208116035892
 20
-176.6431368916031
 30
0.0
 10
113.4208116035892
 20
-176.6431368916031
 30
0.0
 10
112.9719156618612
 20
-176.4384982197792
 30
0.0
 10
112.4909803321203
 20
-176.3361788838673
 30
0.0
 10
111.9776611048181
 20
-176.3361788838673
 30
0.0
 10
111.6007676587317
 20
-176.3361788838673
 30
0.0
 10
111.2607367343376
 20
-176.3947455071166
 30
0.0
 10
110.9572238220871
 20
-176.511189734518
 30
0.0
 10
110.6540554193851
 20
-176.627978471468
 30
0.0
 10
110.3953287484428
 20
-176.794032073857
 30
0.0
 10
110.1820773379059
 20
-177.0093505416851
 30
0.0
 10
109.9681369082718
 20
-177.2246690095133
 30
0.0
 10
109.8041503631739
 20
-177.4851182281981
 30
0.0
 10
109.6890841739666
 20
-177.7903536881913
 30
0.0
 10
109.5743624943078
 20
-178.0952446386359
 30
0.0
 10
109.5168293997041
 20
-178.434586543933
 30
0.0
 10
109.5168293997041
 20
-178.8080348945341
 30
0.0
 10
109.5168293997041
 20
-179.1632242390633
 30
0.0
 10
109.5709173988225
 20
-179.4856851764827
 30
0.0
 10
109.6784043779623
 20
-179.7743841781467
 30
0.0
 10
109.7862358666507
 20
-180.0634276893591
 30
0.0
 10
109.9405761443899
 20
-180.3083739783604
 30
0.0
 10
110.1414252111799
 20
-180.509567554699
 30
0.0
 10
110.3426187875185
 20
-180.7107611310376
 30
0.0
 10
110.5858425287771
 20
-180.8657904278738
 30
0.0
 10
110.8710964349558
 20
-180.9753444643048
 30
0.0
 10
111.156694850683
 20
-181.0848985007357
 30
0.0
 10
111.4750216735201
 20
-181.1396755189512
 30
0.0
 10
111.8271104321127
 20
-181.1396755189512
 30
0.0
 10
112.4300021420314
 20
-181.1396755189512
 30
0.0
 10
112.9612358658569
 20
-181.0228867820012
 30
0.0
 10
113.4208116035892
 20
-180.7896538176498
 30
0.0
 10
113.4208116035892
 20
-180.7896538176498
 30
0.0
 10
113.4208116035892
 20
-181.4194172723535
 30
0.0
 10
113.4208116035892
 20
-181.4194172723535
 30
0.0
  0
HATCH
  5
AA
330
98
100
AcDbEntity
  8
Logo
 62
    18
420
        0
440
 33554687
100
AcDbHatch
 10
0.0
 20
0.0
 30
0.0
210
0.0
220
0.0
230
1.0
  2
SOLID
 70
     1
 71
     1
 91
        1
 92
        1
 93
        1
 72
     4
 94
        3
 73
     0
 74
     0
 95
       74
 96
       70
 40
0.0
 40
0.0
 40
0.0
 40
0.0
 40
1.0
 40
1.0
 40
1.0
 40
2.0
 40
2.0
 40
2.0
 40
3.0
 40
3.0
 40
3.0
 40
4.0
 40
4.0
 40
4.0
 40
5.0
 40
5.0
 40
5.0
 40
6.0
 40
6.0
 40
6.0
 40
7.0
 40
7.0
 40
7.0
 40
8.0
 40
8.0
 40
8.0
 40
9.0
 40
9.0
 40
9.0
 40
10.0
 40
10.0
 40
10.0
 40
11.0
 40
11.0
 40
11.0
 40
12.0
 40
12.0
 40
12.0
 40
13.0
 40
13.0
 40
13.0
 40
14.0
 40
14.0
 40
14.0
 40
15.0
 40
15.0
 40
15.0
 40
16.0
 40
16.0
 40
16.0
 40
17.0
 40
17.0
 40
17.0
 40
18.0
 40
18.0
 40
18.0
 40
19.0
 40
19.0
 40
19.0
 40
20.0
 40
20.0
 40
20.0
 40
21.0
 40
21.0
 40
21.0
 40
22.0
 40
22.0
 40
22.0
 40
23.0
 40
23.0
 40
23.0
 40
23.0
 10
113.4208116035892
 20
-181.4194172723535
 10
113.1875786392378
 20
-181.5238036655565
 10
112.9264404014559
 20
-181.6016628235232
 10
112.6373968902434
 20
-181.6536837653505
 10
112.3483533790309
 20
-181.7057047071777
 10
112.0441514476834
 20
-181.7318874328656
 10
111.7247910962007
 20
-181.7318874328656
 10
111.2831298549917
 20
-181.7318874328656
 10
110.881087211863
 20
-181.6626410136121
 10
110.5183186572662
 20
-181.5244926846536
 10
110.1558946122179
 20
-181.3863443556951
 10
109.8472140567396
 20
-181.1906629321329
 10
109.5922769908311
 20
-180.9377929235155
 10
109.3373399249226
 20
-180.6845784053497
 10
109.1399359536178
 20
-180.3810654930991
 10
109.0000650769166
 20
-180.0275986963125
 10
108.859849690667
 20
-179.6741318995259
 10
108.7899142523164
 20
-179.2817355237559
 10
108.7899142523164
 20
-178.8510985880997
 10
108.7899142523164
 20
-178.3880777548821
 10
108.8681179198316
 20
-177.965364538842
 10
109.0241807453134
 20
-177.5829589399793
 10
109.1802435707952
 20
-177.2005533411165
 10
109.3983181150115
 20
-176.8729247604693
 10
109.6784043779623
 20
-176.6000731980374
 10
109.9584906409131
 20
-176.3272216356057
 10
110.2923203934338
 20
-176.1163817919084
 10
110.6798936355245
 20
-175.9675536669456
 10
111.0678113871636
 20
-175.8183810324343
 10
111.4950032273346
 20
-175.7439669699529
 10
111.9614691560374
 20
-175.7439669699529
 10
112.51440698142
 20
-175.7439669699529
 10
113.0008544639373
 20
-175.8194145610799
 10
113.4208116035892
 20
-175.9699652337853
 10
113.4208116035892
 20
-175.9699652337853
 10
113.4208116035892
 20
-176.6431368916031
 10
113.4208116035892
 20
-176.6431368916031
 10
112.9719156618612
 20
-176.4384982197792
 10
112.4909803321203
 20
-176.3361788838673
 10
111.9776611048181
 20
-176.3361788838673
 10
111.6007676587317
 20
-176.3361788838673
 10
111.2607367343376
 20
-176.3947455071166
 10
110.9572238220871
 20
-176.511189734518
 10
110.6540554193851
 20
-176.627978471468
 10
110.3953287484428
 20
-176.794032073857
 10
110.1820773379059
 20
-177.0093505416851
 10
109.9681369082718
 20
-177.2246690095133
 10
109.8041503631739
 20
-177.4851182281981
 10
109.6890841739666
 20
-177.7903536881913
 10
109.5743624943078
 20
-178.0952446386359
 10
109.5168293997041
 20
-178.434586543933
 10
109.5168293997041
 20
-178.8080348945341
 10
109.5168293997041
 20
-179.1632242390633
 10
109.5709173988225
 20
-179.4856851764827
 10
109.6784043779623
 20
-179.7743841781467
 10
109.7862358666507
 20
-180.0634276893591
 10
109.9405761443899
 20
-180.3083739783604
 10
110.1414252111799
 20
-180.509567554699
 10
110.3426187875185
 20
-180.7107611310376
 10
110.5858425287771
 20
-180.8657904278738
 10
110.8710964349558
 20
-180.9753444643048
 10
111.156694850683
 20
-181.0848985007357
 10
111.4750216735201
 20
-181.1396755189512
 10
111.8271104321127
 20
-181.1396755189512
 10
112.4300021420314
 20
-181.1396755189512
 10
112.9612358658569
 20
-181.0228867820012
 10
113.4208116035892
 20
-180.7896538176498
 10
113.4208116035892
 20
-180.7896538176498
 10
113.4208116035892
 20
-181.4194172723535
 10
113.4208116035892
 20
-181.4194172723535
 97
        0
 97
        1
330
A9
 75
     2
 76
     1
 98
        1
 10
0.0
 20
0.0
450
        0
451
        0
460
0.0
461
0.0
452
        0
462
0.0
453
        0
470

  0
SPLINE
  5
AB
330
98
100
AcDbEntity
  8
Logo
100
AcDbSpline
210
0.0
220
0.0
230
1.0
 70
    11
 71
     3
 72
    29
 73
    25
 74
     0
 42
0.0000000001
 43
0.0000000001
 40
0.0
 40
0.0
 40
0.0
 40
0.0
 40
1.0
 40
1.0
 40
1.0
 40
2.0
 40
2.0
 40
2.0
 40
3.0
 40
3.0
 40
3.0
 40
4.0
 40
4.0
 40
4.0
 40
5.0
 40
5.0
 40
5.0
 40
6.0
 40
6.0
 40
6.0
 40
7.0
 40
7.0
 40
7.0
 40
8.0
 40
8.0
 40
8.0
 40
8.0
 10
118.3603895103404
 20
-176.4384982197792
 30
0.0
 10
118.3603895103404
 20
-176.4384982197792
 30
0.0
 10
118.3603895103404
 20
-181.6295680969537
 30
0.0
 10
118.3603895103404
 20
-181.6295680969537
 30
0.0
 10
118.3603895103404
 20
-181.6295680969537
 30
0.0
 10
117.6603461077377
 20
-181.6295680969537
 30
0.0
 10
117.6603461077377
 20
-181.6295680969537
 30
0.0
 10
117.6603461077377
 20
-181.6295680969537
 30
0.0
 10
117.6603461077377
 20
-176.4384982197792
 30
0.0
 10
117.6603461077377
 20
-176.4384982197792
 30
0.0
 10
117.6603461077377
 20
-176.4384982197792
 30
0.0
 10
115.8296223668759
 20
-176.4384982197792
 30
0.0
 10
115.8296223668759
 20
-176.4384982197792
 30
0.0
 10
115.8296223668759
 20
-176.4384982197792
 30
0.0
 10
115.8296223668759
 20
-175.8407741530884
 30
0.0
 10
115.8296223668759
 20
-175.8407741530884
 30
0.0
 10
115.8296223668759
 20
-175.8407741530884
 30
0.0
 10
120.1859456079743
 20
-175.8407741530884
 30
0.0
 10
120.1859456079743
 20
-175.8407741530884
 30
0.0
 10
120.1859456079743
 20
-175.8407741530884
 30
0.0
 10
120.1859456079743
 20
-176.4384982197792
 30
0.0
 10
120.1859456079743
 20
-176.4384982197792
 30
0.0
 10
120.1859456079743
 20
-176.4384982197792
 30
0.0
 10
118.3603895103404
 20
-176.4384982197792
 30
0.0
 10
118.3603895103404
 20
-176.4384982197792
 30
0.0
  0
HATCH
  5
AC
330
98
100
AcDbEntity
  8
Logo
 62
    18
420
        0
440
 33554687
100
AcDbHatch
 10
0.0
 20
0.0
 30
0.0
210
0.0
220
0.0
230
1.0
  2
SOLID
 70
     1
 71
     1
 91
        1
 92
        1
 93
        1
 72
     4
 94
        3
 73
     0
 74
     0
 95
       29
 96
       25
 40
0.0
 40
0.0
 40
0.0
 40
0.0
 40
1.0
 40
1.0
 40
1.0
 40
2.0
 40
2.0
 40
2.0
 40
3.0
 40
3.0
 40
3.0
 40
4.0
 40
4.0
 40
4.0
 40
5.0
 40
5.0
 40
5.0
 40
6.0
 40
6.0
 40
6.0
 40
7.0
 40
7.0
 40
7.0
 40
8.0
 40
8.0
 40
8.0
 40
8.0
 10
118.3603895103404
 20
-176.4384982197792
 10
118.3603895103404
 20
-176.4384982197792
 10
118.3603895103404
 20
-181.6295680969537
 10
118.3603895103404
 20
-181.6295680969537
 10
118.3603895103404
 20
-181.6295680969537
 10
117.6603461077377
 20
-181.6295680969537
 10
117.6603461077377
 20
-181.6295680969537
 10
117.6603461077377
 20
-181.6295680969537
 10
117.6603461077377
 20
-176.4384982197792
 10
117.6603461077377
 20
-176.4384982197792
 10
117.6603461077377
 20
-176.4384982197792
 10
115.8296223668759
 20
-176.4384982197792
 10
115.8296223668759
 20
-176.4384982197792
 10
115.8296223668759
 20
-176.4384982197792
 10
115.8296223668759
 20
-175.8407741530884
 10
115.8296223668759
 20
-175.8407741530884
 10
115.8296223668759
 20
-175.8407741530884
 10
120.1859456079743
 20
-175.8407741530884
 10
120.1859456079743
 20
-175.8407741530884
 10
120.1859456079743
 20
-175.8407741530884
 10
120.1859456079743
 20
-176.4384982197792
 10
120.1859456079743
 20
-176.4384982197792
 10
120.1859456079743
 20
-176.4384982197792
 10
118.3603895103404
 20
-176.4384982197792
 10
118.3603895103404
 20
-176.4384982197792
 97
        0
 97
        1
330
AB
 75
     2
 76
     1
 98
        1
 10
0.0
 20
0.0
450
        0
451
        0
460
0.0
461
0.0
452
        0
462
0.0
453
        0
470

  0
ENDBLK
  5
9B
330
98
100
AcDbEntity
  8
0
100
AcDbBlockEnd
  0
BLOCK
  5
AF
330
AD
100
AcDbEntity
  8
0
100
AcDbBlockBegin
  2
Block_6
 70
     0
 10
0.0
 20
0.0
 30
0.0
  3
Block_6
  1

  0
SPLINE
  5
B1
330
AD
100
AcDbEntity
  8
Logo
100
AcDbSpline
210
0.0
220
0.0
230
1.0
 70
     9
 71
     3
 72
    38
 73
    34
 74
     0
 42
0.0000000001
 43
0.0000000001
 40
0.0
 40
0.0
 40
0.0
 40
0.0
 40
1.0
 40
1.0
 40
1.0
 40
2.0
 40
2.0
 40
2.0
 40
3.0
 40
3.0
 40
3.0
 40
4.0
 40
4.0
 40
4.0
 40
5.0
 40
5.0
 40
5.0
 40
6.0
 40
6.0
 40
6.0
 40
7.0
 40
7.0
 40
7.0
 40
8.0
 40
8.0
 40
8.0
 40
9.0
 40
9.0
 40
9.0
 40
10.0
 40
10.0
 40
10.0
 40
11.0
 40
11.0
 40
11.0
 40
11.0
 10
75.46499012365531
 20
-174.1082401642325
 30
0.0
 10
66.31265840092016
 20
-171.1514693304725
 30
0.0
 10
60.91716439041829
 20
-165.0195449622557
 30
0.0
 10
60.71052560207172
 20
-155.7131027683789
 30
0.0
 10
60.57606763400571
 20
-149.6563481771268
 30
0.0
 10
58.28760550865507
 20
-146.2307922936519
 30
0.0
 10
52.68850626714882
 20
-144.4663323420561
 30
0.0
 10
40.06217144317174
 20
-140.4873975278174
 30
0.0
 10
27.46541380327641
 20
-136.4135302000035
 30
0.0
 10
14.88587606241074
 20
-132.2890403769892
 30
0.0
 10
13.34418207124287
 20
-131.7835570852704
 30
0.0
 10
11.68036509149595
 20
-131.0201879251978
 30
0.0
 10
10.59178642270085
 20
-129.8808081649138
 30
0.0
 10
7.257483098166876
 20
-126.3910122346582
 30
0.0
 10
3.837593306568007
 20
-116.6109056472337
 30
0.0
 10
3.79916081171471
 20
-111.0470846753647
 30
0.0
 10
10.21435389489239
 20
-114.5554137475893
 30
0.0
 10
16.42388963474653
 20
-118.1023955875454
 30
0.0
 10
22.76763798140949
 20
-121.3903428221981
 30
0.0
 10
37.87966076909793
 20
-129.2228328315909
 30
0.0
 10
53.08313638841731
 20
-136.8795270532435
 30
0.0
 10
68.15634748658649
 20
-144.7851626089592
 30
0.0
 10
69.48642854758948
 20
-145.4827414850115
 30
0.0
 10
70.76850802477172
 20
-147.4065078303951
 30
0.0
 10
70.95029840959734
 20
-148.8976185759875
 30
0.0
 10
71.23612196679582
 20
-151.2420401235368
 30
0.0
 10
70.88605837176998
 20
-153.7929499256258
 30
0.0
 10
70.23634176695741
 20
-156.0959221443802
 30
0.0
 10
68.83238466245363
 20
-161.0721836849007
 30
0.0
 10
69.73959675222447
 20
-165.4234096452512
 30
0.0
 10
72.7671762016992
 20
-169.5147979997159
 30
0.0
 10
73.81754543132601
 20
-170.9341572972211
 30
0.0
 10
74.57419493243972
 20
-172.5708174751938
 30
0.0
 10
75.46499012365531
 20
-174.1082401642325
 30
0.0
  0
HATCH
  5
B2
330
AD
100
AcDbEntity
  8
Logo
440
 33554687
100
AcDbHatch
 10
0.0
 20
0.0
 30
0.0
210
0.0
220
0.0
230
1.0
  2
SOLID
 70
     1
 71
     1
 91
        1
 92
        1
 93
        1
 72
     4
 94
        3
 73
     0
 74
     0
 95
       38
 96
       34
 40
0.0
 40
0.0
 40
0.0
 40
0.0
 40
1.0
 40
1.0
 40
1.0
 40
2.0
 40
2.0
 40
2.0
 40
3.0
 40
3.0
 40
3.0
 40
4.0
 40
4.0
 40
4.0
 40
5.0
 40
5.0
 40
5.0
 40
6.0
 40
6.0
 40
6.0
 40
7.0
 40
7.0
 40
7.0
 40
8.0
 40
8.0
 40
8.0
 40
9.0
 40
9.0
 40
9.0
 40
10.0
 40
10.0
 40
10.0
 40
11.0
 40
11.0
 40
11.0
 40
11.0
 10
75.46499012365531
 20
-174.1082401642325
 10
66.31265840092016
 20
-171.1514693304725
 10
60.91716439041829
 20
-165.0195449622557
 10
60.71052560207172
 20
-155.7131027683789
 10
60.57606763400571
 20
-149.6563481771268
 10
58.28760550865507
 20
-146.2307922936519
 10
52.68850626714882
 20
-144.4663323420561
 10
40.06217144317174
 20
-140.4873975278174
 10
27.46541380327641
 20
-136.4135302000035
 10
14.88587606241074
 20
-132.2890403769892
 10
13.34418207124287
 20
-131.7835570852704
 10
11.68036509149595
 20
-131.0201879251978
 10
10.59178642270085
 20
-129.8808081649138
 10
7.257483098166876
 20
-126.3910122346582
 10
3.837593306568007
 20
-116.6109056472337
 10
3.79916081171471
 20
-111.0470846753647
 10
10.21435389489239
 20
-114.5554137475893
 10
16.42388963474653
 20
-118.1023955875454
 10
22.76763798140949
 20
-121.3903428221981
 10
37.87966076909793
 20
-129.2228328315909
 10
53.08313638841731
 20
-136.8795270532435
 10
68.15634748658649
 20
-144.7851626089592
 10
69.48642854758948
 20
-145.4827414850115
 10
70.76850802477172
 20
-147.4065078303951
 10
70.95029840959734
 20
-148.8976185759875
 10
71.23612196679582
 20
-151.2420401235368
 10
70.88605837176998
 20
-153.7929499256258
 10
70.23634176695741
 20
-156.0959221443802
 10
68.83238466245363
 20
-161.0721836849007
 10
69.73959675222447
 20
-165.4234096452512
 10
72.7671762016992
 20
-169.5147979997159
 10
73.81754543132601
 20
-170.9341572972211
 10
74.57419493243972
 20
-172.5708174751938
 10
75.46499012365531
 20
-174.1082401642325
 97
        0
 97
        1
330
B1
 75
     2
 76
     0
 98
        1
 10
0.0
 20
0.0
450
        1
451
        0
460
0.0
461
0.0
452
        0
462
0.0
453
        2
463
0.0
 63
    18
421
    65793
463
1.0
 63
   177
421
  3747977
470
LINEAR
  0
SPLINE
  5
B3
330
AD
100
AcDbEntity
  8
Logo
100
AcDbSpline
210
0.0
220
0.0
230
1.0
 70
     9
 71
     3
 72
    20
 73
    16
 74
     0
 42
0.0000000001
 43
0.0000000001
 40
0.0
 40
0.0
 40
0.0
 40
0.0
 40
1.0
 40
1.0
 40
1.0
 40
2.0
 40
2.0
 40
2.0
 40
3.0
 40
3.0
 40
3.0
 40
4.0
 40
4.0
 40
4.0
 40
5.0
 40
5.0
 40
5.0
 40
5.0
 10
55.96831708737378
 20
-151.8778102601349
 30
0.0
 10
46.41116159847726
 20
-150.5868195283314
 30
0.0
 10
37.19291692026127
 20
-149.0708826813283
 30
0.0
 10
27.91496023466203
 20
-148.1694364554261
 30
0.0
 10
19.70463728885625
 20
-147.3717167147827
 30
0.0
 10
15.95250605161475
 20
-141.8040842783315
 30
0.0
 10
12.12752482702994
 20
-134.8808585977581
 30
0.0
 10
13.98852303399962
 20
-134.8808585977581
 30
0.0
 10
15.49004469595794
 20
-134.4772950399829
 30
0.0
 10
16.63982984523725
 20
-134.9426729136054
 30
0.0
 10
29.55408494987023
 20
-140.1696658103254
 30
0.0
 10
42.41482899521337
 20
-145.5288080671689
 30
0.0
 10
55.28255468355824
 20
-150.8703289222917
 30
0.0
 10
55.46492501317034
 20
-150.9460284565852
 30
0.0
 10
55.55205056447354
 20
-151.2512077135463
 30
0.0
 10
55.96831708737378
 20
-151.8778102601349
 30
0.0
  0
HATCH
  5
B4
330
AD
100
AcDbEntity
  8
Logo
 62
    18
420
        0
440
 33554687
100
AcDbHatch
 10
0.0
 20
0.0
 30
0.0
210
0.0
220
0.0
230
1.0
  2
SOLID
 70
     1
 71
     1
 91
        1
 92
        1
 93
        1
 72
     4
 94
        3
 73
     0
 74
     0
 95
       20
 96
       16
 40
0.0
 40
0.0
 40
0.0
 40
0.0
 40
1.0
 40
1.0
 40
1.0
 40
2.0
 40
2.0
 40
2.0
 40
3.0
 40
3.0
 40
3.0
 40
4.0
 40
4.0
 40
4.0
 40
5.0
 40
5.0
 40
5.0
 40
5.0
 10
55.96831708737378
 20
-151.8778102601349
 10
46.41116159847726
 20
-150.5868195283314
 10
37.19291692026127
 20
-149.0708826813283
 10
27.91496023466203
 20
-148.1694364554261
 10
19.70463728885625
 20
-147.3717167147827
 10
15.95250605161475
 20
-141.8040842783315
 10
12.12752482702994
 20
-134.8808585977581
 10
13.98852303399962
 20
-134.8808585977581
 10
15.49004469595794
 20
-134.4772950399829
 10
16.63982984523725
 20
-134.9426729136054
 10
29.55408494987023
 20
-140.1696658103254
 10
42.41482899521337
 20
-145.5288080671689
 10
55.28255468355824
 20
-150.8703289222917
 10
55.46492501317034
 20
-150.9460284565852
 10
55.55205056447354
 20
-151.2512077135463
 10
55.96831708737378
 20
-151.8778102601349
 97
        0
 97
        1
330
B3
 75
     2
 76
     1
 98
        1
 10
0.0
 20
0.0
450
        0
451
        0
460
0.0
461
0.0
452
        0
462
0.0
453
        0
470

  0
SPLINE
  5
B5
330
AD
100
AcDbEntity
  8
Logo
100
AcDbSpline
210
0.0
220
0.0
230
1.0
 70
     9
 71
     3
 72
    14
 73
    10
 74
     0
 42
0.0000000001
 43
0.0000000001
 40
0.0
 40
0.0
 40
0.0
 40
0.0
 40
1.0
 40
1.0
 40
1.0
 40
2.0
 40
2.0
 40
2.0
 40
3.0
 40
3.0
 40
3.0
 40
3.0
 10
56.85340205300489
 20
-159.0782551634227
 30
0.0
 10
50.0667989455648
 20
-159.0782551634227
 30
0.0
 10
43.27180894429698
 20
-159.2879052327609
 30
0.0
 10
36.49611325994469
 20
-159.0162902849641
 30
0.0
 10
30.34434894299893
 20
-158.7697021887249
 30
0.0
 10
27.31797399423483
 20
-153.9881181024759
 30
0.0
 10
24.10481221325718
 20
-149.4791750203251
 30
0.0
 10
35.70404251575118
 20
-150.4560977248037
 30
0.0
 10
46.39180036485255
 20
-154.2873250425879
 30
0.0
 10
56.85340205300489
 20
-159.0782551634227
 30
0.0
  0
HATCH
  5
B6
330
AD
100
AcDbEntity
  8
Logo
 62
    18
420
        0
440
 33554687
100
AcDbHatch
 10
0.0
 20
0.0
 30
0.0
210
0.0
220
0.0
230
1.0
  2
SOLID
 70
     1
 71
     1
 91
        1
 92
        1
 93
        1
 72
     4
 94
        3
 73
     0
 74
     0
 95
       14
 96
       10
 40
0.0
 40
0.0
 40
0.0
 40
0.0
 40
1.0
 40
1.0
 40
1.0
 40
2.0
 40
2.0
 40
2.0
 40
3.0
 40
3.0
 40
3.0
 40
3.0
 10
56.85340205300489
 20
-159.0782551634227
 10
50.0667989455648
 20
-159.0782551634227
 10
43.27180894429698
 20
-159.2879052327609
 10
36.49611325994469
 20
-159.0162902849641
 10
30.34434894299893
 20
-158.7697021887249
 10
27.31797399423483
 20
-153.9881181024759
 10
24.10481221325718
 20
-149.4791750203251
 10
35.70404251575118
 20
-150.4560977248037
 10
46.39180036485255
 20
-154.2873250425879
 10
56.85340205300489
 20
-159.0782551634227
 97
        0
 97
        1
330
B5
 75
     2
 76
     1
 98
        1
 10
0.0
 20
0.0
450
        0
451
        0
460
0.0
461
0.0
452
        0
462
0.0
453
        0
470

  0
SPLINE
  5
B7
330
AD
100
AcDbEntity
  8
Logo
100
AcDbSpline
210
0.0
220
0.0
230
1.0
 70
     9
 71
     3
 72
    11
 73
     7
 74
     0
 42
0.0000000001
 43
0.0000000001
 40
0.0
 40
0.0
 40
0.0
 40
0.0
 40
1.0
 40
1.0
 40
1.0
 40
2.0
 40
2.0
 40
2.0
 40
2.0
 10
37.60916113759189
 20
-161.3538472927928
 30
0.0
 10
45.27473748484367
 20
-162.8059177113441
 30
0.0
 10
52.94033613766347
 20
-164.2579992826774
 30
0.0
 10
60.60591248491525
 20
-165.7100808540133
 30
0.0
 10
49.67448860343969
 20
-170.0170079487719
 30
0.0
 10
42.4455214577327
 20
-168.7900230552469
 30
0.0
 10
37.60916113759189
 20
-161.3538472927928
 30
0.0
  0
HATCH
  5
B8
330
AD
100
AcDbEntity
  8
Logo
 62
    18
420
        0
440
 33554687
100
AcDbHatch
 10
0.0
 20
0.0
 30
0.0
210
0.0
220
0.0
230
1.0
  2
SOLID
 70
     1
 71
     1
 91
        1
 92
        1
 93
        1
 72
     4
 94
        3
 73
     0
 74
     0
 95
       11
 96
        7
 40
0.0
 40
0.0
 40
0.0
 40
0.0
 40
1.0
 40
1.0
 40
1.0
 40
2.0
 40
2.0
 40
2.0
 40
2.0
 10
37.60916113759189
 20
-161.3538472927928
 10
45.27473748484367
 20
-162.8059177113441
 10
52.94033613766347
 20
-164.2579992826774
 10
60.60591248491525
 20
-165.7100808540133
 10
49.67448860343969
 20
-170.0170079487719
 10
42.4455214577327
 20
-168.7900230552469
 10
37.60916113759189
 20
-161.3538472927928
 97
        0
 97
        1
330
B7
 75
     2
 76
     1
 98
        1
 10
0.0
 20
0.0
450
        0
451
        0
460
0.0
461
0.0
452
        0
462
0.0
453
        0
470

  0
SPLINE
  5
B9
330
AD
100
AcDbEntity
  8
Logo
100
AcDbSpline
210
0.0
220
0.0
230
1.0
 70
     9
 71
     3
 72
    11
 73
     7
 74
     0
 42
0.0000000001
 43
0.0000000001
 40
0.0
 40
0.0
 40
0.0
 40
0.0
 40
1.0
 40
1.0
 40
1.0
 40
2.0
 40
2.0
 40
2.0
 40
2.0
 10
49.27285453360113
 20
-170.006490871669
 30
0.0
 10
54.34732679951037
 20
-170.4066639825294
 30
0.0
 10
59.42175445428325
 20
-170.8068370933912
 30
0.0
 10
64.73070285826486
 20
-171.225501523274
 30
0.0
 10
60.24741738492371
 20
-175.717196822031
 30
0.0
 10
53.66459795303796
 20
-175.4424033302506
 30
0.0
 10
49.27285453360113
 20
-170.006490871669
 30
0.0
  0
HATCH
  5
BA
330
AD
100
AcDbEntity
  8
Logo
 62
    18
420
        0
440
 33554687
100
AcDbHatch
 10
0.0
 20
0.0
 30
0.0
210
0.0
220
0.0
230
1.0
  2
SOLID
 70
     1
 71
     1
 91
        1
 92
        1
 93
        1
 72
     4
 94
        3
 73
     0
 74
     0
 95
       11
 96
        7
 40
0.0
 40
0.0
 40
0.0
 40
0.0
 40
1.0
 40
1.0
 40
1.0
 40
2.0
 40
2.0
 40
2.0
 40
2.0
 10
49.27285453360113
 20
-170.006490871669
 10
54.34732679951037
 20
-170.4066639825294
 10
59.42175445428325
 20
-170.8068370933912
 10
64.73070285826486
 20
-171.225501523274
 10
60.24741738492371
 20
-175.717196822031
 10
53.66459795303796
 20
-175.4424033302506
 10
49.27285453360113
 20
-170.006490871669
 97
        0
 97
        1
330
B9
 75
     2
 76
     1
 98
        1
 10
0.0
 20
0.0
450
        0
451
        0
460
0.0
461
0.0
452
        0
462
0.0
453
        0
470

  0
SPLINE
  5
BB
330
AD
100
AcDbEntity
  8
Logo
100
AcDbSpline
210
0.0
220
0.0
230
1.0
 70
     9
 71
     3
 72
    11
 73
     7
 74
     0
 42
0.0000000001
 43
0.0000000001
 40
0.0
 40
0.0
 40
0.0
 40
0.0
 40
1.0
 40
1.0
 40
1.0
 40
2.0
 40
2.0
 40
2.0
 40
2.0
 10
70.18606501513059
 20
-175.1502337980406
 30
0.0
 10
67.47317252874053
 20
-178.8453859750644
 30
0.0
 10
63.9192262693106
 20
-179.0988776457764
 30
0.0
 10
59.44919030377282
 20
-175.69935236459
 30
0.0
 10
62.88505088255437
 20
-175.5236290699577
 30
0.0
 10
66.32095607247258
 20
-175.347905775324
 30
0.0
 10
70.18606501513059
 20
-175.1502337980406
 30
0.0
  0
HATCH
  5
BC
330
AD
100
AcDbEntity
  8
Logo
 62
    18
420
        0
440
 33554687
100
AcDbHatch
 10
0.0
 20
0.0
 30
0.0
210
0.0
220
0.0
230
1.0
  2
SOLID
 70
     1
 71
     1
 91
        1
 92
        1
 93
        1
 72
     4
 94
        3
 73
     0
 74
     0
 95
       11
 96
        7
 40
0.0
 40
0.0
 40
0.0
 40
0.0
 40
1.0
 40
1.0
 40
1.0
 40
2.0
 40
2.0
 40
2.0
 40
2.0
 10
70.18606501513059
 20
-175.1502337980406
 10
67.47317252874053
 20
-178.8453859750644
 10
63.9192262693106
 20
-179.0988776457764
 10
59.44919030377282
 20
-175.69935236459
 10
62.88505088255437
 20
-175.5236290699577
 10
66.32095607247258
 20
-175.347905775324
 10
70.18606501513059
 20
-175.1502337980406
 97
        0
 97
        1
330
BB
 75
     2
 76
     1
 98
        1
 10
0.0
 20
0.0
450
        0
451
        0
460
0.0
461
0.0
452
        0
462
0.0
453
        0
470

  0
ENDBLK
  5
B0
330
AD
100
AcDbEntity
  8
0
100
AcDbBlockEnd
  0
BLOCK
  5
C0
330
BE
100
AcDbEntity
  8
0
100
AcDbBlockBegin
  2
Block_7
 70
     0
 10
0.0
 20
0.0
 30
0.0
  3
Block_7
  1

  0
INSERT
  5
C3
330
BE
100
AcDbEntity
  8
Logo
100
AcDbBlockReference
  2
Block_8
 10
0.0
 20
0.0
 30
0.0
  0
ENDBLK
  5
C1
330
BE
100
AcDbEntity
  8
0
100
AcDbBlockEnd
  0
BLOCK
  5
C4
330
C2
100
AcDbEntity
  8
0
100
AcDbBlockBegin
  2
Block_8
 70
     0
 10
0.0
 20
0.0
 30
0.0
  3
Block_8
  1

  0
ENDBLK
  5
C5
330
C2
100
AcDbEntity
  8
0
100
AcDbBlockEnd
  0
ENDSEC
  0
SECTION
  2
ENTITIES
  0
IMAGE
  5
7D
330
70
100
AcDbEntity
  8
Palette
160
               140
310
8C0000000100000084000000060000000500000001FDE86DC29E45C0DE68FA62D7EE45C00000000000000000BAA0C090F5873FC013AF7D7DBEEF45C00000000000000000EB6CE0C82D913FC0CE0A178390EA59C000000000000000001AE3F8895EA345C0B367D5F51CEA59C0000000000000000001FDE86DC29E45C0DE68FA
310
62D7EE45C00000000000000000
100
AcDbRasterImage
 90
        0
 10
-43.24030851246244
 20
-43.86594807841333
 30
0.0
 11
-0.0000833659431738
 21
-0.1384075683269966
 31
0.0
 12
0.0643363611605693
 22
-0.0000387512149326
 32
0.0
 13
432.0
 23
182.0
340
7C
 70
     3
280
     0
281
    50
282
    50
283
     0
290
     0
360
0
 71
     1
 91
        2
 14
-0.5
 24
-0.5
 14
431.5
 24
181.5
  0
INSERT
  5
81
330
70
100
AcDbEntity
  8
Logo
100
AcDbBlockReference
  2
Block_0
 10
0.0
 20
0.0
 30
0.0
  0
INSERT
  5
89
330
70
100
AcDbEntity
  8
Logo
100
AcDbBlockReference
  2
Block_2
 10
0.0
 20
0.0
 30
0.0
  0
INSERT
  5
95
330
70
100
AcDbEntity
  8
Logo
100
AcDbBlockReference
  2
Block_4
 10
0.0
 20
0.0
 30
0.0
  0
INSERT
  5
AE
330
70
100
AcDbEntity
  8
Logo
100
AcDbBlockReference
  2
Block_6
 10
0.0
 20
0.0
 30
0.0
  0
LWPOLYLINE
  5
BD
330
70
100
AcDbEntity
  8
Logo
100
AcDbPolyline
 90
        1
 70
     0
 43
0.0
 10
146.2227564999668
 20
-147.9081848269514
  0
INSERT
  5
BF
330
70
100
AcDbEntity
  8
Logo
100
AcDbBlockReference
  2
Block_7
 10
0.0
 20
0.0
 30
0.0
  0
LWPOLYLINE
  5
C6
330
70
100
AcDbEntity
  8
Logo
 62
   250
420
  1907995
370
    35
100
AcDbPolyline
 90
        1
 70
     0
 43
0.0
 10
142.4449939697302
 20
-151.7808491352338
  0
LWPOLYLINE
  5
C7
330
70
100
AcDbEntity
  8
Logo
 62
   250
420
  1907995
370
    35
100
AcDbPolyline
 90
        1
 70
     0
 43
0.0
 10
28.31742964863112
 20
-142.0199390288226
  0
SPLINE
  5
C8
330
70
100
AcDbEntity
  8
Logo
100
AcDbSpline
210
0.0
220
0.0
230
1.0
 70
     9
 71
     3
 72
    38
 73
    34
 74
     0
 42
0.0000000001
 43
0.0000000001
 40
0.0
 40
0.0
 40
0.0
 40
0.0
 40
1.0
 40
1.0
 40
1.0
 40
2.0
 40
2.0
 40
2.0
 40
3.0
 40
3.0
 40
3.0
 40
4.0
 40
4.0
 40
4.0
 40
5.0
 40
5.0
 40
5.0
 40
6.0
 40
6.0
 40
6.0
 40
7.0
 40
7.0
 40
7.0
 40
8.0
 40
8.0
 40
8.0
 40
9.0
 40
9.0
 40
9.0
 40
10.0
 40
10.0
 40
10.0
 40
11.0
 40
11.0
 40
11.0
 40
11.0
 10
120.2523254881009
 20
-174.0585549883046
 30
0.0
 10
129.404657210837
 20
-171.1017841545446
 30
0.0
 10
134.8001512213399
 20
-164.9698597863291
 30
0.0
 10
135.0067900096842
 20
-155.6634175924523
 30
0.0
 10
135.1412479777505
 20
-149.6066630011989
 30
0.0
 10
137.4297101031021
 20
-146.1811071177243
 30
0.0
 10
143.0288093446087
 20
-144.4166471661286
 30
0.0
 10
155.6551441685851
 20
-140.4377123518902
 30
0.0
 10
168.2519018084808
 20
-136.3638450240762
 30
0.0
 10
180.8314395493452
 20
-132.239355201062
 30
0.0
 10
182.3731335405127
 20
-131.7338719093432
 30
0.0
 10
184.0369505202622
 20
-130.9705027492706
 30
0.0
 10
185.1255291890554
 20
-129.8311229889866
 30
0.0
 10
188.4598325135903
 20
-126.341327058731
 30
0.0
 10
191.8797223051898
 20
-116.5612204713065
 30
0.0
 10
191.9181548000425
 20
-110.9973994994371
 30
0.0
 10
185.5029617168651
 20
-114.505728571662
 30
0.0
 10
179.293425977011
 20
-118.0527104116181
 30
0.0
 10
172.949677630348
 20
-121.3406576462708
 30
0.0
 10
157.8376548426593
 20
-129.1731476556637
 30
0.0
 10
142.6341792233405
 20
-136.829841877316
 30
0.0
 10
127.5609681251707
 20
-144.7354774330319
 30
0.0
 10
126.2308870641664
 20
-145.4330563090842
 30
0.0
 10
124.9488075869851
 20
-147.3568226544678
 30
0.0
 10
124.7670172021589
 20
-148.8479334000602
 30
0.0
 10
124.481193644962
 20
-151.1923549476096
 30
0.0
 10
124.8312572399869
 20
-153.7432647496992
 30
0.0
 10
125.4809738448007
 20
-156.0462369684529
 30
0.0
 10
126.8849309493026
 20
-161.0224985089728
 30
0.0
 10
125.9777188595327
 20
-165.3737244693239
 30
0.0
 10
122.9501394100567
 20
-169.465112823788
 30
0.0
 10
121.8997701804302
 20
-170.8844721212938
 30
0.0
 10
121.1431206793178
 20
-172.5211322992659
 30
0.0
 10
120.2523254881009
 20
-174.0585549883046
 30
0.0
  0
HATCH
  5
C9
330
70
100
AcDbEntity
  8
Logo
440
 33554687
100
AcDbHatch
 10
0.0
 20
0.0
 30
0.0
210
0.0
220
0.0
230
1.0
  2
SOLID
 70
     1
 71
     1
 91
        1
 92
        1
 93
        1
 72
     4
 94
        3
 73
     0
 74
     0
 95
       38
 96
       34
 40
0.0
 40
0.0
 40
0.0
 40
0.0
 40
1.0
 40
1.0
 40
1.0
 40
2.0
 40
2.0
 40
2.0
 40
3.0
 40
3.0
 40
3.0
 40
4.0
 40
4.0
 40
4.0
 40
5.0
 40
5.0
 40
5.0
 40
6.0
 40
6.0
 40
6.0
 40
7.0
 40
7.0
 40
7.0
 40
8.0
 40
8.0
 40
8.0
 40
9.0
 40
9.0
 40
9.0
 40
10.0
 40
10.0
 40
10.0
 40
11.0
 40
11.0
 40
11.0
 40
11.0
 10
120.2523254881009
 20
-174.0585549883046
 10
129.404657210837
 20
-171.1017841545446
 10
134.8001512213399
 20
-164.9698597863291
 10
135.0067900096842
 20
-155.6634175924523
 10
135.1412479777505
 20
-149.6066630011989
 10
137.4297101031021
 20
-146.1811071177243
 10
143.0288093446087
 20
-144.4166471661286
 10
155.6551441685851
 20
-140.4377123518902
 10
168.2519018084808
 20
-136.3638450240762
 10
180.8314395493452
 20
-132.239355201062
 10
182.3731335405127
 20
-131.7338719093432
 10
184.0369505202622
 20
-130.9705027492706
 10
185.1255291890554
 20
-129.8311229889866
 10
188.4598325135903
 20
-126.341327058731
 10
191.8797223051898
 20
-116.5612204713065
 10
191.9181548000425
 20
-110.9973994994371
 10
185.5029617168651
 20
-114.505728571662
 10
179.293425977011
 20
-118.0527104116181
 10
172.949677630348
 20
-121.3406576462708
 10
157.8376548426593
 20
-129.1731476556637
 10
142.6341792233405
 20
-136.829841877316
 10
127.5609681251707
 20
-144.7354774330319
 10
126.2308870641664
 20
-145.4330563090842
 10
124.9488075869851
 20
-147.3568226544678
 10
124.7670172021589
 20
-148.8479334000602
 10
124.481193644962
 20
-151.1923549476096
 10
124.8312572399869
 20
-153.7432647496992
 10
125.4809738448007
 20
-156.0462369684529
 10
126.8849309493026
 20
-161.0224985089728
 10
125.9777188595327
 20
-165.3737244693239
 10
122.9501394100567
 20
-169.465112823788
 10
121.8997701804302
 20
-170.8844721212938
 10
121.1431206793178
 20
-172.5211322992659
 10
120.2523254881009
 20
-174.0585549883046
 97
        0
 97
        1
330
C8
 75
     2
 76
     0
 98
        1
 10
0.0
 20
0.0
450
        1
451
        0
460
0.0
461
0.0
452
        0
462
0.0
453
        2
463
0.0
 63
   177
421
  3747977
463
1.0
 63
    18
421
    65793
470
LINEAR
  0
SPLINE
  5
CA
330
70
100
AcDbEntity
  8
Logo
100
AcDbSpline
210
0.0
220
0.0
230
1.0
 70
     9
 71
     3
 72
    20
 73
    16
 74
     0
 42
0.0000000001
 43
0.0000000001
 40
0.0
 40
0.0
 40
0.0
 40
0.0
 40
1.0
 40
1.0
 40
1.0
 40
2.0
 40
2.0
 40
2.0
 40
3.0
 40
3.0
 40
3.0
 40
4.0
 40
4.0
 40
4.0
 40
5.0
 40
5.0
 40
5.0
 40
5.0
 10
139.748998524384
 20
-151.828125084207
 30
0.0
 10
149.3061540132806
 20
-150.5371343524041
 30
0.0
 10
158.5243986914953
 20
-149.0211975054004
 30
0.0
 10
167.8023553770948
 20
-148.1197512794988
 30
0.0
 10
176.0126783229013
 20
-147.3220315388554
 30
0.0
 10
179.7648095601434
 20
-141.7543991024042
 30
0.0
 10
183.5897907847279
 20
-134.8311734218308
 30
0.0
 10
181.7287925777582
 20
-134.8311734218308
 30
0.0
 10
180.2272709157996
 20
-134.4276098640557
 30
0.0
 10
179.0774857665203
 20
-134.8929877376782
 30
0.0
 10
166.163230661887
 20
-140.1199806343984
 30
0.0
 10
153.3024866165448
 20
-145.4791228912413
 30
0.0
 10
140.4347609281983
 20
-150.8206437463644
 30
0.0
 10
140.2523905985875
 20
-150.8963432806579
 30
0.0
 10
140.1652650472836
 20
-151.201522537619
 30
0.0
 10
139.748998524384
 20
-151.828125084207
 30
0.0
  0
HATCH
  5
CB
330
70
100
AcDbEntity
  8
Logo
 62
    18
420
        0
440
 33554687
100
AcDbHatch
 10
0.0
 20
0.0
 30
0.0
210
0.0
220
0.0
230
1.0
  2
SOLID
 70
     1
 71
     1
 91
        1
 92
        1
 93
        1
 72
     4
 94
        3
 73
     0
 74
     0
 95
       20
 96
       16
 40
0.0
 40
0.0
 40
0.0
 40
0.0
 40
1.0
 40
1.0
 40
1.0
 40
2.0
 40
2.0
 40
2.0
 40
3.0
 40
3.0
 40
3.0
 40
4.0
 40
4.0
 40
4.0
 40
5.0
 40
5.0
 40
5.0
 40
5.0
 10
139.748998524384
 20
-151.828125084207
 10
149.3061540132806
 20
-150.5371343524041
 10
158.5243986914953
 20
-149.0211975054004
 10
167.8023553770948
 20
-148.1197512794988
 10
176.0126783229013
 20
-147.3220315388554
 10
179.7648095601434
 20
-141.7543991024042
 10
183.5897907847279
 20
-134.8311734218308
 10
181.7287925777582
 20
-134.8311734218308
 10
180.2272709157996
 20
-134.4276098640557
 10
179.0774857665203
 20
-134.8929877376782
 10
166.163230661887
 20
-140.1199806343984
 10
153.3024866165448
 20
-145.4791228912413
 10
140.4347609281983
 20
-150.8206437463644
 10
140.2523905985875
 20
-150.8963432806579
 10
140.1652650472836
 20
-151.201522537619
 10
139.748998524384
 20
-151.828125084207
 97
        0
 97
        1
330
CA
 75
     2
 76
     1
 98
        1
 10
0.0
 20
0.0
450
        0
451
        0
460
0.0
461
0.0
452
        0
462
0.0
453
        0
470

  0
SPLINE
  5
CC
330
70
100
AcDbEntity
  8
Logo
100
AcDbSpline
210
0.0
220
0.0
230
1.0
 70
     9
 71
     3
 72
    14
 73
    10
 74
     0
 42
0.0000000001
 43
0.0000000001
 40
0.0
 40
0.0
 40
0.0
 40
0.0
 40
1.0
 40
1.0
 40
1.0
 40
2.0
 40
2.0
 40
2.0
 40
3.0
 40
3.0
 40
3.0
 40
3.0
 10
138.8639135587529
 20
-159.0285699874948
 30
0.0
 10
145.650516666193
 20
-159.0285699874948
 30
0.0
 10
152.4455066674602
 20
-159.2382200568336
 30
0.0
 10
159.2212023518115
 20
-158.9666051090369
 30
0.0
 10
165.3729666687592
 20
-158.7200170127976
 30
0.0
 10
168.3993416175217
 20
-153.9384329265479
 30
0.0
 10
171.612503398501
 20
-149.4294898443979
 30
0.0
 10
160.0132730960063
 20
-150.4064125488758
 30
0.0
 10
149.3255152469046
 20
-154.2376398666607
 30
0.0
 10
138.8639135587529
 20
-159.0285699874948
 30
0.0
  0
HATCH
  5
CD
330
70
100
AcDbEntity
  8
Logo
 62
    18
420
        0
440
 33554687
100
AcDbHatch
 10
0.0
 20
0.0
 30
0.0
210
0.0
220
0.0
230
1.0
  2
SOLID
 70
     1
 71
     1
 91
        1
 92
        1
 93
        1
 72
     4
 94
        3
 73
     0
 74
     0
 95
       14
 96
       10
 40
0.0
 40
0.0
 40
0.0
 40
0.0
 40
1.0
 40
1.0
 40
1.0
 40
2.0
 40
2.0
 40
2.0
 40
3.0
 40
3.0
 40
3.0
 40
3.0
 10
138.8639135587529
 20
-159.0285699874948
 10
145.650516666193
 20
-159.0285699874948
 10
152.4455066674602
 20
-159.2382200568336
 10
159.2212023518115
 20
-158.9666051090369
 10
165.3729666687592
 20
-158.7200170127976
 10
168.3993416175217
 20
-153.9384329265479
 10
171.612503398501
 20
-149.4294898443979
 10
160.0132730960063
 20
-150.4064125488758
 10
149.3255152469046
 20
-154.2376398666607
 10
138.8639135587529
 20
-159.0285699874948
 97
        0
 97
        1
330
CC
 75
     2
 76
     1
 98
        1
 10
0.0
 20
0.0
450
        0
451
        0
460
0.0
461
0.0
452
        0
462
0.0
453
        0
470

  0
SPLINE
  5
CE
330
70
100
AcDbEntity
  8
Logo
100
AcDbSpline
210
0.0
220
0.0
230
1.0
 70
     9
 71
     3
 72
    11
 73
     7
 74
     0
 42
0.0000000001
 43
0.0000000001
 40
0.0
 40
0.0
 40
0.0
 40
0.0
 40
1.0
 40
1.0
 40
1.0
 40
2.0
 40
2.0
 40
2.0
 40
2.0
 10
158.1081544741653
 20
-161.3041621168662
 30
0.0
 10
150.4425781269139
 20
-162.7562325354162
 30
0.0
 10
142.7769794740947
 20
-164.2083141067495
 30
0.0
 10
135.1114031268426
 20
-165.660395678086
 30
0.0
 10
146.0428270083178
 20
-169.967322772844
 30
0.0
 10
153.2717941540238
 20
-168.7403378793196
 30
0.0
 10
158.1081544741653
 20
-161.3041621168662
 30
0.0
  0
HATCH
  5
CF
330
70
100
AcDbEntity
  8
Logo
 62
    18
420
        0
440
 33554687
100
AcDbHatch
 10
0.0
 20
0.0
 30
0.0
210
0.0
220
0.0
230
1.0
  2
SOLID
 70
     1
 71
     1
 91
        1
 92
        1
 93
        1
 72
     4
 94
        3
 73
     0
 74
     0
 95
       11
 96
        7
 40
0.0
 40
0.0
 40
0.0
 40
0.0
 40
1.0
 40
1.0
 40
1.0
 40
2.0
 40
2.0
 40
2.0
 40
2.0
 10
158.1081544741653
 20
-161.3041621168662
 10
150.4425781269139
 20
-162.7562325354162
 10
142.7769794740947
 20
-164.2083141067495
 10
135.1114031268426
 20
-165.660395678086
 10
146.0428270083178
 20
-169.967322772844
 10
153.2717941540238
 20
-168.7403378793196
 10
158.1081544741653
 20
-161.3041621168662
 97
        0
 97
        1
330
CE
 75
     2
 76
     1
 98
        1
 10
0.0
 20
0.0
450
        0
451
        0
460
0.0
461
0.0
452
        0
462
0.0
453
        0
470

  0
SPLINE
  5
D0
330
70
100
AcDbEntity
  8
Logo
100
AcDbSpline
210
0.0
220
0.0
230
1.0
 70
     9
 71
     3
 72
    11
 73
     7
 74
     0
 42
0.0000000001
 43
0.0000000001
 40
0.0
 40
0.0
 40
0.0
 40
0.0
 40
1.0
 40
1.0
 40
1.0
 40
2.0
 40
2.0
 40
2.0
 40
2.0
 10
146.4444610781554
 20
-169.9568056957417
 30
0.0
 10
141.3699888122471
 20
-170.3569788066022
 30
0.0
 10
136.295561157473
 20
-170.7571519174639
 30
0.0
 10
130.9866127534914
 20
-171.1758163473468
 30
0.0
 10
135.4698982268331
 20
-175.6675116461044
 30
0.0
 10
142.0527176587202
 20
-175.3927181543233
 30
0.0
 10
146.4444610781554
 20
-169.9568056957417
 30
0.0
  0
HATCH
  5
D1
330
70
100
AcDbEntity
  8
Logo
 62
    18
420
        0
440
 33554687
100
AcDbHatch
 10
0.0
 20
0.0
 30
0.0
210
0.0
220
0.0
230
1.0
  2
SOLID
 70
     1
 71
     1
 91
        1
 92
        1
 93
        1
 72
     4
 94
        3
 73
     0
 74
     0
 95
       11
 96
        7
 40
0.0
 40
0.0
 40
0.0
 40
0.0
 40
1.0
 40
1.0
 40
1.0
 40
2.0
 40
2.0
 40
2.0
 40
2.0
 10
146.4444610781554
 20
-169.9568056957417
 10
141.3699888122471
 20
-170.3569788066022
 10
136.295561157473
 20
-170.7571519174639
 10
130.9866127534914
 20
-171.1758163473468
 10
135.4698982268331
 20
-175.6675116461044
 10
142.0527176587202
 20
-175.3927181543233
 10
146.4444610781554
 20
-169.9568056957417
 97
        0
 97
        1
330
D0
 75
     2
 76
     1
 98
        1
 10
0.0
 20
0.0
450
        0
451
        0
460
0.0
461
0.0
452
        0
462
0.0
453
        0
470

  0
SPLINE
  5
D2
330
70
100
AcDbEntity
  8
Logo
100
AcDbSpline
210
0.0
220
0.0
230
1.0
 70
     9
 71
     3
 72
    11
 73
     7
 74
     0
 42
0.0000000001
 43
0.0000000001
 40
0.0
 40
0.0
 40
0.0
 40
0.0
 40
1.0
 40
1.0
 40
1.0
 40
2.0
 40
2.0
 40
2.0
 40
2.0
 10
125.1558309771482
 20
-175.8513878610675
 30
0.0
 10
127.2841189792816
 20
-178.7502672246507
 30
0.0
 10
133.0083931699634
 20
-178.5940667034672
 30
0.0
 10
135.8927056885053
 20
-176.4005064276169
 30
0.0
 10
132.4568451097235
 20
-176.2247831329839
 30
0.0
 10
129.0209399198062
 20
-176.0490598383509
 30
0.0
 10
125.1558309771482
 20
-175.8513878610675
 30
0.0
  0
HATCH
  5
D3
330
70
100
AcDbEntity
  8
Logo
 62
    18
420
        0
440
 33554687
100
AcDbHatch
 10
0.0
 20
0.0
 30
0.0
210
0.0
220
0.0
230
1.0
  2
SOLID
 70
     1
 71
     1
 91
        1
 92
        1
 93
        1
 72
     4
 94
        3
 73
     0
 74
     0
 95
       11
 96
        7
 40
0.0
 40
0.0
 40
0.0
 40
0.0
 40
1.0
 40
1.0
 40
1.0
 40
2.0
 40
2.0
 40
2.0
 40
2.0
 10
125.1558309771482
 20
-175.8513878610675
 10
127.2841189792816
 20
-178.7502672246507
 10
133.0083931699634
 20
-178.5940667034672
 10
135.8927056885053
 20
-176.4005064276169
 10
132.4568451097235
 20
-176.2247831329839
 10
129.0209399198062
 20
-176.0490598383509
 10
125.1558309771482
 20
-175.8513878610675
 97
        0
 97
        1
330
D2
 75
     2
 76
     1
 98
        1
 10
0.0
 20
0.0
450
        0
451
        0
460
0.0
461
0.0
452
        0
462
0.0
453
        0
470

  0
LWPOLYLINE
  5
D4
330
70
100
AcDbEntity
  8
Logo
100
AcDbPolyline
 90
        4
 70
     1
 43
0.0
 10
114.5214243212525
 20
-206.7840720523224
 10
93.05076829825013
 20
-206.7840720523224
 10
93.05076829825013
 20
-203.0911642518268
 10
114.5214243212525
 20
-203.0911642518268
  0
HATCH
  5
D5
330
70
100
AcDbEntity
  8
Logo
 62
    18
420
    65793
440
 33554687
100
AcDbHatch
 10
0.0
 20
0.0
 30
0.0
210
0.0
220
0.0
230
1.0
  2
SOLID
 70
     1
 71
     1
 91
        1
 92
        1
 93
        4
 72
     1
 10
114.5214243212525
 20
-206.7840720523224
 11
93.05076829825013
 21
-206.7840720523224
 72
     1
 10
93.05076829825013
 20
-206.7840720523224
 11
93.05076829825013
 21
-203.0911642518268
 72
     1
 10
93.05076829825013
 20
-203.0911642518268
 11
114.5214243212525
 21
-203.0911642518268
 72
     1
 10
114.5214243212525
 20
-203.0911642518268
 11
114.5214243212525
 21
-206.7840720523224
 97
        1
330
D4
 75
     2
 76
     1
 98
        1
 10
0.0
 20
0.0
450
        0
451
        0
460
0.0
461
0.0
452
        0
462
0.0
453
        0
470

  0
ENDSEC
  0
SECTION
  2
OBJECTS
  0
DICTIONARY
  5
C
330
0
100
AcDbDictionary
281
     1
  3
ACAD_COLOR
350
63
  3
ACAD_DETAILVIEWSTYLE
350
6A
  3
ACAD_GROUP
350
D
  3
ACAD_IMAGE_DICT
350
7B
  3
ACAD_LAYOUT
350
62
  3
ACAD_MATERIAL
350
10
  3
ACAD_MLEADERSTYLE
350
66
  3
ACAD_MLINESTYLE
350
5F
  3
ACAD_PLOTSETTINGS
350
61
  3
ACAD_PLOTSTYLENAME
350
E
  3
ACAD_SCALELIST
350
42
  3
ACAD_SECTIONVIEWSTYLE
350
68
  3
ACAD_TABLESTYLE
350
64
  3
ACAD_VISUALSTYLE
350
29
  3
ACDB_RECOMPOSE_DATA
350
DE
  3
AcDbVariableDictionary
350
D6
  0
DICTIONARY
  5
63
102
{ACAD_REACTORS
330
C
102
}
330
C
100
AcDbDictionary
281
     1
  0
DICTIONARY
  5
6A
102
{ACAD_REACTORS
330
C
102
}
330
C
100
AcDbDictionary
281
     1
  3
Imperial24
350
6B
  0
DICTIONARY
  5
D
102
{ACAD_REACTORS
330
C
102
}
330
C
100
AcDbDictionary
281
     1
  0
DICTIONARY
  5
7B
102
{ACAD_REACTORS
330
C
102
}
330
C
100
AcDbDictionary
281
     1
  3
SFproject_versionOne_1.png
350
7C
  0
DICTIONARY
  5
62
102
{ACAD_REACTORS
330
C
102
}
330
C
100
AcDbDictionary
281
     1
  3
Layout1
350
6F
  3
Layout2
350
77
  3
Model
350
73
  0
DICTIONARY
  5
10
102
{ACAD_REACTORS
330
C
102
}
330
C
100
AcDbDictionary
281
     1
  3
ByBlock
350
19
  3
ByLayer
350
11
  3
Global
350
21
  0
DICTIONARY
  5
66
102
{ACAD_REACTORS
330
C
102
}
330
C
100
AcDbDictionary
281
     1
  3
Standard
350
67
  0
DICTIONARY
  5
5F
102
{ACAD_REACTORS
330
C
102
}
330
C
100
AcDbDictionary
281
     1
  3
Standard
350
60
  0
DICTIONARY
  5
61
102
{ACAD_REACTORS
330
C
102
}
330
C
100
AcDbDictionary
281
     1
  0
ACDBDICTIONARYWDFLT
  5
E
102
{ACAD_REACTORS
330
C
102
}
330
C
100
AcDbDictionary
281
     1
  3
Normal
350
F
100
AcDbDictionaryWithDefault
340
F
  0
DICTIONARY
  5
42
102
{ACAD_REACTORS
330
C
102
}
330
C
100
AcDbDictionary
281
     1
  3
A0
350
43
  3
A1
350
44
  3
A2
350
45
  3
A3
350
46
  3
A4
350
47
  3
A5
350
48
  3
A6
350
49
  3
A7
350
4A
  3
A8
350
4B
  3
A9
350
4C
  3
B0
350
4D
  3
B1
350
4E
  3
B2
350
4F
  3
B3
350
50
  3
B4
350
51
  3
B5
350
52
  3
B6
350
53
  0
DICTIONARY
  5
68
102
{ACAD_REACTORS
330
C
102
}
330
C
100
AcDbDictionary
281
     1
  3
Imperial24
350
69
  0
DICTIONARY
  5
64
102
{ACAD_REACTORS
330
C
102
}
330
C
100
AcDbDictionary
281
     1
  3
Standard
350
65
  0
DICTIONARY
  5
29
102
{ACAD_REACTORS
330
C
102
}
330
C
100
AcDbDictionary
281
     1
  3
2dWireframe
350
2F
  3
Basic
350
2E
  3
Brighten
350
35
  3
ColorChange
350
39
  3
Conceptual
350
32
  3
Dim
350
34
  3
EdgeColorOff
350
41
  3
Facepattern
350
38
  3
Flat
350
2A
  3
FlatWithEdges
350
2B
  3
Gouraud
350
2C
  3
GouraudWithEdges
350
2D
  3
Hidden
350
31
  3
JitterOff
350
3F
  3
Linepattern
350
37
  3
OverhangOff
350
40
  3
Realistic
350
33
  3
Shaded
350
3E
  3
Shaded with edges
350
3D
  3
Shades of Gray
350
3A
  3
Sketchy
350
3B
  3
Thicken
350
36
  3
Wireframe
350
30
  3
X-Ray
350
3C
  0
XRECORD
  5
DE
102
{ACAD_REACTORS
330
C
102
}
330
C
100
AcDbXrecord
280
     1
 90
        1
330
65
  0
DICTIONARY
  5
D6
102
{ACAD_REACTORS
330
C
102
}
330
C
100
AcDbDictionary
281
     1
  3
CANNOSCALE
350
DB
  3
CMLEADERSTYLE
350
D8
  3
CTABLESTYLE
350
D7
  3
CVIEWDETAILSTYLE
350
D9
  3
CVIEWSECTIONSTYLE
350
DA
  0
ACDBDETAILVIEWSTYLE
  5
6B
102
{ACAD_REACTORS
330
6A
102
}
330
6A
100
AcDbModelDocViewStyle
 70
     0
  3
Imperial24
290
     1
300
Imperial24
 90
        0
100
AcDbDetailViewStyle
 70
     0
 71
     0
 90
        3
 71
     1
340
55
 62
   256
 40
0.24
340
0
 62
   256
 40
0.24
300

 40
0.36
280
     3
 71
     2
340
5D
 90
       25
 62
   256
 71
     3
340
55
 62
   256
 40
0.24
 90
        1
 40
0.75
 90
        1
300
%<\AcVar ViewType \f "%tc1">% %<\AcVar ViewDetailId>%\PSCALE %<\AcVar ViewScale \f "%sn">%
 71
     4
340
5D
 90
       25
 62
   256
340
5D
 90
       25
 62
   256
280
     0
  0
IMAGEDEF
  5
7C
102
{ACAD_REACTORS
330
7B
102
}
330
7B
100
AcDbRasterImageDef
 90
        0
  1
C:\Moje\CanSat\Construction\Construction\SFproject_versionOne_1.png
 10
432.0
 20
182.0
 11
0.3527336860670194
 21
0.3527336860670194
280
     1
281
     2
  0
LAYOUT
  5
6F
102
{ACAD_REACTORS
330
62
102
}
330
62
100
AcDbPlotSettings
  1

  2

  4

  6

 40
0.0
 41
0.0
 42
0.0
 43
0.0
 44
0.0
 45
0.0
 46
0.0
 47
0.0
 48
0.0
 49
0.0
140
0.0
141
0.0
142
1.0
143
1.0
 70
   688
 72
     0
 73
     0
 74
     5
  7

 75
    16
147
1.0
 76
     0
 77
     2
 78
   300
148
0.0
149
0.0
100
AcDbLayout
  1
Layout1
 70
     1
 71
     1
 10
0.0
 20
0.0
 11
12.0
 21
9.0
 12
0.0
 22
0.0
 32
0.0
 14
0.0
 24
0.0
 34
0.0
 15
0.0
 25
0.0
 35
0.0
146
0.0
 13
0.0
 23
0.0
 33
0.0
 16
1.0
 26
0.0
 36
0.0
 17
0.0
 27
1.0
 37
0.0
 76
     0
330
6C
  0
LAYOUT
  5
77
102
{ACAD_REACTORS
330
62
102
}
330
62
100
AcDbPlotSettings
  1

  2

  4

  6

 40
0.0
 41
0.0
 42
0.0
 43
0.0
 44
0.0
 45
0.0
 46
0.0
 47
0.0
 48
0.0
 49
0.0
140
0.0
141
0.0
142
1.0
143
1.0
 70
   688
 72
     0
 73
     0
 74
     5
  7

 75
    16
147
1.0
 76
     0
 77
     2
 78
   300
148
0.0
149
0.0
100
AcDbLayout
  1
Layout2
 70
     1
 71
     2
 10
0.0
 20
0.0
 11
12.0
 21
9.0
 12
0.0
 22
0.0
 32
0.0
 14
0.0
 24
0.0
 34
0.0
 15
0.0
 25
0.0
 35
0.0
146
0.0
 13
0.0
 23
0.0
 33
0.0
 16
1.0
 26
0.0
 36
0.0
 17
0.0
 27
1.0
 37
0.0
 76
     0
330
74
  0
LAYOUT
  5
73
102
{ACAD_REACTORS
330
62
102
}
330
62
100
AcDbPlotSettings
  1

  2

  4

  6

 40
0.0
 41
0.0
 42
0.0
 43
0.0
 44
0.0
 45
0.0
 46
0.0
 47
0.0
 48
0.0
 49
0.0
140
0.0
141
0.0
142
1.0
143
1.0
 70
  1712
 72
     0
 73
     0
 74
     0
  7

 75
     0
147
1.0
 76
     0
 77
     2
 78
   300
148
0.0
149
0.0
100
AcDbLayout
  1
Model
 70
     1
 71
     0
 10
0.0
 20
0.0
 11
12.0
 21
9.0
 12
0.0
 22
0.0
 32
0.0
 14
0.0
 24
0.0
 34
0.0
 15
0.0
 25
0.0
 35
0.0
146
0.0
 13
0.0
 23
0.0
 33
0.0
 16
1.0
 26
0.0
 36
0.0
 17
0.0
 27
1.0
 37
0.0
 76
     0
330
70
  0
MATERIAL
  5
19
102
{ACAD_XDICTIONARY
360
1A
102
}
102
{ACAD_REACTORS
330
10
102
}
330
10
100
AcDbMaterial
  1
ByBlock
 72
     0
 43
0.0208333333333333
 43
0.0
 43
0.0
 43
0.0
 43
0.0
 43
0.0208333333333333
 43
0.0
 43
0.0
 43
0.0
 43
0.0
 43
1.0
 43
0.0
 43
0.0
 43
0.0
 43
0.0
 43
1.0
 77
     0
 47
0.0208333333333333
 47
0.0
 47
0.0
 47
0.0
 47
0.0
 47
0.0208333333333333
 47
0.0
 47
0.0
 47
0.0
 47
0.0
 47
1.0
 47
0.0
 47
0.0
 47
0.0
 47
0.0
 47
1.0
171
     0
 49
0.0208333333333333
 49
0.0
 49
0.0
 49
0.0
 49
0.0
 49
0.0208333333333333
 49
0.0
 49
0.0
 49
0.0
 49
0.0
 49
1.0
 49
0.0
 49
0.0
 49
0.0
 49
0.0
 49
1.0
175
     0
142
0.0208333333333333
142
0.0
142
0.0
142
0.0
142
0.0
142
0.0208333333333333
142
0.0
142
0.0
142
0.0
142
0.0
142
1.0
142
0.0
142
0.0
142
0.0
142
0.0
142
1.0
179
     0
144
0.0208333333333333
144
0.0
144
0.0
144
0.0
144
0.0
144
0.0208333333333333
144
0.0
144
0.0
144
0.0
144
0.0
144
1.0
144
0.0
144
0.0
144
0.0
144
0.0
144
1.0
147
0.0208333333333333
147
0.0
147
0.0
147
0.0
147
0.0
147
0.0208333333333333
147
0.0
147
0.0
147
0.0
147
0.0
147
1.0
147
0.0
147
0.0
147
0.0
147
0.0
147
1.0
  0
MATERIAL
  5
11
102
{ACAD_XDICTIONARY
360
12
102
}
102
{ACAD_REACTORS
330
10
102
}
330
10
100
AcDbMaterial
  1
ByLayer
 72
     0
 43
0.0208333333333333
 43
0.0
 43
0.0
 43
0.0
 43
0.0
 43
0.0208333333333333
 43
0.0
 43
0.0
 43
0.0
 43
0.0
 43
1.0
 43
0.0
 43
0.0
 43
0.0
 43
0.0
 43
1.0
 77
     0
 47
0.0208333333333333
 47
0.0
 47
0.0
 47
0.0
 47
0.0
 47
0.0208333333333333
 47
0.0
 47
0.0
 47
0.0
 47
0.0
 47
1.0
 47
0.0
 47
0.0
 47
0.0
 47
0.0
 47
1.0
171
     0
 49
0.0208333333333333
 49
0.0
 49
0.0
 49
0.0
 49
0.0
 49
0.0208333333333333
 49
0.0
 49
0.0
 49
0.0
 49
0.0
 49
1.0
 49
0.0
 49
0.0
 49
0.0
 49
0.0
 49
1.0
175
     0
142
0.0208333333333333
142
0.0
142
0.0
142
0.0
142
0.0
142
0.0208333333333333
142
0.0
142
0.0
142
0.0
142
0.0
142
1.0
142
0.0
142
0.0
142
0.0
142
0.0
142
1.0
179
     0
144
0.0208333333333333
144
0.0
144
0.0
144
0.0
144
0.0
144
0.0208333333333333
144
0.0
144
0.0
144
0.0
144
0.0
144
1.0
144
0.0
144
0.0
144
0.0
144
0.0
144
1.0
147
0.0208333333333333
147
0.0
147
0.0
147
0.0
147
0.0
147
0.0208333333333333
147
0.0
147
0.0
147
0.0
147
0.0
147
1.0
147
0.0
147
0.0
147
0.0
147
0.0
147
1.0
  0
MATERIAL
  5
21
102
{ACAD_XDICTIONARY
360
22
102
}
102
{ACAD_REACTORS
330
10
102
}
330
10
100
AcDbMaterial
  1
Global
 72
     0
 43
0.0208333333333333
 43
0.0
 43
0.0
 43
0.0
 43
0.0
 43
0.0208333333333333
 43
0.0
 43
0.0
 43
0.0
 43
0.0
 43
1.0
 43
0.0
 43
0.0
 43
0.0
 43
0.0
 43
1.0
 77
     0
 47
0.0208333333333333
 47
0.0
 47
0.0
 47
0.0
 47
0.0
 47
0.0208333333333333
 47
0.0
 47
0.0
 47
0.0
 47
0.0
 47
1.0
 47
0.0
 47
0.0
 47
0.0
 47
0.0
 47
1.0
171
     0
 49
0.0208333333333333
 49
0.0
 49
0.0
 49
0.0
 49
0.0
 49
0.0208333333333333
 49
0.0
 49
0.0
 49
0.0
 49
0.0
 49
1.0
 49
0.0
 49
0.0
 49
0.0
 49
0.0
 49
1.0
175
     0
142
0.0208333333333333
142
0.0
142
0.0
142
0.0
142
0.0
142
0.0208333333333333
142
0.0
142
0.0
142
0.0
142
0.0
142
1.0
142
0.0
142
0.0
142
0.0
142
0.0
142
1.0
179
     0
144
0.0208333333333333
144
0.0
144
0.0
144
0.0
144
0.0
144
0.0208333333333333
144
0.0
144
0.0
144
0.0
144
0.0
144
1.0
144
0.0
144
0.0
144
0.0
144
0.0
144
1.0
147
0.0208333333333333
147
0.0
147
0.0
147
0.0
147
0.0
147
0.0208333333333333
147
0.0
147
0.0
147
0.0
147
0.0
147
1.0
147
0.0
147
0.0
147
0.0
147
0.0
147
1.0
  0
MLEADERSTYLE
  5
67
102
{ACAD_REACTORS
330
66
102
}
330
66
100
AcDbMLeaderStyle
179
     2
170
     2
171
     1
172
     0
 90
        2
 40
0.0
 41
0.0
173
     1
 91
-1056964608
340
5B
 92
       -2
290
     1
 42
0.09
291
     1
 43
0.36
  3
Standard
 44
0.18
300

342
55
174
     1
178
     6
175
     1
176
     0
 93
-1056964608
 45
0.18
292
     0
297
     0
 46
0.18
 94
-1056964608
 47
1.0
 49
1.0
140
1.0
293
     1
141
0.0
294
     1
177
     0
142
1.0
295
     1
296
     0
143
0.125
271
     0
272
     9
273
     9
298
     1
  0
MLINESTYLE
  5
60
102
{ACAD_REACTORS
330
5F
102
}
330
5F
100
AcDbMlineStyle
  2
STANDARD
 70
     0
  3

 62
   256
 51
90.0
 52
90.0
 71
     2
 49
0.5
 62
   256
  6
BYLAYER
 49
-0.5
 62
   256
  6
BYLAYER
  0
ACDBPLACEHOLDER
  5
F
102
{ACAD_REACTORS
330
E
102
}
330
E
  0
SCALE
  5
43
102
{ACAD_REACTORS
330
42
102
}
330
42
100
AcDbScale
 70
     0
300
1:1
140
1.0
141
1.0
290
     1
  0
SCALE
  5
44
102
{ACAD_REACTORS
330
42
102
}
330
42
100
AcDbScale
 70
     0
300
1/128" = 1'-0"
140
0.0078125
141
12.0
290
     0
  0
SCALE
  5
45
102
{ACAD_REACTORS
330
42
102
}
330
42
100
AcDbScale
 70
     0
300
1/64" = 1'-0"
140
0.015625
141
12.0
290
     0
  0
SCALE
  5
46
102
{ACAD_REACTORS
330
42
102
}
330
42
100
AcDbScale
 70
     0
300
1/32" = 1'-0"
140
0.03125
141
12.0
290
     0
  0
SCALE
  5
47
102
{ACAD_REACTORS
330
42
102
}
330
42
100
AcDbScale
 70
     0
300
1/16" = 1'-0"
140
0.0625
141
12.0
290
     0
  0
SCALE
  5
48
102
{ACAD_REACTORS
330
42
102
}
330
42
100
AcDbScale
 70
     0
300
3/32" = 1'-0"
140
0.09375
141
12.0
290
     0
  0
SCALE
  5
49
102
{ACAD_REACTORS
330
42
102
}
330
42
100
AcDbScale
 70
     0
300
1/8" = 1'-0"
140
0.125
141
12.0
290
     0
  0
SCALE
  5
4A
102
{ACAD_REACTORS
330
42
102
}
330
42
100
AcDbScale
 70
     0
300
3/16" = 1'-0"
140
0.1875
141
12.0
290
     0
  0
SCALE
  5
4B
102
{ACAD_REACTORS
330
42
102
}
330
42
100
AcDbScale
 70
     0
300
1/4" = 1'-0"
140
0.25
141
12.0
290
     0
  0
SCALE
  5
4C
102
{ACAD_REACTORS
330
42
102
}
330
42
100
AcDbScale
 70
     0
300
3/8" = 1'-0"
140
0.375
141
12.0
290
     0
  0
SCALE
  5
4D
102
{ACAD_REACTORS
330
42
102
}
330
42
100
AcDbScale
 70
     0
300
1/2" = 1'-0"
140
0.5
141
12.0
290
     0
  0
SCALE
  5
4E
102
{ACAD_REACTORS
330
42
102
}
330
42
100
AcDbScale
 70
     0
300
3/4" = 1'-0"
140
0.75
141
12.0
290
     0
  0
SCALE
  5
4F
102
{ACAD_REACTORS
330
42
102
}
330
42
100
AcDbScale
 70
     0
300
1" = 1'-0"
140
1.0
141
12.0
290
     0
  0
SCALE
  5
50
102
{ACAD_REACTORS
330
42
102
}
330
42
100
AcDbScale
 70
     0
300
1-1/2" = 1'-0"
140
1.5
141
12.0
290
     0
  0
SCALE
  5
51
102
{ACAD_REACTORS
330
42
102
}
330
42
100
AcDbScale
 70
     0
300
3" = 1'-0"
140
3.0
141
12.0
290
     0
  0
SCALE
  5
52
102
{ACAD_REACTORS
330
42
102
}
330
42
100
AcDbScale
 70
     0
300
6" = 1'-0"
140
6.0
141
12.0
290
     0
  0
SCALE
  5
53
102
{ACAD_REACTORS
330
42
102
}
330
42
100
AcDbScale
 70
     0
300
1'-0" = 1'-0"
140
12.0
141
12.0
290
     0
  0
ACDBSECTIONVIEWSTYLE
  5
69
102
{ACAD_REACTORS
330
68
102
}
330
68
100
AcDbModelDocViewStyle
 70
     0
  3
Imperial24
290
     1
300
Imperial24
 90
        0
100
AcDbSectionViewStyle
 70
     0
 71
     0
 90
       78
 71
     1
340
55
 62
   256
 40
0.24
340
0
340
0
 62
   256
 40
0.24
300
I, O, Q, S, X, Z
 40
0.48
 90
        3
 40
0.18
 90
        1
 71
     2
340
5D
 90
       25
 62
   256
340
5D
 90
       50
 62
   256
 40
0.24
 40
0.0
 40
0.24
 71
     3
340
55
 62
   256
 40
0.24
 90
        1
 40
0.75
 90
        1
300
%<\AcVar ViewType \f "%tc1">% %<\AcVar ViewSectionStartId>%-%<\AcVar ViewSectionEndId>%\PSCALE %<\AcVar ViewScale \f "%sn">%
 71
     4
 62
   256
 62
   257
300
ANSI31
 40
1.0
 90
        0
290
     0
290
     0
 90
        6
 40
0.0
 40
1.570796326794896
 40
0.2617993877991494
 40
1.308996938995747
 40
-0.2617993877991494
 40
1.832595714594046
  0
TABLESTYLE
  5
65
102
{ACAD_XDICTIONARY
360
DC
102
}
102
{ACAD_REACTORS
330
64
102
}
330
64
100
AcDbTableStyle
280
     0
  3
Standard
 70
     0
 71
     0
 40
0.06
 41
0.06
280
     0
281
     0
  7
Standard
140
0.18
170
     2
 62
     0
 63
     7
283
     0
 90
      512
 91
        0
  1

274
    -2
284
     1
 64
     0
275
    -2
285
     1
 65
     0
276
    -2
286
     1
 66
     0
277
    -2
287
     1
 67
     0
278
    -2
288
     1
 68
     0
279
    -2
289
     1
 69
     0
  7
Standard
140
0.25
170
     5
 62
     0
 63
     7
283
     0
 90
      512
 91
        0
  1

274
    -2
284
     1
 64
     0
275
    -2
285
     1
 65
     0
276
    -2
286
     1
 66
     0
277
    -2
287
     1
 67
     0
278
    -2
288
     1
 68
     0
279
    -2
289
     1
 69
     0
  7
Standard
140
0.18
170
     5
 62
     0
 63
     7
283
     0
 90
      512
 91
        0
  1

274
    -2
284
     1
 64
     0
275
    -2
285
     1
 65
     0
276
    -2
286
     1
 66
     0
277
    -2
287
     1
 67
     0
278
    -2
288
     1
 68
     0
279
    -2
289
     1
 69
     0
  0
VISUALSTYLE
  5
2F
102
{ACAD_REACTORS
330
29
102
}
330
29
100
AcDbVisualStyle
  2
2dWireframe
 70
     4
177
     3
291
     0
 70
    58
 90
        0
176
     1
 90
        2
176
     1
 90
        0
176
     1
 90
        0
176
     1
 40
0.6
176
     1
 40
30.0
176
     1
 62
     7
420
 16777215
176
     1
 90
        1
176
     1
 90
        4
176
     1
 62
     7
176
     1
 62
   257
176
     1
 90
        1
176
     1
 90
        1
176
     1
 40
1.0
176
     1
 90
        0
176
     1
 62
   257
176
     1
 40
1.0
176
     1
 90
        1
176
     1
 90
        6
176
     1
 90
        2
176
     1
 62
     7
176
     1
 90
        5
176
     1
 90
        0
176
     1
 90
        0
176
     1
290
     0
176
     1
 90
        1
176
     1
 40
0.0
176
     1
 90
        0
176
     1
290
     1
176
     1
290
     1
176
     1
290
     0
176
     1
290
     0
176
     1
290
     0
176
     1
290
     0
176
     1
290
     0
176
     1
290
     0
176
     1
290
     0
176
     1
 90
       50
176
     1
 40
0.0
176
     1
 40
1.0
176
     1
 90
        0
176
     1
 62
    18
420
        0
176
     1
 90
       50
176
     1
 90
        3
176
     1
 62
     5
420
      255
176
     1
290
     0
176
     1
 90
       50
176
     1
 90
       50
176
     1
 90
       50
176
     1
290
     0
176
     1
 90
       50
176
     1
 62
   256
176
     0
 40
1.0
176
     0
 90
        2
176
     1
  1
strokes_ogs.tif
176
     1
290
     0
176
     1
 40
1.0
176
     1
 40
1.0
176
     1
  0
VISUALSTYLE
  5
2E
102
{ACAD_REACTORS
330
29
102
}
330
29
100
AcDbVisualStyle
  2
Basic
 70
     7
177
     3
291
     1
 70
    58
 90
        1
176
     1
 90
        0
176
     1
 90
        1
176
     1
 90
        0
176
     1
 40
0.6
176
     1
 40
30.0
176
     1
 62
     7
420
 16777215
176
     1
 90
        0
176
     1
 90
        4
176
     1
 62
     7
176
     1
 62
   257
176
     1
 90
        1
176
     1
 90
        1
176
     1
 40
1.0
176
     1
 90
        8
176
     1
 62
     7
176
     1
 40
1.0
176
     1
 90
        1
176
     1
 90
        6
176
     1
 90
        2
176
     1
 62
     7
176
     1
 90
        5
176
     1
 90
        0
176
     1
 90
        0
176
     1
290
     0
176
     1
 90
        1
176
     1
 40
0.0
176
     1
 90
        0
176
     1
290
     0
176
     1
290
     1
176
     1
290
     1
176
     1
290
     0
176
     1
290
     0
176
     1
290
     0
176
     1
290
     0
176
     1
290
     0
176
     1
290
     0
176
     1
 90
       50
176
     1
 40
0.0
176
     1
 40
1.0
176
     1
 90
        0
176
     1
 62
    18
420
        0
176
     1
 90
       50
176
     1
 90
        3
176
     1
 62
     5
420
      255
176
     1
290
     0
176
     1
 90
       50
176
     1
 90
       50
176
     1
 90
       50
176
     1
290
     0
176
     1
 90
       50
176
     1
 62
   256
176
     0
 40
1.0
176
     0
 90
        2
176
     1
  1
strokes_ogs.tif
176
     1
290
     0
176
     1
 40
1.0
176
     1
 40
1.0
176
     1
  0
VISUALSTYLE
  5
35
102
{ACAD_REACTORS
330
29
102
}
330
29
100
AcDbVisualStyle
  2
Brighten
 70
    12
177
     3
291
     1
 70
    58
 90
        2
176
     1
 90
        2
176
     1
 90
        0
176
     1
 90
        0
176
     1
 40
0.6
176
     1
 40
30.0
176
     1
 62
     7
420
 16777215
176
     1
 90
        1
176
     1
 90
        4
176
     1
 62
     7
176
     1
 62
   257
176
     1
 90
        1
176
     1
 90
        1
176
     1
 40
1.0
176
     1
 90
        8
176
     1
 62
     7
176
     1
 40
1.0
176
     1
 90
        1
176
     1
 90
        6
176
     1
 90
        2
176
     1
 62
     7
176
     1
 90
        5
176
     1
 90
        0
176
     1
 90
        0
176
     1
290
     0
176
     1
 90
        1
176
     1
 40
50.0
176
     1
 90
        0
176
     1
290
     0
176
     1
290
     1
176
     1
290
     1
176
     1
290
     0
176
     1
290
     0
176
     1
290
     0
176
     1
290
     0
176
     1
290
     0
176
     1
290
     0
176
     1
 90
       50
176
     1
 40
0.0
176
     1
 40
1.0
176
     1
 90
        0
176
     1
 62
    18
420
        0
176
     1
 90
       50
176
     1
 90
        3
176
     1
 62
     5
420
      255
176
     1
290
     0
176
     1
 90
       50
176
     1
 90
       50
176
     1
 90
       50
176
     1
290
     0
176
     1
 90
       50
176
     1
 62
   256
176
     0
 40
1.0
176
     0
 90
        2
176
     1
  1
strokes_ogs.tif
176
     1
290
     0
176
     1
 40
1.0
176
     1
 40
1.0
176
     1
  0
VISUALSTYLE
  5
39
102
{ACAD_REACTORS
330
29
102
}
330
29
100
AcDbVisualStyle
  2
ColorChange
 70
    16
177
     3
291
     1
 70
    58
 90
        2
176
     1
 90
        2
176
     1
 90
        3
176
     1
 90
        0
176
     1
 40
0.6
176
     1
 40
30.0
176
     1
 62
     8
420
  8421504
176
     1
 90
        1
176
     1
 90
        4
176
     1
 62
     7
176
     1
 62
   257
176
     1
 90
        1
176
     1
 90
        1
176
     1
 40
1.0
176
     1
 90
        8
176
     1
 62
     8
420
  8421504
176
     1
 40
1.0
176
     1
 90
        1
176
     1
 90
        6
176
     1
 90
        2
176
     1
 62
     7
176
     1
 90
        5
176
     1
 90
        0
176
     1
 90
        0
176
     1
290
     0
176
     1
 90
        1
176
     1
 40
0.0
176
     1
 90
        0
176
     1
290
     0
176
     1
290
     1
176
     1
290
     1
176
     1
290
     0
176
     1
290
     0
176
     1
290
     0
176
     1
290
     0
176
     1
290
     0
176
     1
290
     0
176
     1
 90
       50
176
     1
 40
0.0
176
     1
 40
1.0
176
     1
 90
        0
176
     1
 62
    18
420
        0
176
     1
 90
       50
176
     1
 90
        3
176
     1
 62
     5
420
      255
176
     1
290
     0
176
     1
 90
       50
176
     1
 90
       50
176
     1
 90
       50
176
     1
290
     0
176
     1
 90
       50
176
     1
 62
   256
176
     0
 40
1.0
176
     0
 90
        2
176
     1
  1
strokes_ogs.tif
176
     1
290
     0
176
     1
 40
1.0
176
     1
 40
1.0
176
     1
  0
VISUALSTYLE
  5
32
102
{ACAD_REACTORS
330
29
102
}
330
29
100
AcDbVisualStyle
  2
Conceptual
 70
     9
177
     3
291
     0
 70
    58
 90
        3
176
     1
 90
        2
176
     1
 90
        0
176
     1
 90
        0
176
     1
 40
0.6
176
     1
 40
30.0
176
     1
 62
     7
420
 16777215
176
     1
 90
        2
176
     1
 90
        2
176
     1
 62
     7
176
     1
 62
   257
176
     1
 90
        1
176
     1
 90
        1
176
     1
 40
179.0
176
     1
 90
        8
176
     1
 62
     7
176
     1
 40
1.0
176
     1
 90
        1
176
     1
 90
        6
176
     1
 90
        2
176
     1
 62
     7
176
     1
 90
        3
176
     1
 90
        0
176
     1
 90
        0
176
     1
290
     0
176
     1
 90
        1
176
     1
 40
0.0
176
     1
 90
        0
176
     1
290
     0
176
     1
290
     1
176
     1
290
     1
176
     1
290
     0
176
     1
290
     0
176
     1
290
     0
176
     1
290
     0
176
     1
290
     0
176
     1
290
     0
176
     1
 90
       50
176
     1
 40
0.0
176
     1
 40
1.0
176
     1
 90
        0
176
     1
 62
    18
420
        0
176
     1
 90
       50
176
     1
 90
        3
176
     1
 62
     5
420
      255
176
     1
290
     0
176
     1
 90
       50
176
     1
 90
       50
176
     1
 90
       50
176
     1
290
     0
176
     1
 90
       50
176
     1
 62
   256
176
     0
 40
1.0
176
     0
 90
        2
176
     1
  1
strokes_ogs.tif
176
     1
290
     0
176
     1
 40
1.0
176
     1
 40
1.0
176
     1
  0
VISUALSTYLE
  5
34
102
{ACAD_REACTORS
330
29
102
}
330
29
100
AcDbVisualStyle
  2
Dim
 70
    11
177
     3
291
     1
 70
    58
 90
        2
176
     1
 90
        2
176
     1
 90
        0
176
     1
 90
        0
176
     1
 40
0.6
176
     1
 40
30.0
176
     1
 62
     7
420
 16777215
176
     1
 90
        1
176
     1
 90
        4
176
     1
 62
     7
176
     1
 62
   257
176
     1
 90
        1
176
     1
 90
        1
176
     1
 40
1.0
176
     1
 90
        8
176
     1
 62
     7
176
     1
 40
1.0
176
     1
 90
        1
176
     1
 90
        6
176
     1
 90
        2
176
     1
 62
     7
176
     1
 90
        5
176
     1
 90
        0
176
     1
 90
        0
176
     1
290
     0
176
     1
 90
        1
176
     1
 40
-50.0
176
     1
 90
        0
176
     1
290
     0
176
     1
290
     1
176
     1
290
     1
176
     1
290
     0
176
     1
290
     0
176
     1
290
     0
176
     1
290
     0
176
     1
290
     0
176
     1
290
     0
176
     1
 90
       50
176
     1
 40
0.0
176
     1
 40
1.0
176
     1
 90
        0
176
     1
 62
    18
420
        0
176
     1
 90
       50
176
     1
 90
        3
176
     1
 62
     5
420
      255
176
     1
290
     0
176
     1
 90
       50
176
     1
 90
       50
176
     1
 90
       50
176
     1
290
     0
176
     1
 90
       50
176
     1
 62
   256
176
     0
 40
1.0
176
     0
 90
        2
176
     1
  1
strokes_ogs.tif
176
     1
290
     0
176
     1
 40
1.0
176
     1
 40
1.0
176
     1
  0
VISUALSTYLE
  5
41
102
{ACAD_REACTORS
330
29
102
}
330
29
100
AcDbVisualStyle
  2
EdgeColorOff
 70
    22
177
     3
291
     1
 70
    58
 90
        2
176
     0
 90
        2
176
     0
 90
        0
176
     0
 90
        0
176
     0
 40
0.6
176
     0
 40
30.0
176
     0
 62
     7
420
 16777215
176
     0
 90
        1
176
     0
 90
        4
176
     0
 62
     7
176
     0
 62
   257
176
     0
 90
        1
176
     0
 90
        1
176
     0
 40
1.0
176
     0
 90
        8
176
     2
 62
     7
176
     0
 40
1.0
176
     0
 90
        1
176
     0
 90
        6
176
     0
 90
        2
176
     0
 62
     7
176
     0
 90
        5
176
     0
 90
        0
176
     0
 90
        0
176
     0
290
     0
176
     0
 90
        1
176
     0
 40
0.0
176
     0
 90
        0
176
     0
290
     0
176
     0
290
     1
176
     0
290
     1
176
     0
290
     0
176
     0
290
     0
176
     0
290
     0
176
     0
290
     0
176
     0
290
     0
176
     0
290
     0
176
     0
 90
       50
176
     0
 40
0.0
176
     0
 40
1.0
176
     0
 90
        0
176
     0
 62
    18
420
        0
176
     0
 90
       50
176
     0
 90
        3
176
     0
 62
     5
420
      255
176
     0
290
     0
176
     0
 90
       50
176
     0
 90
       50
176
     0
 90
       50
176
     0
290
     0
176
     0
 90
       50
176
     0
 62
   256
176
     0
 40
1.0
176
     0
 90
        2
176
     0
  1
strokes_ogs.tif
176
     0
290
     0
176
     0
 40
1.0
176
     0
 40
1.0
176
     0
  0
VISUALSTYLE
  5
38
102
{ACAD_REACTORS
330
29
102
}
330
29
100
AcDbVisualStyle
  2
Facepattern
 70
    15
177
     3
291
     1
 70
    58
 90
        2
176
     1
 90
        2
176
     1
 90
        0
176
     1
 90
        0
176
     1
 40
0.6
176
     1
 40
30.0
176
     1
 62
     7
420
 16777215
176
     1
 90
        1
176
     1
 90
        4
176
     1
 62
     7
176
     1
 62
   257
176
     1
 90
        1
176
     1
 90
        1
176
     1
 40
1.0
176
     1
 90
        8
176
     1
 62
     7
176
     1
 40
1.0
176
     1
 90
        1
176
     1
 90
        6
176
     1
 90
        2
176
     1
 62
     7
176
     1
 90
        5
176
     1
 90
        0
176
     1
 90
        0
176
     1
290
     0
176
     1
 90
        1
176
     1
 40
0.0
176
     1
 90
        0
176
     1
290
     0
176
     1
290
     1
176
     1
290
     1
176
     1
290
     0
176
     1
290
     0
176
     1
290
     0
176
     1
290
     0
176
     1
290
     0
176
     1
290
     0
176
     1
 90
       50
176
     1
 40
0.0
176
     1
 40
1.0
176
     1
 90
        0
176
     1
 62
    18
420
        0
176
     1
 90
       50
176
     1
 90
        3
176
     1
 62
     5
420
      255
176
     1
290
     0
176
     1
 90
       50
176
     1
 90
       50
176
     1
 90
       50
176
     1
290
     0
176
     1
 90
       50
176
     1
 62
   256
176
     0
 40
1.0
176
     0
 90
        2
176
     1
  1
strokes_ogs.tif
176
     1
290
     0
176
     1
 40
1.0
176
     1
 40
1.0
176
     1
  0
VISUALSTYLE
  5
2A
102
{ACAD_REACTORS
330
29
102
}
330
29
100
AcDbVisualStyle
  2
Flat
 70
     0
177
     3
291
     1
 70
    58
 90
        2
176
     1
 90
        1
176
     1
 90
        1
176
     1
 90
        2
176
     1
 40
0.6
176
     1
 40
30.0
176
     1
 62
     7
420
 16777215
176
     1
 90
        0
176
     1
 90
        0
176
     1
 62
     7
176
     1
 62
   257
176
     1
 90
        1
176
     1
 90
        1
176
     1
 40
1.0
176
     1
 90
        8
176
     1
 62
     7
176
     1
 40
1.0
176
     1
 90
        1
176
     1
 90
        6
176
     1
 90
        2
176
     1
 62
     7
176
     1
 90
        5
176
     1
 90
        0
176
     1
 90
        0
176
     1
290
     0
176
     1
 90
       13
176
     1
 40
0.0
176
     1
 90
        0
176
     1
290
     0
176
     1
290
     1
176
     1
290
     1
176
     1
290
     0
176
     1
290
     0
176
     1
290
     0
176
     1
290
     0
176
     1
290
     0
176
     1
290
     0
176
     1
 90
       50
176
     1
 40
0.0
176
     1
 40
1.0
176
     1
 90
        0
176
     1
 62
    18
420
        0
176
     1
 90
       50
176
     1
 90
        3
176
     1
 62
     5
420
      255
176
     1
290
     0
176
     1
 90
       50
176
     1
 90
       50
176
     1
 90
       50
176
     1
290
     0
176
     1
 90
       50
176
     1
 62
   256
176
     0
 40
1.0
176
     0
 90
        2
176
     1
  1
strokes_ogs.tif
176
     1
290
     0
176
     1
 40
1.0
176
     1
 40
1.0
176
     1
  0
VISUALSTYLE
  5
2B
102
{ACAD_REACTORS
330
29
102
}
330
29
100
AcDbVisualStyle
  2
FlatWithEdges
 70
     1
177
     3
291
     1
 70
    58
 90
        2
176
     1
 90
        1
176
     1
 90
        1
176
     1
 90
        2
176
     1
 40
0.6
176
     1
 40
30.0
176
     1
 62
     7
420
 16777215
176
     1
 90
        1
176
     1
 90
        0
176
     1
 62
     7
176
     1
 62
   257
176
     1
 90
        1
176
     1
 90
        1
176
     1
 40
1.0
176
     1
 90
        0
176
     1
 62
   257
176
     1
 40
1.0
176
     1
 90
        1
176
     1
 90
        6
176
     1
 90
        2
176
     1
 62
     7
176
     1
 90
        5
176
     1
 90
        0
176
     1
 90
        0
176
     1
290
     0
176
     1
 90
       13
176
     1
 40
0.0
176
     1
 90
        0
176
     1
290
     0
176
     1
290
     1
176
     1
290
     1
176
     1
290
     0
176
     1
290
     0
176
     1
290
     0
176
     1
290
     0
176
     1
290
     0
176
     1
290
     0
176
     1
 90
       50
176
     1
 40
0.0
176
     1
 40
1.0
176
     1
 90
        0
176
     1
 62
    18
420
        0
176
     1
 90
       50
176
     1
 90
        3
176
     1
 62
     5
420
      255
176
     1
290
     0
176
     1
 90
       50
176
     1
 90
       50
176
     1
 90
       50
176
     1
290
     0
176
     1
 90
       50
176
     1
 62
   256
176
     0
 40
1.0
176
     0
 90
        2
176
     1
  1
strokes_ogs.tif
176
     1
290
     0
176
     1
 40
1.0
176
     1
 40
1.0
176
     1
  0
VISUALSTYLE
  5
2C
102
{ACAD_REACTORS
330
29
102
}
330
29
100
AcDbVisualStyle
  2
Gouraud
 70
     2
177
     3
291
     1
 70
    58
 90
        2
176
     1
 90
        2
176
     1
 90
        1
176
     1
 90
        2
176
     1
 40
0.6
176
     1
 40
30.0
176
     1
 62
     7
420
 16777215
176
     1
 90
        0
176
     1
 90
        0
176
     1
 62
     7
176
     1
 62
   257
176
     1
 90
        1
176
     1
 90
        1
176
     1
 40
1.0
176
     1
 90
        0
176
     1
 62
     7
176
     1
 40
1.0
176
     1
 90
        1
176
     1
 90
        6
176
     1
 90
        2
176
     1
 62
     7
176
     1
 90
        5
176
     1
 90
        0
176
     1
 90
        0
176
     1
290
     0
176
     1
 90
       13
176
     1
 40
0.0
176
     1
 90
        0
176
     1
290
     0
176
     1
290
     1
176
     1
290
     1
176
     1
290
     0
176
     1
290
     0
176
     1
290
     0
176
     1
290
     0
176
     1
290
     0
176
     1
290
     0
176
     1
 90
       50
176
     1
 40
0.0
176
     1
 40
1.0
176
     1
 90
        0
176
     1
 62
    18
420
        0
176
     1
 90
       50
176
     1
 90
        3
176
     1
 62
     5
420
      255
176
     1
290
     0
176
     1
 90
       50
176
     1
 90
       50
176
     1
 90
       50
176
     1
290
     0
176
     1
 90
       50
176
     1
 62
   256
176
     0
 40
1.0
176
     0
 90
        2
176
     1
  1
strokes_ogs.tif
176
     1
290
     0
176
     1
 40
1.0
176
     1
 40
1.0
176
     1
  0
VISUALSTYLE
  5
2D
102
{ACAD_REACTORS
330
29
102
}
330
29
100
AcDbVisualStyle
  2
GouraudWithEdges
 70
     3
177
     3
291
     1
 70
    58
 90
        2
176
     1
 90
        2
176
     1
 90
        1
176
     1
 90
        2
176
     1
 40
0.6
176
     1
 40
30.0
176
     1
 62
     7
420
 16777215
176
     1
 90
        1
176
     1
 90
        0
176
     1
 62
     7
176
     1
 62
   257
176
     1
 90
        1
176
     1
 90
        1
176
     1
 40
1.0
176
     1
 90
        0
176
     1
 62
   257
176
     1
 40
1.0
176
     1
 90
        1
176
     1
 90
        6
176
     1
 90
        2
176
     1
 62
     7
176
     1
 90
        5
176
     1
 90
        0
176
     1
 90
        0
176
     1
290
     0
176
     1
 90
       13
176
     1
 40
0.0
176
     1
 90
        0
176
     1
290
     0
176
     1
290
     1
176
     1
290
     1
176
     1
290
     0
176
     1
290
     0
176
     1
290
     0
176
     1
290
     0
176
     1
290
     0
176
     1
290
     0
176
     1
 90
       50
176
     1
 40
0.0
176
     1
 40
1.0
176
     1
 90
        0
176
     1
 62
    18
420
        0
176
     1
 90
       50
176
     1
 90
        3
176
     1
 62
     5
420
      255
176
     1
290
     0
176
     1
 90
       50
176
     1
 90
       50
176
     1
 90
       50
176
     1
290
     0
176
     1
 90
       50
176
     1
 62
   256
176
     0
 40
1.0
176
     0
 90
        2
176
     1
  1
strokes_ogs.tif
176
     1
290
     0
176
     1
 40
1.0
176
     1
 40
1.0
176
     1
  0
VISUALSTYLE
  5
31
102
{ACAD_REACTORS
330
29
102
}
330
29
100
AcDbVisualStyle
  2
Hidden
 70
     6
177
     3
291
     0
 70
    58
 90
        1
176
     1
 90
        2
176
     1
 90
        2
176
     1
 90
        0
176
     1
 40
0.6
176
     1
 40
30.0
176
     1
 62
     7
420
 16777215
176
     1
 90
        2
176
     1
 90
        2
176
     1
 62
     7
176
     1
 62
   257
176
     1
 90
        2
176
     1
 90
        1
176
     1
 40
40.0
176
     1
 90
        0
176
     1
 62
   257
176
     1
 40
1.0
176
     1
 90
        1
176
     1
 90
        6
176
     1
 90
        2
176
     1
 62
     7
176
     1
 90
        3
176
     1
 90
        0
176
     1
 90
        0
176
     1
290
     0
176
     1
 90
        1
176
     1
 40
0.0
176
     1
 90
        0
176
     1
290
     0
176
     1
290
     1
176
     1
290
     1
176
     1
290
     0
176
     1
290
     0
176
     1
290
     0
176
     1
290
     0
176
     1
290
     0
176
     1
290
     0
176
     1
 90
       50
176
     1
 40
0.0
176
     1
 40
1.0
176
     1
 90
        0
176
     1
 62
    18
420
        0
176
     1
 90
       50
176
     1
 90
        3
176
     1
 62
     5
420
      255
176
     1
290
     0
176
     1
 90
       50
176
     1
 90
       50
176
     1
 90
       50
176
     1
290
     0
176
     1
 90
       50
176
     1
 62
   256
176
     0
 40
1.0
176
     0
 90
        2
176
     1
  1
strokes_ogs.tif
176
     1
290
     0
176
     1
 40
1.0
176
     1
 40
1.0
176
     1
  0
VISUALSTYLE
  5
3F
102
{ACAD_REACTORS
330
29
102
}
330
29
100
AcDbVisualStyle
  2
JitterOff
 70
    20
177
     3
291
     1
 70
    58
 90
        2
176
     0
 90
        2
176
     0
 90
        0
176
     0
 90
        0
176
     0
 40
0.6
176
     0
 40
30.0
176
     0
 62
     7
420
 16777215
176
     0
 90
        1
176
     0
 90
        4
176
     0
 62
     7
176
     0
 62
   257
176
     0
 90
        1
176
     0
 90
        1
176
     0
 40
1.0
176
     0
 90
       10
176
     2
 62
     7
176
     0
 40
1.0
176
     0
 90
        1
176
     0
 90
        6
176
     0
 90
        2
176
     0
 62
     7
176
     0
 90
        5
176
     0
 90
        0
176
     0
 90
        0
176
     0
290
     0
176
     0
 90
        1
176
     0
 40
0.0
176
     0
 90
        0
176
     0
290
     0
176
     0
290
     1
176
     0
290
     1
176
     0
290
     0
176
     0
290
     0
176
     0
290
     0
176
     0
290
     0
176
     0
290
     0
176
     0
290
     0
176
     0
 90
       50
176
     0
 40
0.0
176
     0
 40
1.0
176
     0
 90
        0
176
     0
 62
    18
420
        0
176
     0
 90
       50
176
     0
 90
        3
176
     0
 62
     5
420
      255
176
     0
290
     0
176
     0
 90
       50
176
     0
 90
       50
176
     0
 90
       50
176
     0
290
     0
176
     0
 90
       50
176
     0
 62
   256
176
     0
 40
1.0
176
     0
 90
        2
176
     0
  1
strokes_ogs.tif
176
     0
290
     0
176
     0
 40
1.0
176
     0
 40
1.0
176
     0
  0
VISUALSTYLE
  5
37
102
{ACAD_REACTORS
330
29
102
}
330
29
100
AcDbVisualStyle
  2
Linepattern
 70
    14
177
     3
291
     1
 70
    58
 90
        2
176
     1
 90
        2
176
     1
 90
        0
176
     1
 90
        0
176
     1
 40
0.6
176
     1
 40
30.0
176
     1
 62
     7
420
 16777215
176
     1
 90
        1
176
     1
 90
        4
176
     1
 62
     7
176
     1
 62
   257
176
     1
 90
        7
176
     1
 90
        7
176
     1
 40
1.0
176
     1
 90
        8
176
     1
 62
     7
176
     1
 40
1.0
176
     1
 90
        1
176
     1
 90
        6
176
     1
 90
        2
176
     1
 62
     7
176
     1
 90
        5
176
     1
 90
        0
176
     1
 90
        0
176
     1
290
     0
176
     1
 90
        1
176
     1
 40
0.0
176
     1
 90
        0
176
     1
290
     0
176
     1
290
     1
176
     1
290
     1
176
     1
290
     0
176
     1
290
     0
176
     1
290
     0
176
     1
290
     0
176
     1
290
     0
176
     1
290
     0
176
     1
 90
       50
176
     1
 40
0.0
176
     1
 40
1.0
176
     1
 90
        0
176
     1
 62
    18
420
        0
176
     1
 90
       50
176
     1
 90
        3
176
     1
 62
     5
420
      255
176
     1
290
     0
176
     1
 90
       50
176
     1
 90
       50
176
     1
 90
       50
176
     1
290
     0
176
     1
 90
       50
176
     1
 62
   256
176
     0
 40
1.0
176
     0
 90
        2
176
     1
  1
strokes_ogs.tif
176
     1
290
     0
176
     1
 40
1.0
176
     1
 40
1.0
176
     1
  0
VISUALSTYLE
  5
40
102
{ACAD_REACTORS
330
29
102
}
330
29
100
AcDbVisualStyle
  2
OverhangOff
 70
    21
177
     3
291
     1
 70
    58
 90
        2
176
     0
 90
        2
176
     0
 90
        0
176
     0
 90
        0
176
     0
 40
0.6
176
     0
 40
30.0
176
     0
 62
     7
420
 16777215
176
     0
 90
        1
176
     0
 90
        4
176
     0
 62
     7
176
     0
 62
   257
176
     0
 90
        1
176
     0
 90
        1
176
     0
 40
1.0
176
     0
 90
        9
176
     2
 62
     7
176
     0
 40
1.0
176
     0
 90
        1
176
     0
 90
        6
176
     0
 90
        2
176
     0
 62
     7
176
     0
 90
        5
176
     0
 90
        0
176
     0
 90
        0
176
     0
290
     0
176
     0
 90
        1
176
     0
 40
0.0
176
     0
 90
        0
176
     0
290
     0
176
     0
290
     1
176
     0
290
     1
176
     0
290
     0
176
     0
290
     0
176
     0
290
     0
176
     0
290
     0
176
     0
290
     0
176
     0
290
     0
176
     0
 90
       50
176
     0
 40
0.0
176
     0
 40
1.0
176
     0
 90
        0
176
     0
 62
    18
420
        0
176
     0
 90
       50
176
     0
 90
        3
176
     0
 62
     5
420
      255
176
     0
290
     0
176
     0
 90
       50
176
     0
 90
       50
176
     0
 90
       50
176
     0
290
     0
176
     0
 90
       50
176
     0
 62
   256
176
     0
 40
1.0
176
     0
 90
        2
176
     0
  1
strokes_ogs.tif
176
     0
290
     0
176
     0
 40
1.0
176
     0
 40
1.0
176
     0
  0
VISUALSTYLE
  5
33
102
{ACAD_REACTORS
330
29
102
}
330
29
100
AcDbVisualStyle
  2
Realistic
 70
     8
177
     3
291
     0
 70
    58
 90
        2
176
     1
 90
        3
176
     1
 90
        0
176
     1
 90
        2
176
     1
 40
0.6
176
     1
 40
30.0
176
     1
 62
     7
420
 16777215
176
     1
 90
        0
176
     1
 90
        0
176
     1
 62
     7
176
     1
 62
   257
176
     1
 90
        1
176
     1
 90
        1
176
     1
 40
1.0
176
     1
 90
        8
176
     1
 62
   257
176
     1
 40
1.0
176
     1
 90
        1
176
     1
 90
        6
176
     1
 90
        2
176
     1
 62
     7
176
     1
 90
        3
176
     1
 90
        0
176
     1
 90
        0
176
     1
290
     0
176
     1
 90
       13
176
     1
 40
0.0
176
     1
 90
        0
176
     1
290
     0
176
     1
290
     1
176
     1
290
     1
176
     1
290
     0
176
     1
290
     0
176
     1
290
     0
176
     1
290
     0
176
     1
290
     0
176
     1
290
     0
176
     1
 90
       50
176
     1
 40
0.0
176
     1
 40
1.0
176
     1
 90
        0
176
     1
 62
    18
420
        0
176
     1
 90
       50
176
     1
 90
        3
176
     1
 62
     5
420
      255
176
     1
290
     0
176
     1
 90
       50
176
     1
 90
       50
176
     1
 90
       50
176
     1
290
     0
176
     1
 90
       50
176
     1
 62
   256
176
     0
 40
1.0
176
     0
 90
        2
176
     1
  1
strokes_ogs.tif
176
     1
290
     0
176
     1
 40
1.0
176
     1
 40
1.0
176
     1
  0
VISUALSTYLE
  5
3E
102
{ACAD_REACTORS
330
29
102
}
330
29
100
AcDbVisualStyle
  2
Shaded
 70
    27
177
     3
291
     0
 70
    58
 90
        2
176
     1
 90
        2
176
     1
 90
        1
176
     1
 90
        2
176
     1
 40
0.6
176
     1
 40
30.0
176
     1
 62
     7
420
 16777215
176
     1
 90
        0
176
     1
 90
        4
176
     1
 62
     7
176
     1
 62
   257
176
     1
 90
        1
176
     1
 90
        1
176
     1
 40
1.0
176
     1
 90
        8
176
     1
 62
   257
176
     1
 40
1.0
176
     1
 90
        1
176
     1
 90
        6
176
     1
 90
        2
176
     1
 62
     8
420
  7895160
176
     1
 90
        3
176
     1
 90
        0
176
     1
 90
        0
176
     1
290
     0
176
     1
 90
        5
176
     1
 40
0.0
176
     1
 90
        0
176
     1
290
     0
176
     1
290
     1
176
     1
290
     1
176
     1
290
     0
176
     1
290
     0
176
     1
290
     0
176
     1
290
     0
176
     1
290
     0
176
     1
290
     0
176
     1
 90
       50
176
     1
 40
0.0
176
     1
 40
1.0
176
     1
 90
        0
176
     1
 62
    18
420
        0
176
     1
 90
       50
176
     1
 90
        3
176
     1
 62
     5
420
      255
176
     1
290
     0
176
     1
 90
       50
176
     1
 90
       50
176
     1
 90
       50
176
     1
290
     0
176
     1
 90
       50
176
     1
 62
   256
176
     0
 40
1.0
176
     0
 90
        2
176
     1
  1
strokes_ogs.tif
176
     1
290
     0
176
     1
 40
1.0
176
     1
 40
1.0
176
     1
  0
VISUALSTYLE
  5
3D
102
{ACAD_REACTORS
330
29
102
}
330
29
100
AcDbVisualStyle
  2
Shaded with edges
 70
    26
177
     3
291
     0
 70
    58
 90
        2
176
     1
 90
        2
176
     1
 90
        1
176
     1
 90
        2
176
     1
 40
0.6
176
     1
 40
30.0
176
     1
 62
     7
420
 16777215
176
     1
 90
        1
176
     1
 90
        2
176
     1
 62
     7
176
     1
 62
   257
176
     1
 90
        2
176
     1
 90
        1
176
     1
 40
1.0
176
     1
 90
        8
176
     1
 62
   257
176
     1
 40
1.0
176
     1
 90
        1
176
     1
 90
        6
176
     1
 90
        2
176
     1
 62
     7
176
     1
 90
        3
176
     1
 90
        0
176
     1
 90
        0
176
     1
290
     0
176
     1
 90
        5
176
     1
 40
0.0
176
     1
 90
        0
176
     1
290
     0
176
     1
290
     1
176
     1
290
     1
176
     1
290
     0
176
     1
290
     0
176
     1
290
     0
176
     1
290
     0
176
     1
290
     0
176
     1
290
     0
176
     1
 90
       50
176
     1
 40
0.0
176
     1
 40
1.0
176
     1
 90
        0
176
     1
 62
    18
420
        0
176
     1
 90
       50
176
     1
 90
        3
176
     1
 62
     5
420
      255
176
     1
290
     0
176
     1
 90
       50
176
     1
 90
       50
176
     1
 90
       50
176
     1
290
     0
176
     1
 90
       50
176
     1
 62
   256
176
     0
 40
1.0
176
     0
 90
        2
176
     1
  1
strokes_ogs.tif
176
     1
290
     0
176
     1
 40
1.0
176
     1
 40
1.0
176
     1
  0
VISUALSTYLE
  5
3A
102
{ACAD_REACTORS
330
29
102
}
330
29
100
AcDbVisualStyle
  2
Shades of Gray
 70
    23
177
     3
291
     0
 70
    58
 90
        2
176
     1
 90
        2
176
     1
 90
        3
176
     1
 90
        0
176
     1
 40
0.6
176
     1
 40
30.0
176
     1
 62
     7
420
 16777215
176
     1
 90
        2
176
     1
 90
        2
176
     1
 62
     7
176
     1
 62
     7
176
     1
 90
        1
176
     1
 90
        1
176
     1
 40
40.0
176
     1
 90
        8
176
     1
 62
     7
176
     1
 40
1.0
176
     1
 90
        1
176
     1
 90
        6
176
     1
 90
        2
176
     1
 62
     7
176
     1
 90
        3
176
     1
 90
        0
176
     1
 90
        0
176
     1
290
     0
176
     1
 90
        1
176
     1
 40
0.0
176
     1
 90
        0
176
     1
290
     0
176
     1
290
     1
176
     1
290
     1
176
     1
290
     0
176
     1
290
     0
176
     1
290
     0
176
     1
290
     0
176
     1
290
     0
176
     1
290
     0
176
     1
 90
       50
176
     1
 40
0.0
176
     1
 40
1.0
176
     1
 90
        0
176
     1
 62
    18
420
        0
176
     1
 90
       50
176
     1
 90
        3
176
     1
 62
     5
420
      255
176
     1
290
     0
176
     1
 90
       50
176
     1
 90
       50
176
     1
 90
       50
176
     1
290
     0
176
     1
 90
       50
176
     1
 62
   256
176
     0
 40
1.0
176
     0
 90
        2
176
     1
  1
strokes_ogs.tif
176
     1
290
     0
176
     1
 40
1.0
176
     1
 40
1.0
176
     1
  0
VISUALSTYLE
  5
3B
102
{ACAD_REACTORS
330
29
102
}
330
29
100
AcDbVisualStyle
  2
Sketchy
 70
    24
177
     3
291
     0
 70
    58
 90
        1
176
     1
 90
        2
176
     1
 90
        2
176
     1
 90
        0
176
     1
 40
0.6
176
     1
 40
30.0
176
     1
 62
     7
420
 16777215
176
     1
 90
        2
176
     1
 90
        2
176
     1
 62
     7
176
     1
 62
     7
176
     1
 90
        1
176
     1
 90
        1
176
     1
 40
40.0
176
     1
 90
       11
176
     1
 62
     7
176
     1
 40
1.0
176
     1
 90
        1
176
     1
 90
        6
176
     1
 90
        2
176
     1
 62
     7
176
     1
 90
        6
176
     1
 90
        0
176
     1
 90
        0
176
     1
290
     0
176
     1
 90
        1
176
     1
 40
0.0
176
     1
 90
        0
176
     1
290
     0
176
     1
290
     1
176
     1
290
     1
176
     1
290
     0
176
     1
290
     0
176
     1
290
     0
176
     1
290
     0
176
     1
290
     0
176
     1
290
     0
176
     1
 90
       50
176
     1
 40
0.0
176
     1
 40
1.0
176
     1
 90
        0
176
     1
 62
    18
420
        0
176
     1
 90
       50
176
     1
 90
        3
176
     1
 62
     5
420
      255
176
     1
290
     0
176
     1
 90
       50
176
     1
 90
       50
176
     1
 90
       50
176
     1
290
     0
176
     1
 90
       50
176
     1
 62
   256
176
     0
 40
1.0
176
     0
 90
        2
176
     1
  1
strokes_ogs.tif
176
     1
290
     0
176
     1
 40
1.0
176
     1
 40
1.0
176
     1
  0
VISUALSTYLE
  5
36
102
{ACAD_REACTORS
330
29
102
}
330
29
100
AcDbVisualStyle
  2
Thicken
 70
    13
177
     3
291
     1
 70
    58
 90
        2
176
     1
 90
        2
176
     1
 90
        0
176
     1
 90
        0
176
     1
 40
0.6
176
     1
 40
30.0
176
     1
 62
     7
420
 16777215
176
     1
 90
        1
176
     1
 90
        4
176
     1
 62
     7
176
     1
 62
   257
176
     1
 90
        1
176
     1
 90
        1
176
     1
 40
1.0
176
     1
 90
       12
176
     1
 62
     7
176
     1
 40
1.0
176
     1
 90
        1
176
     1
 90
        6
176
     1
 90
        2
176
     1
 62
     7
176
     1
 90
        5
176
     1
 90
        0
176
     1
 90
        0
176
     1
290
     0
176
     1
 90
        1
176
     1
 40
0.0
176
     1
 90
        0
176
     1
290
     0
176
     1
290
     1
176
     1
290
     1
176
     1
290
     0
176
     1
290
     0
176
     1
290
     0
176
     1
290
     0
176
     1
290
     0
176
     1
290
     0
176
     1
 90
       50
176
     1
 40
0.0
176
     1
 40
1.0
176
     1
 90
        0
176
     1
 62
    18
420
        0
176
     1
 90
       50
176
     1
 90
        3
176
     1
 62
     5
420
      255
176
     1
290
     0
176
     1
 90
       50
176
     1
 90
       50
176
     1
 90
       50
176
     1
290
     0
176
     1
 90
       50
176
     1
 62
   256
176
     0
 40
1.0
176
     0
 90
        2
176
     1
  1
strokes_ogs.tif
176
     1
290
     0
176
     1
 40
1.0
176
     1
 40
1.0
176
     1
  0
VISUALSTYLE
  5
30
102
{ACAD_REACTORS
330
29
102
}
330
29
100
AcDbVisualStyle
  2
Wireframe
 70
     5
177
     3
291
     0
 70
    58
 90
        0
176
     1
 90
        2
176
     1
 90
        0
176
     1
 90
        0
176
     1
 40
0.6
176
     1
 40
30.0
176
     1
 62
     7
420
 16777215
176
     1
 90
        1
176
     1
 90
        4
176
     1
 62
     7
176
     1
 62
   257
176
     1
 90
        1
176
     1
 90
        1
176
     1
 40
1.0
176
     1
 90
        0
176
     1
 62
   257
176
     1
 40
1.0
176
     1
 90
        1
176
     1
 90
        6
176
     1
 90
        2
176
     1
 62
     7
176
     1
 90
        3
176
     1
 90
        0
176
     1
 90
        0
176
     1
290
     0
176
     1
 90
        1
176
     1
 40
0.0
176
     1
 90
        0
176
     1
290
     0
176
     1
290
     1
176
     1
290
     1
176
     1
290
     0
176
     1
290
     0
176
     1
290
     0
176
     1
290
     0
176
     1
290
     0
176
     1
290
     0
176
     1
 90
       50
176
     1
 40
0.0
176
     1
 40
1.0
176
     1
 90
        0
176
     1
 62
    18
420
        0
176
     1
 90
       50
176
     1
 90
        3
176
     1
 62
     5
420
      255
176
     1
290
     0
176
     1
 90
       50
176
     1
 90
       50
176
     1
 90
       50
176
     1
290
     0
176
     1
 90
       50
176
     1
 62
   256
176
     0
 40
1.0
176
     0
 90
        2
176
     1
  1
strokes_ogs.tif
176
     1
290
     0
176
     1
 40
1.0
176
     1
 40
1.0
176
     1
  0
VISUALSTYLE
  5
3C
102
{ACAD_REACTORS
330
29
102
}
330
29
100
AcDbVisualStyle
  2
X-Ray
 70
    25
177
     3
291
     0
 70
    58
 90
        2
176
     1
 90
        2
176
     1
 90
        1
176
     1
 90
        1
176
     1
 40
0.5
176
     1
 40
30.0
176
     1
 62
     7
420
 16777215
176
     1
 90
        1
176
     1
 90
        0
176
     1
 62
     7
176
     1
 62
   257
176
     1
 90
        1
176
     1
 90
        1
176
     1
 40
1.0
176
     1
 90
        8
176
     1
 62
     7
176
     1
 40
1.0
176
     1
 90
        1
176
     1
 90
        6
176
     1
 90
        2
176
     1
 62
     7
176
     1
 90
        3
176
     1
 90
        0
176
     1
 90
        0
176
     1
290
     0
176
     1
 90
       13
176
     1
 40
0.0
176
     1
 90
        0
176
     1
290
     0
176
     1
290
     1
176
     1
290
     1
176
     1
290
     0
176
     1
290
     0
176
     1
290
     0
176
     1
290
     0
176
     1
290
     0
176
     1
290
     0
176
     1
 90
       50
176
     1
 40
0.0
176
     1
 40
1.0
176
     1
 90
        0
176
     1
 62
    18
420
        0
176
     1
 90
       50
176
     1
 90
        3
176
     1
 62
     5
420
      255
176
     1
290
     0
176
     1
 90
       50
176
     1
 90
       50
176
     1
 90
       50
176
     1
290
     0
176
     1
 90
       50
176
     1
 62
   256
176
     0
 40
1.0
176
     0
 90
        2
176
     1
  1
strokes_ogs.tif
176
     1
290
     0
176
     1
 40
1.0
176
     1
 40
1.0
176
     1
  0
DICTIONARYVAR
  5
DB
102
{ACAD_REACTORS
330
D6
102
}
330
D6
100
DictionaryVariables
280
     0
  1
1:1
  0
DICTIONARYVAR
  5
D8
102
{ACAD_REACTORS
330
D6
102
}
330
D6
100
DictionaryVariables
280
     0
  1
STANDARD
  0
DICTIONARYVAR
  5
D7
102
{ACAD_REACTORS
330
D6
102
}
330
D6
100
DictionaryVariables
280
     0
  1
STANDARD
  0
DICTIONARYVAR
  5
D9
102
{ACAD_REACTORS
330
D6
102
}
330
D6
100
DictionaryVariables
280
     0
  1
Imperial24
  0
DICTIONARYVAR
  5
DA
102
{ACAD_REACTORS
330
D6
102
}
330
D6
100
DictionaryVariables
280
     0
  1
Imperial24
  0
DICTIONARY
  5
1A
330
19
100
AcDbDictionary
280
     1
281
     1
  3
BUMPTILE
360
1C
  3
DIFFUSETILE
360
1B
  3
OPACITYTILE
360
1F
  3
REFLECTIONTILE
360
1E
  3
REFRACTIONTILE
360
20
  3
SPECULARTILE
360
1D
  0
DICTIONARY
  5
12
330
11
100
AcDbDictionary
280
     1
281
     1
  3
BUMPTILE
360
14
  3
DIFFUSETILE
360
13
  3
OPACITYTILE
360
17
  3
REFLECTIONTILE
360
16
  3
REFRACTIONTILE
360
18
  3
SPECULARTILE
360
15
  0
DICTIONARY
  5
22
330
21
100
AcDbDictionary
280
     1
281
     1
  3
BUMPTILE
360
24
  3
DIFFUSETILE
360
23
  3
OPACITYTILE
360
27
  3
REFLECTIONTILE
360
26
  3
REFRACTIONTILE
360
28
  3
SPECULARTILE
360
25
  0
DICTIONARY
  5
DC
330
65
100
AcDbDictionary
280
     1
281
     1
  3
ACAD_ROUNDTRIP_2008_TABLESTYLE_CELLSTYLEMAP
360
DD
  0
XRECORD
  5
1C
102
{ACAD_REACTORS
330
1A
102
}
330
1A
100
AcDbXrecord
280
     1
270
     1
271
     1
  0
XRECORD
  5
1B
102
{ACAD_REACTORS
330
1A
102
}
330
1A
100
AcDbXrecord
280
     1
270
     1
271
     1
  0
XRECORD
  5
1F
102
{ACAD_REACTORS
330
1A
102
}
330
1A
100
AcDbXrecord
280
     1
270
     1
271
     1
  0
XRECORD
  5
1E
102
{ACAD_REACTORS
330
1A
102
}
330
1A
100
AcDbXrecord
280
     1
270
     1
271
     1
  0
XRECORD
  5
20
102
{ACAD_REACTORS
330
1A
102
}
330
1A
100
AcDbXrecord
280
     1
270
     1
271
     1
  0
XRECORD
  5
1D
102
{ACAD_REACTORS
330
1A
102
}
330
1A
100
AcDbXrecord
280
     1
270
     1
271
     1
  0
XRECORD
  5
14
102
{ACAD_REACTORS
330
12
102
}
330
12
100
AcDbXrecord
280
     1
270
     1
271
     1
  0
XRECORD
  5
13
102
{ACAD_REACTORS
330
12
102
}
330
12
100
AcDbXrecord
280
     1
270
     1
271
     1
  0
XRECORD
  5
17
102
{ACAD_REACTORS
330
12
102
}
330
12
100
AcDbXrecord
280
     1
270
     1
271
     1
  0
XRECORD
  5
16
102
{ACAD_REACTORS
330
12
102
}
330
12
100
AcDbXrecord
280
     1
270
     1
271
     1
  0
XRECORD
  5
18
102
{ACAD_REACTORS
330
12
102
}
330
12
100
AcDbXrecord
280
     1
270
     1
271
     1
  0
XRECORD
  5
15
102
{ACAD_REACTORS
330
12
102
}
330
12
100
AcDbXrecord
280
     1
270
     1
271
     1
  0
XRECORD
  5
24
102
{ACAD_REACTORS
330
22
102
}
330
22
100
AcDbXrecord
280
     1
270
     1
271
     1
  0
XRECORD
  5
23
102
{ACAD_REACTORS
330
22
102
}
330
22
100
AcDbXrecord
280
     1
270
     1
271
     1
  0
XRECORD
  5
27
102
{ACAD_REACTORS
330
22
102
}
330
22
100
AcDbXrecord
280
     1
270
     1
271
     1
  0
XRECORD
  5
26
102
{ACAD_REACTORS
330
22
102
}
330
22
100
AcDbXrecord
280
     1
270
     1
271
     1
  0
XRECORD
  5
28
102
{ACAD_REACTORS
330
22
102
}
330
22
100
AcDbXrecord
280
     1
270
     1
271
     1
  0
XRECORD
  5
25
102
{ACAD_REACTORS
330
22
102
}
330
22
100
AcDbXrecord
280
     1
270
     1
271
     1
  0
CELLSTYLEMAP
  5
DD
102
{ACAD_REACTORS
330
DC
102
}
330
DC
100
AcDbCellStyleMap
 90
        3
300
CELLSTYLE
  1
TABLEFORMAT_BEGIN
 90
        5
170
     1
 91
        0
 92
    32768
 62
   257
 93
        1
300
CONTENTFORMAT
  1
CONTENTFORMAT_BEGIN
 90
        0
 91
        0
 92
      512
 93
        0
300

 40
0.0
140
1.0
 94
        5
 62
     0
340
55
144
0.25
309
CONTENTFORMAT_END
171
     0
 94
        0
309
TABLEFORMAT_END
  1
CELLSTYLE_BEGIN
 90
        1
 91
        1
300
_TITLE
309
CELLSTYLE_END
300
CELLSTYLE
  1
TABLEFORMAT_BEGIN
 90
        5
170
     1
 91
        0
 92
        0
 62
   257
 93
        1
300
CONTENTFORMAT
  1
CONTENTFORMAT_BEGIN
 90
        0
 91
        0
 92
      512
 93
        0
300

 40
0.0
140
1.0
 94
        5
 62
     0
340
55
144
0.18
309
CONTENTFORMAT_END
171
     0
 94
        0
309
TABLEFORMAT_END
  1
CELLSTYLE_BEGIN
 90
        2
 91
        1
300
_HEADER
309
CELLSTYLE_END
300
CELLSTYLE
  1
TABLEFORMAT_BEGIN
 90
        5
170
     1
 91
        0
 92
        0
 62
   257
 93
        1
300
CONTENTFORMAT
  1
CONTENTFORMAT_BEGIN
 90
        0
 91
        0
 92
      512
 93
        0
300

 40
0.0
140
1.0
 94
        2
 62
     0
340
55
144
0.18
309
CONTENTFORMAT_END
171
     0
 94
        0
309
TABLEFORMAT_END
  1
CELLSTYLE_BEGIN
 90
        3
 91
        2
300
_DATA
309
CELLSTYLE_END
  0
ENDSEC
  0
EOF
