solid test filament
   facet normal 0.0000 0.0000 1.0000
      outer loop
         vertex -5.0000 -5.0000 10.0000
         vertex 5.0000 -5.0000 10.0000
         vertex 5.0000 5.0000 10.0000
      endloop
   endfacet
   facet normal 0.0000 0.0000 1.0000
      outer loop
         vertex -5.0000 -5.0000 10.0000
         vertex 5.0000 5.0000 10.0000
         vertex -5.0000 5.0000 10.0000
      endloop
   endfacet
   facet normal 0.0000 0.0000 -1.0000
      outer loop
         vertex -5.0000 5.0000 -0.0000
         vertex 5.0000 5.0000 0.0000
         vertex 5.0000 -5.0000 -0.0000
      endloop
   endfacet
   facet normal 0.0000 0.0000 -1.0000
      outer loop
         vertex -5.0000 5.0000 -0.0000
         vertex 5.0000 -5.0000 -0.0000
         vertex -5.0000 -5.0000 -0.0000
      endloop
   endfacet
   facet normal -1.0000 0.0000 0.0000
      outer loop
         vertex -5.0000 5.0000 10.0000
         vertex -5.0000 5.0000 0.0000
         vertex -5.0000 -5.0000 -0.0000
      endloop
   endfacet
   facet normal -1.0000 0.0000 0.0000
      outer loop
         vertex -5.0000 5.0000 10.0000
         vertex -5.0000 -5.0000 -0.0000
         vertex -5.0000 -5.0000 10.0000
      endloop
   endfacet
   facet normal -0.0000 -1.0000 0.0000
      outer loop
         vertex -5.0000 -5.0000 10.0000
         vertex -5.0000 -5.0000 -0.0000
         vertex 5.0000 -5.0000 -0.0000
      endloop
   endfacet
   facet normal -0.0000 -1.0000 0.0000
      outer loop
         vertex -5.0000 -5.0000 10.0000
         vertex 5.0000 -5.0000 -0.0000
         vertex 5.0000 -5.0000 10.0000
      endloop
   endfacet
   facet normal 1.0000 0.0000 0.0000
      outer loop
         vertex 5.0000 -5.0000 10.0000
         vertex 5.0000 -5.0000 -0.0000
         vertex 5.0000 5.0000 0.0000
      endloop
   endfacet
   facet normal 1.0000 0.0000 0.0000
      outer loop
         vertex 5.0000 -5.0000 10.0000
         vertex 5.0000 5.0000 0.0000
         vertex 5.0000 5.0000 10.0000
      endloop
   endfacet
   facet normal 0.0000 1.0000 0.0000
      outer loop
         vertex 5.0000 5.0000 10.0000
         vertex 5.0000 5.0000 0.0000
         vertex -5.0000 5.0000 0.0000
      endloop
   endfacet
   facet normal 0.0000 1.0000 0.0000
      outer loop
         vertex 5.0000 5.0000 10.0000
         vertex -5.0000 5.0000 0.0000
         vertex -5.0000 5.0000 10.0000
      endloop
   endfacet
endsolid
