%TF.GenerationSoftware,KiCad,Pcbnew,(6.0.5)*%
%TF.CreationDate,2022-11-07T11:26:13+01:00*%
%TF.ProjectId,CanSat 2023  - Elektrokonstrukce,43616e53-6174-4203-9230-323320202d20,rev?*%
%TF.SameCoordinates,Original*%
%TF.FileFunction,Copper,L3,Inr*%
%TF.FilePolarity,Positive*%
%FSLAX46Y46*%
G04 Gerber Fmt 4.6, Leading zero omitted, Abs format (unit mm)*
G04 Created by KiCad (PCBNEW (6.0.5)) date 2022-11-07 11:26:13*
%MOMM*%
%LPD*%
G01*
G04 APERTURE LIST*
G04 Aperture macros list*
%AMRoundRect*
0 Rectangle with rounded corners*
0 $1 Rounding radius*
0 $2 $3 $4 $5 $6 $7 $8 $9 X,Y pos of 4 corners*
0 Add a 4 corners polygon primitive as box body*
4,1,4,$2,$3,$4,$5,$6,$7,$8,$9,$2,$3,0*
0 Add four circle primitives for the rounded corners*
1,1,$1+$1,$2,$3*
1,1,$1+$1,$4,$5*
1,1,$1+$1,$6,$7*
1,1,$1+$1,$8,$9*
0 Add four rect primitives between the rounded corners*
20,1,$1+$1,$2,$3,$4,$5,0*
20,1,$1+$1,$4,$5,$6,$7,0*
20,1,$1+$1,$6,$7,$8,$9,0*
20,1,$1+$1,$8,$9,$2,$3,0*%
G04 Aperture macros list end*
%ADD10C,0.100000*%
%ADD11C,0.150000*%
%ADD12C,0.300000*%
%ADD13C,0.400000*%
%TA.AperFunction,ComponentPad*%
%ADD14R,1.000000X1.000000*%
%TD*%
%TA.AperFunction,ComponentPad*%
%ADD15O,1.000000X1.000000*%
%TD*%
%TA.AperFunction,ComponentPad*%
%ADD16RoundRect,0.200000X-0.200000X-0.450000X0.200000X-0.450000X0.200000X0.450000X-0.200000X0.450000X0*%
%TD*%
%TA.AperFunction,ComponentPad*%
%ADD17O,0.800000X1.300000*%
%TD*%
%TA.AperFunction,ComponentPad*%
%ADD18R,1.500000X1.050000*%
%TD*%
%TA.AperFunction,ComponentPad*%
%ADD19O,1.500000X1.050000*%
%TD*%
%TA.AperFunction,ComponentPad*%
%ADD20C,2.400000*%
%TD*%
%TA.AperFunction,ComponentPad*%
%ADD21C,2.380000*%
%TD*%
%TA.AperFunction,ComponentPad*%
%ADD22C,0.700000*%
%TD*%
%TA.AperFunction,ComponentPad*%
%ADD23O,0.900000X2.400000*%
%TD*%
%TA.AperFunction,ComponentPad*%
%ADD24O,0.900000X1.700000*%
%TD*%
%TA.AperFunction,ViaPad*%
%ADD25C,0.400000*%
%TD*%
%TA.AperFunction,ViaPad*%
%ADD26C,1.000000*%
%TD*%
%TA.AperFunction,ViaPad*%
%ADD27C,0.800000*%
%TD*%
%TA.AperFunction,Conductor*%
%ADD28C,0.250000*%
%TD*%
G04 APERTURE END LIST*
D10*
D11*
X177002200Y-166007200D02*
X177002200Y-198007200D01*
X285002200Y-198007200D01*
X285002200Y-166007200D01*
X177002200Y-166007200D01*
D10*
D11*
X10000000Y-10000000D02*
X10000000Y-200007200D01*
X287002200Y-200007200D01*
X287002200Y-10000000D01*
X10000000Y-10000000D01*
D10*
D11*
X12000000Y-12000000D02*
X12000000Y-198007200D01*
X285002200Y-198007200D01*
X285002200Y-12000000D01*
X12000000Y-12000000D01*
D10*
D11*
X60000000Y-12000000D02*
X60000000Y-10000000D01*
D10*
D11*
X110000000Y-12000000D02*
X110000000Y-10000000D01*
D10*
D11*
X160000000Y-12000000D02*
X160000000Y-10000000D01*
D10*
D11*
X210000000Y-12000000D02*
X210000000Y-10000000D01*
D10*
D11*
X260000000Y-12000000D02*
X260000000Y-10000000D01*
D10*
D11*
X36065476Y-11588095D02*
X35322619Y-11588095D01*
X35694047Y-11588095D02*
X35694047Y-10288095D01*
X35570238Y-10473809D01*
X35446428Y-10597619D01*
X35322619Y-10659523D01*
D10*
D11*
X85322619Y-10411904D02*
X85384523Y-10350000D01*
X85508333Y-10288095D01*
X85817857Y-10288095D01*
X85941666Y-10350000D01*
X86003571Y-10411904D01*
X86065476Y-10535714D01*
X86065476Y-10659523D01*
X86003571Y-10845238D01*
X85260714Y-11588095D01*
X86065476Y-11588095D01*
D10*
D11*
X135260714Y-10288095D02*
X136065476Y-10288095D01*
X135632142Y-10783333D01*
X135817857Y-10783333D01*
X135941666Y-10845238D01*
X136003571Y-10907142D01*
X136065476Y-11030952D01*
X136065476Y-11340476D01*
X136003571Y-11464285D01*
X135941666Y-11526190D01*
X135817857Y-11588095D01*
X135446428Y-11588095D01*
X135322619Y-11526190D01*
X135260714Y-11464285D01*
D10*
D11*
X185941666Y-10721428D02*
X185941666Y-11588095D01*
X185632142Y-10226190D02*
X185322619Y-11154761D01*
X186127380Y-11154761D01*
D10*
D11*
X236003571Y-10288095D02*
X235384523Y-10288095D01*
X235322619Y-10907142D01*
X235384523Y-10845238D01*
X235508333Y-10783333D01*
X235817857Y-10783333D01*
X235941666Y-10845238D01*
X236003571Y-10907142D01*
X236065476Y-11030952D01*
X236065476Y-11340476D01*
X236003571Y-11464285D01*
X235941666Y-11526190D01*
X235817857Y-11588095D01*
X235508333Y-11588095D01*
X235384523Y-11526190D01*
X235322619Y-11464285D01*
D10*
D11*
X285941666Y-10288095D02*
X285694047Y-10288095D01*
X285570238Y-10350000D01*
X285508333Y-10411904D01*
X285384523Y-10597619D01*
X285322619Y-10845238D01*
X285322619Y-11340476D01*
X285384523Y-11464285D01*
X285446428Y-11526190D01*
X285570238Y-11588095D01*
X285817857Y-11588095D01*
X285941666Y-11526190D01*
X286003571Y-11464285D01*
X286065476Y-11340476D01*
X286065476Y-11030952D01*
X286003571Y-10907142D01*
X285941666Y-10845238D01*
X285817857Y-10783333D01*
X285570238Y-10783333D01*
X285446428Y-10845238D01*
X285384523Y-10907142D01*
X285322619Y-11030952D01*
D10*
D11*
X60000000Y-198007200D02*
X60000000Y-200007200D01*
D10*
D11*
X110000000Y-198007200D02*
X110000000Y-200007200D01*
D10*
D11*
X160000000Y-198007200D02*
X160000000Y-200007200D01*
D10*
D11*
X210000000Y-198007200D02*
X210000000Y-200007200D01*
D10*
D11*
X260000000Y-198007200D02*
X260000000Y-200007200D01*
D10*
D11*
X36065476Y-199595295D02*
X35322619Y-199595295D01*
X35694047Y-199595295D02*
X35694047Y-198295295D01*
X35570238Y-198481009D01*
X35446428Y-198604819D01*
X35322619Y-198666723D01*
D10*
D11*
X85322619Y-198419104D02*
X85384523Y-198357200D01*
X85508333Y-198295295D01*
X85817857Y-198295295D01*
X85941666Y-198357200D01*
X86003571Y-198419104D01*
X86065476Y-198542914D01*
X86065476Y-198666723D01*
X86003571Y-198852438D01*
X85260714Y-199595295D01*
X86065476Y-199595295D01*
D10*
D11*
X135260714Y-198295295D02*
X136065476Y-198295295D01*
X135632142Y-198790533D01*
X135817857Y-198790533D01*
X135941666Y-198852438D01*
X136003571Y-198914342D01*
X136065476Y-199038152D01*
X136065476Y-199347676D01*
X136003571Y-199471485D01*
X135941666Y-199533390D01*
X135817857Y-199595295D01*
X135446428Y-199595295D01*
X135322619Y-199533390D01*
X135260714Y-199471485D01*
D10*
D11*
X185941666Y-198728628D02*
X185941666Y-199595295D01*
X185632142Y-198233390D02*
X185322619Y-199161961D01*
X186127380Y-199161961D01*
D10*
D11*
X236003571Y-198295295D02*
X235384523Y-198295295D01*
X235322619Y-198914342D01*
X235384523Y-198852438D01*
X235508333Y-198790533D01*
X235817857Y-198790533D01*
X235941666Y-198852438D01*
X236003571Y-198914342D01*
X236065476Y-199038152D01*
X236065476Y-199347676D01*
X236003571Y-199471485D01*
X235941666Y-199533390D01*
X235817857Y-199595295D01*
X235508333Y-199595295D01*
X235384523Y-199533390D01*
X235322619Y-199471485D01*
D10*
D11*
X285941666Y-198295295D02*
X285694047Y-198295295D01*
X285570238Y-198357200D01*
X285508333Y-198419104D01*
X285384523Y-198604819D01*
X285322619Y-198852438D01*
X285322619Y-199347676D01*
X285384523Y-199471485D01*
X285446428Y-199533390D01*
X285570238Y-199595295D01*
X285817857Y-199595295D01*
X285941666Y-199533390D01*
X286003571Y-199471485D01*
X286065476Y-199347676D01*
X286065476Y-199038152D01*
X286003571Y-198914342D01*
X285941666Y-198852438D01*
X285817857Y-198790533D01*
X285570238Y-198790533D01*
X285446428Y-198852438D01*
X285384523Y-198914342D01*
X285322619Y-199038152D01*
D10*
D11*
X10000000Y-60000000D02*
X12000000Y-60000000D01*
D10*
D11*
X10000000Y-110000000D02*
X12000000Y-110000000D01*
D10*
D11*
X10000000Y-160000000D02*
X12000000Y-160000000D01*
D10*
D11*
X10690476Y-35216666D02*
X11309523Y-35216666D01*
X10566666Y-35588095D02*
X11000000Y-34288095D01*
X11433333Y-35588095D01*
D10*
D11*
X11092857Y-84907142D02*
X11278571Y-84969047D01*
X11340476Y-85030952D01*
X11402380Y-85154761D01*
X11402380Y-85340476D01*
X11340476Y-85464285D01*
X11278571Y-85526190D01*
X11154761Y-85588095D01*
X10659523Y-85588095D01*
X10659523Y-84288095D01*
X11092857Y-84288095D01*
X11216666Y-84350000D01*
X11278571Y-84411904D01*
X11340476Y-84535714D01*
X11340476Y-84659523D01*
X11278571Y-84783333D01*
X11216666Y-84845238D01*
X11092857Y-84907142D01*
X10659523Y-84907142D01*
D10*
D11*
X11402380Y-135464285D02*
X11340476Y-135526190D01*
X11154761Y-135588095D01*
X11030952Y-135588095D01*
X10845238Y-135526190D01*
X10721428Y-135402380D01*
X10659523Y-135278571D01*
X10597619Y-135030952D01*
X10597619Y-134845238D01*
X10659523Y-134597619D01*
X10721428Y-134473809D01*
X10845238Y-134350000D01*
X11030952Y-134288095D01*
X11154761Y-134288095D01*
X11340476Y-134350000D01*
X11402380Y-134411904D01*
D10*
D11*
X10659523Y-185588095D02*
X10659523Y-184288095D01*
X10969047Y-184288095D01*
X11154761Y-184350000D01*
X11278571Y-184473809D01*
X11340476Y-184597619D01*
X11402380Y-184845238D01*
X11402380Y-185030952D01*
X11340476Y-185278571D01*
X11278571Y-185402380D01*
X11154761Y-185526190D01*
X10969047Y-185588095D01*
X10659523Y-185588095D01*
D10*
D11*
X287002200Y-60000000D02*
X285002200Y-60000000D01*
D10*
D11*
X287002200Y-110000000D02*
X285002200Y-110000000D01*
D10*
D11*
X287002200Y-160000000D02*
X285002200Y-160000000D01*
D10*
D11*
X285692676Y-35216666D02*
X286311723Y-35216666D01*
X285568866Y-35588095D02*
X286002200Y-34288095D01*
X286435533Y-35588095D01*
D10*
D11*
X286095057Y-84907142D02*
X286280771Y-84969047D01*
X286342676Y-85030952D01*
X286404580Y-85154761D01*
X286404580Y-85340476D01*
X286342676Y-85464285D01*
X286280771Y-85526190D01*
X286156961Y-85588095D01*
X285661723Y-85588095D01*
X285661723Y-84288095D01*
X286095057Y-84288095D01*
X286218866Y-84350000D01*
X286280771Y-84411904D01*
X286342676Y-84535714D01*
X286342676Y-84659523D01*
X286280771Y-84783333D01*
X286218866Y-84845238D01*
X286095057Y-84907142D01*
X285661723Y-84907142D01*
D10*
D11*
X286404580Y-135464285D02*
X286342676Y-135526190D01*
X286156961Y-135588095D01*
X286033152Y-135588095D01*
X285847438Y-135526190D01*
X285723628Y-135402380D01*
X285661723Y-135278571D01*
X285599819Y-135030952D01*
X285599819Y-134845238D01*
X285661723Y-134597619D01*
X285723628Y-134473809D01*
X285847438Y-134350000D01*
X286033152Y-134288095D01*
X286156961Y-134288095D01*
X286342676Y-134350000D01*
X286404580Y-134411904D01*
D10*
D11*
X285661723Y-185588095D02*
X285661723Y-184288095D01*
X285971247Y-184288095D01*
X286156961Y-184350000D01*
X286280771Y-184473809D01*
X286342676Y-184597619D01*
X286404580Y-184845238D01*
X286404580Y-185030952D01*
X286342676Y-185278571D01*
X286280771Y-185402380D01*
X286156961Y-185526190D01*
X285971247Y-185588095D01*
X285661723Y-185588095D01*
D10*
D11*
X200434342Y-193785771D02*
X200434342Y-192285771D01*
X200791485Y-192285771D01*
X201005771Y-192357200D01*
X201148628Y-192500057D01*
X201220057Y-192642914D01*
X201291485Y-192928628D01*
X201291485Y-193142914D01*
X201220057Y-193428628D01*
X201148628Y-193571485D01*
X201005771Y-193714342D01*
X200791485Y-193785771D01*
X200434342Y-193785771D01*
X202577200Y-193785771D02*
X202577200Y-193000057D01*
X202505771Y-192857200D01*
X202362914Y-192785771D01*
X202077200Y-192785771D01*
X201934342Y-192857200D01*
X202577200Y-193714342D02*
X202434342Y-193785771D01*
X202077200Y-193785771D01*
X201934342Y-193714342D01*
X201862914Y-193571485D01*
X201862914Y-193428628D01*
X201934342Y-193285771D01*
X202077200Y-193214342D01*
X202434342Y-193214342D01*
X202577200Y-193142914D01*
X203077200Y-192785771D02*
X203648628Y-192785771D01*
X203291485Y-192285771D02*
X203291485Y-193571485D01*
X203362914Y-193714342D01*
X203505771Y-193785771D01*
X203648628Y-193785771D01*
X204720057Y-193714342D02*
X204577200Y-193785771D01*
X204291485Y-193785771D01*
X204148628Y-193714342D01*
X204077200Y-193571485D01*
X204077200Y-193000057D01*
X204148628Y-192857200D01*
X204291485Y-192785771D01*
X204577200Y-192785771D01*
X204720057Y-192857200D01*
X204791485Y-193000057D01*
X204791485Y-193142914D01*
X204077200Y-193285771D01*
X205434342Y-193642914D02*
X205505771Y-193714342D01*
X205434342Y-193785771D01*
X205362914Y-193714342D01*
X205434342Y-193642914D01*
X205434342Y-193785771D01*
X205434342Y-192857200D02*
X205505771Y-192928628D01*
X205434342Y-193000057D01*
X205362914Y-192928628D01*
X205434342Y-192857200D01*
X205434342Y-193000057D01*
D10*
D11*
X177002200Y-194507200D02*
X285002200Y-194507200D01*
D10*
D11*
X178434342Y-196585771D02*
X178434342Y-195085771D01*
X179291485Y-196585771D02*
X178648628Y-195728628D01*
X179291485Y-195085771D02*
X178434342Y-195942914D01*
X179934342Y-196585771D02*
X179934342Y-195585771D01*
X179934342Y-195085771D02*
X179862914Y-195157200D01*
X179934342Y-195228628D01*
X180005771Y-195157200D01*
X179934342Y-195085771D01*
X179934342Y-195228628D01*
X181505771Y-196442914D02*
X181434342Y-196514342D01*
X181220057Y-196585771D01*
X181077200Y-196585771D01*
X180862914Y-196514342D01*
X180720057Y-196371485D01*
X180648628Y-196228628D01*
X180577200Y-195942914D01*
X180577200Y-195728628D01*
X180648628Y-195442914D01*
X180720057Y-195300057D01*
X180862914Y-195157200D01*
X181077200Y-195085771D01*
X181220057Y-195085771D01*
X181434342Y-195157200D01*
X181505771Y-195228628D01*
X182791485Y-196585771D02*
X182791485Y-195800057D01*
X182720057Y-195657200D01*
X182577200Y-195585771D01*
X182291485Y-195585771D01*
X182148628Y-195657200D01*
X182791485Y-196514342D02*
X182648628Y-196585771D01*
X182291485Y-196585771D01*
X182148628Y-196514342D01*
X182077200Y-196371485D01*
X182077200Y-196228628D01*
X182148628Y-196085771D01*
X182291485Y-196014342D01*
X182648628Y-196014342D01*
X182791485Y-195942914D01*
X184148628Y-196585771D02*
X184148628Y-195085771D01*
X184148628Y-196514342D02*
X184005771Y-196585771D01*
X183720057Y-196585771D01*
X183577200Y-196514342D01*
X183505771Y-196442914D01*
X183434342Y-196300057D01*
X183434342Y-195871485D01*
X183505771Y-195728628D01*
X183577200Y-195657200D01*
X183720057Y-195585771D01*
X184005771Y-195585771D01*
X184148628Y-195657200D01*
X186005771Y-195800057D02*
X186505771Y-195800057D01*
X186720057Y-196585771D02*
X186005771Y-196585771D01*
X186005771Y-195085771D01*
X186720057Y-195085771D01*
X187362914Y-196442914D02*
X187434342Y-196514342D01*
X187362914Y-196585771D01*
X187291485Y-196514342D01*
X187362914Y-196442914D01*
X187362914Y-196585771D01*
X188077200Y-196585771D02*
X188077200Y-195085771D01*
X188434342Y-195085771D01*
X188648628Y-195157200D01*
X188791485Y-195300057D01*
X188862914Y-195442914D01*
X188934342Y-195728628D01*
X188934342Y-195942914D01*
X188862914Y-196228628D01*
X188791485Y-196371485D01*
X188648628Y-196514342D01*
X188434342Y-196585771D01*
X188077200Y-196585771D01*
X189577200Y-196442914D02*
X189648628Y-196514342D01*
X189577200Y-196585771D01*
X189505771Y-196514342D01*
X189577200Y-196442914D01*
X189577200Y-196585771D01*
X190220057Y-196157200D02*
X190934342Y-196157200D01*
X190077200Y-196585771D02*
X190577200Y-195085771D01*
X191077200Y-196585771D01*
X191577200Y-196442914D02*
X191648628Y-196514342D01*
X191577200Y-196585771D01*
X191505771Y-196514342D01*
X191577200Y-196442914D01*
X191577200Y-196585771D01*
X194577200Y-196585771D02*
X194577200Y-195085771D01*
X194720057Y-196014342D02*
X195148628Y-196585771D01*
X195148628Y-195585771D02*
X194577200Y-196157200D01*
X195791485Y-196585771D02*
X195791485Y-195585771D01*
X195791485Y-195085771D02*
X195720057Y-195157200D01*
X195791485Y-195228628D01*
X195862914Y-195157200D01*
X195791485Y-195085771D01*
X195791485Y-195228628D01*
X197148628Y-196514342D02*
X197005771Y-196585771D01*
X196720057Y-196585771D01*
X196577200Y-196514342D01*
X196505771Y-196442914D01*
X196434342Y-196300057D01*
X196434342Y-195871485D01*
X196505771Y-195728628D01*
X196577200Y-195657200D01*
X196720057Y-195585771D01*
X197005771Y-195585771D01*
X197148628Y-195657200D01*
X198434342Y-196585771D02*
X198434342Y-195800057D01*
X198362914Y-195657200D01*
X198220057Y-195585771D01*
X197934342Y-195585771D01*
X197791485Y-195657200D01*
X198434342Y-196514342D02*
X198291485Y-196585771D01*
X197934342Y-196585771D01*
X197791485Y-196514342D01*
X197720057Y-196371485D01*
X197720057Y-196228628D01*
X197791485Y-196085771D01*
X197934342Y-196014342D01*
X198291485Y-196014342D01*
X198434342Y-195942914D01*
X199791485Y-196585771D02*
X199791485Y-195085771D01*
X199791485Y-196514342D02*
X199648628Y-196585771D01*
X199362914Y-196585771D01*
X199220057Y-196514342D01*
X199148628Y-196442914D01*
X199077200Y-196300057D01*
X199077200Y-195871485D01*
X199148628Y-195728628D01*
X199220057Y-195657200D01*
X199362914Y-195585771D01*
X199648628Y-195585771D01*
X199791485Y-195657200D01*
X202077200Y-197157200D02*
X202005771Y-197085771D01*
X201862914Y-196871485D01*
X201791485Y-196728628D01*
X201720057Y-196514342D01*
X201648628Y-196157200D01*
X201648628Y-195871485D01*
X201720057Y-195514342D01*
X201791485Y-195300057D01*
X201862914Y-195157200D01*
X202005771Y-194942914D01*
X202077200Y-194871485D01*
X203291485Y-195085771D02*
X203005771Y-195085771D01*
X202862914Y-195157200D01*
X202791485Y-195228628D01*
X202648628Y-195442914D01*
X202577200Y-195728628D01*
X202577200Y-196300057D01*
X202648628Y-196442914D01*
X202720057Y-196514342D01*
X202862914Y-196585771D01*
X203148628Y-196585771D01*
X203291485Y-196514342D01*
X203362914Y-196442914D01*
X203434342Y-196300057D01*
X203434342Y-195942914D01*
X203362914Y-195800057D01*
X203291485Y-195728628D01*
X203148628Y-195657200D01*
X202862914Y-195657200D01*
X202720057Y-195728628D01*
X202648628Y-195800057D01*
X202577200Y-195942914D01*
X204077200Y-196442914D02*
X204148628Y-196514342D01*
X204077200Y-196585771D01*
X204005771Y-196514342D01*
X204077200Y-196442914D01*
X204077200Y-196585771D01*
X205077200Y-195085771D02*
X205220057Y-195085771D01*
X205362914Y-195157200D01*
X205434342Y-195228628D01*
X205505771Y-195371485D01*
X205577200Y-195657200D01*
X205577200Y-196014342D01*
X205505771Y-196300057D01*
X205434342Y-196442914D01*
X205362914Y-196514342D01*
X205220057Y-196585771D01*
X205077200Y-196585771D01*
X204934342Y-196514342D01*
X204862914Y-196442914D01*
X204791485Y-196300057D01*
X204720057Y-196014342D01*
X204720057Y-195657200D01*
X204791485Y-195371485D01*
X204862914Y-195228628D01*
X204934342Y-195157200D01*
X205077200Y-195085771D01*
X206220057Y-196442914D02*
X206291485Y-196514342D01*
X206220057Y-196585771D01*
X206148628Y-196514342D01*
X206220057Y-196442914D01*
X206220057Y-196585771D01*
X207648628Y-195085771D02*
X206934342Y-195085771D01*
X206862914Y-195800057D01*
X206934342Y-195728628D01*
X207077200Y-195657200D01*
X207434342Y-195657200D01*
X207577200Y-195728628D01*
X207648628Y-195800057D01*
X207720057Y-195942914D01*
X207720057Y-196300057D01*
X207648628Y-196442914D01*
X207577200Y-196514342D01*
X207434342Y-196585771D01*
X207077200Y-196585771D01*
X206934342Y-196514342D01*
X206862914Y-196442914D01*
X208220057Y-197157200D02*
X208291485Y-197085771D01*
X208434342Y-196871485D01*
X208505771Y-196728628D01*
X208577200Y-196514342D01*
X208648628Y-196157200D01*
X208648628Y-195871485D01*
X208577200Y-195514342D01*
X208505771Y-195300057D01*
X208434342Y-195157200D01*
X208291485Y-194942914D01*
X208220057Y-194871485D01*
D10*
D11*
X177002200Y-191507200D02*
X285002200Y-191507200D01*
D10*
D12*
X264411485Y-193785771D02*
X263911485Y-193071485D01*
X263554342Y-193785771D02*
X263554342Y-192285771D01*
X264125771Y-192285771D01*
X264268628Y-192357200D01*
X264340057Y-192428628D01*
X264411485Y-192571485D01*
X264411485Y-192785771D01*
X264340057Y-192928628D01*
X264268628Y-193000057D01*
X264125771Y-193071485D01*
X263554342Y-193071485D01*
X265625771Y-193714342D02*
X265482914Y-193785771D01*
X265197200Y-193785771D01*
X265054342Y-193714342D01*
X264982914Y-193571485D01*
X264982914Y-193000057D01*
X265054342Y-192857200D01*
X265197200Y-192785771D01*
X265482914Y-192785771D01*
X265625771Y-192857200D01*
X265697200Y-193000057D01*
X265697200Y-193142914D01*
X264982914Y-193285771D01*
X266197200Y-192785771D02*
X266554342Y-193785771D01*
X266911485Y-192785771D01*
X267482914Y-193642914D02*
X267554342Y-193714342D01*
X267482914Y-193785771D01*
X267411485Y-193714342D01*
X267482914Y-193642914D01*
X267482914Y-193785771D01*
X267482914Y-192857200D02*
X267554342Y-192928628D01*
X267482914Y-193000057D01*
X267411485Y-192928628D01*
X267482914Y-192857200D01*
X267482914Y-193000057D01*
D10*
D11*
X178362914Y-193714342D02*
X178577200Y-193785771D01*
X178934342Y-193785771D01*
X179077200Y-193714342D01*
X179148628Y-193642914D01*
X179220057Y-193500057D01*
X179220057Y-193357200D01*
X179148628Y-193214342D01*
X179077200Y-193142914D01*
X178934342Y-193071485D01*
X178648628Y-193000057D01*
X178505771Y-192928628D01*
X178434342Y-192857200D01*
X178362914Y-192714342D01*
X178362914Y-192571485D01*
X178434342Y-192428628D01*
X178505771Y-192357200D01*
X178648628Y-192285771D01*
X179005771Y-192285771D01*
X179220057Y-192357200D01*
X179862914Y-193785771D02*
X179862914Y-192785771D01*
X179862914Y-192285771D02*
X179791485Y-192357200D01*
X179862914Y-192428628D01*
X179934342Y-192357200D01*
X179862914Y-192285771D01*
X179862914Y-192428628D01*
X180434342Y-192785771D02*
X181220057Y-192785771D01*
X180434342Y-193785771D01*
X181220057Y-193785771D01*
X182362914Y-193714342D02*
X182220057Y-193785771D01*
X181934342Y-193785771D01*
X181791485Y-193714342D01*
X181720057Y-193571485D01*
X181720057Y-193000057D01*
X181791485Y-192857200D01*
X181934342Y-192785771D01*
X182220057Y-192785771D01*
X182362914Y-192857200D01*
X182434342Y-193000057D01*
X182434342Y-193142914D01*
X181720057Y-193285771D01*
X183077200Y-193642914D02*
X183148628Y-193714342D01*
X183077200Y-193785771D01*
X183005771Y-193714342D01*
X183077200Y-193642914D01*
X183077200Y-193785771D01*
X183077200Y-192857200D02*
X183148628Y-192928628D01*
X183077200Y-193000057D01*
X183005771Y-192928628D01*
X183077200Y-192857200D01*
X183077200Y-193000057D01*
X184862914Y-193357200D02*
X185577200Y-193357200D01*
X184720057Y-193785771D02*
X185220057Y-192285771D01*
X185720057Y-193785771D01*
X186862914Y-192785771D02*
X186862914Y-193785771D01*
X186505771Y-192214342D02*
X186148628Y-193285771D01*
X187077200Y-193285771D01*
D10*
D11*
X263434342Y-196585771D02*
X263434342Y-195085771D01*
X264791485Y-196585771D02*
X264791485Y-195085771D01*
X264791485Y-196514342D02*
X264648628Y-196585771D01*
X264362914Y-196585771D01*
X264220057Y-196514342D01*
X264148628Y-196442914D01*
X264077200Y-196300057D01*
X264077200Y-195871485D01*
X264148628Y-195728628D01*
X264220057Y-195657200D01*
X264362914Y-195585771D01*
X264648628Y-195585771D01*
X264791485Y-195657200D01*
X265505771Y-196442914D02*
X265577200Y-196514342D01*
X265505771Y-196585771D01*
X265434342Y-196514342D01*
X265505771Y-196442914D01*
X265505771Y-196585771D01*
X265505771Y-195657200D02*
X265577200Y-195728628D01*
X265505771Y-195800057D01*
X265434342Y-195728628D01*
X265505771Y-195657200D01*
X265505771Y-195800057D01*
X268148628Y-196585771D02*
X267291485Y-196585771D01*
X267720057Y-196585771D02*
X267720057Y-195085771D01*
X267577200Y-195300057D01*
X267434342Y-195442914D01*
X267291485Y-195514342D01*
X269862914Y-195014342D02*
X268577200Y-196942914D01*
X271148628Y-196585771D02*
X270291485Y-196585771D01*
X270720057Y-196585771D02*
X270720057Y-195085771D01*
X270577200Y-195300057D01*
X270434342Y-195442914D01*
X270291485Y-195514342D01*
D10*
D11*
X177002200Y-187507200D02*
X285002200Y-187507200D01*
D10*
D13*
X178714580Y-188211961D02*
X179857438Y-188211961D01*
X179036009Y-190211961D02*
X179286009Y-188211961D01*
X180274104Y-190211961D02*
X180440771Y-188878628D01*
X180524104Y-188211961D02*
X180416961Y-188307200D01*
X180500295Y-188402438D01*
X180607438Y-188307200D01*
X180524104Y-188211961D01*
X180500295Y-188402438D01*
X181107438Y-188878628D02*
X181869342Y-188878628D01*
X181476485Y-188211961D02*
X181262200Y-189926247D01*
X181333628Y-190116723D01*
X181512200Y-190211961D01*
X181702676Y-190211961D01*
X182655057Y-190211961D02*
X182476485Y-190116723D01*
X182405057Y-189926247D01*
X182619342Y-188211961D01*
X184190771Y-190116723D02*
X183988390Y-190211961D01*
X183607438Y-190211961D01*
X183428866Y-190116723D01*
X183357438Y-189926247D01*
X183452676Y-189164342D01*
X183571723Y-188973866D01*
X183774104Y-188878628D01*
X184155057Y-188878628D01*
X184333628Y-188973866D01*
X184405057Y-189164342D01*
X184381247Y-189354819D01*
X183405057Y-189545295D01*
X185155057Y-190021485D02*
X185238390Y-190116723D01*
X185131247Y-190211961D01*
X185047914Y-190116723D01*
X185155057Y-190021485D01*
X185131247Y-190211961D01*
X185286009Y-188973866D02*
X185369342Y-189069104D01*
X185262200Y-189164342D01*
X185178866Y-189069104D01*
X185286009Y-188973866D01*
X185262200Y-189164342D01*
D10*
D11*
X178934342Y-185600057D02*
X178434342Y-185600057D01*
X178434342Y-186385771D02*
X178434342Y-184885771D01*
X179148628Y-184885771D01*
X179720057Y-186385771D02*
X179720057Y-185385771D01*
X179720057Y-184885771D02*
X179648628Y-184957200D01*
X179720057Y-185028628D01*
X179791485Y-184957200D01*
X179720057Y-184885771D01*
X179720057Y-185028628D01*
X180648628Y-186385771D02*
X180505771Y-186314342D01*
X180434342Y-186171485D01*
X180434342Y-184885771D01*
X181791485Y-186314342D02*
X181648628Y-186385771D01*
X181362914Y-186385771D01*
X181220057Y-186314342D01*
X181148628Y-186171485D01*
X181148628Y-185600057D01*
X181220057Y-185457200D01*
X181362914Y-185385771D01*
X181648628Y-185385771D01*
X181791485Y-185457200D01*
X181862914Y-185600057D01*
X181862914Y-185742914D01*
X181148628Y-185885771D01*
X182505771Y-186242914D02*
X182577200Y-186314342D01*
X182505771Y-186385771D01*
X182434342Y-186314342D01*
X182505771Y-186242914D01*
X182505771Y-186385771D01*
X182505771Y-185457200D02*
X182577200Y-185528628D01*
X182505771Y-185600057D01*
X182434342Y-185528628D01*
X182505771Y-185457200D01*
X182505771Y-185600057D01*
X185220057Y-186242914D02*
X185148628Y-186314342D01*
X184934342Y-186385771D01*
X184791485Y-186385771D01*
X184577200Y-186314342D01*
X184434342Y-186171485D01*
X184362914Y-186028628D01*
X184291485Y-185742914D01*
X184291485Y-185528628D01*
X184362914Y-185242914D01*
X184434342Y-185100057D01*
X184577200Y-184957200D01*
X184791485Y-184885771D01*
X184934342Y-184885771D01*
X185148628Y-184957200D01*
X185220057Y-185028628D01*
X186505771Y-186385771D02*
X186505771Y-185600057D01*
X186434342Y-185457200D01*
X186291485Y-185385771D01*
X186005771Y-185385771D01*
X185862914Y-185457200D01*
X186505771Y-186314342D02*
X186362914Y-186385771D01*
X186005771Y-186385771D01*
X185862914Y-186314342D01*
X185791485Y-186171485D01*
X185791485Y-186028628D01*
X185862914Y-185885771D01*
X186005771Y-185814342D01*
X186362914Y-185814342D01*
X186505771Y-185742914D01*
X187220057Y-185385771D02*
X187220057Y-186385771D01*
X187220057Y-185528628D02*
X187291485Y-185457200D01*
X187434342Y-185385771D01*
X187648628Y-185385771D01*
X187791485Y-185457200D01*
X187862914Y-185600057D01*
X187862914Y-186385771D01*
X188505771Y-186314342D02*
X188720057Y-186385771D01*
X189077200Y-186385771D01*
X189220057Y-186314342D01*
X189291485Y-186242914D01*
X189362914Y-186100057D01*
X189362914Y-185957200D01*
X189291485Y-185814342D01*
X189220057Y-185742914D01*
X189077200Y-185671485D01*
X188791485Y-185600057D01*
X188648628Y-185528628D01*
X188577200Y-185457200D01*
X188505771Y-185314342D01*
X188505771Y-185171485D01*
X188577200Y-185028628D01*
X188648628Y-184957200D01*
X188791485Y-184885771D01*
X189148628Y-184885771D01*
X189362914Y-184957200D01*
X190648628Y-186385771D02*
X190648628Y-185600057D01*
X190577200Y-185457200D01*
X190434342Y-185385771D01*
X190148628Y-185385771D01*
X190005771Y-185457200D01*
X190648628Y-186314342D02*
X190505771Y-186385771D01*
X190148628Y-186385771D01*
X190005771Y-186314342D01*
X189934342Y-186171485D01*
X189934342Y-186028628D01*
X190005771Y-185885771D01*
X190148628Y-185814342D01*
X190505771Y-185814342D01*
X190648628Y-185742914D01*
X191148628Y-185385771D02*
X191720057Y-185385771D01*
X191362914Y-184885771D02*
X191362914Y-186171485D01*
X191434342Y-186314342D01*
X191577200Y-186385771D01*
X191720057Y-186385771D01*
X193291485Y-185028628D02*
X193362914Y-184957200D01*
X193505771Y-184885771D01*
X193862914Y-184885771D01*
X194005771Y-184957200D01*
X194077200Y-185028628D01*
X194148628Y-185171485D01*
X194148628Y-185314342D01*
X194077200Y-185528628D01*
X193220057Y-186385771D01*
X194148628Y-186385771D01*
X195077200Y-184885771D02*
X195220057Y-184885771D01*
X195362914Y-184957200D01*
X195434342Y-185028628D01*
X195505771Y-185171485D01*
X195577200Y-185457200D01*
X195577200Y-185814342D01*
X195505771Y-186100057D01*
X195434342Y-186242914D01*
X195362914Y-186314342D01*
X195220057Y-186385771D01*
X195077200Y-186385771D01*
X194934342Y-186314342D01*
X194862914Y-186242914D01*
X194791485Y-186100057D01*
X194720057Y-185814342D01*
X194720057Y-185457200D01*
X194791485Y-185171485D01*
X194862914Y-185028628D01*
X194934342Y-184957200D01*
X195077200Y-184885771D01*
X196148628Y-185028628D02*
X196220057Y-184957200D01*
X196362914Y-184885771D01*
X196720057Y-184885771D01*
X196862914Y-184957200D01*
X196934342Y-185028628D01*
X197005771Y-185171485D01*
X197005771Y-185314342D01*
X196934342Y-185528628D01*
X196077200Y-186385771D01*
X197005771Y-186385771D01*
X197505771Y-184885771D02*
X198434342Y-184885771D01*
X197934342Y-185457200D01*
X198148628Y-185457200D01*
X198291485Y-185528628D01*
X198362914Y-185600057D01*
X198434342Y-185742914D01*
X198434342Y-186100057D01*
X198362914Y-186242914D01*
X198291485Y-186314342D01*
X198148628Y-186385771D01*
X197720057Y-186385771D01*
X197577200Y-186314342D01*
X197505771Y-186242914D01*
X201362914Y-185814342D02*
X202505771Y-185814342D01*
X204362914Y-185600057D02*
X204862914Y-185600057D01*
X205077200Y-186385771D02*
X204362914Y-186385771D01*
X204362914Y-184885771D01*
X205077200Y-184885771D01*
X205934342Y-186385771D02*
X205791485Y-186314342D01*
X205720057Y-186171485D01*
X205720057Y-184885771D01*
X207077200Y-186314342D02*
X206934342Y-186385771D01*
X206648628Y-186385771D01*
X206505771Y-186314342D01*
X206434342Y-186171485D01*
X206434342Y-185600057D01*
X206505771Y-185457200D01*
X206648628Y-185385771D01*
X206934342Y-185385771D01*
X207077200Y-185457200D01*
X207148628Y-185600057D01*
X207148628Y-185742914D01*
X206434342Y-185885771D01*
X207791485Y-186385771D02*
X207791485Y-184885771D01*
X207934342Y-185814342D02*
X208362914Y-186385771D01*
X208362914Y-185385771D02*
X207791485Y-185957200D01*
X208791485Y-185385771D02*
X209362914Y-185385771D01*
X209005771Y-184885771D02*
X209005771Y-186171485D01*
X209077200Y-186314342D01*
X209220057Y-186385771D01*
X209362914Y-186385771D01*
X209862914Y-186385771D02*
X209862914Y-185385771D01*
X209862914Y-185671485D02*
X209934342Y-185528628D01*
X210005771Y-185457200D01*
X210148628Y-185385771D01*
X210291485Y-185385771D01*
X211005771Y-186385771D02*
X210862914Y-186314342D01*
X210791485Y-186242914D01*
X210720057Y-186100057D01*
X210720057Y-185671485D01*
X210791485Y-185528628D01*
X210862914Y-185457200D01*
X211005771Y-185385771D01*
X211220057Y-185385771D01*
X211362914Y-185457200D01*
X211434342Y-185528628D01*
X211505771Y-185671485D01*
X211505771Y-186100057D01*
X211434342Y-186242914D01*
X211362914Y-186314342D01*
X211220057Y-186385771D01*
X211005771Y-186385771D01*
X212148628Y-186385771D02*
X212148628Y-184885771D01*
X212291485Y-185814342D02*
X212720057Y-186385771D01*
X212720057Y-185385771D02*
X212148628Y-185957200D01*
X213577200Y-186385771D02*
X213434342Y-186314342D01*
X213362914Y-186242914D01*
X213291485Y-186100057D01*
X213291485Y-185671485D01*
X213362914Y-185528628D01*
X213434342Y-185457200D01*
X213577200Y-185385771D01*
X213791485Y-185385771D01*
X213934342Y-185457200D01*
X214005771Y-185528628D01*
X214077200Y-185671485D01*
X214077200Y-186100057D01*
X214005771Y-186242914D01*
X213934342Y-186314342D01*
X213791485Y-186385771D01*
X213577200Y-186385771D01*
X214720057Y-185385771D02*
X214720057Y-186385771D01*
X214720057Y-185528628D02*
X214791485Y-185457200D01*
X214934342Y-185385771D01*
X215148628Y-185385771D01*
X215291485Y-185457200D01*
X215362914Y-185600057D01*
X215362914Y-186385771D01*
X216005771Y-186314342D02*
X216148628Y-186385771D01*
X216434342Y-186385771D01*
X216577200Y-186314342D01*
X216648628Y-186171485D01*
X216648628Y-186100057D01*
X216577200Y-185957200D01*
X216434342Y-185885771D01*
X216220057Y-185885771D01*
X216077200Y-185814342D01*
X216005771Y-185671485D01*
X216005771Y-185600057D01*
X216077200Y-185457200D01*
X216220057Y-185385771D01*
X216434342Y-185385771D01*
X216577200Y-185457200D01*
X217077200Y-185385771D02*
X217648628Y-185385771D01*
X217291485Y-184885771D02*
X217291485Y-186171485D01*
X217362914Y-186314342D01*
X217505771Y-186385771D01*
X217648628Y-186385771D01*
X218148628Y-186385771D02*
X218148628Y-185385771D01*
X218148628Y-185671485D02*
X218220057Y-185528628D01*
X218291485Y-185457200D01*
X218434342Y-185385771D01*
X218577200Y-185385771D01*
X219720057Y-185385771D02*
X219720057Y-186385771D01*
X219077200Y-185385771D02*
X219077200Y-186171485D01*
X219148628Y-186314342D01*
X219291485Y-186385771D01*
X219505771Y-186385771D01*
X219648628Y-186314342D01*
X219720057Y-186242914D01*
X220434342Y-186385771D02*
X220434342Y-184885771D01*
X220577200Y-185814342D02*
X221005771Y-186385771D01*
X221005771Y-185385771D02*
X220434342Y-185957200D01*
X222291485Y-186314342D02*
X222148628Y-186385771D01*
X221862914Y-186385771D01*
X221720057Y-186314342D01*
X221648628Y-186242914D01*
X221577200Y-186100057D01*
X221577200Y-185671485D01*
X221648628Y-185528628D01*
X221720057Y-185457200D01*
X221862914Y-185385771D01*
X222148628Y-185385771D01*
X222291485Y-185457200D01*
X223505771Y-186314342D02*
X223362914Y-186385771D01*
X223077200Y-186385771D01*
X222934342Y-186314342D01*
X222862914Y-186171485D01*
X222862914Y-185600057D01*
X222934342Y-185457200D01*
X223077200Y-185385771D01*
X223362914Y-185385771D01*
X223505771Y-185457200D01*
X223577200Y-185600057D01*
X223577200Y-185742914D01*
X222862914Y-185885771D01*
X224220057Y-186242914D02*
X224291485Y-186314342D01*
X224220057Y-186385771D01*
X224148628Y-186314342D01*
X224220057Y-186242914D01*
X224220057Y-186385771D01*
X224934342Y-186385771D02*
X224934342Y-184885771D01*
X225077200Y-185814342D02*
X225505771Y-186385771D01*
X225505771Y-185385771D02*
X224934342Y-185957200D01*
X226148628Y-186385771D02*
X226148628Y-185385771D01*
X226148628Y-184885771D02*
X226077200Y-184957200D01*
X226148628Y-185028628D01*
X226220057Y-184957200D01*
X226148628Y-184885771D01*
X226148628Y-185028628D01*
X227505771Y-186314342D02*
X227362914Y-186385771D01*
X227077200Y-186385771D01*
X226934342Y-186314342D01*
X226862914Y-186242914D01*
X226791485Y-186100057D01*
X226791485Y-185671485D01*
X226862914Y-185528628D01*
X226934342Y-185457200D01*
X227077200Y-185385771D01*
X227362914Y-185385771D01*
X227505771Y-185457200D01*
X228791485Y-186385771D02*
X228791485Y-185600057D01*
X228720057Y-185457200D01*
X228577200Y-185385771D01*
X228291485Y-185385771D01*
X228148628Y-185457200D01*
X228791485Y-186314342D02*
X228648628Y-186385771D01*
X228291485Y-186385771D01*
X228148628Y-186314342D01*
X228077200Y-186171485D01*
X228077200Y-186028628D01*
X228148628Y-185885771D01*
X228291485Y-185814342D01*
X228648628Y-185814342D01*
X228791485Y-185742914D01*
X230148628Y-186385771D02*
X230148628Y-184885771D01*
X230148628Y-186314342D02*
X230005771Y-186385771D01*
X229720057Y-186385771D01*
X229577200Y-186314342D01*
X229505771Y-186242914D01*
X229434342Y-186100057D01*
X229434342Y-185671485D01*
X229505771Y-185528628D01*
X229577200Y-185457200D01*
X229720057Y-185385771D01*
X230005771Y-185385771D01*
X230148628Y-185457200D01*
X230505771Y-186528628D02*
X231648628Y-186528628D01*
X232005771Y-185385771D02*
X232005771Y-186885771D01*
X232005771Y-185457200D02*
X232148628Y-185385771D01*
X232434342Y-185385771D01*
X232577200Y-185457200D01*
X232648628Y-185528628D01*
X232720057Y-185671485D01*
X232720057Y-186100057D01*
X232648628Y-186242914D01*
X232577200Y-186314342D01*
X232434342Y-186385771D01*
X232148628Y-186385771D01*
X232005771Y-186314342D01*
X234005771Y-186314342D02*
X233862914Y-186385771D01*
X233577200Y-186385771D01*
X233434342Y-186314342D01*
X233362914Y-186242914D01*
X233291485Y-186100057D01*
X233291485Y-185671485D01*
X233362914Y-185528628D01*
X233434342Y-185457200D01*
X233577200Y-185385771D01*
X233862914Y-185385771D01*
X234005771Y-185457200D01*
X234648628Y-186385771D02*
X234648628Y-184885771D01*
X234648628Y-185457200D02*
X234791485Y-185385771D01*
X235077200Y-185385771D01*
X235220057Y-185457200D01*
X235291485Y-185528628D01*
X235362914Y-185671485D01*
X235362914Y-186100057D01*
X235291485Y-186242914D01*
X235220057Y-186314342D01*
X235077200Y-186385771D01*
X234791485Y-186385771D01*
X234648628Y-186314342D01*
D10*
D11*
X177002200Y-181507200D02*
X285002200Y-181507200D01*
D10*
D11*
X178362914Y-183614342D02*
X178577200Y-183685771D01*
X178934342Y-183685771D01*
X179077200Y-183614342D01*
X179148628Y-183542914D01*
X179220057Y-183400057D01*
X179220057Y-183257200D01*
X179148628Y-183114342D01*
X179077200Y-183042914D01*
X178934342Y-182971485D01*
X178648628Y-182900057D01*
X178505771Y-182828628D01*
X178434342Y-182757200D01*
X178362914Y-182614342D01*
X178362914Y-182471485D01*
X178434342Y-182328628D01*
X178505771Y-182257200D01*
X178648628Y-182185771D01*
X179005771Y-182185771D01*
X179220057Y-182257200D01*
X179862914Y-183685771D02*
X179862914Y-182185771D01*
X180505771Y-183685771D02*
X180505771Y-182900057D01*
X180434342Y-182757200D01*
X180291485Y-182685771D01*
X180077200Y-182685771D01*
X179934342Y-182757200D01*
X179862914Y-182828628D01*
X181791485Y-183614342D02*
X181648628Y-183685771D01*
X181362914Y-183685771D01*
X181220057Y-183614342D01*
X181148628Y-183471485D01*
X181148628Y-182900057D01*
X181220057Y-182757200D01*
X181362914Y-182685771D01*
X181648628Y-182685771D01*
X181791485Y-182757200D01*
X181862914Y-182900057D01*
X181862914Y-183042914D01*
X181148628Y-183185771D01*
X183077200Y-183614342D02*
X182934342Y-183685771D01*
X182648628Y-183685771D01*
X182505771Y-183614342D01*
X182434342Y-183471485D01*
X182434342Y-182900057D01*
X182505771Y-182757200D01*
X182648628Y-182685771D01*
X182934342Y-182685771D01*
X183077200Y-182757200D01*
X183148628Y-182900057D01*
X183148628Y-183042914D01*
X182434342Y-183185771D01*
X183577200Y-182685771D02*
X184148628Y-182685771D01*
X183791485Y-182185771D02*
X183791485Y-183471485D01*
X183862914Y-183614342D01*
X184005771Y-183685771D01*
X184148628Y-183685771D01*
X184648628Y-183542914D02*
X184720057Y-183614342D01*
X184648628Y-183685771D01*
X184577200Y-183614342D01*
X184648628Y-183542914D01*
X184648628Y-183685771D01*
X184648628Y-182757200D02*
X184720057Y-182828628D01*
X184648628Y-182900057D01*
X184577200Y-182828628D01*
X184648628Y-182757200D01*
X184648628Y-182900057D01*
D10*
D12*
D10*
D11*
D10*
D11*
D10*
D11*
D10*
D11*
D10*
D11*
X197002200Y-191507200D02*
X197002200Y-194507200D01*
D10*
D11*
X261002200Y-191507200D02*
X261002200Y-198007200D01*
D14*
%TO.N,/Power Unit/VCC*%
%TO.C,J103*%
X4610000Y8315339D03*
D15*
%TO.N,/Power Unit/GND*%
X4610000Y7045339D03*
%TO.N,/Power Unit/VCC_5V*%
X4610000Y5775339D03*
%TO.N,/Power Unit/IS_USB*%
X4610000Y4505339D03*
%TD*%
D16*
%TO.N,/Power Unit/Camera transmit1/VIDEO*%
%TO.C,J702*%
X171285000Y82145000D03*
D17*
%TO.N,/Power Unit/GND*%
X172535000Y82145000D03*
%TO.N,/Power Unit/Camera1/V_IN*%
X173785000Y82145000D03*
%TD*%
D16*
%TO.N,Net-(J703-Pad1)*%
%TO.C,J703*%
X171285000Y76895000D03*
D17*
%TO.N,Net-(J703-Pad2)*%
X172535000Y76895000D03*
%TD*%
D18*
%TO.N,/Control Unit/GND*%
%TO.C,U1601*%
X65560000Y-38220000D03*
D19*
%TO.N,/Control Unit/BME280/DQ*%
X65560000Y-36950000D03*
%TO.N,/Control Unit/VCC*%
X65560000Y-35680000D03*
%TD*%
D16*
%TO.N,/Power Unit/Battery Pack1/NTC*%
%TO.C,TH602*%
X153115000Y91775000D03*
D17*
%TO.N,Net-(Q602-Pad3)*%
X154365000Y91775000D03*
%TD*%
D20*
%TO.N,Net-(J1801-Pad1)*%
%TO.C,J1801*%
X4510000Y15505339D03*
%TD*%
D21*
%TO.N,unconnected-(BT2101-Pad1)*%
%TO.C,BT2101*%
X-9935000Y3202500D03*
X-18465000Y3197500D03*
%TD*%
D16*
%TO.N,Net-(Q601-Pad3)*%
%TO.C,TH601*%
X159415000Y91775000D03*
D17*
%TO.N,/Power Unit/GND*%
X160665000Y91775000D03*
%TD*%
D14*
%TO.N,/Power Unit/CHREN*%
%TO.C,J104*%
X9210000Y8315339D03*
D15*
%TO.N,/Power Unit/CHR0*%
X9210000Y7045339D03*
%TO.N,/Power Unit/CHR1*%
X9210000Y5775339D03*
%TD*%
D22*
%TO.N,/Control Unit/GND*%
%TO.C,J301*%
X75475000Y-77825000D03*
%TO.N,/Control Unit/IS_USB*%
X76325000Y-77825000D03*
%TO.N,Net-(J301-PadA5)*%
X77175000Y-77825000D03*
%TO.N,/Control Unit/D+*%
X78025000Y-77825000D03*
%TO.N,/Control Unit/D-*%
X78875000Y-77825000D03*
%TO.N,unconnected-(J301-PadA8)*%
X79725000Y-77825000D03*
%TO.N,/Control Unit/IS_USB*%
X80575000Y-77825000D03*
%TO.N,/Control Unit/GND*%
X81425000Y-77825000D03*
X81425000Y-79175000D03*
%TO.N,/Control Unit/IS_USB*%
X80575000Y-79175000D03*
%TO.N,Net-(J301-PadB5)*%
X79725000Y-79175000D03*
%TO.N,/Control Unit/D+*%
X78875000Y-79175000D03*
%TO.N,/Control Unit/D-*%
X78025000Y-79175000D03*
%TO.N,unconnected-(J301-PadB8)*%
X77175000Y-79175000D03*
%TO.N,/Control Unit/IS_USB*%
X76325000Y-79175000D03*
%TO.N,/Control Unit/GND*%
X75475000Y-79175000D03*
D23*
X74125000Y-78805000D03*
X82775000Y-78805000D03*
D24*
X74125000Y-82185000D03*
X82775000Y-82185000D03*
%TD*%
D20*
%TO.N,Net-(J1701-Pad1)*%
%TO.C,J1701*%
X12130000Y43875339D03*
%TD*%
D16*
%TO.N,/Power Unit/Camera transmit1/VIDEO*%
%TO.C,J701*%
X242050000Y68640000D03*
D17*
%TO.N,/Power Unit/GND*%
X243300000Y68640000D03*
%TD*%
D16*
%TO.N,Net-(J704-Pad1)*%
%TO.C,J704*%
X38690000Y57125339D03*
D17*
%TO.N,Net-(J704-Pad2)*%
X39940000Y57125339D03*
%TD*%
D20*
%TO.N,Net-(J1702-Pad1)*%
%TO.C,J1702*%
X12130000Y39425339D03*
%TD*%
D21*
%TO.N,Net-(BT1701-Pad1)*%
%TO.C,BT1701*%
X8215000Y41802500D03*
X-315000Y41797500D03*
%TD*%
D14*
%TO.N,/Control Unit/CHREN*%
%TO.C,J102*%
X104897000Y-67564000D03*
D15*
%TO.N,/Control Unit/CHR1*%
X104897000Y-66294000D03*
%TO.N,/Control Unit/CHR0*%
X104897000Y-65024000D03*
%TD*%
D14*
%TO.N,/Control Unit/VCC*%
%TO.C,J101*%
X52197000Y-64394000D03*
D15*
%TO.N,/Control Unit/GND*%
X52197000Y-65664000D03*
%TO.N,/Control Unit/VBUS*%
X52197000Y-66934000D03*
%TO.N,/Control Unit/IS_USB_CHARGE*%
X52197000Y-68204000D03*
%TD*%
D25*
%TO.N,/Control Unit/VCC*%
X83262500Y-56900000D03*
%TO.N,/Control Unit/GND*%
X92512500Y-58600000D03*
D26*
X61475000Y-65175000D03*
D25*
X80387500Y-74840000D03*
D26*
X90037500Y-72700000D03*
D25*
X83262500Y-59900000D03*
D26*
X69000000Y-62975000D03*
D25*
X91000000Y-60100000D03*
X77250000Y-74850000D03*
D26*
X57150000Y-65175000D03*
X59000000Y-59825000D03*
D25*
X89512500Y-61600000D03*
X90850000Y-78510000D03*
%TO.N,/Control Unit/D+*%
X70500000Y-72075000D03*
%TO.N,/Control Unit/D-*%
X70500000Y-70050000D03*
D26*
%TO.N,/Control Unit/IS_USB*%
X74875000Y-76275000D03*
D25*
%TO.N,/Control Unit/VCC*%
X82140000Y-62500000D03*
X82150000Y-59900000D03*
X85100000Y-56900000D03*
X74640000Y-34150000D03*
X86287500Y-74200000D03*
D27*
%TO.N,Net-(J405-Pad3)*%
X68300000Y-67050000D03*
X54300000Y-65200000D03*
D25*
X103875000Y-54015000D03*
%TO.N,/Control Unit/VBUS_SENSE*%
X85100000Y-61700000D03*
X88700000Y-76150000D03*
X84437500Y-74840000D03*
%TO.N,/Control Unit/CHREN*%
X92500000Y-76300000D03*
%TO.N,/Control Unit/CHR1*%
X92500000Y-75600000D03*
%TO.N,/Control Unit/CHR0*%
X92500000Y-74900000D03*
%TO.N,/Control Unit/RXD*%
X95950000Y-58500000D03*
X90000000Y-69300000D03*
%TO.N,/Control Unit/TXD*%
X95300000Y-59300000D03*
X89100000Y-69300000D03*
%TO.N,Net-(J301-PadB5)*%
X80387500Y-75860000D03*
%TO.N,/Control Unit/ESP_RST*%
X75198750Y-71211250D03*
X70205000Y-77250000D03*
X82150000Y-60910000D03*
X72150000Y-73650000D03*
%TO.N,/Control Unit/IO0*%
X91400000Y-69300000D03*
X86637500Y-77450000D03*
X82175000Y-71200000D03*
%TO.N,/Control Unit/SDA*%
X77220000Y-30650000D03*
X69470000Y-32670000D03*
%TO.N,/Control Unit/SCL*%
X69470000Y-33310000D03*
X79700000Y-30650000D03*
%TO.N,/Control Unit/BAT-USB*%
X67000000Y-78600000D03*
%TO.N,/Control Unit/DO_DEBUG*%
X83160000Y-62500000D03*
X70580000Y-73400000D03*
%TO.N,/Control Unit/SW_LEDPAN*%
X72100000Y-69000000D03*
%TD*%
D28*
%TO.N,/Control Unit/ESP_RST*%
X78438750Y-71211250D02*
X75198750Y-71211250D01*
X81170000Y-68480000D02*
X78438750Y-71211250D01*
X82150000Y-60910000D02*
X81170000Y-61890000D01*
X81170000Y-61890000D02*
X81170000Y-68480000D01*
%TO.N,/Control Unit/DO_DEBUG*%
X70580000Y-73400000D02*
X71710000Y-72270000D01*
X79200000Y-72270000D02*
X83170000Y-68300000D01*
X83170000Y-68300000D02*
X83170000Y-62510000D01*
X71710000Y-72270000D02*
X79200000Y-72270000D01*
X83170000Y-62510000D02*
X83160000Y-62500000D01*
%TD*%
M02*
