%TF.GenerationSoftware,KiCad,Pcbnew,(6.0.5)*%
%TF.CreationDate,2022-11-07T11:26:13+01:00*%
%TF.ProjectId,CanSat 2023  - Elektrokonstrukce,43616e53-6174-4203-9230-323320202d20,rev?*%
%TF.SameCoordinates,Original*%
%TF.FileFunction,Legend,Bot*%
%TF.FilePolarity,Positive*%
%FSLAX46Y46*%
G04 Gerber Fmt 4.6, Leading zero omitted, Abs format (unit mm)*
G04 Created by KiCad (PCBNEW (6.0.5)) date 2022-11-07 11:26:13*
%MOMM*%
%LPD*%
G01*
G04 APERTURE LIST*
%ADD10C,0.100000*%
%ADD11C,0.150000*%
%ADD12C,0.300000*%
%ADD13C,0.400000*%
%ADD14C,0.120000*%
G04 APERTURE END LIST*
D10*
D11*
X177002200Y-166007200D02*
X177002200Y-198007200D01*
X285002200Y-198007200D01*
X285002200Y-166007200D01*
X177002200Y-166007200D01*
D10*
D11*
X10000000Y-10000000D02*
X10000000Y-200007200D01*
X287002200Y-200007200D01*
X287002200Y-10000000D01*
X10000000Y-10000000D01*
D10*
D11*
X12000000Y-12000000D02*
X12000000Y-198007200D01*
X285002200Y-198007200D01*
X285002200Y-12000000D01*
X12000000Y-12000000D01*
D10*
D11*
X60000000Y-12000000D02*
X60000000Y-10000000D01*
D10*
D11*
X110000000Y-12000000D02*
X110000000Y-10000000D01*
D10*
D11*
X160000000Y-12000000D02*
X160000000Y-10000000D01*
D10*
D11*
X210000000Y-12000000D02*
X210000000Y-10000000D01*
D10*
D11*
X260000000Y-12000000D02*
X260000000Y-10000000D01*
D10*
D11*
X36065476Y-11588095D02*
X35322619Y-11588095D01*
X35694047Y-11588095D02*
X35694047Y-10288095D01*
X35570238Y-10473809D01*
X35446428Y-10597619D01*
X35322619Y-10659523D01*
D10*
D11*
X85322619Y-10411904D02*
X85384523Y-10350000D01*
X85508333Y-10288095D01*
X85817857Y-10288095D01*
X85941666Y-10350000D01*
X86003571Y-10411904D01*
X86065476Y-10535714D01*
X86065476Y-10659523D01*
X86003571Y-10845238D01*
X85260714Y-11588095D01*
X86065476Y-11588095D01*
D10*
D11*
X135260714Y-10288095D02*
X136065476Y-10288095D01*
X135632142Y-10783333D01*
X135817857Y-10783333D01*
X135941666Y-10845238D01*
X136003571Y-10907142D01*
X136065476Y-11030952D01*
X136065476Y-11340476D01*
X136003571Y-11464285D01*
X135941666Y-11526190D01*
X135817857Y-11588095D01*
X135446428Y-11588095D01*
X135322619Y-11526190D01*
X135260714Y-11464285D01*
D10*
D11*
X185941666Y-10721428D02*
X185941666Y-11588095D01*
X185632142Y-10226190D02*
X185322619Y-11154761D01*
X186127380Y-11154761D01*
D10*
D11*
X236003571Y-10288095D02*
X235384523Y-10288095D01*
X235322619Y-10907142D01*
X235384523Y-10845238D01*
X235508333Y-10783333D01*
X235817857Y-10783333D01*
X235941666Y-10845238D01*
X236003571Y-10907142D01*
X236065476Y-11030952D01*
X236065476Y-11340476D01*
X236003571Y-11464285D01*
X235941666Y-11526190D01*
X235817857Y-11588095D01*
X235508333Y-11588095D01*
X235384523Y-11526190D01*
X235322619Y-11464285D01*
D10*
D11*
X285941666Y-10288095D02*
X285694047Y-10288095D01*
X285570238Y-10350000D01*
X285508333Y-10411904D01*
X285384523Y-10597619D01*
X285322619Y-10845238D01*
X285322619Y-11340476D01*
X285384523Y-11464285D01*
X285446428Y-11526190D01*
X285570238Y-11588095D01*
X285817857Y-11588095D01*
X285941666Y-11526190D01*
X286003571Y-11464285D01*
X286065476Y-11340476D01*
X286065476Y-11030952D01*
X286003571Y-10907142D01*
X285941666Y-10845238D01*
X285817857Y-10783333D01*
X285570238Y-10783333D01*
X285446428Y-10845238D01*
X285384523Y-10907142D01*
X285322619Y-11030952D01*
D10*
D11*
X60000000Y-198007200D02*
X60000000Y-200007200D01*
D10*
D11*
X110000000Y-198007200D02*
X110000000Y-200007200D01*
D10*
D11*
X160000000Y-198007200D02*
X160000000Y-200007200D01*
D10*
D11*
X210000000Y-198007200D02*
X210000000Y-200007200D01*
D10*
D11*
X260000000Y-198007200D02*
X260000000Y-200007200D01*
D10*
D11*
X36065476Y-199595295D02*
X35322619Y-199595295D01*
X35694047Y-199595295D02*
X35694047Y-198295295D01*
X35570238Y-198481009D01*
X35446428Y-198604819D01*
X35322619Y-198666723D01*
D10*
D11*
X85322619Y-198419104D02*
X85384523Y-198357200D01*
X85508333Y-198295295D01*
X85817857Y-198295295D01*
X85941666Y-198357200D01*
X86003571Y-198419104D01*
X86065476Y-198542914D01*
X86065476Y-198666723D01*
X86003571Y-198852438D01*
X85260714Y-199595295D01*
X86065476Y-199595295D01*
D10*
D11*
X135260714Y-198295295D02*
X136065476Y-198295295D01*
X135632142Y-198790533D01*
X135817857Y-198790533D01*
X135941666Y-198852438D01*
X136003571Y-198914342D01*
X136065476Y-199038152D01*
X136065476Y-199347676D01*
X136003571Y-199471485D01*
X135941666Y-199533390D01*
X135817857Y-199595295D01*
X135446428Y-199595295D01*
X135322619Y-199533390D01*
X135260714Y-199471485D01*
D10*
D11*
X185941666Y-198728628D02*
X185941666Y-199595295D01*
X185632142Y-198233390D02*
X185322619Y-199161961D01*
X186127380Y-199161961D01*
D10*
D11*
X236003571Y-198295295D02*
X235384523Y-198295295D01*
X235322619Y-198914342D01*
X235384523Y-198852438D01*
X235508333Y-198790533D01*
X235817857Y-198790533D01*
X235941666Y-198852438D01*
X236003571Y-198914342D01*
X236065476Y-199038152D01*
X236065476Y-199347676D01*
X236003571Y-199471485D01*
X235941666Y-199533390D01*
X235817857Y-199595295D01*
X235508333Y-199595295D01*
X235384523Y-199533390D01*
X235322619Y-199471485D01*
D10*
D11*
X285941666Y-198295295D02*
X285694047Y-198295295D01*
X285570238Y-198357200D01*
X285508333Y-198419104D01*
X285384523Y-198604819D01*
X285322619Y-198852438D01*
X285322619Y-199347676D01*
X285384523Y-199471485D01*
X285446428Y-199533390D01*
X285570238Y-199595295D01*
X285817857Y-199595295D01*
X285941666Y-199533390D01*
X286003571Y-199471485D01*
X286065476Y-199347676D01*
X286065476Y-199038152D01*
X286003571Y-198914342D01*
X285941666Y-198852438D01*
X285817857Y-198790533D01*
X285570238Y-198790533D01*
X285446428Y-198852438D01*
X285384523Y-198914342D01*
X285322619Y-199038152D01*
D10*
D11*
X10000000Y-60000000D02*
X12000000Y-60000000D01*
D10*
D11*
X10000000Y-110000000D02*
X12000000Y-110000000D01*
D10*
D11*
X10000000Y-160000000D02*
X12000000Y-160000000D01*
D10*
D11*
X10690476Y-35216666D02*
X11309523Y-35216666D01*
X10566666Y-35588095D02*
X11000000Y-34288095D01*
X11433333Y-35588095D01*
D10*
D11*
X11092857Y-84907142D02*
X11278571Y-84969047D01*
X11340476Y-85030952D01*
X11402380Y-85154761D01*
X11402380Y-85340476D01*
X11340476Y-85464285D01*
X11278571Y-85526190D01*
X11154761Y-85588095D01*
X10659523Y-85588095D01*
X10659523Y-84288095D01*
X11092857Y-84288095D01*
X11216666Y-84350000D01*
X11278571Y-84411904D01*
X11340476Y-84535714D01*
X11340476Y-84659523D01*
X11278571Y-84783333D01*
X11216666Y-84845238D01*
X11092857Y-84907142D01*
X10659523Y-84907142D01*
D10*
D11*
X11402380Y-135464285D02*
X11340476Y-135526190D01*
X11154761Y-135588095D01*
X11030952Y-135588095D01*
X10845238Y-135526190D01*
X10721428Y-135402380D01*
X10659523Y-135278571D01*
X10597619Y-135030952D01*
X10597619Y-134845238D01*
X10659523Y-134597619D01*
X10721428Y-134473809D01*
X10845238Y-134350000D01*
X11030952Y-134288095D01*
X11154761Y-134288095D01*
X11340476Y-134350000D01*
X11402380Y-134411904D01*
D10*
D11*
X10659523Y-185588095D02*
X10659523Y-184288095D01*
X10969047Y-184288095D01*
X11154761Y-184350000D01*
X11278571Y-184473809D01*
X11340476Y-184597619D01*
X11402380Y-184845238D01*
X11402380Y-185030952D01*
X11340476Y-185278571D01*
X11278571Y-185402380D01*
X11154761Y-185526190D01*
X10969047Y-185588095D01*
X10659523Y-185588095D01*
D10*
D11*
X287002200Y-60000000D02*
X285002200Y-60000000D01*
D10*
D11*
X287002200Y-110000000D02*
X285002200Y-110000000D01*
D10*
D11*
X287002200Y-160000000D02*
X285002200Y-160000000D01*
D10*
D11*
X285692676Y-35216666D02*
X286311723Y-35216666D01*
X285568866Y-35588095D02*
X286002200Y-34288095D01*
X286435533Y-35588095D01*
D10*
D11*
X286095057Y-84907142D02*
X286280771Y-84969047D01*
X286342676Y-85030952D01*
X286404580Y-85154761D01*
X286404580Y-85340476D01*
X286342676Y-85464285D01*
X286280771Y-85526190D01*
X286156961Y-85588095D01*
X285661723Y-85588095D01*
X285661723Y-84288095D01*
X286095057Y-84288095D01*
X286218866Y-84350000D01*
X286280771Y-84411904D01*
X286342676Y-84535714D01*
X286342676Y-84659523D01*
X286280771Y-84783333D01*
X286218866Y-84845238D01*
X286095057Y-84907142D01*
X285661723Y-84907142D01*
D10*
D11*
X286404580Y-135464285D02*
X286342676Y-135526190D01*
X286156961Y-135588095D01*
X286033152Y-135588095D01*
X285847438Y-135526190D01*
X285723628Y-135402380D01*
X285661723Y-135278571D01*
X285599819Y-135030952D01*
X285599819Y-134845238D01*
X285661723Y-134597619D01*
X285723628Y-134473809D01*
X285847438Y-134350000D01*
X286033152Y-134288095D01*
X286156961Y-134288095D01*
X286342676Y-134350000D01*
X286404580Y-134411904D01*
D10*
D11*
X285661723Y-185588095D02*
X285661723Y-184288095D01*
X285971247Y-184288095D01*
X286156961Y-184350000D01*
X286280771Y-184473809D01*
X286342676Y-184597619D01*
X286404580Y-184845238D01*
X286404580Y-185030952D01*
X286342676Y-185278571D01*
X286280771Y-185402380D01*
X286156961Y-185526190D01*
X285971247Y-185588095D01*
X285661723Y-185588095D01*
D10*
D11*
X200434342Y-193785771D02*
X200434342Y-192285771D01*
X200791485Y-192285771D01*
X201005771Y-192357200D01*
X201148628Y-192500057D01*
X201220057Y-192642914D01*
X201291485Y-192928628D01*
X201291485Y-193142914D01*
X201220057Y-193428628D01*
X201148628Y-193571485D01*
X201005771Y-193714342D01*
X200791485Y-193785771D01*
X200434342Y-193785771D01*
X202577200Y-193785771D02*
X202577200Y-193000057D01*
X202505771Y-192857200D01*
X202362914Y-192785771D01*
X202077200Y-192785771D01*
X201934342Y-192857200D01*
X202577200Y-193714342D02*
X202434342Y-193785771D01*
X202077200Y-193785771D01*
X201934342Y-193714342D01*
X201862914Y-193571485D01*
X201862914Y-193428628D01*
X201934342Y-193285771D01*
X202077200Y-193214342D01*
X202434342Y-193214342D01*
X202577200Y-193142914D01*
X203077200Y-192785771D02*
X203648628Y-192785771D01*
X203291485Y-192285771D02*
X203291485Y-193571485D01*
X203362914Y-193714342D01*
X203505771Y-193785771D01*
X203648628Y-193785771D01*
X204720057Y-193714342D02*
X204577200Y-193785771D01*
X204291485Y-193785771D01*
X204148628Y-193714342D01*
X204077200Y-193571485D01*
X204077200Y-193000057D01*
X204148628Y-192857200D01*
X204291485Y-192785771D01*
X204577200Y-192785771D01*
X204720057Y-192857200D01*
X204791485Y-193000057D01*
X204791485Y-193142914D01*
X204077200Y-193285771D01*
X205434342Y-193642914D02*
X205505771Y-193714342D01*
X205434342Y-193785771D01*
X205362914Y-193714342D01*
X205434342Y-193642914D01*
X205434342Y-193785771D01*
X205434342Y-192857200D02*
X205505771Y-192928628D01*
X205434342Y-193000057D01*
X205362914Y-192928628D01*
X205434342Y-192857200D01*
X205434342Y-193000057D01*
D10*
D11*
X177002200Y-194507200D02*
X285002200Y-194507200D01*
D10*
D11*
X178434342Y-196585771D02*
X178434342Y-195085771D01*
X179291485Y-196585771D02*
X178648628Y-195728628D01*
X179291485Y-195085771D02*
X178434342Y-195942914D01*
X179934342Y-196585771D02*
X179934342Y-195585771D01*
X179934342Y-195085771D02*
X179862914Y-195157200D01*
X179934342Y-195228628D01*
X180005771Y-195157200D01*
X179934342Y-195085771D01*
X179934342Y-195228628D01*
X181505771Y-196442914D02*
X181434342Y-196514342D01*
X181220057Y-196585771D01*
X181077200Y-196585771D01*
X180862914Y-196514342D01*
X180720057Y-196371485D01*
X180648628Y-196228628D01*
X180577200Y-195942914D01*
X180577200Y-195728628D01*
X180648628Y-195442914D01*
X180720057Y-195300057D01*
X180862914Y-195157200D01*
X181077200Y-195085771D01*
X181220057Y-195085771D01*
X181434342Y-195157200D01*
X181505771Y-195228628D01*
X182791485Y-196585771D02*
X182791485Y-195800057D01*
X182720057Y-195657200D01*
X182577200Y-195585771D01*
X182291485Y-195585771D01*
X182148628Y-195657200D01*
X182791485Y-196514342D02*
X182648628Y-196585771D01*
X182291485Y-196585771D01*
X182148628Y-196514342D01*
X182077200Y-196371485D01*
X182077200Y-196228628D01*
X182148628Y-196085771D01*
X182291485Y-196014342D01*
X182648628Y-196014342D01*
X182791485Y-195942914D01*
X184148628Y-196585771D02*
X184148628Y-195085771D01*
X184148628Y-196514342D02*
X184005771Y-196585771D01*
X183720057Y-196585771D01*
X183577200Y-196514342D01*
X183505771Y-196442914D01*
X183434342Y-196300057D01*
X183434342Y-195871485D01*
X183505771Y-195728628D01*
X183577200Y-195657200D01*
X183720057Y-195585771D01*
X184005771Y-195585771D01*
X184148628Y-195657200D01*
X186005771Y-195800057D02*
X186505771Y-195800057D01*
X186720057Y-196585771D02*
X186005771Y-196585771D01*
X186005771Y-195085771D01*
X186720057Y-195085771D01*
X187362914Y-196442914D02*
X187434342Y-196514342D01*
X187362914Y-196585771D01*
X187291485Y-196514342D01*
X187362914Y-196442914D01*
X187362914Y-196585771D01*
X188077200Y-196585771D02*
X188077200Y-195085771D01*
X188434342Y-195085771D01*
X188648628Y-195157200D01*
X188791485Y-195300057D01*
X188862914Y-195442914D01*
X188934342Y-195728628D01*
X188934342Y-195942914D01*
X188862914Y-196228628D01*
X188791485Y-196371485D01*
X188648628Y-196514342D01*
X188434342Y-196585771D01*
X188077200Y-196585771D01*
X189577200Y-196442914D02*
X189648628Y-196514342D01*
X189577200Y-196585771D01*
X189505771Y-196514342D01*
X189577200Y-196442914D01*
X189577200Y-196585771D01*
X190220057Y-196157200D02*
X190934342Y-196157200D01*
X190077200Y-196585771D02*
X190577200Y-195085771D01*
X191077200Y-196585771D01*
X191577200Y-196442914D02*
X191648628Y-196514342D01*
X191577200Y-196585771D01*
X191505771Y-196514342D01*
X191577200Y-196442914D01*
X191577200Y-196585771D01*
X194577200Y-196585771D02*
X194577200Y-195085771D01*
X194720057Y-196014342D02*
X195148628Y-196585771D01*
X195148628Y-195585771D02*
X194577200Y-196157200D01*
X195791485Y-196585771D02*
X195791485Y-195585771D01*
X195791485Y-195085771D02*
X195720057Y-195157200D01*
X195791485Y-195228628D01*
X195862914Y-195157200D01*
X195791485Y-195085771D01*
X195791485Y-195228628D01*
X197148628Y-196514342D02*
X197005771Y-196585771D01*
X196720057Y-196585771D01*
X196577200Y-196514342D01*
X196505771Y-196442914D01*
X196434342Y-196300057D01*
X196434342Y-195871485D01*
X196505771Y-195728628D01*
X196577200Y-195657200D01*
X196720057Y-195585771D01*
X197005771Y-195585771D01*
X197148628Y-195657200D01*
X198434342Y-196585771D02*
X198434342Y-195800057D01*
X198362914Y-195657200D01*
X198220057Y-195585771D01*
X197934342Y-195585771D01*
X197791485Y-195657200D01*
X198434342Y-196514342D02*
X198291485Y-196585771D01*
X197934342Y-196585771D01*
X197791485Y-196514342D01*
X197720057Y-196371485D01*
X197720057Y-196228628D01*
X197791485Y-196085771D01*
X197934342Y-196014342D01*
X198291485Y-196014342D01*
X198434342Y-195942914D01*
X199791485Y-196585771D02*
X199791485Y-195085771D01*
X199791485Y-196514342D02*
X199648628Y-196585771D01*
X199362914Y-196585771D01*
X199220057Y-196514342D01*
X199148628Y-196442914D01*
X199077200Y-196300057D01*
X199077200Y-195871485D01*
X199148628Y-195728628D01*
X199220057Y-195657200D01*
X199362914Y-195585771D01*
X199648628Y-195585771D01*
X199791485Y-195657200D01*
X202077200Y-197157200D02*
X202005771Y-197085771D01*
X201862914Y-196871485D01*
X201791485Y-196728628D01*
X201720057Y-196514342D01*
X201648628Y-196157200D01*
X201648628Y-195871485D01*
X201720057Y-195514342D01*
X201791485Y-195300057D01*
X201862914Y-195157200D01*
X202005771Y-194942914D01*
X202077200Y-194871485D01*
X203291485Y-195085771D02*
X203005771Y-195085771D01*
X202862914Y-195157200D01*
X202791485Y-195228628D01*
X202648628Y-195442914D01*
X202577200Y-195728628D01*
X202577200Y-196300057D01*
X202648628Y-196442914D01*
X202720057Y-196514342D01*
X202862914Y-196585771D01*
X203148628Y-196585771D01*
X203291485Y-196514342D01*
X203362914Y-196442914D01*
X203434342Y-196300057D01*
X203434342Y-195942914D01*
X203362914Y-195800057D01*
X203291485Y-195728628D01*
X203148628Y-195657200D01*
X202862914Y-195657200D01*
X202720057Y-195728628D01*
X202648628Y-195800057D01*
X202577200Y-195942914D01*
X204077200Y-196442914D02*
X204148628Y-196514342D01*
X204077200Y-196585771D01*
X204005771Y-196514342D01*
X204077200Y-196442914D01*
X204077200Y-196585771D01*
X205077200Y-195085771D02*
X205220057Y-195085771D01*
X205362914Y-195157200D01*
X205434342Y-195228628D01*
X205505771Y-195371485D01*
X205577200Y-195657200D01*
X205577200Y-196014342D01*
X205505771Y-196300057D01*
X205434342Y-196442914D01*
X205362914Y-196514342D01*
X205220057Y-196585771D01*
X205077200Y-196585771D01*
X204934342Y-196514342D01*
X204862914Y-196442914D01*
X204791485Y-196300057D01*
X204720057Y-196014342D01*
X204720057Y-195657200D01*
X204791485Y-195371485D01*
X204862914Y-195228628D01*
X204934342Y-195157200D01*
X205077200Y-195085771D01*
X206220057Y-196442914D02*
X206291485Y-196514342D01*
X206220057Y-196585771D01*
X206148628Y-196514342D01*
X206220057Y-196442914D01*
X206220057Y-196585771D01*
X207648628Y-195085771D02*
X206934342Y-195085771D01*
X206862914Y-195800057D01*
X206934342Y-195728628D01*
X207077200Y-195657200D01*
X207434342Y-195657200D01*
X207577200Y-195728628D01*
X207648628Y-195800057D01*
X207720057Y-195942914D01*
X207720057Y-196300057D01*
X207648628Y-196442914D01*
X207577200Y-196514342D01*
X207434342Y-196585771D01*
X207077200Y-196585771D01*
X206934342Y-196514342D01*
X206862914Y-196442914D01*
X208220057Y-197157200D02*
X208291485Y-197085771D01*
X208434342Y-196871485D01*
X208505771Y-196728628D01*
X208577200Y-196514342D01*
X208648628Y-196157200D01*
X208648628Y-195871485D01*
X208577200Y-195514342D01*
X208505771Y-195300057D01*
X208434342Y-195157200D01*
X208291485Y-194942914D01*
X208220057Y-194871485D01*
D10*
D11*
X177002200Y-191507200D02*
X285002200Y-191507200D01*
D10*
D12*
X264411485Y-193785771D02*
X263911485Y-193071485D01*
X263554342Y-193785771D02*
X263554342Y-192285771D01*
X264125771Y-192285771D01*
X264268628Y-192357200D01*
X264340057Y-192428628D01*
X264411485Y-192571485D01*
X264411485Y-192785771D01*
X264340057Y-192928628D01*
X264268628Y-193000057D01*
X264125771Y-193071485D01*
X263554342Y-193071485D01*
X265625771Y-193714342D02*
X265482914Y-193785771D01*
X265197200Y-193785771D01*
X265054342Y-193714342D01*
X264982914Y-193571485D01*
X264982914Y-193000057D01*
X265054342Y-192857200D01*
X265197200Y-192785771D01*
X265482914Y-192785771D01*
X265625771Y-192857200D01*
X265697200Y-193000057D01*
X265697200Y-193142914D01*
X264982914Y-193285771D01*
X266197200Y-192785771D02*
X266554342Y-193785771D01*
X266911485Y-192785771D01*
X267482914Y-193642914D02*
X267554342Y-193714342D01*
X267482914Y-193785771D01*
X267411485Y-193714342D01*
X267482914Y-193642914D01*
X267482914Y-193785771D01*
X267482914Y-192857200D02*
X267554342Y-192928628D01*
X267482914Y-193000057D01*
X267411485Y-192928628D01*
X267482914Y-192857200D01*
X267482914Y-193000057D01*
D10*
D11*
X178362914Y-193714342D02*
X178577200Y-193785771D01*
X178934342Y-193785771D01*
X179077200Y-193714342D01*
X179148628Y-193642914D01*
X179220057Y-193500057D01*
X179220057Y-193357200D01*
X179148628Y-193214342D01*
X179077200Y-193142914D01*
X178934342Y-193071485D01*
X178648628Y-193000057D01*
X178505771Y-192928628D01*
X178434342Y-192857200D01*
X178362914Y-192714342D01*
X178362914Y-192571485D01*
X178434342Y-192428628D01*
X178505771Y-192357200D01*
X178648628Y-192285771D01*
X179005771Y-192285771D01*
X179220057Y-192357200D01*
X179862914Y-193785771D02*
X179862914Y-192785771D01*
X179862914Y-192285771D02*
X179791485Y-192357200D01*
X179862914Y-192428628D01*
X179934342Y-192357200D01*
X179862914Y-192285771D01*
X179862914Y-192428628D01*
X180434342Y-192785771D02*
X181220057Y-192785771D01*
X180434342Y-193785771D01*
X181220057Y-193785771D01*
X182362914Y-193714342D02*
X182220057Y-193785771D01*
X181934342Y-193785771D01*
X181791485Y-193714342D01*
X181720057Y-193571485D01*
X181720057Y-193000057D01*
X181791485Y-192857200D01*
X181934342Y-192785771D01*
X182220057Y-192785771D01*
X182362914Y-192857200D01*
X182434342Y-193000057D01*
X182434342Y-193142914D01*
X181720057Y-193285771D01*
X183077200Y-193642914D02*
X183148628Y-193714342D01*
X183077200Y-193785771D01*
X183005771Y-193714342D01*
X183077200Y-193642914D01*
X183077200Y-193785771D01*
X183077200Y-192857200D02*
X183148628Y-192928628D01*
X183077200Y-193000057D01*
X183005771Y-192928628D01*
X183077200Y-192857200D01*
X183077200Y-193000057D01*
X184862914Y-193357200D02*
X185577200Y-193357200D01*
X184720057Y-193785771D02*
X185220057Y-192285771D01*
X185720057Y-193785771D01*
X186862914Y-192785771D02*
X186862914Y-193785771D01*
X186505771Y-192214342D02*
X186148628Y-193285771D01*
X187077200Y-193285771D01*
D10*
D11*
X263434342Y-196585771D02*
X263434342Y-195085771D01*
X264791485Y-196585771D02*
X264791485Y-195085771D01*
X264791485Y-196514342D02*
X264648628Y-196585771D01*
X264362914Y-196585771D01*
X264220057Y-196514342D01*
X264148628Y-196442914D01*
X264077200Y-196300057D01*
X264077200Y-195871485D01*
X264148628Y-195728628D01*
X264220057Y-195657200D01*
X264362914Y-195585771D01*
X264648628Y-195585771D01*
X264791485Y-195657200D01*
X265505771Y-196442914D02*
X265577200Y-196514342D01*
X265505771Y-196585771D01*
X265434342Y-196514342D01*
X265505771Y-196442914D01*
X265505771Y-196585771D01*
X265505771Y-195657200D02*
X265577200Y-195728628D01*
X265505771Y-195800057D01*
X265434342Y-195728628D01*
X265505771Y-195657200D01*
X265505771Y-195800057D01*
X268148628Y-196585771D02*
X267291485Y-196585771D01*
X267720057Y-196585771D02*
X267720057Y-195085771D01*
X267577200Y-195300057D01*
X267434342Y-195442914D01*
X267291485Y-195514342D01*
X269862914Y-195014342D02*
X268577200Y-196942914D01*
X271148628Y-196585771D02*
X270291485Y-196585771D01*
X270720057Y-196585771D02*
X270720057Y-195085771D01*
X270577200Y-195300057D01*
X270434342Y-195442914D01*
X270291485Y-195514342D01*
D10*
D11*
X177002200Y-187507200D02*
X285002200Y-187507200D01*
D10*
D13*
X178714580Y-188211961D02*
X179857438Y-188211961D01*
X179036009Y-190211961D02*
X179286009Y-188211961D01*
X180274104Y-190211961D02*
X180440771Y-188878628D01*
X180524104Y-188211961D02*
X180416961Y-188307200D01*
X180500295Y-188402438D01*
X180607438Y-188307200D01*
X180524104Y-188211961D01*
X180500295Y-188402438D01*
X181107438Y-188878628D02*
X181869342Y-188878628D01*
X181476485Y-188211961D02*
X181262200Y-189926247D01*
X181333628Y-190116723D01*
X181512200Y-190211961D01*
X181702676Y-190211961D01*
X182655057Y-190211961D02*
X182476485Y-190116723D01*
X182405057Y-189926247D01*
X182619342Y-188211961D01*
X184190771Y-190116723D02*
X183988390Y-190211961D01*
X183607438Y-190211961D01*
X183428866Y-190116723D01*
X183357438Y-189926247D01*
X183452676Y-189164342D01*
X183571723Y-188973866D01*
X183774104Y-188878628D01*
X184155057Y-188878628D01*
X184333628Y-188973866D01*
X184405057Y-189164342D01*
X184381247Y-189354819D01*
X183405057Y-189545295D01*
X185155057Y-190021485D02*
X185238390Y-190116723D01*
X185131247Y-190211961D01*
X185047914Y-190116723D01*
X185155057Y-190021485D01*
X185131247Y-190211961D01*
X185286009Y-188973866D02*
X185369342Y-189069104D01*
X185262200Y-189164342D01*
X185178866Y-189069104D01*
X185286009Y-188973866D01*
X185262200Y-189164342D01*
D10*
D11*
X178934342Y-185600057D02*
X178434342Y-185600057D01*
X178434342Y-186385771D02*
X178434342Y-184885771D01*
X179148628Y-184885771D01*
X179720057Y-186385771D02*
X179720057Y-185385771D01*
X179720057Y-184885771D02*
X179648628Y-184957200D01*
X179720057Y-185028628D01*
X179791485Y-184957200D01*
X179720057Y-184885771D01*
X179720057Y-185028628D01*
X180648628Y-186385771D02*
X180505771Y-186314342D01*
X180434342Y-186171485D01*
X180434342Y-184885771D01*
X181791485Y-186314342D02*
X181648628Y-186385771D01*
X181362914Y-186385771D01*
X181220057Y-186314342D01*
X181148628Y-186171485D01*
X181148628Y-185600057D01*
X181220057Y-185457200D01*
X181362914Y-185385771D01*
X181648628Y-185385771D01*
X181791485Y-185457200D01*
X181862914Y-185600057D01*
X181862914Y-185742914D01*
X181148628Y-185885771D01*
X182505771Y-186242914D02*
X182577200Y-186314342D01*
X182505771Y-186385771D01*
X182434342Y-186314342D01*
X182505771Y-186242914D01*
X182505771Y-186385771D01*
X182505771Y-185457200D02*
X182577200Y-185528628D01*
X182505771Y-185600057D01*
X182434342Y-185528628D01*
X182505771Y-185457200D01*
X182505771Y-185600057D01*
X185220057Y-186242914D02*
X185148628Y-186314342D01*
X184934342Y-186385771D01*
X184791485Y-186385771D01*
X184577200Y-186314342D01*
X184434342Y-186171485D01*
X184362914Y-186028628D01*
X184291485Y-185742914D01*
X184291485Y-185528628D01*
X184362914Y-185242914D01*
X184434342Y-185100057D01*
X184577200Y-184957200D01*
X184791485Y-184885771D01*
X184934342Y-184885771D01*
X185148628Y-184957200D01*
X185220057Y-185028628D01*
X186505771Y-186385771D02*
X186505771Y-185600057D01*
X186434342Y-185457200D01*
X186291485Y-185385771D01*
X186005771Y-185385771D01*
X185862914Y-185457200D01*
X186505771Y-186314342D02*
X186362914Y-186385771D01*
X186005771Y-186385771D01*
X185862914Y-186314342D01*
X185791485Y-186171485D01*
X185791485Y-186028628D01*
X185862914Y-185885771D01*
X186005771Y-185814342D01*
X186362914Y-185814342D01*
X186505771Y-185742914D01*
X187220057Y-185385771D02*
X187220057Y-186385771D01*
X187220057Y-185528628D02*
X187291485Y-185457200D01*
X187434342Y-185385771D01*
X187648628Y-185385771D01*
X187791485Y-185457200D01*
X187862914Y-185600057D01*
X187862914Y-186385771D01*
X188505771Y-186314342D02*
X188720057Y-186385771D01*
X189077200Y-186385771D01*
X189220057Y-186314342D01*
X189291485Y-186242914D01*
X189362914Y-186100057D01*
X189362914Y-185957200D01*
X189291485Y-185814342D01*
X189220057Y-185742914D01*
X189077200Y-185671485D01*
X188791485Y-185600057D01*
X188648628Y-185528628D01*
X188577200Y-185457200D01*
X188505771Y-185314342D01*
X188505771Y-185171485D01*
X188577200Y-185028628D01*
X188648628Y-184957200D01*
X188791485Y-184885771D01*
X189148628Y-184885771D01*
X189362914Y-184957200D01*
X190648628Y-186385771D02*
X190648628Y-185600057D01*
X190577200Y-185457200D01*
X190434342Y-185385771D01*
X190148628Y-185385771D01*
X190005771Y-185457200D01*
X190648628Y-186314342D02*
X190505771Y-186385771D01*
X190148628Y-186385771D01*
X190005771Y-186314342D01*
X189934342Y-186171485D01*
X189934342Y-186028628D01*
X190005771Y-185885771D01*
X190148628Y-185814342D01*
X190505771Y-185814342D01*
X190648628Y-185742914D01*
X191148628Y-185385771D02*
X191720057Y-185385771D01*
X191362914Y-184885771D02*
X191362914Y-186171485D01*
X191434342Y-186314342D01*
X191577200Y-186385771D01*
X191720057Y-186385771D01*
X193291485Y-185028628D02*
X193362914Y-184957200D01*
X193505771Y-184885771D01*
X193862914Y-184885771D01*
X194005771Y-184957200D01*
X194077200Y-185028628D01*
X194148628Y-185171485D01*
X194148628Y-185314342D01*
X194077200Y-185528628D01*
X193220057Y-186385771D01*
X194148628Y-186385771D01*
X195077200Y-184885771D02*
X195220057Y-184885771D01*
X195362914Y-184957200D01*
X195434342Y-185028628D01*
X195505771Y-185171485D01*
X195577200Y-185457200D01*
X195577200Y-185814342D01*
X195505771Y-186100057D01*
X195434342Y-186242914D01*
X195362914Y-186314342D01*
X195220057Y-186385771D01*
X195077200Y-186385771D01*
X194934342Y-186314342D01*
X194862914Y-186242914D01*
X194791485Y-186100057D01*
X194720057Y-185814342D01*
X194720057Y-185457200D01*
X194791485Y-185171485D01*
X194862914Y-185028628D01*
X194934342Y-184957200D01*
X195077200Y-184885771D01*
X196148628Y-185028628D02*
X196220057Y-184957200D01*
X196362914Y-184885771D01*
X196720057Y-184885771D01*
X196862914Y-184957200D01*
X196934342Y-185028628D01*
X197005771Y-185171485D01*
X197005771Y-185314342D01*
X196934342Y-185528628D01*
X196077200Y-186385771D01*
X197005771Y-186385771D01*
X197505771Y-184885771D02*
X198434342Y-184885771D01*
X197934342Y-185457200D01*
X198148628Y-185457200D01*
X198291485Y-185528628D01*
X198362914Y-185600057D01*
X198434342Y-185742914D01*
X198434342Y-186100057D01*
X198362914Y-186242914D01*
X198291485Y-186314342D01*
X198148628Y-186385771D01*
X197720057Y-186385771D01*
X197577200Y-186314342D01*
X197505771Y-186242914D01*
X201362914Y-185814342D02*
X202505771Y-185814342D01*
X204362914Y-185600057D02*
X204862914Y-185600057D01*
X205077200Y-186385771D02*
X204362914Y-186385771D01*
X204362914Y-184885771D01*
X205077200Y-184885771D01*
X205934342Y-186385771D02*
X205791485Y-186314342D01*
X205720057Y-186171485D01*
X205720057Y-184885771D01*
X207077200Y-186314342D02*
X206934342Y-186385771D01*
X206648628Y-186385771D01*
X206505771Y-186314342D01*
X206434342Y-186171485D01*
X206434342Y-185600057D01*
X206505771Y-185457200D01*
X206648628Y-185385771D01*
X206934342Y-185385771D01*
X207077200Y-185457200D01*
X207148628Y-185600057D01*
X207148628Y-185742914D01*
X206434342Y-185885771D01*
X207791485Y-186385771D02*
X207791485Y-184885771D01*
X207934342Y-185814342D02*
X208362914Y-186385771D01*
X208362914Y-185385771D02*
X207791485Y-185957200D01*
X208791485Y-185385771D02*
X209362914Y-185385771D01*
X209005771Y-184885771D02*
X209005771Y-186171485D01*
X209077200Y-186314342D01*
X209220057Y-186385771D01*
X209362914Y-186385771D01*
X209862914Y-186385771D02*
X209862914Y-185385771D01*
X209862914Y-185671485D02*
X209934342Y-185528628D01*
X210005771Y-185457200D01*
X210148628Y-185385771D01*
X210291485Y-185385771D01*
X211005771Y-186385771D02*
X210862914Y-186314342D01*
X210791485Y-186242914D01*
X210720057Y-186100057D01*
X210720057Y-185671485D01*
X210791485Y-185528628D01*
X210862914Y-185457200D01*
X211005771Y-185385771D01*
X211220057Y-185385771D01*
X211362914Y-185457200D01*
X211434342Y-185528628D01*
X211505771Y-185671485D01*
X211505771Y-186100057D01*
X211434342Y-186242914D01*
X211362914Y-186314342D01*
X211220057Y-186385771D01*
X211005771Y-186385771D01*
X212148628Y-186385771D02*
X212148628Y-184885771D01*
X212291485Y-185814342D02*
X212720057Y-186385771D01*
X212720057Y-185385771D02*
X212148628Y-185957200D01*
X213577200Y-186385771D02*
X213434342Y-186314342D01*
X213362914Y-186242914D01*
X213291485Y-186100057D01*
X213291485Y-185671485D01*
X213362914Y-185528628D01*
X213434342Y-185457200D01*
X213577200Y-185385771D01*
X213791485Y-185385771D01*
X213934342Y-185457200D01*
X214005771Y-185528628D01*
X214077200Y-185671485D01*
X214077200Y-186100057D01*
X214005771Y-186242914D01*
X213934342Y-186314342D01*
X213791485Y-186385771D01*
X213577200Y-186385771D01*
X214720057Y-185385771D02*
X214720057Y-186385771D01*
X214720057Y-185528628D02*
X214791485Y-185457200D01*
X214934342Y-185385771D01*
X215148628Y-185385771D01*
X215291485Y-185457200D01*
X215362914Y-185600057D01*
X215362914Y-186385771D01*
X216005771Y-186314342D02*
X216148628Y-186385771D01*
X216434342Y-186385771D01*
X216577200Y-186314342D01*
X216648628Y-186171485D01*
X216648628Y-186100057D01*
X216577200Y-185957200D01*
X216434342Y-185885771D01*
X216220057Y-185885771D01*
X216077200Y-185814342D01*
X216005771Y-185671485D01*
X216005771Y-185600057D01*
X216077200Y-185457200D01*
X216220057Y-185385771D01*
X216434342Y-185385771D01*
X216577200Y-185457200D01*
X217077200Y-185385771D02*
X217648628Y-185385771D01*
X217291485Y-184885771D02*
X217291485Y-186171485D01*
X217362914Y-186314342D01*
X217505771Y-186385771D01*
X217648628Y-186385771D01*
X218148628Y-186385771D02*
X218148628Y-185385771D01*
X218148628Y-185671485D02*
X218220057Y-185528628D01*
X218291485Y-185457200D01*
X218434342Y-185385771D01*
X218577200Y-185385771D01*
X219720057Y-185385771D02*
X219720057Y-186385771D01*
X219077200Y-185385771D02*
X219077200Y-186171485D01*
X219148628Y-186314342D01*
X219291485Y-186385771D01*
X219505771Y-186385771D01*
X219648628Y-186314342D01*
X219720057Y-186242914D01*
X220434342Y-186385771D02*
X220434342Y-184885771D01*
X220577200Y-185814342D02*
X221005771Y-186385771D01*
X221005771Y-185385771D02*
X220434342Y-185957200D01*
X222291485Y-186314342D02*
X222148628Y-186385771D01*
X221862914Y-186385771D01*
X221720057Y-186314342D01*
X221648628Y-186242914D01*
X221577200Y-186100057D01*
X221577200Y-185671485D01*
X221648628Y-185528628D01*
X221720057Y-185457200D01*
X221862914Y-185385771D01*
X222148628Y-185385771D01*
X222291485Y-185457200D01*
X223505771Y-186314342D02*
X223362914Y-186385771D01*
X223077200Y-186385771D01*
X222934342Y-186314342D01*
X222862914Y-186171485D01*
X222862914Y-185600057D01*
X222934342Y-185457200D01*
X223077200Y-185385771D01*
X223362914Y-185385771D01*
X223505771Y-185457200D01*
X223577200Y-185600057D01*
X223577200Y-185742914D01*
X222862914Y-185885771D01*
X224220057Y-186242914D02*
X224291485Y-186314342D01*
X224220057Y-186385771D01*
X224148628Y-186314342D01*
X224220057Y-186242914D01*
X224220057Y-186385771D01*
X224934342Y-186385771D02*
X224934342Y-184885771D01*
X225077200Y-185814342D02*
X225505771Y-186385771D01*
X225505771Y-185385771D02*
X224934342Y-185957200D01*
X226148628Y-186385771D02*
X226148628Y-185385771D01*
X226148628Y-184885771D02*
X226077200Y-184957200D01*
X226148628Y-185028628D01*
X226220057Y-184957200D01*
X226148628Y-184885771D01*
X226148628Y-185028628D01*
X227505771Y-186314342D02*
X227362914Y-186385771D01*
X227077200Y-186385771D01*
X226934342Y-186314342D01*
X226862914Y-186242914D01*
X226791485Y-186100057D01*
X226791485Y-185671485D01*
X226862914Y-185528628D01*
X226934342Y-185457200D01*
X227077200Y-185385771D01*
X227362914Y-185385771D01*
X227505771Y-185457200D01*
X228791485Y-186385771D02*
X228791485Y-185600057D01*
X228720057Y-185457200D01*
X228577200Y-185385771D01*
X228291485Y-185385771D01*
X228148628Y-185457200D01*
X228791485Y-186314342D02*
X228648628Y-186385771D01*
X228291485Y-186385771D01*
X228148628Y-186314342D01*
X228077200Y-186171485D01*
X228077200Y-186028628D01*
X228148628Y-185885771D01*
X228291485Y-185814342D01*
X228648628Y-185814342D01*
X228791485Y-185742914D01*
X230148628Y-186385771D02*
X230148628Y-184885771D01*
X230148628Y-186314342D02*
X230005771Y-186385771D01*
X229720057Y-186385771D01*
X229577200Y-186314342D01*
X229505771Y-186242914D01*
X229434342Y-186100057D01*
X229434342Y-185671485D01*
X229505771Y-185528628D01*
X229577200Y-185457200D01*
X229720057Y-185385771D01*
X230005771Y-185385771D01*
X230148628Y-185457200D01*
X230505771Y-186528628D02*
X231648628Y-186528628D01*
X232005771Y-185385771D02*
X232005771Y-186885771D01*
X232005771Y-185457200D02*
X232148628Y-185385771D01*
X232434342Y-185385771D01*
X232577200Y-185457200D01*
X232648628Y-185528628D01*
X232720057Y-185671485D01*
X232720057Y-186100057D01*
X232648628Y-186242914D01*
X232577200Y-186314342D01*
X232434342Y-186385771D01*
X232148628Y-186385771D01*
X232005771Y-186314342D01*
X234005771Y-186314342D02*
X233862914Y-186385771D01*
X233577200Y-186385771D01*
X233434342Y-186314342D01*
X233362914Y-186242914D01*
X233291485Y-186100057D01*
X233291485Y-185671485D01*
X233362914Y-185528628D01*
X233434342Y-185457200D01*
X233577200Y-185385771D01*
X233862914Y-185385771D01*
X234005771Y-185457200D01*
X234648628Y-186385771D02*
X234648628Y-184885771D01*
X234648628Y-185457200D02*
X234791485Y-185385771D01*
X235077200Y-185385771D01*
X235220057Y-185457200D01*
X235291485Y-185528628D01*
X235362914Y-185671485D01*
X235362914Y-186100057D01*
X235291485Y-186242914D01*
X235220057Y-186314342D01*
X235077200Y-186385771D01*
X234791485Y-186385771D01*
X234648628Y-186314342D01*
D10*
D11*
X177002200Y-181507200D02*
X285002200Y-181507200D01*
D10*
D11*
X178362914Y-183614342D02*
X178577200Y-183685771D01*
X178934342Y-183685771D01*
X179077200Y-183614342D01*
X179148628Y-183542914D01*
X179220057Y-183400057D01*
X179220057Y-183257200D01*
X179148628Y-183114342D01*
X179077200Y-183042914D01*
X178934342Y-182971485D01*
X178648628Y-182900057D01*
X178505771Y-182828628D01*
X178434342Y-182757200D01*
X178362914Y-182614342D01*
X178362914Y-182471485D01*
X178434342Y-182328628D01*
X178505771Y-182257200D01*
X178648628Y-182185771D01*
X179005771Y-182185771D01*
X179220057Y-182257200D01*
X179862914Y-183685771D02*
X179862914Y-182185771D01*
X180505771Y-183685771D02*
X180505771Y-182900057D01*
X180434342Y-182757200D01*
X180291485Y-182685771D01*
X180077200Y-182685771D01*
X179934342Y-182757200D01*
X179862914Y-182828628D01*
X181791485Y-183614342D02*
X181648628Y-183685771D01*
X181362914Y-183685771D01*
X181220057Y-183614342D01*
X181148628Y-183471485D01*
X181148628Y-182900057D01*
X181220057Y-182757200D01*
X181362914Y-182685771D01*
X181648628Y-182685771D01*
X181791485Y-182757200D01*
X181862914Y-182900057D01*
X181862914Y-183042914D01*
X181148628Y-183185771D01*
X183077200Y-183614342D02*
X182934342Y-183685771D01*
X182648628Y-183685771D01*
X182505771Y-183614342D01*
X182434342Y-183471485D01*
X182434342Y-182900057D01*
X182505771Y-182757200D01*
X182648628Y-182685771D01*
X182934342Y-182685771D01*
X183077200Y-182757200D01*
X183148628Y-182900057D01*
X183148628Y-183042914D01*
X182434342Y-183185771D01*
X183577200Y-182685771D02*
X184148628Y-182685771D01*
X183791485Y-182185771D02*
X183791485Y-183471485D01*
X183862914Y-183614342D01*
X184005771Y-183685771D01*
X184148628Y-183685771D01*
X184648628Y-183542914D02*
X184720057Y-183614342D01*
X184648628Y-183685771D01*
X184577200Y-183614342D01*
X184648628Y-183542914D01*
X184648628Y-183685771D01*
X184648628Y-182757200D02*
X184720057Y-182828628D01*
X184648628Y-182900057D01*
X184577200Y-182828628D01*
X184648628Y-182757200D01*
X184648628Y-182900057D01*
D10*
D12*
D10*
D11*
D10*
D11*
D10*
D11*
D10*
D11*
D10*
D11*
X197002200Y-191507200D02*
X197002200Y-194507200D01*
D10*
D11*
X261002200Y-191507200D02*
X261002200Y-198007200D01*
%TO.C,J1901*%
X63538095Y-33797619D02*
X63538095Y-33083333D01*
X63490476Y-32940476D01*
X63395238Y-32845238D01*
X63252380Y-32797619D01*
X63157142Y-32797619D01*
X64538095Y-32797619D02*
X63966666Y-32797619D01*
X64252380Y-32797619D02*
X64252380Y-33797619D01*
X64157142Y-33654761D01*
X64061904Y-33559523D01*
X63966666Y-33511904D01*
X65014285Y-32797619D02*
X65204761Y-32797619D01*
X65300000Y-32845238D01*
X65347619Y-32892857D01*
X65442857Y-33035714D01*
X65490476Y-33226190D01*
X65490476Y-33607142D01*
X65442857Y-33702380D01*
X65395238Y-33750000D01*
X65300000Y-33797619D01*
X65109523Y-33797619D01*
X65014285Y-33750000D01*
X64966666Y-33702380D01*
X64919047Y-33607142D01*
X64919047Y-33369047D01*
X64966666Y-33273809D01*
X65014285Y-33226190D01*
X65109523Y-33178571D01*
X65300000Y-33178571D01*
X65395238Y-33226190D01*
X65442857Y-33273809D01*
X65490476Y-33369047D01*
X66109523Y-33797619D02*
X66204761Y-33797619D01*
X66300000Y-33750000D01*
X66347619Y-33702380D01*
X66395238Y-33607142D01*
X66442857Y-33416666D01*
X66442857Y-33178571D01*
X66395238Y-32988095D01*
X66347619Y-32892857D01*
X66300000Y-32845238D01*
X66204761Y-32797619D01*
X66109523Y-32797619D01*
X66014285Y-32845238D01*
X65966666Y-32892857D01*
X65919047Y-32988095D01*
X65871428Y-33178571D01*
X65871428Y-33416666D01*
X65919047Y-33607142D01*
X65966666Y-33702380D01*
X66014285Y-33750000D01*
X66109523Y-33797619D01*
X67395238Y-32797619D02*
X66823809Y-32797619D01*
X67109523Y-32797619D02*
X67109523Y-33797619D01*
X67014285Y-33654761D01*
X66919047Y-33559523D01*
X66823809Y-33511904D01*
%TO.C,J102*%
X106182714Y-68711380D02*
X106182714Y-69425666D01*
X106230333Y-69568523D01*
X106325571Y-69663761D01*
X106468428Y-69711380D01*
X106563666Y-69711380D01*
X105182714Y-69711380D02*
X105754142Y-69711380D01*
X105468428Y-69711380D02*
X105468428Y-68711380D01*
X105563666Y-68854238D01*
X105658904Y-68949476D01*
X105754142Y-68997095D01*
X104563666Y-68711380D02*
X104468428Y-68711380D01*
X104373190Y-68759000D01*
X104325571Y-68806619D01*
X104277952Y-68901857D01*
X104230333Y-69092333D01*
X104230333Y-69330428D01*
X104277952Y-69520904D01*
X104325571Y-69616142D01*
X104373190Y-69663761D01*
X104468428Y-69711380D01*
X104563666Y-69711380D01*
X104658904Y-69663761D01*
X104706523Y-69616142D01*
X104754142Y-69520904D01*
X104801761Y-69330428D01*
X104801761Y-69092333D01*
X104754142Y-68901857D01*
X104706523Y-68806619D01*
X104658904Y-68759000D01*
X104563666Y-68711380D01*
X103849380Y-68806619D02*
X103801761Y-68759000D01*
X103706523Y-68711380D01*
X103468428Y-68711380D01*
X103373190Y-68759000D01*
X103325571Y-68806619D01*
X103277952Y-68901857D01*
X103277952Y-68997095D01*
X103325571Y-69139952D01*
X103897000Y-69711380D01*
X103277952Y-69711380D01*
%TO.C,J101*%
X53482714Y-62151380D02*
X53482714Y-62865666D01*
X53530333Y-63008523D01*
X53625571Y-63103761D01*
X53768428Y-63151380D01*
X53863666Y-63151380D01*
X52482714Y-63151380D02*
X53054142Y-63151380D01*
X52768428Y-63151380D02*
X52768428Y-62151380D01*
X52863666Y-62294238D01*
X52958904Y-62389476D01*
X53054142Y-62437095D01*
X51863666Y-62151380D02*
X51768428Y-62151380D01*
X51673190Y-62199000D01*
X51625571Y-62246619D01*
X51577952Y-62341857D01*
X51530333Y-62532333D01*
X51530333Y-62770428D01*
X51577952Y-62960904D01*
X51625571Y-63056142D01*
X51673190Y-63103761D01*
X51768428Y-63151380D01*
X51863666Y-63151380D01*
X51958904Y-63103761D01*
X52006523Y-63056142D01*
X52054142Y-62960904D01*
X52101761Y-62770428D01*
X52101761Y-62532333D01*
X52054142Y-62341857D01*
X52006523Y-62246619D01*
X51958904Y-62199000D01*
X51863666Y-62151380D01*
X50577952Y-63151380D02*
X51149380Y-63151380D01*
X50863666Y-63151380D02*
X50863666Y-62151380D01*
X50958904Y-62294238D01*
X51054142Y-62389476D01*
X51149380Y-62437095D01*
%TO.C,C1901*%
X86647142Y-32274761D02*
X86694761Y-32227142D01*
X86742380Y-32084285D01*
X86742380Y-31989047D01*
X86694761Y-31846190D01*
X86599523Y-31750952D01*
X86504285Y-31703333D01*
X86313809Y-31655714D01*
X86170952Y-31655714D01*
X85980476Y-31703333D01*
X85885238Y-31750952D01*
X85790000Y-31846190D01*
X85742380Y-31989047D01*
X85742380Y-32084285D01*
X85790000Y-32227142D01*
X85837619Y-32274761D01*
X86742380Y-33227142D02*
X86742380Y-32655714D01*
X86742380Y-32941428D02*
X85742380Y-32941428D01*
X85885238Y-32846190D01*
X85980476Y-32750952D01*
X86028095Y-32655714D01*
X86742380Y-33703333D02*
X86742380Y-33893809D01*
X86694761Y-33989047D01*
X86647142Y-34036666D01*
X86504285Y-34131904D01*
X86313809Y-34179523D01*
X85932857Y-34179523D01*
X85837619Y-34131904D01*
X85790000Y-34084285D01*
X85742380Y-33989047D01*
X85742380Y-33798571D01*
X85790000Y-33703333D01*
X85837619Y-33655714D01*
X85932857Y-33608095D01*
X86170952Y-33608095D01*
X86266190Y-33655714D01*
X86313809Y-33703333D01*
X86361428Y-33798571D01*
X86361428Y-33989047D01*
X86313809Y-34084285D01*
X86266190Y-34131904D01*
X86170952Y-34179523D01*
X85742380Y-34798571D02*
X85742380Y-34893809D01*
X85790000Y-34989047D01*
X85837619Y-35036666D01*
X85932857Y-35084285D01*
X86123333Y-35131904D01*
X86361428Y-35131904D01*
X86551904Y-35084285D01*
X86647142Y-35036666D01*
X86694761Y-34989047D01*
X86742380Y-34893809D01*
X86742380Y-34798571D01*
X86694761Y-34703333D01*
X86647142Y-34655714D01*
X86551904Y-34608095D01*
X86361428Y-34560476D01*
X86123333Y-34560476D01*
X85932857Y-34608095D01*
X85837619Y-34655714D01*
X85790000Y-34703333D01*
X85742380Y-34798571D01*
X86742380Y-36084285D02*
X86742380Y-35512857D01*
X86742380Y-35798571D02*
X85742380Y-35798571D01*
X85885238Y-35703333D01*
X85980476Y-35608095D01*
X86028095Y-35512857D01*
%TO.C,SW303*%
X63114761Y-75564285D02*
X63162380Y-75707142D01*
X63162380Y-75945238D01*
X63114761Y-76040476D01*
X63067142Y-76088095D01*
X62971904Y-76135714D01*
X62876666Y-76135714D01*
X62781428Y-76088095D01*
X62733809Y-76040476D01*
X62686190Y-75945238D01*
X62638571Y-75754761D01*
X62590952Y-75659523D01*
X62543333Y-75611904D01*
X62448095Y-75564285D01*
X62352857Y-75564285D01*
X62257619Y-75611904D01*
X62210000Y-75659523D01*
X62162380Y-75754761D01*
X62162380Y-75992857D01*
X62210000Y-76135714D01*
X62162380Y-76469047D02*
X63162380Y-76707142D01*
X62448095Y-76897619D01*
X63162380Y-77088095D01*
X62162380Y-77326190D01*
X62162380Y-77611904D02*
X62162380Y-78230952D01*
X62543333Y-77897619D01*
X62543333Y-78040476D01*
X62590952Y-78135714D01*
X62638571Y-78183333D01*
X62733809Y-78230952D01*
X62971904Y-78230952D01*
X63067142Y-78183333D01*
X63114761Y-78135714D01*
X63162380Y-78040476D01*
X63162380Y-77754761D01*
X63114761Y-77659523D01*
X63067142Y-77611904D01*
X62162380Y-78850000D02*
X62162380Y-78945238D01*
X62210000Y-79040476D01*
X62257619Y-79088095D01*
X62352857Y-79135714D01*
X62543333Y-79183333D01*
X62781428Y-79183333D01*
X62971904Y-79135714D01*
X63067142Y-79088095D01*
X63114761Y-79040476D01*
X63162380Y-78945238D01*
X63162380Y-78850000D01*
X63114761Y-78754761D01*
X63067142Y-78707142D01*
X62971904Y-78659523D01*
X62781428Y-78611904D01*
X62543333Y-78611904D01*
X62352857Y-78659523D01*
X62257619Y-78707142D01*
X62210000Y-78754761D01*
X62162380Y-78850000D01*
X62162380Y-79516666D02*
X62162380Y-80135714D01*
X62543333Y-79802380D01*
X62543333Y-79945238D01*
X62590952Y-80040476D01*
X62638571Y-80088095D01*
X62733809Y-80135714D01*
X62971904Y-80135714D01*
X63067142Y-80088095D01*
X63114761Y-80040476D01*
X63162380Y-79945238D01*
X63162380Y-79659523D01*
X63114761Y-79564285D01*
X63067142Y-79516666D01*
%TO.C,U2101*%
X48015476Y-11327380D02*
X48015476Y-12136904D01*
X47967857Y-12232142D01*
X47920238Y-12279761D01*
X47825000Y-12327380D01*
X47634523Y-12327380D01*
X47539285Y-12279761D01*
X47491666Y-12232142D01*
X47444047Y-12136904D01*
X47444047Y-11327380D01*
X47015476Y-11422619D02*
X46967857Y-11375000D01*
X46872619Y-11327380D01*
X46634523Y-11327380D01*
X46539285Y-11375000D01*
X46491666Y-11422619D01*
X46444047Y-11517857D01*
X46444047Y-11613095D01*
X46491666Y-11755952D01*
X47063095Y-12327380D01*
X46444047Y-12327380D01*
X45491666Y-12327380D02*
X46063095Y-12327380D01*
X45777380Y-12327380D02*
X45777380Y-11327380D01*
X45872619Y-11470238D01*
X45967857Y-11565476D01*
X46063095Y-11613095D01*
X44872619Y-11327380D02*
X44777380Y-11327380D01*
X44682142Y-11375000D01*
X44634523Y-11422619D01*
X44586904Y-11517857D01*
X44539285Y-11708333D01*
X44539285Y-11946428D01*
X44586904Y-12136904D01*
X44634523Y-12232142D01*
X44682142Y-12279761D01*
X44777380Y-12327380D01*
X44872619Y-12327380D01*
X44967857Y-12279761D01*
X45015476Y-12232142D01*
X45063095Y-12136904D01*
X45110714Y-11946428D01*
X45110714Y-11708333D01*
X45063095Y-11517857D01*
X45015476Y-11422619D01*
X44967857Y-11375000D01*
X44872619Y-11327380D01*
X43586904Y-12327380D02*
X44158333Y-12327380D01*
X43872619Y-12327380D02*
X43872619Y-11327380D01*
X43967857Y-11470238D01*
X44063095Y-11565476D01*
X44158333Y-11613095D01*
D14*
%TO.C,J102*%
X103787000Y-68324000D02*
X104897000Y-68324000D01*
X103787000Y-66804000D02*
X104333529Y-66804000D01*
X103787000Y-67564000D02*
X103787000Y-68324000D01*
X106007000Y-66804000D02*
X106007000Y-64329000D01*
X105460471Y-66804000D02*
X106007000Y-66804000D01*
X105204530Y-64329000D02*
X106007000Y-64329000D01*
X103787000Y-64329000D02*
X104589470Y-64329000D01*
X103787000Y-66804000D02*
X103787000Y-64329000D01*
%TO.C,J101*%
X53307000Y-65154000D02*
X52760471Y-65154000D01*
X53307000Y-68899000D02*
X52504530Y-68899000D01*
X53307000Y-63634000D02*
X52197000Y-63634000D01*
X53307000Y-64394000D02*
X53307000Y-63634000D01*
X51087000Y-65154000D02*
X51087000Y-68899000D01*
X51889470Y-68899000D02*
X51087000Y-68899000D01*
X51633529Y-65154000D02*
X51087000Y-65154000D01*
X53307000Y-65154000D02*
X53307000Y-68899000D01*
%TO.C,C1901*%
X87090000Y-33762164D02*
X87090000Y-33977836D01*
X87810000Y-33762164D02*
X87810000Y-33977836D01*
%TO.C,SW303*%
X64659000Y-72650000D02*
X64659000Y-74690000D01*
X70650000Y-74690000D02*
X72390000Y-74690000D01*
X63710000Y-74690000D02*
X64659000Y-74690000D01*
X72390000Y-74690000D02*
X72390000Y-81010000D01*
X63710000Y-81010000D02*
X65449000Y-81010000D01*
X70650000Y-81010000D02*
X72390000Y-81010000D01*
X63710000Y-74690000D02*
X63710000Y-81010000D01*
%TO.C,U2101*%
X53925000Y-10775000D02*
X53925000Y-10375000D01*
X37725000Y5025000D02*
X37725000Y5425000D01*
X37725000Y-10775000D02*
X37725000Y-10425000D01*
X37725000Y-10425000D02*
X36825000Y-10425000D01*
X37725000Y5425000D02*
X53925000Y5425000D01*
X37725000Y-10775000D02*
X53925000Y-10775000D01*
X53925000Y5425000D02*
X53925000Y5025000D01*
%TD*%
M02*
