  0
SECTION
  2
HEADER
  9
$ANGBASE
  50
0.0
  9
$ANGDIR
  70
1
  9
$MEASUREMENT
  70
1
  0
ENDSEC
  0
SECTION
  2
TABLES
  0
TABLE
  2
LTYPE
  70
4
  0
LTYPE
  5
40F
  2
CONTINUOUS
  70
0
  3
Solid line
  72
65
  73
0
  40
0.0
  0
LTYPE
  5
410
  2
DASHDOT
 70
0
  3
Dash Dot ____ _ ____ _
 72
65
 73
4
 40
2.0
 49
1.25
 49
-0.25
 49
0.25
 49
-0.25
  0
LTYPE
  5
411
  2
DASHED
 70
0
  3
Dashed __ __ __ __ __
 72
65
 73
2
 40
0.75
 49
0.5
 49
-0.25
  0
LTYPE
  5
43B
  2
DOTTED
 70
0
  3
Dotted .  .  .  .
 72
65
 73
2
 40
0.2
 49
0.0
 49
-0.2
  0
ENDTAB
  0
TABLE
  2
STYLE
  70
4
  0
STYLE
  2
KICAD
  70
0
  40
0
  41
1
  42
1
  50
0
  71
0
  3
isocp.shx
  0
STYLE
  2
KICADB
  70
0
  40
0
  41
1
  42
1
  50
0
  71
0
  3
isocp.shx
  0
STYLE
  2
KICADI
  70
0
  40
0
  41
1
  42
1
  50
15
  71
0
  3
isocp.shx
  0
STYLE
  2
KICADBI
  70
0
  40
0
  41
1
  42
1
  50
15
  71
0
  3
isocp.shx
  0
ENDTAB
  0
TABLE
  2
LAYER
  70
1
  0
LAYER
  2
BLACK
  70
0
  62
7
  6
CONTINUOUS
  0
ENDTAB
  0
ENDSEC
  0
SECTION
  2
ENTITIES
0
LINE
8
BLACK
6
CONTINUOUS
10
170.343
20
-70.6742
11
170.343
21
-71.3854
0
LINE
8
BLACK
6
CONTINUOUS
10
170.343
20
-71.3854
11
170.335
21
-71.4033
0
LINE
8
BLACK
6
CONTINUOUS
10
170.335
20
-71.4033
11
170.328
21
-71.4207
0
LINE
8
BLACK
6
CONTINUOUS
10
170.328
20
-71.4207
11
170.328
21
-71.4207
0
LINE
8
BLACK
6
CONTINUOUS
10
170.328
20
-71.4207
11
170.328
21
-71.4208
0
LINE
8
BLACK
6
CONTINUOUS
10
170.328
20
-71.4208
11
170.31
21
-71.4281
0
LINE
8
BLACK
6
CONTINUOUS
10
170.31
20
-71.4281
11
170.293
21
-71.4354
0
LINE
8
BLACK
6
CONTINUOUS
10
170.293
20
-71.4354
11
168.145
21
-71.4385
0
LINE
8
BLACK
6
CONTINUOUS
10
168.145
20
-71.4385
11
168.294
21
-71.8266
0
LINE
8
BLACK
6
CONTINUOUS
10
168.294
20
-71.8266
11
168.647
21
-72.8514
0
LINE
8
BLACK
6
CONTINUOUS
10
168.647
20
-72.8514
11
168.964
21
-73.8878
0
LINE
8
BLACK
6
CONTINUOUS
10
168.964
20
-73.8878
11
169.244
21
-74.9347
0
LINE
8
BLACK
6
CONTINUOUS
10
169.244
20
-74.9347
11
169.488
21
-75.9907
0
LINE
8
BLACK
6
CONTINUOUS
10
169.488
20
-75.9907
11
169.605
21
-76.5938
0
LINE
8
BLACK
6
CONTINUOUS
10
169.605
20
-76.5938
11
170.115
21
-76.5938
0
LINE
8
BLACK
6
CONTINUOUS
10
170.115
20
-76.5938
11
170.15
21
-76.6084
0
LINE
8
BLACK
6
CONTINUOUS
10
170.15
20
-76.6084
11
170.165
21
-76.6438
0
LINE
8
BLACK
6
CONTINUOUS
10
170.165
20
-76.6438
11
170.165
21
-82.3567
0
LINE
8
BLACK
6
CONTINUOUS
10
170.165
20
-82.3567
11
170.166
21
-82.4464
0
LINE
8
BLACK
6
CONTINUOUS
10
170.166
20
-82.4464
11
170.165
21
-82.536
0
LINE
8
BLACK
6
CONTINUOUS
10
170.165
20
-82.536
11
170.165
21
-88.15
0
LINE
8
BLACK
6
CONTINUOUS
10
170.165
20
-88.15
11
170.15
21
-88.1854
0
LINE
8
BLACK
6
CONTINUOUS
10
170.15
20
-88.1854
11
170.115
21
-88.2
0
LINE
8
BLACK
6
CONTINUOUS
10
170.115
20
-88.2
11
169.624
21
-88.2
0
LINE
8
BLACK
6
CONTINUOUS
10
169.624
20
-88.2
11
169.488
21
-88.902
0
LINE
8
BLACK
6
CONTINUOUS
10
169.488
20
-88.902
11
169.244
21
-89.958
0
LINE
8
BLACK
6
CONTINUOUS
10
169.244
20
-89.958
11
168.964
21
-91.0049
0
LINE
8
BLACK
6
CONTINUOUS
10
168.964
20
-91.0049
11
168.647
21
-92.0413
0
LINE
8
BLACK
6
CONTINUOUS
10
168.647
20
-92.0413
11
168.294
21
-93.0661
0
LINE
8
BLACK
6
CONTINUOUS
10
168.294
20
-93.0661
11
167.905
21
-94.0779
0
LINE
8
BLACK
6
CONTINUOUS
10
167.905
20
-94.0779
11
167.482
21
-95.0755
0
LINE
8
BLACK
6
CONTINUOUS
10
167.482
20
-95.0755
11
167.024
21
-96.0578
0
LINE
8
BLACK
6
CONTINUOUS
10
167.024
20
-96.0578
11
166.532
21
-97.0235
0
LINE
8
BLACK
6
CONTINUOUS
10
166.532
20
-97.0235
11
166.262
21
-97.51
0
LINE
8
BLACK
6
CONTINUOUS
10
166.262
20
-97.51
11
166.89
21
-97.51
0
LINE
8
BLACK
6
CONTINUOUS
10
166.89
20
-97.51
11
166.925
21
-97.5246
0
LINE
8
BLACK
6
CONTINUOUS
10
166.925
20
-97.5246
11
166.94
21
-97.56
0
LINE
8
BLACK
6
CONTINUOUS
10
166.94
20
-97.56
11
166.94
21
-98.76
0
LINE
8
BLACK
6
CONTINUOUS
10
166.94
20
-98.76
11
166.925
21
-98.7954
0
LINE
8
BLACK
6
CONTINUOUS
10
166.925
20
-98.7954
11
166.89
21
-98.81
0
LINE
8
BLACK
6
CONTINUOUS
10
166.89
20
-98.81
11
165.503
21
-98.81
0
LINE
8
BLACK
6
CONTINUOUS
10
165.503
20
-98.81
11
165.448
21
-98.9004
0
LINE
8
BLACK
6
CONTINUOUS
10
165.448
20
-98.9004
11
164.858
21
-99.8093
0
LINE
8
BLACK
6
CONTINUOUS
10
164.858
20
-99.8093
11
164.236
21
-100.697
0
LINE
8
BLACK
6
CONTINUOUS
10
164.236
20
-100.697
11
163.584
21
-101.563
0
LINE
8
BLACK
6
CONTINUOUS
10
163.584
20
-101.563
11
162.902
21
-102.405
0
LINE
8
BLACK
6
CONTINUOUS
10
162.902
20
-102.405
11
162.191
21
-103.223
0
LINE
8
BLACK
6
CONTINUOUS
10
162.191
20
-103.223
11
161.452
21
-104.016
0
LINE
8
BLACK
6
CONTINUOUS
10
161.452
20
-104.016
11
160.686
21
-104.782
0
LINE
8
BLACK
6
CONTINUOUS
10
160.686
20
-104.782
11
159.893
21
-105.521
0
LINE
8
BLACK
6
CONTINUOUS
10
159.893
20
-105.521
11
159.075
21
-106.232
0
LINE
8
BLACK
6
CONTINUOUS
10
159.075
20
-106.232
11
158.233
21
-106.914
0
LINE
8
BLACK
6
CONTINUOUS
10
158.233
20
-106.914
11
157.367
21
-107.566
0
LINE
8
BLACK
6
CONTINUOUS
10
157.367
20
-107.566
11
156.479
21
-108.188
0
LINE
8
BLACK
6
CONTINUOUS
10
156.479
20
-108.188
11
155.57
21
-108.778
0
LINE
8
BLACK
6
CONTINUOUS
10
155.57
20
-108.778
11
154.641
21
-109.336
0
LINE
8
BLACK
6
CONTINUOUS
10
154.641
20
-109.336
11
153.693
21
-109.862
0
LINE
8
BLACK
6
CONTINUOUS
10
153.693
20
-109.862
11
152.728
21
-110.354
0
LINE
8
BLACK
6
CONTINUOUS
10
152.728
20
-110.354
11
151.746
21
-110.812
0
LINE
8
BLACK
6
CONTINUOUS
10
151.746
20
-110.812
11
150.748
21
-111.235
0
LINE
8
BLACK
6
CONTINUOUS
10
150.748
20
-111.235
11
149.736
21
-111.624
0
LINE
8
BLACK
6
CONTINUOUS
10
149.736
20
-111.624
11
148.711
21
-111.977
0
LINE
8
BLACK
6
CONTINUOUS
10
148.711
20
-111.977
11
147.675
21
-112.294
0
LINE
8
BLACK
6
CONTINUOUS
10
147.675
20
-112.294
11
146.628
21
-112.574
0
LINE
8
BLACK
6
CONTINUOUS
10
146.628
20
-112.574
11
145.572
21
-112.818
0
LINE
8
BLACK
6
CONTINUOUS
10
145.572
20
-112.818
11
144.508
21
-113.025
0
LINE
8
BLACK
6
CONTINUOUS
10
144.508
20
-113.025
11
143.438
21
-113.194
0
LINE
8
BLACK
6
CONTINUOUS
10
143.438
20
-113.194
11
142.362
21
-113.326
0
LINE
8
BLACK
6
CONTINUOUS
10
142.362
20
-113.326
11
141.282
21
-113.421
0
LINE
8
BLACK
6
CONTINUOUS
10
141.282
20
-113.421
11
140.2
21
-113.477
0
LINE
8
BLACK
6
CONTINUOUS
10
140.2
20
-113.477
11
139.116
21
-113.496
0
LINE
8
BLACK
6
CONTINUOUS
10
139.116
20
-113.496
11
138.033
21
-113.477
0
LINE
8
BLACK
6
CONTINUOUS
10
138.033
20
-113.477
11
136.95
21
-113.421
0
LINE
8
BLACK
6
CONTINUOUS
10
136.95
20
-113.421
11
135.871
21
-113.326
0
LINE
8
BLACK
6
CONTINUOUS
10
135.871
20
-113.326
11
134.795
21
-113.194
0
LINE
8
BLACK
6
CONTINUOUS
10
134.795
20
-113.194
11
133.725
21
-113.025
0
LINE
8
BLACK
6
CONTINUOUS
10
133.725
20
-113.025
11
132.661
21
-112.818
0
LINE
8
BLACK
6
CONTINUOUS
10
132.661
20
-112.818
11
131.605
21
-112.574
0
LINE
8
BLACK
6
CONTINUOUS
10
131.605
20
-112.574
11
130.558
21
-112.294
0
LINE
8
BLACK
6
CONTINUOUS
10
130.558
20
-112.294
11
129.521
21
-111.977
0
LINE
8
BLACK
6
CONTINUOUS
10
129.521
20
-111.977
11
128.497
21
-111.624
0
LINE
8
BLACK
6
CONTINUOUS
10
128.497
20
-111.624
11
127.485
21
-111.235
0
LINE
8
BLACK
6
CONTINUOUS
10
127.485
20
-111.235
11
126.487
21
-110.812
0
LINE
8
BLACK
6
CONTINUOUS
10
126.487
20
-110.812
11
125.505
21
-110.354
0
LINE
8
BLACK
6
CONTINUOUS
10
125.505
20
-110.354
11
124.539
21
-109.862
0
LINE
8
BLACK
6
CONTINUOUS
10
124.539
20
-109.862
11
123.591
21
-109.336
0
LINE
8
BLACK
6
CONTINUOUS
10
123.591
20
-109.336
11
122.662
21
-108.778
0
LINE
8
BLACK
6
CONTINUOUS
10
122.662
20
-108.778
11
121.753
21
-108.188
0
LINE
8
BLACK
6
CONTINUOUS
10
121.753
20
-108.188
11
120.866
21
-107.566
0
LINE
8
BLACK
6
CONTINUOUS
10
120.866
20
-107.566
11
120
21
-106.914
0
LINE
8
BLACK
6
CONTINUOUS
10
120
20
-106.914
11
119.158
21
-106.232
0
LINE
8
BLACK
6
CONTINUOUS
10
119.158
20
-106.232
11
118.34
21
-105.521
0
LINE
8
BLACK
6
CONTINUOUS
10
118.34
20
-105.521
11
117.547
21
-104.782
0
LINE
8
BLACK
6
CONTINUOUS
10
117.547
20
-104.782
11
116.781
21
-104.016
0
LINE
8
BLACK
6
CONTINUOUS
10
116.781
20
-104.016
11
116.042
21
-103.223
0
LINE
8
BLACK
6
CONTINUOUS
10
116.042
20
-103.223
11
115.331
21
-102.405
0
LINE
8
BLACK
6
CONTINUOUS
10
115.331
20
-102.405
11
114.649
21
-101.563
0
LINE
8
BLACK
6
CONTINUOUS
10
114.649
20
-101.563
11
113.996
21
-100.697
0
LINE
8
BLACK
6
CONTINUOUS
10
113.996
20
-100.697
11
113.375
21
-99.8093
0
LINE
8
BLACK
6
CONTINUOUS
10
113.375
20
-99.8093
11
112.784
21
-98.9004
0
LINE
8
BLACK
6
CONTINUOUS
10
112.784
20
-98.9004
11
112.226
21
-97.9714
0
LINE
8
BLACK
6
CONTINUOUS
10
112.226
20
-97.9714
11
111.701
21
-97.0235
0
LINE
8
BLACK
6
CONTINUOUS
10
111.701
20
-97.0235
11
111.209
21
-96.0578
0
LINE
8
BLACK
6
CONTINUOUS
10
111.209
20
-96.0578
11
110.751
21
-95.0755
0
LINE
8
BLACK
6
CONTINUOUS
10
110.751
20
-95.0755
11
110.327
21
-94.0779
0
LINE
8
BLACK
6
CONTINUOUS
10
110.327
20
-94.0779
11
109.939
21
-93.0661
0
LINE
8
BLACK
6
CONTINUOUS
10
109.939
20
-93.0661
11
109.586
21
-92.0413
0
LINE
8
BLACK
6
CONTINUOUS
10
109.586
20
-92.0413
11
109.269
21
-91.0049
0
LINE
8
BLACK
6
CONTINUOUS
10
109.269
20
-91.0049
11
108.989
21
-89.958
0
LINE
8
BLACK
6
CONTINUOUS
10
108.989
20
-89.958
11
108.745
21
-88.902
0
LINE
8
BLACK
6
CONTINUOUS
10
108.745
20
-88.902
11
108.62
21
-88.26
0
LINE
8
BLACK
6
CONTINUOUS
10
108.62
20
-88.26
11
108.113
21
-88.26
0
LINE
8
BLACK
6
CONTINUOUS
10
108.113
20
-88.26
11
108.078
21
-88.2454
0
LINE
8
BLACK
6
CONTINUOUS
10
108.078
20
-88.2454
11
108.063
21
-88.21
0
LINE
8
BLACK
6
CONTINUOUS
10
108.063
20
-88.21
11
108.063
21
-76.71
0
LINE
8
BLACK
6
CONTINUOUS
10
108.063
20
-76.71
11
108.078
21
-76.6746
0
LINE
8
BLACK
6
CONTINUOUS
10
108.078
20
-76.6746
11
108.113
21
-76.66
0
LINE
8
BLACK
6
CONTINUOUS
10
108.113
20
-76.66
11
108.615
21
-76.66
0
LINE
8
BLACK
6
CONTINUOUS
10
108.615
20
-76.66
11
108.745
21
-75.9907
0
LINE
8
BLACK
6
CONTINUOUS
10
108.745
20
-75.9907
11
108.989
21
-74.9347
0
LINE
8
BLACK
6
CONTINUOUS
10
108.989
20
-74.9347
11
109.269
21
-73.8878
0
LINE
8
BLACK
6
CONTINUOUS
10
109.269
20
-73.8878
11
109.586
21
-72.8514
0
LINE
8
BLACK
6
CONTINUOUS
10
109.586
20
-72.8514
11
109.939
21
-71.8266
0
LINE
8
BLACK
6
CONTINUOUS
10
109.939
20
-71.8266
11
110.327
21
-70.8148
0
LINE
8
BLACK
6
CONTINUOUS
10
110.327
20
-70.8148
11
110.751
21
-69.8172
0
LINE
8
BLACK
6
CONTINUOUS
10
110.751
20
-69.8172
11
111.209
21
-68.8349
0
LINE
8
BLACK
6
CONTINUOUS
10
111.209
20
-68.8349
11
111.701
21
-67.8693
0
LINE
8
BLACK
6
CONTINUOUS
10
111.701
20
-67.8693
11
112.226
21
-66.9214
0
LINE
8
BLACK
6
CONTINUOUS
10
112.226
20
-66.9214
11
112.784
21
-65.9924
0
LINE
8
BLACK
6
CONTINUOUS
10
112.784
20
-65.9924
11
113.375
21
-65.0834
0
LINE
8
BLACK
6
CONTINUOUS
10
113.375
20
-65.0834
11
113.996
21
-64.1956
0
LINE
8
BLACK
6
CONTINUOUS
10
113.996
20
-64.1956
11
114.649
21
-63.3301
0
LINE
8
BLACK
6
CONTINUOUS
10
114.649
20
-63.3301
11
115.331
21
-62.4878
0
LINE
8
BLACK
6
CONTINUOUS
10
115.331
20
-62.4878
11
116.042
21
-61.6699
0
LINE
8
BLACK
6
CONTINUOUS
10
116.042
20
-61.6699
11
116.781
21
-60.8772
0
LINE
8
BLACK
6
CONTINUOUS
10
116.781
20
-60.8772
11
117.547
21
-60.1109
0
LINE
8
BLACK
6
CONTINUOUS
10
117.547
20
-60.1109
11
118.34
21
-59.3717
0
LINE
8
BLACK
6
CONTINUOUS
10
118.34
20
-59.3717
11
119.158
21
-58.6607
0
LINE
8
BLACK
6
CONTINUOUS
10
119.158
20
-58.6607
11
120
21
-57.9786
0
LINE
8
BLACK
6
CONTINUOUS
10
120
20
-57.9786
11
120.866
21
-57.3264
0
LINE
8
BLACK
6
CONTINUOUS
10
120.866
20
-57.3264
11
121.753
21
-56.7047
0
LINE
8
BLACK
6
CONTINUOUS
10
121.753
20
-56.7047
11
122.662
21
-56.1145
0
LINE
8
BLACK
6
CONTINUOUS
10
122.662
20
-56.1145
11
123.591
21
-55.5563
0
LINE
8
BLACK
6
CONTINUOUS
10
123.591
20
-55.5563
11
124.539
21
-55.0308
0
LINE
8
BLACK
6
CONTINUOUS
10
124.539
20
-55.0308
11
125.505
21
-54.5388
0
LINE
8
BLACK
6
CONTINUOUS
10
125.505
20
-54.5388
11
126.487
21
-54.0808
0
LINE
8
BLACK
6
CONTINUOUS
10
126.487
20
-54.0808
11
127.485
21
-53.6573
0
LINE
8
BLACK
6
CONTINUOUS
10
127.485
20
-53.6573
11
128.497
21
-53.2689
0
LINE
8
BLACK
6
CONTINUOUS
10
128.497
20
-53.2689
11
129.521
21
-52.9161
0
LINE
8
BLACK
6
CONTINUOUS
10
129.521
20
-52.9161
11
130.558
21
-52.5992
0
LINE
8
BLACK
6
CONTINUOUS
10
130.558
20
-52.5992
11
131.605
21
-52.3187
0
LINE
8
BLACK
6
CONTINUOUS
10
131.605
20
-52.3187
11
132.661
21
-52.0749
0
LINE
8
BLACK
6
CONTINUOUS
10
132.661
20
-52.0749
11
133.31
21
-51.9487
0
LINE
8
BLACK
6
CONTINUOUS
10
133.31
20
-51.9487
11
133.31
21
-51.4434
0
LINE
8
BLACK
6
CONTINUOUS
10
133.31
20
-51.4434
11
133.325
21
-51.408
0
LINE
8
BLACK
6
CONTINUOUS
10
133.325
20
-51.408
11
133.36
21
-51.3934
0
LINE
8
BLACK
6
CONTINUOUS
10
133.36
20
-51.3934
11
144.86
21
-51.3934
0
LINE
8
BLACK
6
CONTINUOUS
10
144.86
20
-51.3934
11
144.895
21
-51.408
0
LINE
8
BLACK
6
CONTINUOUS
10
144.895
20
-51.408
11
144.91
21
-51.4434
0
LINE
8
BLACK
6
CONTINUOUS
10
144.91
20
-51.4434
11
144.91
21
-51.9462
0
LINE
8
BLACK
6
CONTINUOUS
10
144.91
20
-51.9462
11
145.572
21
-52.0749
0
LINE
8
BLACK
6
CONTINUOUS
10
145.572
20
-52.0749
11
146.628
21
-52.3187
0
LINE
8
BLACK
6
CONTINUOUS
10
146.628
20
-52.3187
11
147.675
21
-52.5992
0
LINE
8
BLACK
6
CONTINUOUS
10
147.675
20
-52.5992
11
148.711
21
-52.9161
0
LINE
8
BLACK
6
CONTINUOUS
10
148.711
20
-52.9161
11
149.736
21
-53.2689
0
LINE
8
BLACK
6
CONTINUOUS
10
149.736
20
-53.2689
11
150.748
21
-53.6573
0
LINE
8
BLACK
6
CONTINUOUS
10
150.748
20
-53.6573
11
151.746
21
-54.0808
0
LINE
8
BLACK
6
CONTINUOUS
10
151.746
20
-54.0808
11
152.728
21
-54.5388
0
LINE
8
BLACK
6
CONTINUOUS
10
152.728
20
-54.5388
11
153.693
21
-55.0308
0
LINE
8
BLACK
6
CONTINUOUS
10
153.693
20
-55.0308
11
154.641
21
-55.5563
0
LINE
8
BLACK
6
CONTINUOUS
10
154.641
20
-55.5563
11
155.57
21
-56.1145
0
LINE
8
BLACK
6
CONTINUOUS
10
155.57
20
-56.1145
11
156.479
21
-56.7047
0
LINE
8
BLACK
6
CONTINUOUS
10
156.479
20
-56.7047
11
157.367
21
-57.3264
0
LINE
8
BLACK
6
CONTINUOUS
10
157.367
20
-57.3264
11
158.233
21
-57.9786
0
LINE
8
BLACK
6
CONTINUOUS
10
158.233
20
-57.9786
11
159.075
21
-58.6607
0
LINE
8
BLACK
6
CONTINUOUS
10
159.075
20
-58.6607
11
159.893
21
-59.3717
0
LINE
8
BLACK
6
CONTINUOUS
10
159.893
20
-59.3717
11
160.686
21
-60.1109
0
LINE
8
BLACK
6
CONTINUOUS
10
160.686
20
-60.1109
11
161.452
21
-60.8772
0
LINE
8
BLACK
6
CONTINUOUS
10
161.452
20
-60.8772
11
162.191
21
-61.6699
0
LINE
8
BLACK
6
CONTINUOUS
10
162.191
20
-61.6699
11
162.902
21
-62.4878
0
LINE
8
BLACK
6
CONTINUOUS
10
162.902
20
-62.4878
11
163.584
21
-63.3301
0
LINE
8
BLACK
6
CONTINUOUS
10
163.584
20
-63.3301
11
164.236
21
-64.1956
0
LINE
8
BLACK
6
CONTINUOUS
10
164.236
20
-64.1956
11
164.858
21
-65.0834
0
LINE
8
BLACK
6
CONTINUOUS
10
164.858
20
-65.0834
11
165.448
21
-65.9924
0
LINE
8
BLACK
6
CONTINUOUS
10
165.448
20
-65.9924
11
166.006
21
-66.9214
0
LINE
8
BLACK
6
CONTINUOUS
10
166.006
20
-66.9214
11
166.532
21
-67.8693
0
LINE
8
BLACK
6
CONTINUOUS
10
166.532
20
-67.8693
11
167.024
21
-68.8349
0
LINE
8
BLACK
6
CONTINUOUS
10
167.024
20
-68.8349
11
167.482
21
-69.8172
0
LINE
8
BLACK
6
CONTINUOUS
10
167.482
20
-69.8172
11
167.825
21
-70.6242
0
LINE
8
BLACK
6
CONTINUOUS
10
167.825
20
-70.6242
11
170.293
21
-70.6242
0
LINE
8
BLACK
6
CONTINUOUS
10
170.293
20
-70.6242
11
170.328
21
-70.6388
0
LINE
8
BLACK
6
CONTINUOUS
10
170.328
20
-70.6388
11
170.343
21
-70.6742
0
LINE
8
BLACK
6
CONTINUOUS
10
133.325
20
-54.9754
11
133.31
21
-54.94
0
LINE
8
BLACK
6
CONTINUOUS
10
133.31
20
-54.94
11
133.31
21
-52.0455
0
LINE
8
BLACK
6
CONTINUOUS
10
133.31
20
-52.0455
11
132.68
21
-52.1679
0
LINE
8
BLACK
6
CONTINUOUS
10
132.68
20
-52.1679
11
131.628
21
-52.4109
0
LINE
8
BLACK
6
CONTINUOUS
10
131.628
20
-52.4109
11
130.584
21
-52.6906
0
LINE
8
BLACK
6
CONTINUOUS
10
130.584
20
-52.6906
11
129.551
21
-53.0065
0
LINE
8
BLACK
6
CONTINUOUS
10
129.551
20
-53.0065
11
128.529
21
-53.3582
0
LINE
8
BLACK
6
CONTINUOUS
10
128.529
20
-53.3582
11
127.52
21
-53.7455
0
LINE
8
BLACK
6
CONTINUOUS
10
127.52
20
-53.7455
11
126.526
21
-54.1676
0
LINE
8
BLACK
6
CONTINUOUS
10
126.526
20
-54.1676
11
125.547
21
-54.6243
0
LINE
8
BLACK
6
CONTINUOUS
10
125.547
20
-54.6243
11
124.584
21
-55.1148
0
LINE
8
BLACK
6
CONTINUOUS
10
124.584
20
-55.1148
11
123.639
21
-55.6386
0
LINE
8
BLACK
6
CONTINUOUS
10
123.639
20
-55.6386
11
122.713
21
-56.1951
0
LINE
8
BLACK
6
CONTINUOUS
10
122.713
20
-56.1951
11
121.807
21
-56.7836
0
LINE
8
BLACK
6
CONTINUOUS
10
121.807
20
-56.7836
11
120.922
21
-57.4033
0
LINE
8
BLACK
6
CONTINUOUS
10
120.922
20
-57.4033
11
120.059
21
-58.0535
0
LINE
8
BLACK
6
CONTINUOUS
10
120.059
20
-58.0535
11
119.219
21
-58.7335
0
LINE
8
BLACK
6
CONTINUOUS
10
119.219
20
-58.7335
11
118.403
21
-59.4424
0
LINE
8
BLACK
6
CONTINUOUS
10
118.403
20
-59.4424
11
117.613
21
-60.1793
0
LINE
8
BLACK
6
CONTINUOUS
10
117.613
20
-60.1793
11
116.849
21
-60.9433
0
LINE
8
BLACK
6
CONTINUOUS
10
116.849
20
-60.9433
11
116.112
21
-61.7335
0
LINE
8
BLACK
6
CONTINUOUS
10
116.112
20
-61.7335
11
115.404
21
-62.5489
0
LINE
8
BLACK
6
CONTINUOUS
10
115.404
20
-62.5489
11
114.724
21
-63.3886
0
LINE
8
BLACK
6
CONTINUOUS
10
114.724
20
-63.3886
11
114.073
21
-64.2515
0
LINE
8
BLACK
6
CONTINUOUS
10
114.073
20
-64.2515
11
113.454
21
-65.1366
0
LINE
8
BLACK
6
CONTINUOUS
10
113.454
20
-65.1366
11
112.865
21
-66.0428
0
LINE
8
BLACK
6
CONTINUOUS
10
112.865
20
-66.0428
11
112.309
21
-66.9689
0
LINE
8
BLACK
6
CONTINUOUS
10
112.309
20
-66.9689
11
111.785
21
-67.9139
0
LINE
8
BLACK
6
CONTINUOUS
10
111.785
20
-67.9139
11
111.294
21
-68.8766
0
LINE
8
BLACK
6
CONTINUOUS
10
111.294
20
-68.8766
11
110.838
21
-69.8559
0
LINE
8
BLACK
6
CONTINUOUS
10
110.838
20
-69.8559
11
110.415
21
-70.8504
0
LINE
8
BLACK
6
CONTINUOUS
10
110.415
20
-70.8504
11
110.028
21
-71.8592
0
LINE
8
BLACK
6
CONTINUOUS
10
110.028
20
-71.8592
11
109.676
21
-72.8808
0
LINE
8
BLACK
6
CONTINUOUS
10
109.676
20
-72.8808
11
109.361
21
-73.914
0
LINE
8
BLACK
6
CONTINUOUS
10
109.361
20
-73.914
11
109.081
21
-74.9577
0
LINE
8
BLACK
6
CONTINUOUS
10
109.081
20
-74.9577
11
108.838
21
-76.0105
0
LINE
8
BLACK
6
CONTINUOUS
10
108.838
20
-76.0105
11
108.712
21
-76.66
0
LINE
8
BLACK
6
CONTINUOUS
10
108.712
20
-76.66
11
110.73
21
-76.66
0
LINE
8
BLACK
6
CONTINUOUS
10
110.73
20
-76.66
11
110.765
21
-76.6746
0
LINE
8
BLACK
6
CONTINUOUS
10
110.765
20
-76.6746
11
110.78
21
-76.71
0
LINE
8
BLACK
6
CONTINUOUS
10
110.78
20
-76.71
11
110.78
21
-88.21
0
LINE
8
BLACK
6
CONTINUOUS
10
110.78
20
-88.21
11
110.765
21
-88.2454
0
LINE
8
BLACK
6
CONTINUOUS
10
110.765
20
-88.2454
11
110.73
21
-88.26
0
LINE
8
BLACK
6
CONTINUOUS
10
110.73
20
-88.26
11
108.717
21
-88.26
0
LINE
8
BLACK
6
CONTINUOUS
10
108.717
20
-88.26
11
108.838
21
-88.8823
0
LINE
8
BLACK
6
CONTINUOUS
10
108.838
20
-88.8823
11
109.081
21
-89.935
0
LINE
8
BLACK
6
CONTINUOUS
10
109.081
20
-89.935
11
109.361
21
-90.9787
0
LINE
8
BLACK
6
CONTINUOUS
10
109.361
20
-90.9787
11
109.676
21
-92.012
0
LINE
8
BLACK
6
CONTINUOUS
10
109.676
20
-92.012
11
110.028
21
-93.0336
0
LINE
8
BLACK
6
CONTINUOUS
10
110.028
20
-93.0336
11
110.415
21
-94.0423
0
LINE
8
BLACK
6
CONTINUOUS
10
110.415
20
-94.0423
11
110.838
21
-95.0369
0
LINE
8
BLACK
6
CONTINUOUS
10
110.838
20
-95.0369
11
111.294
21
-96.0161
0
LINE
8
BLACK
6
CONTINUOUS
10
111.294
20
-96.0161
11
111.785
21
-96.9788
0
LINE
8
BLACK
6
CONTINUOUS
10
111.785
20
-96.9788
11
112.309
21
-97.9238
0
LINE
8
BLACK
6
CONTINUOUS
10
112.309
20
-97.9238
11
112.865
21
-98.85
0
LINE
8
BLACK
6
CONTINUOUS
10
112.865
20
-98.85
11
113.454
21
-99.7561
0
LINE
8
BLACK
6
CONTINUOUS
10
113.454
20
-99.7561
11
114.073
21
-100.641
0
LINE
8
BLACK
6
CONTINUOUS
10
114.073
20
-100.641
11
114.724
21
-101.504
0
LINE
8
BLACK
6
CONTINUOUS
10
114.724
20
-101.504
11
115.404
21
-102.344
0
LINE
8
BLACK
6
CONTINUOUS
10
115.404
20
-102.344
11
116.112
21
-103.159
0
LINE
8
BLACK
6
CONTINUOUS
10
116.112
20
-103.159
11
116.849
21
-103.949
0
LINE
8
BLACK
6
CONTINUOUS
10
116.849
20
-103.949
11
117.613
21
-104.713
0
LINE
8
BLACK
6
CONTINUOUS
10
117.613
20
-104.713
11
118.403
21
-105.45
0
LINE
8
BLACK
6
CONTINUOUS
10
118.403
20
-105.45
11
119.219
21
-106.159
0
LINE
8
BLACK
6
CONTINUOUS
10
119.219
20
-106.159
11
120.059
21
-106.839
0
LINE
8
BLACK
6
CONTINUOUS
10
120.059
20
-106.839
11
120.922
21
-107.489
0
LINE
8
BLACK
6
CONTINUOUS
10
120.922
20
-107.489
11
121.807
21
-108.109
0
LINE
8
BLACK
6
CONTINUOUS
10
121.807
20
-108.109
11
122.713
21
-108.698
0
LINE
8
BLACK
6
CONTINUOUS
10
122.713
20
-108.698
11
123.639
21
-109.254
0
LINE
8
BLACK
6
CONTINUOUS
10
123.639
20
-109.254
11
124.584
21
-109.778
0
LINE
8
BLACK
6
CONTINUOUS
10
124.584
20
-109.778
11
125.547
21
-110.268
0
LINE
8
BLACK
6
CONTINUOUS
10
125.547
20
-110.268
11
126.526
21
-110.725
0
LINE
8
BLACK
6
CONTINUOUS
10
126.526
20
-110.725
11
127.52
21
-111.147
0
LINE
8
BLACK
6
CONTINUOUS
10
127.52
20
-111.147
11
128.529
21
-111.534
0
LINE
8
BLACK
6
CONTINUOUS
10
128.529
20
-111.534
11
129.551
21
-111.886
0
LINE
8
BLACK
6
CONTINUOUS
10
129.551
20
-111.886
11
130.584
21
-112.202
0
LINE
8
BLACK
6
CONTINUOUS
10
130.584
20
-112.202
11
131.628
21
-112.482
0
LINE
8
BLACK
6
CONTINUOUS
10
131.628
20
-112.482
11
132.68
21
-112.725
0
LINE
8
BLACK
6
CONTINUOUS
10
132.68
20
-112.725
11
133.741
21
-112.931
0
LINE
8
BLACK
6
CONTINUOUS
10
133.741
20
-112.931
11
134.808
21
-113.1
0
LINE
8
BLACK
6
CONTINUOUS
10
134.808
20
-113.1
11
135.881
21
-113.232
0
LINE
8
BLACK
6
CONTINUOUS
10
135.881
20
-113.232
11
136.957
21
-113.326
0
LINE
8
BLACK
6
CONTINUOUS
10
136.957
20
-113.326
11
138.036
21
-113.382
0
LINE
8
BLACK
6
CONTINUOUS
10
138.036
20
-113.382
11
139.116
21
-113.401
0
LINE
8
BLACK
6
CONTINUOUS
10
139.116
20
-113.401
11
140.197
21
-113.382
0
LINE
8
BLACK
6
CONTINUOUS
10
140.197
20
-113.382
11
141.276
21
-113.326
0
LINE
8
BLACK
6
CONTINUOUS
10
141.276
20
-113.326
11
142.352
21
-113.232
0
LINE
8
BLACK
6
CONTINUOUS
10
142.352
20
-113.232
11
143.424
21
-113.1
0
LINE
8
BLACK
6
CONTINUOUS
10
143.424
20
-113.1
11
144.492
21
-112.931
0
LINE
8
BLACK
6
CONTINUOUS
10
144.492
20
-112.931
11
145.552
21
-112.725
0
LINE
8
BLACK
6
CONTINUOUS
10
145.552
20
-112.725
11
146.605
21
-112.482
0
LINE
8
BLACK
6
CONTINUOUS
10
146.605
20
-112.482
11
147.649
21
-112.202
0
LINE
8
BLACK
6
CONTINUOUS
10
147.649
20
-112.202
11
148.682
21
-111.886
0
LINE
8
BLACK
6
CONTINUOUS
10
148.682
20
-111.886
11
149.704
21
-111.534
0
LINE
8
BLACK
6
CONTINUOUS
10
149.704
20
-111.534
11
150.712
21
-111.147
0
LINE
8
BLACK
6
CONTINUOUS
10
150.712
20
-111.147
11
151.707
21
-110.725
0
LINE
8
BLACK
6
CONTINUOUS
10
151.707
20
-110.725
11
152.686
21
-110.268
0
LINE
8
BLACK
6
CONTINUOUS
10
152.686
20
-110.268
11
153.649
21
-109.778
0
LINE
8
BLACK
6
CONTINUOUS
10
153.649
20
-109.778
11
154.594
21
-109.254
0
LINE
8
BLACK
6
CONTINUOUS
10
154.594
20
-109.254
11
155.52
21
-108.698
0
LINE
8
BLACK
6
CONTINUOUS
10
155.52
20
-108.698
11
156.426
21
-108.109
0
LINE
8
BLACK
6
CONTINUOUS
10
156.426
20
-108.109
11
157.311
21
-107.489
0
LINE
8
BLACK
6
CONTINUOUS
10
157.311
20
-107.489
11
158.174
21
-106.839
0
LINE
8
BLACK
6
CONTINUOUS
10
158.174
20
-106.839
11
159.014
21
-106.159
0
LINE
8
BLACK
6
CONTINUOUS
10
159.014
20
-106.159
11
159.829
21
-105.45
0
LINE
8
BLACK
6
CONTINUOUS
10
159.829
20
-105.45
11
160.619
21
-104.713
0
LINE
8
BLACK
6
CONTINUOUS
10
160.619
20
-104.713
11
161.383
21
-103.949
0
LINE
8
BLACK
6
CONTINUOUS
10
161.383
20
-103.949
11
162.12
21
-103.159
0
LINE
8
BLACK
6
CONTINUOUS
10
162.12
20
-103.159
11
162.829
21
-102.344
0
LINE
8
BLACK
6
CONTINUOUS
10
162.829
20
-102.344
11
163.509
21
-101.504
0
LINE
8
BLACK
6
CONTINUOUS
10
163.509
20
-101.504
11
164.159
21
-100.641
0
LINE
8
BLACK
6
CONTINUOUS
10
164.159
20
-100.641
11
164.779
21
-99.7561
0
LINE
8
BLACK
6
CONTINUOUS
10
164.779
20
-99.7561
11
165.368
21
-98.85
0
LINE
8
BLACK
6
CONTINUOUS
10
165.368
20
-98.85
11
165.392
21
-98.81
0
LINE
8
BLACK
6
CONTINUOUS
10
165.392
20
-98.81
11
162.38
21
-98.81
0
LINE
8
BLACK
6
CONTINUOUS
10
162.38
20
-98.81
11
162.345
21
-98.7954
0
LINE
8
BLACK
6
CONTINUOUS
10
162.345
20
-98.7954
11
162.33
21
-98.76
0
LINE
8
BLACK
6
CONTINUOUS
10
162.33
20
-98.76
11
162.33
21
-97.56
0
LINE
8
BLACK
6
CONTINUOUS
10
162.33
20
-97.56
11
162.345
21
-97.5246
0
LINE
8
BLACK
6
CONTINUOUS
10
162.345
20
-97.5246
11
162.38
21
-97.51
0
LINE
8
BLACK
6
CONTINUOUS
10
162.38
20
-97.51
11
166.154
21
-97.51
0
LINE
8
BLACK
6
CONTINUOUS
10
166.154
20
-97.51
11
166.448
21
-96.9788
0
LINE
8
BLACK
6
CONTINUOUS
10
166.448
20
-96.9788
11
166.938
21
-96.0161
0
LINE
8
BLACK
6
CONTINUOUS
10
166.938
20
-96.0161
11
167.395
21
-95.0369
0
LINE
8
BLACK
6
CONTINUOUS
10
167.395
20
-95.0369
11
167.817
21
-94.0423
0
LINE
8
BLACK
6
CONTINUOUS
10
167.817
20
-94.0423
11
168.204
21
-93.0336
0
LINE
8
BLACK
6
CONTINUOUS
10
168.204
20
-93.0336
11
168.556
21
-92.012
0
LINE
8
BLACK
6
CONTINUOUS
10
168.556
20
-92.012
11
168.872
21
-90.9787
0
LINE
8
BLACK
6
CONTINUOUS
10
168.872
20
-90.9787
11
169.152
21
-89.935
0
LINE
8
BLACK
6
CONTINUOUS
10
169.152
20
-89.935
11
169.395
21
-88.8823
0
LINE
8
BLACK
6
CONTINUOUS
10
169.395
20
-88.8823
11
169.527
21
-88.2
0
LINE
8
BLACK
6
CONTINUOUS
10
169.527
20
-88.2
11
167.499
21
-88.2
0
LINE
8
BLACK
6
CONTINUOUS
10
167.499
20
-88.2
11
167.463
21
-88.1854
0
LINE
8
BLACK
6
CONTINUOUS
10
167.463
20
-88.1854
11
167.449
21
-88.15
0
LINE
8
BLACK
6
CONTINUOUS
10
167.449
20
-88.15
11
167.449
21
-76.6438
0
LINE
8
BLACK
6
CONTINUOUS
10
167.449
20
-76.6438
11
167.463
21
-76.6084
0
LINE
8
BLACK
6
CONTINUOUS
10
167.463
20
-76.6084
11
167.499
21
-76.5938
0
LINE
8
BLACK
6
CONTINUOUS
10
167.499
20
-76.5938
11
169.508
21
-76.5938
0
LINE
8
BLACK
6
CONTINUOUS
10
169.508
20
-76.5938
11
169.395
21
-76.0105
0
LINE
8
BLACK
6
CONTINUOUS
10
169.395
20
-76.0105
11
169.152
21
-74.9577
0
LINE
8
BLACK
6
CONTINUOUS
10
169.152
20
-74.9577
11
168.872
21
-73.914
0
LINE
8
BLACK
6
CONTINUOUS
10
168.872
20
-73.914
11
168.556
21
-72.8808
0
LINE
8
BLACK
6
CONTINUOUS
10
168.556
20
-72.8808
11
168.204
21
-71.8592
0
LINE
8
BLACK
6
CONTINUOUS
10
168.204
20
-71.8592
11
168.043
21
-71.4386
0
LINE
8
BLACK
6
CONTINUOUS
10
168.043
20
-71.4386
11
167.14
21
-71.4399
0
LINE
8
BLACK
6
CONTINUOUS
10
167.14
20
-71.4399
11
167.14
21
-74.26
0
LINE
8
BLACK
6
CONTINUOUS
10
167.14
20
-74.26
11
167.125
21
-74.2954
0
LINE
8
BLACK
6
CONTINUOUS
10
167.125
20
-74.2954
11
167.09
21
-74.31
0
LINE
8
BLACK
6
CONTINUOUS
10
167.09
20
-74.31
11
166.178
21
-74.31
0
LINE
8
BLACK
6
CONTINUOUS
10
166.178
20
-74.31
11
166.142
21
-74.2954
0
LINE
8
BLACK
6
CONTINUOUS
10
166.142
20
-74.2954
11
166.128
21
-74.26
0
LINE
8
BLACK
6
CONTINUOUS
10
166.128
20
-74.26
11
166.128
21
-70.6742
0
LINE
8
BLACK
6
CONTINUOUS
10
166.128
20
-70.6742
11
166.142
21
-70.6388
0
LINE
8
BLACK
6
CONTINUOUS
10
166.142
20
-70.6388
11
166.178
21
-70.6242
0
LINE
8
BLACK
6
CONTINUOUS
10
166.178
20
-70.6242
11
167.721
21
-70.6242
0
LINE
8
BLACK
6
CONTINUOUS
10
167.721
20
-70.6242
11
167.395
21
-69.8559
0
LINE
8
BLACK
6
CONTINUOUS
10
167.395
20
-69.8559
11
166.938
21
-68.8766
0
LINE
8
BLACK
6
CONTINUOUS
10
166.938
20
-68.8766
11
166.448
21
-67.9139
0
LINE
8
BLACK
6
CONTINUOUS
10
166.448
20
-67.9139
11
165.924
21
-66.9689
0
LINE
8
BLACK
6
CONTINUOUS
10
165.924
20
-66.9689
11
165.368
21
-66.0428
0
LINE
8
BLACK
6
CONTINUOUS
10
165.368
20
-66.0428
11
164.779
21
-65.1366
0
LINE
8
BLACK
6
CONTINUOUS
10
164.779
20
-65.1366
11
164.159
21
-64.2515
0
LINE
8
BLACK
6
CONTINUOUS
10
164.159
20
-64.2515
11
163.509
21
-63.3886
0
LINE
8
BLACK
6
CONTINUOUS
10
163.509
20
-63.3886
11
162.829
21
-62.5489
0
LINE
8
BLACK
6
CONTINUOUS
10
162.829
20
-62.5489
11
162.12
21
-61.7335
0
LINE
8
BLACK
6
CONTINUOUS
10
162.12
20
-61.7335
11
161.383
21
-60.9433
0
LINE
8
BLACK
6
CONTINUOUS
10
161.383
20
-60.9433
11
160.619
21
-60.1793
0
LINE
8
BLACK
6
CONTINUOUS
10
160.619
20
-60.1793
11
159.829
21
-59.4424
0
LINE
8
BLACK
6
CONTINUOUS
10
159.829
20
-59.4424
11
159.014
21
-58.7335
0
LINE
8
BLACK
6
CONTINUOUS
10
159.014
20
-58.7335
11
158.174
21
-58.0535
0
LINE
8
BLACK
6
CONTINUOUS
10
158.174
20
-58.0535
11
157.311
21
-57.4033
0
LINE
8
BLACK
6
CONTINUOUS
10
157.311
20
-57.4033
11
156.426
21
-56.7836
0
LINE
8
BLACK
6
CONTINUOUS
10
156.426
20
-56.7836
11
155.52
21
-56.1951
0
LINE
8
BLACK
6
CONTINUOUS
10
155.52
20
-56.1951
11
154.594
21
-55.6386
0
LINE
8
BLACK
6
CONTINUOUS
10
154.594
20
-55.6386
11
153.649
21
-55.1148
0
LINE
8
BLACK
6
CONTINUOUS
10
153.649
20
-55.1148
11
152.686
21
-54.6243
0
LINE
8
BLACK
6
CONTINUOUS
10
152.686
20
-54.6243
11
151.707
21
-54.1676
0
LINE
8
BLACK
6
CONTINUOUS
10
151.707
20
-54.1676
11
150.712
21
-53.7455
0
LINE
8
BLACK
6
CONTINUOUS
10
150.712
20
-53.7455
11
149.704
21
-53.3582
0
LINE
8
BLACK
6
CONTINUOUS
10
149.704
20
-53.3582
11
148.682
21
-53.0065
0
LINE
8
BLACK
6
CONTINUOUS
10
148.682
20
-53.0065
11
147.649
21
-52.6906
0
LINE
8
BLACK
6
CONTINUOUS
10
147.649
20
-52.6906
11
146.605
21
-52.4109
0
LINE
8
BLACK
6
CONTINUOUS
10
146.605
20
-52.4109
11
145.552
21
-52.1679
0
LINE
8
BLACK
6
CONTINUOUS
10
145.552
20
-52.1679
11
144.91
21
-52.043
0
LINE
8
BLACK
6
CONTINUOUS
10
144.91
20
-52.043
11
144.91
21
-54.94
0
LINE
8
BLACK
6
CONTINUOUS
10
144.91
20
-54.94
11
144.895
21
-54.9754
0
LINE
8
BLACK
6
CONTINUOUS
10
144.895
20
-54.9754
11
144.86
21
-54.99
0
LINE
8
BLACK
6
CONTINUOUS
10
144.86
20
-54.99
11
133.36
21
-54.99
0
LINE
8
BLACK
6
CONTINUOUS
10
133.36
20
-54.99
11
133.325
21
-54.9754
0
LINE
8
BLACK
6
CONTINUOUS
10
162.43
20
-97.61
11
162.43
21
-98.71
0
LINE
8
BLACK
6
CONTINUOUS
10
162.43
20
-98.71
11
165.452
21
-98.71
0
LINE
8
BLACK
6
CONTINUOUS
10
165.452
20
-98.71
11
165.924
21
-97.9238
0
LINE
8
BLACK
6
CONTINUOUS
10
165.924
20
-97.9238
11
166.098
21
-97.61
0
LINE
8
BLACK
6
CONTINUOUS
10
166.098
20
-97.61
11
162.43
21
-97.61
0
LINE
8
BLACK
6
CONTINUOUS
10
166.207
20
-97.61
11
166.006
21
-97.9714
0
LINE
8
BLACK
6
CONTINUOUS
10
166.006
20
-97.9714
11
165.563
21
-98.71
0
LINE
8
BLACK
6
CONTINUOUS
10
165.563
20
-98.71
11
166.84
21
-98.71
0
LINE
8
BLACK
6
CONTINUOUS
10
166.84
20
-98.71
11
166.84
21
-97.61
0
LINE
8
BLACK
6
CONTINUOUS
10
166.84
20
-97.61
11
166.207
21
-97.61
0
LINE
8
BLACK
6
CONTINUOUS
10
108.163
20
-88.16
11
108.601
21
-88.16
0
LINE
8
BLACK
6
CONTINUOUS
10
108.601
20
-88.16
11
108.538
21
-87.8381
0
LINE
8
BLACK
6
CONTINUOUS
10
108.538
20
-87.8381
11
108.369
21
-86.7677
0
LINE
8
BLACK
6
CONTINUOUS
10
108.369
20
-86.7677
11
108.236
21
-85.692
0
LINE
8
BLACK
6
CONTINUOUS
10
108.236
20
-85.692
11
108.163
21
-84.8569
0
LINE
8
BLACK
6
CONTINUOUS
10
108.163
20
-84.8569
11
108.163
21
-88.16
0
LINE
8
BLACK
6
CONTINUOUS
10
108.692
20
-76.76
11
108.632
21
-77.0711
0
LINE
8
BLACK
6
CONTINUOUS
10
108.632
20
-77.0711
11
108.463
21
-78.1383
0
LINE
8
BLACK
6
CONTINUOUS
10
108.463
20
-78.1383
11
108.331
21
-79.2107
0
LINE
8
BLACK
6
CONTINUOUS
10
108.331
20
-79.2107
11
108.237
21
-80.2871
0
LINE
8
BLACK
6
CONTINUOUS
10
108.237
20
-80.2871
11
108.18
21
-81.3661
0
LINE
8
BLACK
6
CONTINUOUS
10
108.18
20
-81.3661
11
108.163
21
-82.3337
0
LINE
8
BLACK
6
CONTINUOUS
10
108.163
20
-82.3337
11
108.163
21
-82.559
0
LINE
8
BLACK
6
CONTINUOUS
10
108.163
20
-82.559
11
108.18
21
-83.5267
0
LINE
8
BLACK
6
CONTINUOUS
10
108.18
20
-83.5267
11
108.237
21
-84.6057
0
LINE
8
BLACK
6
CONTINUOUS
10
108.237
20
-84.6057
11
108.331
21
-85.682
0
LINE
8
BLACK
6
CONTINUOUS
10
108.331
20
-85.682
11
108.463
21
-86.7545
0
LINE
8
BLACK
6
CONTINUOUS
10
108.463
20
-86.7545
11
108.632
21
-87.8216
0
LINE
8
BLACK
6
CONTINUOUS
10
108.632
20
-87.8216
11
108.697
21
-88.16
0
LINE
8
BLACK
6
CONTINUOUS
10
108.697
20
-88.16
11
110.68
21
-88.16
0
LINE
8
BLACK
6
CONTINUOUS
10
110.68
20
-88.16
11
110.68
21
-76.76
0
LINE
8
BLACK
6
CONTINUOUS
10
110.68
20
-76.76
11
108.692
21
-76.76
0
LINE
8
BLACK
6
CONTINUOUS
10
167.549
20
-76.6938
11
167.549
21
-88.1
0
LINE
8
BLACK
6
CONTINUOUS
10
167.549
20
-88.1
11
169.547
21
-88.1
0
LINE
8
BLACK
6
CONTINUOUS
10
169.547
20
-88.1
11
169.601
21
-87.8216
0
LINE
8
BLACK
6
CONTINUOUS
10
169.601
20
-87.8216
11
169.77
21
-86.7545
0
LINE
8
BLACK
6
CONTINUOUS
10
169.77
20
-86.7545
11
169.902
21
-85.682
0
LINE
8
BLACK
6
CONTINUOUS
10
169.902
20
-85.682
11
169.996
21
-84.6057
0
LINE
8
BLACK
6
CONTINUOUS
10
169.996
20
-84.6057
11
170.052
21
-83.5267
0
LINE
8
BLACK
6
CONTINUOUS
10
170.052
20
-83.5267
11
170.065
21
-82.8185
0
LINE
8
BLACK
6
CONTINUOUS
10
170.065
20
-82.8185
11
170.065
21
-82.0742
0
LINE
8
BLACK
6
CONTINUOUS
10
170.065
20
-82.0742
11
170.052
21
-81.3661
0
LINE
8
BLACK
6
CONTINUOUS
10
170.052
20
-81.3661
11
169.996
21
-80.2871
0
LINE
8
BLACK
6
CONTINUOUS
10
169.996
20
-80.2871
11
169.902
21
-79.2107
0
LINE
8
BLACK
6
CONTINUOUS
10
169.902
20
-79.2107
11
169.77
21
-78.1383
0
LINE
8
BLACK
6
CONTINUOUS
10
169.77
20
-78.1383
11
169.601
21
-77.0711
0
LINE
8
BLACK
6
CONTINUOUS
10
169.601
20
-77.0711
11
169.528
21
-76.6938
0
LINE
8
BLACK
6
CONTINUOUS
10
169.528
20
-76.6938
11
167.549
21
-76.6938
0
LINE
8
BLACK
6
CONTINUOUS
10
169.996
20
-85.692
11
169.864
21
-86.7677
0
LINE
8
BLACK
6
CONTINUOUS
10
169.864
20
-86.7677
11
169.695
21
-87.8381
0
LINE
8
BLACK
6
CONTINUOUS
10
169.695
20
-87.8381
11
169.644
21
-88.1
0
LINE
8
BLACK
6
CONTINUOUS
10
169.644
20
-88.1
11
170.065
21
-88.1
0
LINE
8
BLACK
6
CONTINUOUS
10
170.065
20
-88.1
11
170.065
21
-84.9087
0
LINE
8
BLACK
6
CONTINUOUS
10
170.065
20
-84.9087
11
169.996
21
-85.692
0
LINE
8
BLACK
6
CONTINUOUS
10
108.163
20
-76.76
11
108.163
21
-80.0358
0
LINE
8
BLACK
6
CONTINUOUS
10
108.163
20
-80.0358
11
108.236
21
-79.2008
0
LINE
8
BLACK
6
CONTINUOUS
10
108.236
20
-79.2008
11
108.369
21
-78.125
0
LINE
8
BLACK
6
CONTINUOUS
10
108.369
20
-78.125
11
108.538
21
-77.0546
0
LINE
8
BLACK
6
CONTINUOUS
10
108.538
20
-77.0546
11
108.595
21
-76.76
0
LINE
8
BLACK
6
CONTINUOUS
10
108.595
20
-76.76
11
108.163
21
-76.76
0
LINE
8
BLACK
6
CONTINUOUS
10
169.625
20
-76.6938
11
169.695
21
-77.0546
0
LINE
8
BLACK
6
CONTINUOUS
10
169.695
20
-77.0546
11
169.864
21
-78.125
0
LINE
8
BLACK
6
CONTINUOUS
10
169.864
20
-78.125
11
169.996
21
-79.2008
0
LINE
8
BLACK
6
CONTINUOUS
10
169.996
20
-79.2008
11
170.065
21
-79.9841
0
LINE
8
BLACK
6
CONTINUOUS
10
170.065
20
-79.9841
11
170.065
21
-76.6938
0
LINE
8
BLACK
6
CONTINUOUS
10
170.065
20
-76.6938
11
169.625
21
-76.6938
0
LINE
8
BLACK
6
CONTINUOUS
10
166.228
20
-70.7242
11
166.228
21
-74.21
0
LINE
8
BLACK
6
CONTINUOUS
10
166.228
20
-74.21
11
167.04
21
-74.21
0
LINE
8
BLACK
6
CONTINUOUS
10
167.04
20
-74.21
11
167.04
21
-71.39
0
LINE
8
BLACK
6
CONTINUOUS
10
167.04
20
-71.39
11
167.047
21
-71.3724
0
LINE
8
BLACK
6
CONTINUOUS
10
167.047
20
-71.3724
11
167.055
21
-71.3547
0
LINE
8
BLACK
6
CONTINUOUS
10
167.055
20
-71.3547
11
167.055
21
-71.3547
0
LINE
8
BLACK
6
CONTINUOUS
10
167.055
20
-71.3547
11
167.055
21
-71.3546
0
LINE
8
BLACK
6
CONTINUOUS
10
167.055
20
-71.3546
11
167.072
21
-71.3473
0
LINE
8
BLACK
6
CONTINUOUS
10
167.072
20
-71.3473
11
167.09
21
-71.34
0
LINE
8
BLACK
6
CONTINUOUS
10
167.09
20
-71.34
11
168.005
21
-71.3387
0
LINE
8
BLACK
6
CONTINUOUS
10
168.005
20
-71.3387
11
167.817
21
-70.8504
0
LINE
8
BLACK
6
CONTINUOUS
10
167.817
20
-70.8504
11
167.764
21
-70.7242
0
LINE
8
BLACK
6
CONTINUOUS
10
167.764
20
-70.7242
11
166.228
21
-70.7242
0
LINE
8
BLACK
6
CONTINUOUS
10
167.867
20
-70.7242
11
167.905
21
-70.8148
0
LINE
8
BLACK
6
CONTINUOUS
10
167.905
20
-70.8148
11
168.106
21
-71.3385
0
LINE
8
BLACK
6
CONTINUOUS
10
168.106
20
-71.3385
11
170.243
21
-71.3355
0
LINE
8
BLACK
6
CONTINUOUS
10
170.243
20
-71.3355
11
170.243
21
-70.7242
0
LINE
8
BLACK
6
CONTINUOUS
10
170.243
20
-70.7242
11
167.867
21
-70.7242
0
LINE
8
BLACK
6
CONTINUOUS
10
139.004
20
-51.4934
11
138.036
21
-51.5103
0
LINE
8
BLACK
6
CONTINUOUS
10
138.036
20
-51.5103
11
136.957
21
-51.5668
0
LINE
8
BLACK
6
CONTINUOUS
10
136.957
20
-51.5668
11
135.881
21
-51.661
0
LINE
8
BLACK
6
CONTINUOUS
10
135.881
20
-51.661
11
134.808
21
-51.7927
0
LINE
8
BLACK
6
CONTINUOUS
10
134.808
20
-51.7927
11
133.741
21
-51.9617
0
LINE
8
BLACK
6
CONTINUOUS
10
133.741
20
-51.9617
11
133.41
21
-52.0261
0
LINE
8
BLACK
6
CONTINUOUS
10
133.41
20
-52.0261
11
133.41
21
-54.89
0
LINE
8
BLACK
6
CONTINUOUS
10
133.41
20
-54.89
11
144.81
21
-54.89
0
LINE
8
BLACK
6
CONTINUOUS
10
144.81
20
-54.89
11
144.81
21
-52.0236
0
LINE
8
BLACK
6
CONTINUOUS
10
144.81
20
-52.0236
11
144.492
21
-51.9617
0
LINE
8
BLACK
6
CONTINUOUS
10
144.492
20
-51.9617
11
143.424
21
-51.7927
0
LINE
8
BLACK
6
CONTINUOUS
10
143.424
20
-51.7927
11
142.352
21
-51.661
0
LINE
8
BLACK
6
CONTINUOUS
10
142.352
20
-51.661
11
141.276
21
-51.5668
0
LINE
8
BLACK
6
CONTINUOUS
10
141.276
20
-51.5668
11
140.197
21
-51.5103
0
LINE
8
BLACK
6
CONTINUOUS
10
140.197
20
-51.5103
11
139.229
21
-51.4934
0
LINE
8
BLACK
6
CONTINUOUS
10
139.229
20
-51.4934
11
139.004
21
-51.4934
0
LINE
8
BLACK
6
CONTINUOUS
10
133.41
20
-51.4934
11
133.41
21
-51.9292
0
LINE
8
BLACK
6
CONTINUOUS
10
133.41
20
-51.9292
11
133.725
21
-51.8681
0
LINE
8
BLACK
6
CONTINUOUS
10
133.725
20
-51.8681
11
134.795
21
-51.6985
0
LINE
8
BLACK
6
CONTINUOUS
10
134.795
20
-51.6985
11
135.871
21
-51.5665
0
LINE
8
BLACK
6
CONTINUOUS
10
135.871
20
-51.5665
11
136.706
21
-51.4934
0
LINE
8
BLACK
6
CONTINUOUS
10
136.706
20
-51.4934
11
133.41
21
-51.4934
0
LINE
8
BLACK
6
CONTINUOUS
10
141.527
20
-51.4934
11
142.362
21
-51.5665
0
LINE
8
BLACK
6
CONTINUOUS
10
142.362
20
-51.5665
11
143.438
21
-51.6985
0
LINE
8
BLACK
6
CONTINUOUS
10
143.438
20
-51.6985
11
144.508
21
-51.8681
0
LINE
8
BLACK
6
CONTINUOUS
10
144.508
20
-51.8681
11
144.81
21
-51.9268
0
LINE
8
BLACK
6
CONTINUOUS
10
144.81
20
-51.9268
11
144.81
21
-51.4934
0
LINE
8
BLACK
6
CONTINUOUS
10
144.81
20
-51.4934
11
141.527
21
-51.4934
0
LINE
8
BLACK
6
CONTINUOUS
10
140.23
20
-77.537
11
140.215
21
-77.5016
0
LINE
8
BLACK
6
CONTINUOUS
10
140.215
20
-77.5016
11
140.215
21
-71.2414
0
LINE
8
BLACK
6
CONTINUOUS
10
140.215
20
-71.2414
11
140.23
21
-71.206
0
LINE
8
BLACK
6
CONTINUOUS
10
140.23
20
-71.206
11
140.265
21
-71.1914
0
LINE
8
BLACK
6
CONTINUOUS
10
140.265
20
-71.1914
11
156.265
21
-71.1914
0
LINE
8
BLACK
6
CONTINUOUS
10
156.265
20
-71.1914
11
156.301
21
-71.206
0
LINE
8
BLACK
6
CONTINUOUS
10
156.301
20
-71.206
11
156.315
21
-71.2414
0
LINE
8
BLACK
6
CONTINUOUS
10
156.315
20
-71.2414
11
156.315
21
-77.5016
0
LINE
8
BLACK
6
CONTINUOUS
10
156.315
20
-77.5016
11
156.301
21
-77.537
0
LINE
8
BLACK
6
CONTINUOUS
10
156.301
20
-77.537
11
156.265
21
-77.5516
0
LINE
8
BLACK
6
CONTINUOUS
10
156.265
20
-77.5516
11
140.265
21
-77.5516
0
LINE
8
BLACK
6
CONTINUOUS
10
140.265
20
-77.5516
11
140.23
21
-77.537
0
LINE
8
BLACK
6
CONTINUOUS
10
140.315
20
-71.2914
11
140.315
21
-77.4516
0
LINE
8
BLACK
6
CONTINUOUS
10
140.315
20
-77.4516
11
156.215
21
-77.4516
0
LINE
8
BLACK
6
CONTINUOUS
10
156.215
20
-77.4516
11
156.215
21
-71.2914
0
LINE
8
BLACK
6
CONTINUOUS
10
156.215
20
-71.2914
11
140.315
21
-71.2914
  0
ENDSEC
  0
EOF
