  0
SECTION
  2
HEADER
  9
$ANGBASE
  50
0.0
  9
$ANGDIR
  70
1
  9
$MEASUREMENT
  70
1
  0
ENDSEC
  0
SECTION
  2
TABLES
  0
TABLE
  2
LTYPE
  70
4
  0
LTYPE
  5
40F
  2
CONTINUOUS
  70
0
  3
Solid line
  72
65
  73
0
  40
0.0
  0
LTYPE
  5
410
  2
DASHDOT
 70
0
  3
Dash Dot ____ _ ____ _
 72
65
 73
4
 40
2.0
 49
1.25
 49
-0.25
 49
0.25
 49
-0.25
  0
LTYPE
  5
411
  2
DASHED
 70
0
  3
Dashed __ __ __ __ __
 72
65
 73
2
 40
0.75
 49
0.5
 49
-0.25
  0
LTYPE
  5
43B
  2
DOTTED
 70
0
  3
Dotted .  .  .  .
 72
65
 73
2
 40
0.2
 49
0.0
 49
-0.2
  0
ENDTAB
  0
TABLE
  2
STYLE
  70
4
  0
STYLE
  2
KICAD
  70
0
  40
0
  41
1
  42
1
  50
0
  71
0
  3
isocp.shx
  0
STYLE
  2
KICADB
  70
0
  40
0
  41
1
  42
1
  50
0
  71
0
  3
isocp.shx
  0
STYLE
  2
KICADI
  70
0
  40
0
  41
1
  42
1
  50
15
  71
0
  3
isocp.shx
  0
STYLE
  2
KICADBI
  70
0
  40
0
  41
1
  42
1
  50
15
  71
0
  3
isocp.shx
  0
ENDTAB
  0
TABLE
  2
LAYER
  70
1
  0
LAYER
  2
BLACK
  70
0
  62
7
  6
CONTINUOUS
  0
ENDTAB
  0
ENDSEC
  0
SECTION
  2
ENTITIES
0
LINE
8
BLACK
6
CONTINUOUS
10
173.052
20
-75.9414
11
173.052
21
-76.6526
0
LINE
8
BLACK
6
CONTINUOUS
10
173.052
20
-76.6526
11
173.044
21
-76.6705
0
LINE
8
BLACK
6
CONTINUOUS
10
173.044
20
-76.6705
11
173.037
21
-76.6879
0
LINE
8
BLACK
6
CONTINUOUS
10
173.037
20
-76.6879
11
173.037
21
-76.6879
0
LINE
8
BLACK
6
CONTINUOUS
10
173.037
20
-76.6879
11
173.037
21
-76.688
0
LINE
8
BLACK
6
CONTINUOUS
10
173.037
20
-76.688
11
173.019
21
-76.6953
0
LINE
8
BLACK
6
CONTINUOUS
10
173.019
20
-76.6953
11
173.002
21
-76.7026
0
LINE
8
BLACK
6
CONTINUOUS
10
173.002
20
-76.7026
11
171.651
21
-76.7045
0
LINE
8
BLACK
6
CONTINUOUS
10
171.651
20
-76.7045
11
171.868
21
-77.1693
0
LINE
8
BLACK
6
CONTINUOUS
10
171.868
20
-77.1693
11
172.292
21
-78.1669
0
LINE
8
BLACK
6
CONTINUOUS
10
172.292
20
-78.1669
11
172.68
21
-79.1787
0
LINE
8
BLACK
6
CONTINUOUS
10
172.68
20
-79.1787
11
173.033
21
-80.2035
0
LINE
8
BLACK
6
CONTINUOUS
10
173.033
20
-80.2035
11
173.35
21
-81.2399
0
LINE
8
BLACK
6
CONTINUOUS
10
173.35
20
-81.2399
11
173.63
21
-82.2868
0
LINE
8
BLACK
6
CONTINUOUS
10
173.63
20
-82.2868
11
173.874
21
-83.3428
0
LINE
8
BLACK
6
CONTINUOUS
10
173.874
20
-83.3428
11
174.002
21
-83.9984
0
LINE
8
BLACK
6
CONTINUOUS
10
174.002
20
-83.9984
11
174.503
21
-83.9984
0
LINE
8
BLACK
6
CONTINUOUS
10
174.503
20
-83.9984
11
174.538
21
-84.0131
0
LINE
8
BLACK
6
CONTINUOUS
10
174.538
20
-84.0131
11
174.553
21
-84.0484
0
LINE
8
BLACK
6
CONTINUOUS
10
174.553
20
-84.0484
11
174.553
21
-95.5484
0
LINE
8
BLACK
6
CONTINUOUS
10
174.553
20
-95.5484
11
174.538
21
-95.5838
0
LINE
8
BLACK
6
CONTINUOUS
10
174.538
20
-95.5838
11
174.503
21
-95.5984
0
LINE
8
BLACK
6
CONTINUOUS
10
174.503
20
-95.5984
11
174.002
21
-95.5984
0
LINE
8
BLACK
6
CONTINUOUS
10
174.002
20
-95.5984
11
173.874
21
-96.2541
0
LINE
8
BLACK
6
CONTINUOUS
10
173.874
20
-96.2541
11
173.63
21
-97.3101
0
LINE
8
BLACK
6
CONTINUOUS
10
173.63
20
-97.3101
11
173.35
21
-98.357
0
LINE
8
BLACK
6
CONTINUOUS
10
173.35
20
-98.357
11
173.033
21
-99.3934
0
LINE
8
BLACK
6
CONTINUOUS
10
173.033
20
-99.3934
11
172.68
21
-100.418
0
LINE
8
BLACK
6
CONTINUOUS
10
172.68
20
-100.418
11
172.292
21
-101.43
0
LINE
8
BLACK
6
CONTINUOUS
10
172.292
20
-101.43
11
171.868
21
-102.428
0
LINE
8
BLACK
6
CONTINUOUS
10
171.868
20
-102.428
11
171.41
21
-103.41
0
LINE
8
BLACK
6
CONTINUOUS
10
171.41
20
-103.41
11
170.918
21
-104.376
0
LINE
8
BLACK
6
CONTINUOUS
10
170.918
20
-104.376
11
170.393
21
-105.323
0
LINE
8
BLACK
6
CONTINUOUS
10
170.393
20
-105.323
11
169.834
21
-106.252
0
LINE
8
BLACK
6
CONTINUOUS
10
169.834
20
-106.252
11
169.244
21
-107.161
0
LINE
8
BLACK
6
CONTINUOUS
10
169.244
20
-107.161
11
168.623
21
-108.049
0
LINE
8
BLACK
6
CONTINUOUS
10
168.623
20
-108.049
11
167.97
21
-108.915
0
LINE
8
BLACK
6
CONTINUOUS
10
167.97
20
-108.915
11
167.288
21
-109.757
0
LINE
8
BLACK
6
CONTINUOUS
10
167.288
20
-109.757
11
166.577
21
-110.575
0
LINE
8
BLACK
6
CONTINUOUS
10
166.577
20
-110.575
11
165.838
21
-111.368
0
LINE
8
BLACK
6
CONTINUOUS
10
165.838
20
-111.368
11
165.072
21
-112.134
0
LINE
8
BLACK
6
CONTINUOUS
10
165.072
20
-112.134
11
164.279
21
-112.873
0
LINE
8
BLACK
6
CONTINUOUS
10
164.279
20
-112.873
11
163.461
21
-113.584
0
LINE
8
BLACK
6
CONTINUOUS
10
163.461
20
-113.584
11
162.619
21
-114.266
0
LINE
8
BLACK
6
CONTINUOUS
10
162.619
20
-114.266
11
161.753
21
-114.918
0
LINE
8
BLACK
6
CONTINUOUS
10
161.753
20
-114.918
11
160.866
21
-115.54
0
LINE
8
BLACK
6
CONTINUOUS
10
160.866
20
-115.54
11
159.957
21
-116.13
0
LINE
8
BLACK
6
CONTINUOUS
10
159.957
20
-116.13
11
159.028
21
-116.689
0
LINE
8
BLACK
6
CONTINUOUS
10
159.028
20
-116.689
11
158.08
21
-117.214
0
LINE
8
BLACK
6
CONTINUOUS
10
158.08
20
-117.214
11
157.114
21
-117.706
0
LINE
8
BLACK
6
CONTINUOUS
10
157.114
20
-117.706
11
156.132
21
-118.164
0
LINE
8
BLACK
6
CONTINUOUS
10
156.132
20
-118.164
11
155.134
21
-118.587
0
LINE
8
BLACK
6
CONTINUOUS
10
155.134
20
-118.587
11
154.122
21
-118.976
0
LINE
8
BLACK
6
CONTINUOUS
10
154.122
20
-118.976
11
153.098
21
-119.329
0
LINE
8
BLACK
6
CONTINUOUS
10
153.098
20
-119.329
11
152.061
21
-119.646
0
LINE
8
BLACK
6
CONTINUOUS
10
152.061
20
-119.646
11
151.014
21
-119.926
0
LINE
8
BLACK
6
CONTINUOUS
10
151.014
20
-119.926
11
149.958
21
-120.17
0
LINE
8
BLACK
6
CONTINUOUS
10
149.958
20
-120.17
11
148.894
21
-120.377
0
LINE
8
BLACK
6
CONTINUOUS
10
148.894
20
-120.377
11
147.824
21
-120.546
0
LINE
8
BLACK
6
CONTINUOUS
10
147.824
20
-120.546
11
146.748
21
-120.678
0
LINE
8
BLACK
6
CONTINUOUS
10
146.748
20
-120.678
11
145.669
21
-120.773
0
LINE
8
BLACK
6
CONTINUOUS
10
145.669
20
-120.773
11
144.586
21
-120.83
0
LINE
8
BLACK
6
CONTINUOUS
10
144.586
20
-120.83
11
143.503
21
-120.848
0
LINE
8
BLACK
6
CONTINUOUS
10
143.503
20
-120.848
11
142.419
21
-120.83
0
LINE
8
BLACK
6
CONTINUOUS
10
142.419
20
-120.83
11
141.337
21
-120.773
0
LINE
8
BLACK
6
CONTINUOUS
10
141.337
20
-120.773
11
140.257
21
-120.678
0
LINE
8
BLACK
6
CONTINUOUS
10
140.257
20
-120.678
11
139.181
21
-120.546
0
LINE
8
BLACK
6
CONTINUOUS
10
139.181
20
-120.546
11
138.111
21
-120.377
0
LINE
8
BLACK
6
CONTINUOUS
10
138.111
20
-120.377
11
137.047
21
-120.17
0
LINE
8
BLACK
6
CONTINUOUS
10
137.047
20
-120.17
11
135.991
21
-119.926
0
LINE
8
BLACK
6
CONTINUOUS
10
135.991
20
-119.926
11
134.944
21
-119.646
0
LINE
8
BLACK
6
CONTINUOUS
10
134.944
20
-119.646
11
133.908
21
-119.329
0
LINE
8
BLACK
6
CONTINUOUS
10
133.908
20
-119.329
11
132.883
21
-118.976
0
LINE
8
BLACK
6
CONTINUOUS
10
132.883
20
-118.976
11
131.871
21
-118.587
0
LINE
8
BLACK
6
CONTINUOUS
10
131.871
20
-118.587
11
130.873
21
-118.164
0
LINE
8
BLACK
6
CONTINUOUS
10
130.873
20
-118.164
11
129.891
21
-117.706
0
LINE
8
BLACK
6
CONTINUOUS
10
129.891
20
-117.706
11
128.926
21
-117.214
0
LINE
8
BLACK
6
CONTINUOUS
10
128.926
20
-117.214
11
127.978
21
-116.689
0
LINE
8
BLACK
6
CONTINUOUS
10
127.978
20
-116.689
11
127.049
21
-116.13
0
LINE
8
BLACK
6
CONTINUOUS
10
127.049
20
-116.13
11
126.14
21
-115.54
0
LINE
8
BLACK
6
CONTINUOUS
10
126.14
20
-115.54
11
125.252
21
-114.918
0
LINE
8
BLACK
6
CONTINUOUS
10
125.252
20
-114.918
11
124.386
21
-114.266
0
LINE
8
BLACK
6
CONTINUOUS
10
124.386
20
-114.266
11
123.544
21
-113.584
0
LINE
8
BLACK
6
CONTINUOUS
10
123.544
20
-113.584
11
122.726
21
-112.873
0
LINE
8
BLACK
6
CONTINUOUS
10
122.726
20
-112.873
11
121.933
21
-112.134
0
LINE
8
BLACK
6
CONTINUOUS
10
121.933
20
-112.134
11
121.167
21
-111.368
0
LINE
8
BLACK
6
CONTINUOUS
10
121.167
20
-111.368
11
120.428
21
-110.575
0
LINE
8
BLACK
6
CONTINUOUS
10
120.428
20
-110.575
11
119.717
21
-109.757
0
LINE
8
BLACK
6
CONTINUOUS
10
119.717
20
-109.757
11
119.035
21
-108.915
0
LINE
8
BLACK
6
CONTINUOUS
10
119.035
20
-108.915
11
118.383
21
-108.049
0
LINE
8
BLACK
6
CONTINUOUS
10
118.383
20
-108.049
11
117.761
21
-107.161
0
LINE
8
BLACK
6
CONTINUOUS
10
117.761
20
-107.161
11
117.171
21
-106.252
0
LINE
8
BLACK
6
CONTINUOUS
10
117.171
20
-106.252
11
116.613
21
-105.323
0
LINE
8
BLACK
6
CONTINUOUS
10
116.613
20
-105.323
11
116.087
21
-104.376
0
LINE
8
BLACK
6
CONTINUOUS
10
116.087
20
-104.376
11
115.595
21
-103.41
0
LINE
8
BLACK
6
CONTINUOUS
10
115.595
20
-103.41
11
115.137
21
-102.428
0
LINE
8
BLACK
6
CONTINUOUS
10
115.137
20
-102.428
11
114.714
21
-101.43
0
LINE
8
BLACK
6
CONTINUOUS
10
114.714
20
-101.43
11
114.325
21
-100.418
0
LINE
8
BLACK
6
CONTINUOUS
10
114.325
20
-100.418
11
113.972
21
-99.3934
0
LINE
8
BLACK
6
CONTINUOUS
10
113.972
20
-99.3934
11
113.655
21
-98.357
0
LINE
8
BLACK
6
CONTINUOUS
10
113.655
20
-98.357
11
113.375
21
-97.3101
0
LINE
8
BLACK
6
CONTINUOUS
10
113.375
20
-97.3101
11
113.131
21
-96.2541
0
LINE
8
BLACK
6
CONTINUOUS
10
113.131
20
-96.2541
11
113.004
21
-95.5984
0
LINE
8
BLACK
6
CONTINUOUS
10
113.004
20
-95.5984
11
112.503
21
-95.5984
0
LINE
8
BLACK
6
CONTINUOUS
10
112.503
20
-95.5984
11
112.467
21
-95.5838
0
LINE
8
BLACK
6
CONTINUOUS
10
112.467
20
-95.5838
11
112.453
21
-95.5484
0
LINE
8
BLACK
6
CONTINUOUS
10
112.453
20
-95.5484
11
112.453
21
-84.0484
0
LINE
8
BLACK
6
CONTINUOUS
10
112.453
20
-84.0484
11
112.467
21
-84.0131
0
LINE
8
BLACK
6
CONTINUOUS
10
112.467
20
-84.0131
11
112.503
21
-83.9984
0
LINE
8
BLACK
6
CONTINUOUS
10
112.503
20
-83.9984
11
113.004
21
-83.9984
0
LINE
8
BLACK
6
CONTINUOUS
10
113.004
20
-83.9984
11
113.131
21
-83.3428
0
LINE
8
BLACK
6
CONTINUOUS
10
113.131
20
-83.3428
11
113.375
21
-82.2868
0
LINE
8
BLACK
6
CONTINUOUS
10
113.375
20
-82.2868
11
113.655
21
-81.2399
0
LINE
8
BLACK
6
CONTINUOUS
10
113.655
20
-81.2399
11
113.972
21
-80.2035
0
LINE
8
BLACK
6
CONTINUOUS
10
113.972
20
-80.2035
11
114.325
21
-79.1787
0
LINE
8
BLACK
6
CONTINUOUS
10
114.325
20
-79.1787
11
114.714
21
-78.1669
0
LINE
8
BLACK
6
CONTINUOUS
10
114.714
20
-78.1669
11
115.137
21
-77.1693
0
LINE
8
BLACK
6
CONTINUOUS
10
115.137
20
-77.1693
11
115.595
21
-76.187
0
LINE
8
BLACK
6
CONTINUOUS
10
115.595
20
-76.187
11
116.087
21
-75.2213
0
LINE
8
BLACK
6
CONTINUOUS
10
116.087
20
-75.2213
11
116.613
21
-74.2734
0
LINE
8
BLACK
6
CONTINUOUS
10
116.613
20
-74.2734
11
117.171
21
-73.3444
0
LINE
8
BLACK
6
CONTINUOUS
10
117.171
20
-73.3444
11
117.761
21
-72.4355
0
LINE
8
BLACK
6
CONTINUOUS
10
117.761
20
-72.4355
11
118.383
21
-71.5477
0
LINE
8
BLACK
6
CONTINUOUS
10
118.383
20
-71.5477
11
119.035
21
-70.6821
0
LINE
8
BLACK
6
CONTINUOUS
10
119.035
20
-70.6821
11
119.717
21
-69.8399
0
LINE
8
BLACK
6
CONTINUOUS
10
119.717
20
-69.8399
11
120.428
21
-69.0219
0
LINE
8
BLACK
6
CONTINUOUS
10
120.428
20
-69.0219
11
121.167
21
-68.2293
0
LINE
8
BLACK
6
CONTINUOUS
10
121.167
20
-68.2293
11
121.933
21
-67.4629
0
LINE
8
BLACK
6
CONTINUOUS
10
121.933
20
-67.4629
11
122.726
21
-66.7238
0
LINE
8
BLACK
6
CONTINUOUS
10
122.726
20
-66.7238
11
123.544
21
-66.0127
0
LINE
8
BLACK
6
CONTINUOUS
10
123.544
20
-66.0127
11
124.386
21
-65.3307
0
LINE
8
BLACK
6
CONTINUOUS
10
124.386
20
-65.3307
11
125.252
21
-64.6785
0
LINE
8
BLACK
6
CONTINUOUS
10
125.252
20
-64.6785
11
126.14
21
-64.0568
0
LINE
8
BLACK
6
CONTINUOUS
10
126.14
20
-64.0568
11
127.049
21
-63.4665
0
LINE
8
BLACK
6
CONTINUOUS
10
127.049
20
-63.4665
11
127.978
21
-62.9083
0
LINE
8
BLACK
6
CONTINUOUS
10
127.978
20
-62.9083
11
128.926
21
-62.3829
0
LINE
8
BLACK
6
CONTINUOUS
10
128.926
20
-62.3829
11
129.891
21
-61.8909
0
LINE
8
BLACK
6
CONTINUOUS
10
129.891
20
-61.8909
11
130.873
21
-61.4328
0
LINE
8
BLACK
6
CONTINUOUS
10
130.873
20
-61.4328
11
131.871
21
-61.0094
0
LINE
8
BLACK
6
CONTINUOUS
10
131.871
20
-61.0094
11
132.883
21
-60.621
0
LINE
8
BLACK
6
CONTINUOUS
10
132.883
20
-60.621
11
133.908
21
-60.2681
0
LINE
8
BLACK
6
CONTINUOUS
10
133.908
20
-60.2681
11
134.944
21
-59.9513
0
LINE
8
BLACK
6
CONTINUOUS
10
134.944
20
-59.9513
11
135.991
21
-59.6707
0
LINE
8
BLACK
6
CONTINUOUS
10
135.991
20
-59.6707
11
137.047
21
-59.4269
0
LINE
8
BLACK
6
CONTINUOUS
10
137.047
20
-59.4269
11
137.703
21
-59.2995
0
LINE
8
BLACK
6
CONTINUOUS
10
137.703
20
-59.2995
11
137.703
21
-58.7984
0
LINE
8
BLACK
6
CONTINUOUS
10
137.703
20
-58.7984
11
137.717
21
-58.7631
0
LINE
8
BLACK
6
CONTINUOUS
10
137.717
20
-58.7631
11
137.753
21
-58.7484
0
LINE
8
BLACK
6
CONTINUOUS
10
137.753
20
-58.7484
11
149.253
21
-58.7484
0
LINE
8
BLACK
6
CONTINUOUS
10
149.253
20
-58.7484
11
149.288
21
-58.7631
0
LINE
8
BLACK
6
CONTINUOUS
10
149.288
20
-58.7631
11
149.303
21
-58.7984
0
LINE
8
BLACK
6
CONTINUOUS
10
149.303
20
-58.7984
11
149.303
21
-59.2995
0
LINE
8
BLACK
6
CONTINUOUS
10
149.303
20
-59.2995
11
149.958
21
-59.4269
0
LINE
8
BLACK
6
CONTINUOUS
10
149.958
20
-59.4269
11
151.014
21
-59.6707
0
LINE
8
BLACK
6
CONTINUOUS
10
151.014
20
-59.6707
11
152.061
21
-59.9513
0
LINE
8
BLACK
6
CONTINUOUS
10
152.061
20
-59.9513
11
153.098
21
-60.2681
0
LINE
8
BLACK
6
CONTINUOUS
10
153.098
20
-60.2681
11
154.122
21
-60.621
0
LINE
8
BLACK
6
CONTINUOUS
10
154.122
20
-60.621
11
155.134
21
-61.0094
0
LINE
8
BLACK
6
CONTINUOUS
10
155.134
20
-61.0094
11
156.132
21
-61.4328
0
LINE
8
BLACK
6
CONTINUOUS
10
156.132
20
-61.4328
11
157.114
21
-61.8909
0
LINE
8
BLACK
6
CONTINUOUS
10
157.114
20
-61.8909
11
158.08
21
-62.3829
0
LINE
8
BLACK
6
CONTINUOUS
10
158.08
20
-62.3829
11
159.028
21
-62.9083
0
LINE
8
BLACK
6
CONTINUOUS
10
159.028
20
-62.9083
11
159.957
21
-63.4665
0
LINE
8
BLACK
6
CONTINUOUS
10
159.957
20
-63.4665
11
160.866
21
-64.0568
0
LINE
8
BLACK
6
CONTINUOUS
10
160.866
20
-64.0568
11
161.753
21
-64.6785
0
LINE
8
BLACK
6
CONTINUOUS
10
161.753
20
-64.6785
11
162.619
21
-65.3307
0
LINE
8
BLACK
6
CONTINUOUS
10
162.619
20
-65.3307
11
163.461
21
-66.0127
0
LINE
8
BLACK
6
CONTINUOUS
10
163.461
20
-66.0127
11
164.279
21
-66.7238
0
LINE
8
BLACK
6
CONTINUOUS
10
164.279
20
-66.7238
11
165.072
21
-67.4629
0
LINE
8
BLACK
6
CONTINUOUS
10
165.072
20
-67.4629
11
165.838
21
-68.2293
0
LINE
8
BLACK
6
CONTINUOUS
10
165.838
20
-68.2293
11
166.577
21
-69.0219
0
LINE
8
BLACK
6
CONTINUOUS
10
166.577
20
-69.0219
11
167.288
21
-69.8399
0
LINE
8
BLACK
6
CONTINUOUS
10
167.288
20
-69.8399
11
167.97
21
-70.6821
0
LINE
8
BLACK
6
CONTINUOUS
10
167.97
20
-70.6821
11
168.623
21
-71.5477
0
LINE
8
BLACK
6
CONTINUOUS
10
168.623
20
-71.5477
11
169.244
21
-72.4355
0
LINE
8
BLACK
6
CONTINUOUS
10
169.244
20
-72.4355
11
169.834
21
-73.3444
0
LINE
8
BLACK
6
CONTINUOUS
10
169.834
20
-73.3444
11
170.393
21
-74.2734
0
LINE
8
BLACK
6
CONTINUOUS
10
170.393
20
-74.2734
11
170.918
21
-75.2213
0
LINE
8
BLACK
6
CONTINUOUS
10
170.918
20
-75.2213
11
171.26
21
-75.8914
0
LINE
8
BLACK
6
CONTINUOUS
10
171.26
20
-75.8914
11
173.002
21
-75.8914
0
LINE
8
BLACK
6
CONTINUOUS
10
173.002
20
-75.8914
11
173.037
21
-75.906
0
LINE
8
BLACK
6
CONTINUOUS
10
173.037
20
-75.906
11
173.052
21
-75.9414
0
LINE
8
BLACK
6
CONTINUOUS
10
137.717
20
-62.3304
11
137.703
21
-62.295
0
LINE
8
BLACK
6
CONTINUOUS
10
137.703
20
-62.295
11
137.703
21
-59.3963
0
LINE
8
BLACK
6
CONTINUOUS
10
137.703
20
-59.3963
11
137.067
21
-59.5199
0
LINE
8
BLACK
6
CONTINUOUS
10
137.067
20
-59.5199
11
136.014
21
-59.763
0
LINE
8
BLACK
6
CONTINUOUS
10
136.014
20
-59.763
11
134.97
21
-60.0426
0
LINE
8
BLACK
6
CONTINUOUS
10
134.97
20
-60.0426
11
133.937
21
-60.3585
0
LINE
8
BLACK
6
CONTINUOUS
10
133.937
20
-60.3585
11
132.915
21
-60.7103
0
LINE
8
BLACK
6
CONTINUOUS
10
132.915
20
-60.7103
11
131.907
21
-61.0975
0
LINE
8
BLACK
6
CONTINUOUS
10
131.907
20
-61.0975
11
130.912
21
-61.5197
0
LINE
8
BLACK
6
CONTINUOUS
10
130.912
20
-61.5197
11
129.933
21
-61.9763
0
LINE
8
BLACK
6
CONTINUOUS
10
129.933
20
-61.9763
11
128.97
21
-62.4668
0
LINE
8
BLACK
6
CONTINUOUS
10
128.97
20
-62.4668
11
128.025
21
-62.9907
0
LINE
8
BLACK
6
CONTINUOUS
10
128.025
20
-62.9907
11
127.099
21
-63.5472
0
LINE
8
BLACK
6
CONTINUOUS
10
127.099
20
-63.5472
11
126.193
21
-64.1356
0
LINE
8
BLACK
6
CONTINUOUS
10
126.193
20
-64.1356
11
125.308
21
-64.7554
0
LINE
8
BLACK
6
CONTINUOUS
10
125.308
20
-64.7554
11
124.445
21
-65.4056
0
LINE
8
BLACK
6
CONTINUOUS
10
124.445
20
-65.4056
11
123.605
21
-66.0856
0
LINE
8
BLACK
6
CONTINUOUS
10
123.605
20
-66.0856
11
122.79
21
-66.7944
0
LINE
8
BLACK
6
CONTINUOUS
10
122.79
20
-66.7944
11
121.999
21
-67.5313
0
LINE
8
BLACK
6
CONTINUOUS
10
121.999
20
-67.5313
11
121.235
21
-68.2953
0
LINE
8
BLACK
6
CONTINUOUS
10
121.235
20
-68.2953
11
120.499
21
-69.0855
0
LINE
8
BLACK
6
CONTINUOUS
10
120.499
20
-69.0855
11
119.79
21
-69.901
0
LINE
8
BLACK
6
CONTINUOUS
10
119.79
20
-69.901
11
119.11
21
-70.7407
0
LINE
8
BLACK
6
CONTINUOUS
10
119.11
20
-70.7407
11
118.46
21
-71.6036
0
LINE
8
BLACK
6
CONTINUOUS
10
118.46
20
-71.6036
11
117.84
21
-72.4887
0
LINE
8
BLACK
6
CONTINUOUS
10
117.84
20
-72.4887
11
117.251
21
-73.3948
0
LINE
8
BLACK
6
CONTINUOUS
10
117.251
20
-73.3948
11
116.695
21
-74.321
0
LINE
8
BLACK
6
CONTINUOUS
10
116.695
20
-74.321
11
116.171
21
-75.266
0
LINE
8
BLACK
6
CONTINUOUS
10
116.171
20
-75.266
11
115.68
21
-76.2287
0
LINE
8
BLACK
6
CONTINUOUS
10
115.68
20
-76.2287
11
115.224
21
-77.2079
0
LINE
8
BLACK
6
CONTINUOUS
10
115.224
20
-77.2079
11
114.802
21
-78.2025
0
LINE
8
BLACK
6
CONTINUOUS
10
114.802
20
-78.2025
11
114.414
21
-79.2112
0
LINE
8
BLACK
6
CONTINUOUS
10
114.414
20
-79.2112
11
114.063
21
-80.2328
0
LINE
8
BLACK
6
CONTINUOUS
10
114.063
20
-80.2328
11
113.747
21
-81.2661
0
LINE
8
BLACK
6
CONTINUOUS
10
113.747
20
-81.2661
11
113.467
21
-82.3098
0
LINE
8
BLACK
6
CONTINUOUS
10
113.467
20
-82.3098
11
113.224
21
-83.3625
0
LINE
8
BLACK
6
CONTINUOUS
10
113.224
20
-83.3625
11
113.1
21
-83.9984
0
LINE
8
BLACK
6
CONTINUOUS
10
113.1
20
-83.9984
11
115.119
21
-83.9984
0
LINE
8
BLACK
6
CONTINUOUS
10
115.119
20
-83.9984
11
115.155
21
-84.0131
0
LINE
8
BLACK
6
CONTINUOUS
10
115.155
20
-84.0131
11
115.169
21
-84.0484
0
LINE
8
BLACK
6
CONTINUOUS
10
115.169
20
-84.0484
11
115.169
21
-95.5484
0
LINE
8
BLACK
6
CONTINUOUS
10
115.169
20
-95.5484
11
115.155
21
-95.5838
0
LINE
8
BLACK
6
CONTINUOUS
10
115.155
20
-95.5838
11
115.119
21
-95.5984
0
LINE
8
BLACK
6
CONTINUOUS
10
115.119
20
-95.5984
11
113.1
21
-95.5984
0
LINE
8
BLACK
6
CONTINUOUS
10
113.1
20
-95.5984
11
113.224
21
-96.2343
0
LINE
8
BLACK
6
CONTINUOUS
10
113.224
20
-96.2343
11
113.467
21
-97.2871
0
LINE
8
BLACK
6
CONTINUOUS
10
113.467
20
-97.2871
11
113.747
21
-98.3308
0
LINE
8
BLACK
6
CONTINUOUS
10
113.747
20
-98.3308
11
114.063
21
-99.364
0
LINE
8
BLACK
6
CONTINUOUS
10
114.063
20
-99.364
11
114.414
21
-100.386
0
LINE
8
BLACK
6
CONTINUOUS
10
114.414
20
-100.386
11
114.802
21
-101.394
0
LINE
8
BLACK
6
CONTINUOUS
10
114.802
20
-101.394
11
115.224
21
-102.389
0
LINE
8
BLACK
6
CONTINUOUS
10
115.224
20
-102.389
11
115.68
21
-103.368
0
LINE
8
BLACK
6
CONTINUOUS
10
115.68
20
-103.368
11
116.171
21
-104.331
0
LINE
8
BLACK
6
CONTINUOUS
10
116.171
20
-104.331
11
116.695
21
-105.276
0
LINE
8
BLACK
6
CONTINUOUS
10
116.695
20
-105.276
11
117.251
21
-106.202
0
LINE
8
BLACK
6
CONTINUOUS
10
117.251
20
-106.202
11
117.84
21
-107.108
0
LINE
8
BLACK
6
CONTINUOUS
10
117.84
20
-107.108
11
118.46
21
-107.993
0
LINE
8
BLACK
6
CONTINUOUS
10
118.46
20
-107.993
11
119.11
21
-108.856
0
LINE
8
BLACK
6
CONTINUOUS
10
119.11
20
-108.856
11
119.79
21
-109.696
0
LINE
8
BLACK
6
CONTINUOUS
10
119.79
20
-109.696
11
120.499
21
-110.511
0
LINE
8
BLACK
6
CONTINUOUS
10
120.499
20
-110.511
11
121.235
21
-111.302
0
LINE
8
BLACK
6
CONTINUOUS
10
121.235
20
-111.302
11
121.999
21
-112.066
0
LINE
8
BLACK
6
CONTINUOUS
10
121.999
20
-112.066
11
122.79
21
-112.802
0
LINE
8
BLACK
6
CONTINUOUS
10
122.79
20
-112.802
11
123.605
21
-113.511
0
LINE
8
BLACK
6
CONTINUOUS
10
123.605
20
-113.511
11
124.445
21
-114.191
0
LINE
8
BLACK
6
CONTINUOUS
10
124.445
20
-114.191
11
125.308
21
-114.841
0
LINE
8
BLACK
6
CONTINUOUS
10
125.308
20
-114.841
11
126.193
21
-115.461
0
LINE
8
BLACK
6
CONTINUOUS
10
126.193
20
-115.461
11
127.099
21
-116.05
0
LINE
8
BLACK
6
CONTINUOUS
10
127.099
20
-116.05
11
128.025
21
-116.606
0
LINE
8
BLACK
6
CONTINUOUS
10
128.025
20
-116.606
11
128.97
21
-117.13
0
LINE
8
BLACK
6
CONTINUOUS
10
128.97
20
-117.13
11
129.933
21
-117.621
0
LINE
8
BLACK
6
CONTINUOUS
10
129.933
20
-117.621
11
130.912
21
-118.077
0
LINE
8
BLACK
6
CONTINUOUS
10
130.912
20
-118.077
11
131.907
21
-118.499
0
LINE
8
BLACK
6
CONTINUOUS
10
131.907
20
-118.499
11
132.915
21
-118.887
0
LINE
8
BLACK
6
CONTINUOUS
10
132.915
20
-118.887
11
133.937
21
-119.238
0
LINE
8
BLACK
6
CONTINUOUS
10
133.937
20
-119.238
11
134.97
21
-119.554
0
LINE
8
BLACK
6
CONTINUOUS
10
134.97
20
-119.554
11
136.014
21
-119.834
0
LINE
8
BLACK
6
CONTINUOUS
10
136.014
20
-119.834
11
137.067
21
-120.077
0
LINE
8
BLACK
6
CONTINUOUS
10
137.067
20
-120.077
11
138.127
21
-120.283
0
LINE
8
BLACK
6
CONTINUOUS
10
138.127
20
-120.283
11
139.195
21
-120.452
0
LINE
8
BLACK
6
CONTINUOUS
10
139.195
20
-120.452
11
140.267
21
-120.584
0
LINE
8
BLACK
6
CONTINUOUS
10
140.267
20
-120.584
11
141.343
21
-120.678
0
LINE
8
BLACK
6
CONTINUOUS
10
141.343
20
-120.678
11
142.422
21
-120.735
0
LINE
8
BLACK
6
CONTINUOUS
10
142.422
20
-120.735
11
143.503
21
-120.753
0
LINE
8
BLACK
6
CONTINUOUS
10
143.503
20
-120.753
11
144.583
21
-120.735
0
LINE
8
BLACK
6
CONTINUOUS
10
144.583
20
-120.735
11
145.662
21
-120.678
0
LINE
8
BLACK
6
CONTINUOUS
10
145.662
20
-120.678
11
146.738
21
-120.584
0
LINE
8
BLACK
6
CONTINUOUS
10
146.738
20
-120.584
11
147.811
21
-120.452
0
LINE
8
BLACK
6
CONTINUOUS
10
147.811
20
-120.452
11
148.878
21
-120.283
0
LINE
8
BLACK
6
CONTINUOUS
10
148.878
20
-120.283
11
149.938
21
-120.077
0
LINE
8
BLACK
6
CONTINUOUS
10
149.938
20
-120.077
11
150.991
21
-119.834
0
LINE
8
BLACK
6
CONTINUOUS
10
150.991
20
-119.834
11
152.035
21
-119.554
0
LINE
8
BLACK
6
CONTINUOUS
10
152.035
20
-119.554
11
153.068
21
-119.238
0
LINE
8
BLACK
6
CONTINUOUS
10
153.068
20
-119.238
11
154.09
21
-118.887
0
LINE
8
BLACK
6
CONTINUOUS
10
154.09
20
-118.887
11
155.099
21
-118.499
0
LINE
8
BLACK
6
CONTINUOUS
10
155.099
20
-118.499
11
156.093
21
-118.077
0
LINE
8
BLACK
6
CONTINUOUS
10
156.093
20
-118.077
11
157.072
21
-117.621
0
LINE
8
BLACK
6
CONTINUOUS
10
157.072
20
-117.621
11
158.035
21
-117.13
0
LINE
8
BLACK
6
CONTINUOUS
10
158.035
20
-117.13
11
158.98
21
-116.606
0
LINE
8
BLACK
6
CONTINUOUS
10
158.98
20
-116.606
11
159.906
21
-116.05
0
LINE
8
BLACK
6
CONTINUOUS
10
159.906
20
-116.05
11
160.812
21
-115.461
0
LINE
8
BLACK
6
CONTINUOUS
10
160.812
20
-115.461
11
161.697
21
-114.841
0
LINE
8
BLACK
6
CONTINUOUS
10
161.697
20
-114.841
11
162.56
21
-114.191
0
LINE
8
BLACK
6
CONTINUOUS
10
162.56
20
-114.191
11
163.4
21
-113.511
0
LINE
8
BLACK
6
CONTINUOUS
10
163.4
20
-113.511
11
164.215
21
-112.802
0
LINE
8
BLACK
6
CONTINUOUS
10
164.215
20
-112.802
11
165.006
21
-112.066
0
LINE
8
BLACK
6
CONTINUOUS
10
165.006
20
-112.066
11
165.77
21
-111.302
0
LINE
8
BLACK
6
CONTINUOUS
10
165.77
20
-111.302
11
166.507
21
-110.511
0
LINE
8
BLACK
6
CONTINUOUS
10
166.507
20
-110.511
11
167.215
21
-109.696
0
LINE
8
BLACK
6
CONTINUOUS
10
167.215
20
-109.696
11
167.895
21
-108.856
0
LINE
8
BLACK
6
CONTINUOUS
10
167.895
20
-108.856
11
168.546
21
-107.993
0
LINE
8
BLACK
6
CONTINUOUS
10
168.546
20
-107.993
11
169.165
21
-107.108
0
LINE
8
BLACK
6
CONTINUOUS
10
169.165
20
-107.108
11
169.754
21
-106.202
0
LINE
8
BLACK
6
CONTINUOUS
10
169.754
20
-106.202
11
170.31
21
-105.276
0
LINE
8
BLACK
6
CONTINUOUS
10
170.31
20
-105.276
11
170.834
21
-104.331
0
LINE
8
BLACK
6
CONTINUOUS
10
170.834
20
-104.331
11
171.325
21
-103.368
0
LINE
8
BLACK
6
CONTINUOUS
10
171.325
20
-103.368
11
171.781
21
-102.389
0
LINE
8
BLACK
6
CONTINUOUS
10
171.781
20
-102.389
11
172.204
21
-101.394
0
LINE
8
BLACK
6
CONTINUOUS
10
172.204
20
-101.394
11
172.591
21
-100.386
0
LINE
8
BLACK
6
CONTINUOUS
10
172.591
20
-100.386
11
172.942
21
-99.364
0
LINE
8
BLACK
6
CONTINUOUS
10
172.942
20
-99.364
11
173.258
21
-98.3308
0
LINE
8
BLACK
6
CONTINUOUS
10
173.258
20
-98.3308
11
173.538
21
-97.2871
0
LINE
8
BLACK
6
CONTINUOUS
10
173.538
20
-97.2871
11
173.781
21
-96.2343
0
LINE
8
BLACK
6
CONTINUOUS
10
173.781
20
-96.2343
11
173.905
21
-95.5984
0
LINE
8
BLACK
6
CONTINUOUS
10
173.905
20
-95.5984
11
171.886
21
-95.5984
0
LINE
8
BLACK
6
CONTINUOUS
10
171.886
20
-95.5984
11
171.851
21
-95.5838
0
LINE
8
BLACK
6
CONTINUOUS
10
171.851
20
-95.5838
11
171.836
21
-95.5484
0
LINE
8
BLACK
6
CONTINUOUS
10
171.836
20
-95.5484
11
171.836
21
-84.0484
0
LINE
8
BLACK
6
CONTINUOUS
10
171.836
20
-84.0484
11
171.851
21
-84.0131
0
LINE
8
BLACK
6
CONTINUOUS
10
171.851
20
-84.0131
11
171.886
21
-83.9984
0
LINE
8
BLACK
6
CONTINUOUS
10
171.886
20
-83.9984
11
173.905
21
-83.9984
0
LINE
8
BLACK
6
CONTINUOUS
10
173.905
20
-83.9984
11
173.781
21
-83.3625
0
LINE
8
BLACK
6
CONTINUOUS
10
173.781
20
-83.3625
11
173.538
21
-82.3098
0
LINE
8
BLACK
6
CONTINUOUS
10
173.538
20
-82.3098
11
173.258
21
-81.2661
0
LINE
8
BLACK
6
CONTINUOUS
10
173.258
20
-81.2661
11
172.942
21
-80.2328
0
LINE
8
BLACK
6
CONTINUOUS
10
172.942
20
-80.2328
11
172.591
21
-79.2112
0
LINE
8
BLACK
6
CONTINUOUS
10
172.591
20
-79.2112
11
172.204
21
-78.2025
0
LINE
8
BLACK
6
CONTINUOUS
10
172.204
20
-78.2025
11
171.781
21
-77.2079
0
LINE
8
BLACK
6
CONTINUOUS
10
171.781
20
-77.2079
11
171.547
21
-76.7047
0
LINE
8
BLACK
6
CONTINUOUS
10
171.547
20
-76.7047
11
169.849
21
-76.7071
0
LINE
8
BLACK
6
CONTINUOUS
10
169.849
20
-76.7071
11
169.849
21
-79.5272
0
LINE
8
BLACK
6
CONTINUOUS
10
169.849
20
-79.5272
11
169.834
21
-79.5626
0
LINE
8
BLACK
6
CONTINUOUS
10
169.834
20
-79.5626
11
169.799
21
-79.5772
0
LINE
8
BLACK
6
CONTINUOUS
10
169.799
20
-79.5772
11
168.887
21
-79.5772
0
LINE
8
BLACK
6
CONTINUOUS
10
168.887
20
-79.5772
11
168.851
21
-79.5626
0
LINE
8
BLACK
6
CONTINUOUS
10
168.851
20
-79.5626
11
168.837
21
-79.5272
0
LINE
8
BLACK
6
CONTINUOUS
10
168.837
20
-79.5272
11
168.837
21
-75.9414
0
LINE
8
BLACK
6
CONTINUOUS
10
168.837
20
-75.9414
11
168.851
21
-75.906
0
LINE
8
BLACK
6
CONTINUOUS
10
168.851
20
-75.906
11
168.887
21
-75.8914
0
LINE
8
BLACK
6
CONTINUOUS
10
168.887
20
-75.8914
11
171.153
21
-75.8914
0
LINE
8
BLACK
6
CONTINUOUS
10
171.153
20
-75.8914
11
170.834
21
-75.266
0
LINE
8
BLACK
6
CONTINUOUS
10
170.834
20
-75.266
11
170.31
21
-74.321
0
LINE
8
BLACK
6
CONTINUOUS
10
170.31
20
-74.321
11
169.754
21
-73.3948
0
LINE
8
BLACK
6
CONTINUOUS
10
169.754
20
-73.3948
11
169.165
21
-72.4887
0
LINE
8
BLACK
6
CONTINUOUS
10
169.165
20
-72.4887
11
168.546
21
-71.6036
0
LINE
8
BLACK
6
CONTINUOUS
10
168.546
20
-71.6036
11
167.895
21
-70.7407
0
LINE
8
BLACK
6
CONTINUOUS
10
167.895
20
-70.7407
11
167.215
21
-69.901
0
LINE
8
BLACK
6
CONTINUOUS
10
167.215
20
-69.901
11
166.507
21
-69.0855
0
LINE
8
BLACK
6
CONTINUOUS
10
166.507
20
-69.0855
11
165.77
21
-68.2953
0
LINE
8
BLACK
6
CONTINUOUS
10
165.77
20
-68.2953
11
165.006
21
-67.5313
0
LINE
8
BLACK
6
CONTINUOUS
10
165.006
20
-67.5313
11
164.215
21
-66.7944
0
LINE
8
BLACK
6
CONTINUOUS
10
164.215
20
-66.7944
11
163.4
21
-66.0856
0
LINE
8
BLACK
6
CONTINUOUS
10
163.4
20
-66.0856
11
162.56
21
-65.4056
0
LINE
8
BLACK
6
CONTINUOUS
10
162.56
20
-65.4056
11
161.697
21
-64.7554
0
LINE
8
BLACK
6
CONTINUOUS
10
161.697
20
-64.7554
11
160.812
21
-64.1356
0
LINE
8
BLACK
6
CONTINUOUS
10
160.812
20
-64.1356
11
159.906
21
-63.5472
0
LINE
8
BLACK
6
CONTINUOUS
10
159.906
20
-63.5472
11
158.98
21
-62.9907
0
LINE
8
BLACK
6
CONTINUOUS
10
158.98
20
-62.9907
11
158.035
21
-62.4668
0
LINE
8
BLACK
6
CONTINUOUS
10
158.035
20
-62.4668
11
157.072
21
-61.9763
0
LINE
8
BLACK
6
CONTINUOUS
10
157.072
20
-61.9763
11
156.093
21
-61.5197
0
LINE
8
BLACK
6
CONTINUOUS
10
156.093
20
-61.5197
11
155.099
21
-61.0975
0
LINE
8
BLACK
6
CONTINUOUS
10
155.099
20
-61.0975
11
154.09
21
-60.7103
0
LINE
8
BLACK
6
CONTINUOUS
10
154.09
20
-60.7103
11
153.068
21
-60.3585
0
LINE
8
BLACK
6
CONTINUOUS
10
153.068
20
-60.3585
11
152.035
21
-60.0426
0
LINE
8
BLACK
6
CONTINUOUS
10
152.035
20
-60.0426
11
150.991
21
-59.763
0
LINE
8
BLACK
6
CONTINUOUS
10
150.991
20
-59.763
11
149.938
21
-59.5199
0
LINE
8
BLACK
6
CONTINUOUS
10
149.938
20
-59.5199
11
149.303
21
-59.3963
0
LINE
8
BLACK
6
CONTINUOUS
10
149.303
20
-59.3963
11
149.303
21
-62.295
0
LINE
8
BLACK
6
CONTINUOUS
10
149.303
20
-62.295
11
149.288
21
-62.3304
0
LINE
8
BLACK
6
CONTINUOUS
10
149.288
20
-62.3304
11
149.253
21
-62.345
0
LINE
8
BLACK
6
CONTINUOUS
10
149.253
20
-62.345
11
137.753
21
-62.345
0
LINE
8
BLACK
6
CONTINUOUS
10
137.753
20
-62.345
11
137.717
21
-62.3304
0
LINE
8
BLACK
6
CONTINUOUS
10
171.936
20
-84.0984
11
171.936
21
-95.4984
0
LINE
8
BLACK
6
CONTINUOUS
10
171.936
20
-95.4984
11
173.924
21
-95.4984
0
LINE
8
BLACK
6
CONTINUOUS
10
173.924
20
-95.4984
11
173.987
21
-95.1737
0
LINE
8
BLACK
6
CONTINUOUS
10
173.987
20
-95.1737
11
174.156
21
-94.1065
0
LINE
8
BLACK
6
CONTINUOUS
10
174.156
20
-94.1065
11
174.288
21
-93.0341
0
LINE
8
BLACK
6
CONTINUOUS
10
174.288
20
-93.0341
11
174.382
21
-91.9577
0
LINE
8
BLACK
6
CONTINUOUS
10
174.382
20
-91.9577
11
174.439
21
-90.8787
0
LINE
8
BLACK
6
CONTINUOUS
10
174.439
20
-90.8787
11
174.453
21
-90.0809
0
LINE
8
BLACK
6
CONTINUOUS
10
174.453
20
-90.0809
11
174.453
21
-89.5159
0
LINE
8
BLACK
6
CONTINUOUS
10
174.453
20
-89.5159
11
174.439
21
-88.7181
0
LINE
8
BLACK
6
CONTINUOUS
10
174.439
20
-88.7181
11
174.382
21
-87.6391
0
LINE
8
BLACK
6
CONTINUOUS
10
174.382
20
-87.6391
11
174.288
21
-86.5628
0
LINE
8
BLACK
6
CONTINUOUS
10
174.288
20
-86.5628
11
174.156
21
-85.4903
0
LINE
8
BLACK
6
CONTINUOUS
10
174.156
20
-85.4903
11
173.987
21
-84.4232
0
LINE
8
BLACK
6
CONTINUOUS
10
173.987
20
-84.4232
11
173.924
21
-84.0984
0
LINE
8
BLACK
6
CONTINUOUS
10
173.924
20
-84.0984
11
171.936
21
-84.0984
0
LINE
8
BLACK
6
CONTINUOUS
10
174.382
20
-93.044
11
174.25
21
-94.1198
0
LINE
8
BLACK
6
CONTINUOUS
10
174.25
20
-94.1198
11
174.081
21
-95.1902
0
LINE
8
BLACK
6
CONTINUOUS
10
174.081
20
-95.1902
11
174.021
21
-95.4984
0
LINE
8
BLACK
6
CONTINUOUS
10
174.021
20
-95.4984
11
174.453
21
-95.4984
0
LINE
8
BLACK
6
CONTINUOUS
10
174.453
20
-95.4984
11
174.453
21
-92.2428
0
LINE
8
BLACK
6
CONTINUOUS
10
174.453
20
-92.2428
11
174.382
21
-93.044
0
LINE
8
BLACK
6
CONTINUOUS
10
112.553
20
-95.4984
11
112.984
21
-95.4984
0
LINE
8
BLACK
6
CONTINUOUS
10
112.984
20
-95.4984
11
112.924
21
-95.1902
0
LINE
8
BLACK
6
CONTINUOUS
10
112.924
20
-95.1902
11
112.755
21
-94.1198
0
LINE
8
BLACK
6
CONTINUOUS
10
112.755
20
-94.1198
11
112.623
21
-93.044
0
LINE
8
BLACK
6
CONTINUOUS
10
112.623
20
-93.044
11
112.553
21
-92.2428
0
LINE
8
BLACK
6
CONTINUOUS
10
112.553
20
-92.2428
11
112.553
21
-95.4984
0
LINE
8
BLACK
6
CONTINUOUS
10
113.081
20
-84.0984
11
113.018
21
-84.4232
0
LINE
8
BLACK
6
CONTINUOUS
10
113.018
20
-84.4232
11
112.849
21
-85.4903
0
LINE
8
BLACK
6
CONTINUOUS
10
112.849
20
-85.4903
11
112.717
21
-86.5628
0
LINE
8
BLACK
6
CONTINUOUS
10
112.717
20
-86.5628
11
112.623
21
-87.6391
0
LINE
8
BLACK
6
CONTINUOUS
10
112.623
20
-87.6391
11
112.567
21
-88.7181
0
LINE
8
BLACK
6
CONTINUOUS
10
112.567
20
-88.7181
11
112.553
21
-89.5159
0
LINE
8
BLACK
6
CONTINUOUS
10
112.553
20
-89.5159
11
112.553
21
-90.0809
0
LINE
8
BLACK
6
CONTINUOUS
10
112.553
20
-90.0809
11
112.567
21
-90.8787
0
LINE
8
BLACK
6
CONTINUOUS
10
112.567
20
-90.8787
11
112.623
21
-91.9577
0
LINE
8
BLACK
6
CONTINUOUS
10
112.623
20
-91.9577
11
112.717
21
-93.0341
0
LINE
8
BLACK
6
CONTINUOUS
10
112.717
20
-93.0341
11
112.849
21
-94.1065
0
LINE
8
BLACK
6
CONTINUOUS
10
112.849
20
-94.1065
11
113.018
21
-95.1737
0
LINE
8
BLACK
6
CONTINUOUS
10
113.018
20
-95.1737
11
113.081
21
-95.4984
0
LINE
8
BLACK
6
CONTINUOUS
10
113.081
20
-95.4984
11
115.069
21
-95.4984
0
LINE
8
BLACK
6
CONTINUOUS
10
115.069
20
-95.4984
11
115.069
21
-84.0984
0
LINE
8
BLACK
6
CONTINUOUS
10
115.069
20
-84.0984
11
113.081
21
-84.0984
0
LINE
8
BLACK
6
CONTINUOUS
10
112.553
20
-84.0984
11
112.553
21
-87.354
0
LINE
8
BLACK
6
CONTINUOUS
10
112.553
20
-87.354
11
112.623
21
-86.5528
0
LINE
8
BLACK
6
CONTINUOUS
10
112.623
20
-86.5528
11
112.755
21
-85.4771
0
LINE
8
BLACK
6
CONTINUOUS
10
112.755
20
-85.4771
11
112.924
21
-84.4067
0
LINE
8
BLACK
6
CONTINUOUS
10
112.924
20
-84.4067
11
112.984
21
-84.0984
0
LINE
8
BLACK
6
CONTINUOUS
10
112.984
20
-84.0984
11
112.553
21
-84.0984
0
LINE
8
BLACK
6
CONTINUOUS
10
174.021
20
-84.0984
11
174.081
21
-84.4067
0
LINE
8
BLACK
6
CONTINUOUS
10
174.081
20
-84.4067
11
174.25
21
-85.4771
0
LINE
8
BLACK
6
CONTINUOUS
10
174.25
20
-85.4771
11
174.382
21
-86.5528
0
LINE
8
BLACK
6
CONTINUOUS
10
174.382
20
-86.5528
11
174.453
21
-87.354
0
LINE
8
BLACK
6
CONTINUOUS
10
174.453
20
-87.354
11
174.453
21
-84.0984
0
LINE
8
BLACK
6
CONTINUOUS
10
174.453
20
-84.0984
11
174.021
21
-84.0984
0
LINE
8
BLACK
6
CONTINUOUS
10
168.937
20
-75.9914
11
168.937
21
-79.4772
0
LINE
8
BLACK
6
CONTINUOUS
10
168.937
20
-79.4772
11
169.749
21
-79.4772
0
LINE
8
BLACK
6
CONTINUOUS
10
169.749
20
-79.4772
11
169.749
21
-76.6572
0
LINE
8
BLACK
6
CONTINUOUS
10
169.749
20
-76.6572
11
169.756
21
-76.6396
0
LINE
8
BLACK
6
CONTINUOUS
10
169.756
20
-76.6396
11
169.764
21
-76.6219
0
LINE
8
BLACK
6
CONTINUOUS
10
169.764
20
-76.6219
11
169.764
21
-76.6219
0
LINE
8
BLACK
6
CONTINUOUS
10
169.764
20
-76.6219
11
169.764
21
-76.6218
0
LINE
8
BLACK
6
CONTINUOUS
10
169.764
20
-76.6218
11
169.781
21
-76.6145
0
LINE
8
BLACK
6
CONTINUOUS
10
169.781
20
-76.6145
11
169.799
21
-76.6072
0
LINE
8
BLACK
6
CONTINUOUS
10
169.799
20
-76.6072
11
171.5
21
-76.6048
0
LINE
8
BLACK
6
CONTINUOUS
10
171.5
20
-76.6048
11
171.325
21
-76.2287
0
LINE
8
BLACK
6
CONTINUOUS
10
171.325
20
-76.2287
11
171.204
21
-75.9914
0
LINE
8
BLACK
6
CONTINUOUS
10
171.204
20
-75.9914
11
168.937
21
-75.9914
0
LINE
8
BLACK
6
CONTINUOUS
10
171.31
20
-75.9914
11
171.41
21
-76.187
0
LINE
8
BLACK
6
CONTINUOUS
10
171.41
20
-76.187
11
171.605
21
-76.6046
0
LINE
8
BLACK
6
CONTINUOUS
10
171.605
20
-76.6046
11
172.952
21
-76.6027
0
LINE
8
BLACK
6
CONTINUOUS
10
172.952
20
-76.6027
11
172.952
21
-75.9914
0
LINE
8
BLACK
6
CONTINUOUS
10
172.952
20
-75.9914
11
171.31
21
-75.9914
0
LINE
8
BLACK
6
CONTINUOUS
10
143.22
20
-58.8484
11
142.422
21
-58.8624
0
LINE
8
BLACK
6
CONTINUOUS
10
142.422
20
-58.8624
11
141.343
21
-58.9189
0
LINE
8
BLACK
6
CONTINUOUS
10
141.343
20
-58.9189
11
140.267
21
-59.0131
0
LINE
8
BLACK
6
CONTINUOUS
10
140.267
20
-59.0131
11
139.195
21
-59.1447
0
LINE
8
BLACK
6
CONTINUOUS
10
139.195
20
-59.1447
11
138.127
21
-59.3138
0
LINE
8
BLACK
6
CONTINUOUS
10
138.127
20
-59.3138
11
137.803
21
-59.3769
0
LINE
8
BLACK
6
CONTINUOUS
10
137.803
20
-59.3769
11
137.803
21
-62.245
0
LINE
8
BLACK
6
CONTINUOUS
10
137.803
20
-62.245
11
149.203
21
-62.245
0
LINE
8
BLACK
6
CONTINUOUS
10
149.203
20
-62.245
11
149.203
21
-59.3769
0
LINE
8
BLACK
6
CONTINUOUS
10
149.203
20
-59.3769
11
148.878
21
-59.3138
0
LINE
8
BLACK
6
CONTINUOUS
10
148.878
20
-59.3138
11
147.811
21
-59.1447
0
LINE
8
BLACK
6
CONTINUOUS
10
147.811
20
-59.1447
11
146.738
21
-59.0131
0
LINE
8
BLACK
6
CONTINUOUS
10
146.738
20
-59.0131
11
145.662
21
-58.9189
0
LINE
8
BLACK
6
CONTINUOUS
10
145.662
20
-58.9189
11
144.583
21
-58.8624
0
LINE
8
BLACK
6
CONTINUOUS
10
144.583
20
-58.8624
11
143.785
21
-58.8484
0
LINE
8
BLACK
6
CONTINUOUS
10
143.785
20
-58.8484
11
143.22
21
-58.8484
0
LINE
8
BLACK
6
CONTINUOUS
10
137.803
20
-58.8484
11
137.803
21
-59.2801
0
LINE
8
BLACK
6
CONTINUOUS
10
137.803
20
-59.2801
11
138.111
21
-59.2201
0
LINE
8
BLACK
6
CONTINUOUS
10
138.111
20
-59.2201
11
139.181
21
-59.0506
0
LINE
8
BLACK
6
CONTINUOUS
10
139.181
20
-59.0506
11
140.257
21
-58.9185
0
LINE
8
BLACK
6
CONTINUOUS
10
140.257
20
-58.9185
11
141.058
21
-58.8484
0
LINE
8
BLACK
6
CONTINUOUS
10
141.058
20
-58.8484
11
137.803
21
-58.8484
0
LINE
8
BLACK
6
CONTINUOUS
10
145.947
20
-58.8484
11
146.748
21
-58.9185
0
LINE
8
BLACK
6
CONTINUOUS
10
146.748
20
-58.9185
11
147.824
21
-59.0506
0
LINE
8
BLACK
6
CONTINUOUS
10
147.824
20
-59.0506
11
148.894
21
-59.2201
0
LINE
8
BLACK
6
CONTINUOUS
10
148.894
20
-59.2201
11
149.203
21
-59.2801
0
LINE
8
BLACK
6
CONTINUOUS
10
149.203
20
-59.2801
11
149.203
21
-58.8484
0
LINE
8
BLACK
6
CONTINUOUS
10
149.203
20
-58.8484
11
145.947
21
-58.8484
  0
ENDSEC
  0
EOF
