%TF.GenerationSoftware,KiCad,Pcbnew,(6.0.5)*%
%TF.CreationDate,2022-11-07T11:26:13+01:00*%
%TF.ProjectId,CanSat 2023  - Elektrokonstrukce,43616e53-6174-4203-9230-323320202d20,rev?*%
%TF.SameCoordinates,Original*%
%TF.FileFunction,Paste,Top*%
%TF.FilePolarity,Positive*%
%FSLAX46Y46*%
G04 Gerber Fmt 4.6, Leading zero omitted, Abs format (unit mm)*
G04 Created by KiCad (PCBNEW (6.0.5)) date 2022-11-07 11:26:13*
%MOMM*%
%LPD*%
G01*
G04 APERTURE LIST*
G04 Aperture macros list*
%AMRoundRect*
0 Rectangle with rounded corners*
0 $1 Rounding radius*
0 $2 $3 $4 $5 $6 $7 $8 $9 X,Y pos of 4 corners*
0 Add a 4 corners polygon primitive as box body*
4,1,4,$2,$3,$4,$5,$6,$7,$8,$9,$2,$3,0*
0 Add four circle primitives for the rounded corners*
1,1,$1+$1,$2,$3*
1,1,$1+$1,$4,$5*
1,1,$1+$1,$6,$7*
1,1,$1+$1,$8,$9*
0 Add four rect primitives between the rounded corners*
20,1,$1+$1,$2,$3,$4,$5,0*
20,1,$1+$1,$4,$5,$6,$7,0*
20,1,$1+$1,$6,$7,$8,$9,0*
20,1,$1+$1,$8,$9,$2,$3,0*%
%AMOutline5P*
0 Free polygon, 5 corners , with rotation*
0 The origin of the aperture is its center*
0 number of corners: always 5*
0 $1 to $10 corner X, Y*
0 $11 Rotation angle, in degrees counterclockwise*
0 create outline with 5 corners*
4,1,5,$1,$2,$3,$4,$5,$6,$7,$8,$9,$10,$1,$2,$11*%
%AMOutline6P*
0 Free polygon, 6 corners , with rotation*
0 The origin of the aperture is its center*
0 number of corners: always 6*
0 $1 to $12 corner X, Y*
0 $13 Rotation angle, in degrees counterclockwise*
0 create outline with 6 corners*
4,1,6,$1,$2,$3,$4,$5,$6,$7,$8,$9,$10,$11,$12,$1,$2,$13*%
%AMOutline7P*
0 Free polygon, 7 corners , with rotation*
0 The origin of the aperture is its center*
0 number of corners: always 7*
0 $1 to $14 corner X, Y*
0 $15 Rotation angle, in degrees counterclockwise*
0 create outline with 7 corners*
4,1,7,$1,$2,$3,$4,$5,$6,$7,$8,$9,$10,$11,$12,$13,$14,$1,$2,$15*%
%AMOutline8P*
0 Free polygon, 8 corners , with rotation*
0 The origin of the aperture is its center*
0 number of corners: always 8*
0 $1 to $16 corner X, Y*
0 $17 Rotation angle, in degrees counterclockwise*
0 create outline with 8 corners*
4,1,8,$1,$2,$3,$4,$5,$6,$7,$8,$9,$10,$11,$12,$13,$14,$15,$16,$1,$2,$17*%
G04 Aperture macros list end*
%ADD10C,0.100000*%
%ADD11C,0.150000*%
%ADD12C,0.300000*%
%ADD13C,0.400000*%
%ADD14C,0.010000*%
%ADD15R,1.500000X1.500000*%
%ADD16R,0.254000X0.675000*%
%ADD17R,0.675000X0.254000*%
%ADD18R,1.000000X1.500000*%
%ADD19RoundRect,0.135000X-0.135000X-0.185000X0.135000X-0.185000X0.135000X0.185000X-0.135000X0.185000X0*%
%ADD20RoundRect,0.135000X0.135000X0.185000X-0.135000X0.185000X-0.135000X-0.185000X0.135000X-0.185000X0*%
%ADD21R,1.300000X1.000000*%
%ADD22R,1.500000X2.150000*%
%ADD23RoundRect,0.140000X-0.170000X0.140000X-0.170000X-0.140000X0.170000X-0.140000X0.170000X0.140000X0*%
%ADD24RoundRect,0.150000X-0.587500X-0.150000X0.587500X-0.150000X0.587500X0.150000X-0.587500X0.150000X0*%
%ADD25RoundRect,0.250000X0.250000X1.500000X-0.250000X1.500000X-0.250000X-1.500000X0.250000X-1.500000X0*%
%ADD26RoundRect,0.250001X0.499999X1.449999X-0.499999X1.449999X-0.499999X-1.449999X0.499999X-1.449999X0*%
%ADD27RoundRect,0.135000X-0.185000X0.135000X-0.185000X-0.135000X0.185000X-0.135000X0.185000X0.135000X0*%
%ADD28RoundRect,0.140000X0.170000X-0.140000X0.170000X0.140000X-0.170000X0.140000X-0.170000X-0.140000X0*%
%ADD29RoundRect,0.140000X-0.140000X-0.170000X0.140000X-0.170000X0.140000X0.170000X-0.140000X0.170000X0*%
%ADD30R,0.800000X0.400000*%
%ADD31R,0.400000X0.800000*%
%ADD32R,1.000000X1.000000*%
%ADD33Outline5P,-0.500000X0.000000X0.000000X0.500000X0.500000X0.500000X0.500000X-0.500000X-0.500000X-0.500000X0.000000*%
%ADD34R,1.500000X1.100000*%
%ADD35R,1.525000X0.650000*%
%ADD36RoundRect,0.150000X0.587500X0.150000X-0.587500X0.150000X-0.587500X-0.150000X0.587500X-0.150000X0*%
%ADD37R,1.000000X1.050000*%
%ADD38R,1.050000X2.200000*%
%ADD39RoundRect,0.140000X0.140000X0.170000X-0.140000X0.170000X-0.140000X-0.170000X0.140000X-0.170000X0*%
%ADD40R,2.100000X1.400000*%
%ADD41RoundRect,0.250000X0.625000X-0.312500X0.625000X0.312500X-0.625000X0.312500X-0.625000X-0.312500X0*%
%ADD42R,3.170000X3.170000*%
%ADD43RoundRect,0.147500X0.172500X-0.147500X0.172500X0.147500X-0.172500X0.147500X-0.172500X-0.147500X0*%
%ADD44RoundRect,0.135000X0.185000X-0.135000X0.185000X0.135000X-0.185000X0.135000X-0.185000X-0.135000X0*%
%ADD45R,0.650000X0.400000*%
%ADD46R,0.500000X0.350000*%
%ADD47RoundRect,0.147500X-0.147500X-0.172500X0.147500X-0.172500X0.147500X0.172500X-0.147500X0.172500X0*%
%ADD48R,1.000000X1.300000*%
%ADD49R,2.150000X1.500000*%
%ADD50R,1.100000X0.300000*%
%ADD51R,0.300000X1.100000*%
%ADD52C,0.200000*%
%ADD53RoundRect,0.150000X0.150000X-0.587500X0.150000X0.587500X-0.150000X0.587500X-0.150000X-0.587500X0*%
%ADD54R,1.000000X0.700000*%
%ADD55R,0.600000X0.700000*%
%ADD56RoundRect,0.147500X-0.172500X0.147500X-0.172500X-0.147500X0.172500X-0.147500X0.172500X0.147500X0*%
%ADD57R,1.800000X0.300000*%
%ADD58R,0.300000X0.700000*%
%ADD59R,0.200000X0.700000*%
%ADD60R,1.050000X0.200000*%
%ADD61R,2.300000X1.800000*%
%ADD62R,0.700000X1.500000*%
%ADD63R,1.000000X0.800000*%
%ADD64RoundRect,0.147500X0.147500X0.172500X-0.147500X0.172500X-0.147500X-0.172500X0.147500X-0.172500X0*%
%ADD65R,2.450000X2.350000*%
%ADD66RoundRect,0.250000X-0.312500X-0.625000X0.312500X-0.625000X0.312500X0.625000X-0.312500X0.625000X0*%
%ADD67R,5.400000X2.900000*%
%ADD68R,0.400000X0.250000*%
%ADD69R,0.650000X1.700000*%
%ADD70RoundRect,0.200000X0.200000X-0.700000X0.200000X0.700000X-0.200000X0.700000X-0.200000X-0.700000X0*%
%ADD71RoundRect,0.225000X-0.225000X-0.225000X0.225000X-0.225000X0.225000X0.225000X-0.225000X0.225000X0*%
%ADD72RoundRect,0.062500X-0.337500X-0.062500X0.337500X-0.062500X0.337500X0.062500X-0.337500X0.062500X0*%
%ADD73RoundRect,0.062500X-0.062500X-0.337500X0.062500X-0.337500X0.062500X0.337500X-0.062500X0.337500X0*%
G04 APERTURE END LIST*
D10*
D11*
X177002200Y-166007200D02*
X177002200Y-198007200D01*
X285002200Y-198007200D01*
X285002200Y-166007200D01*
X177002200Y-166007200D01*
D10*
D11*
X10000000Y-10000000D02*
X10000000Y-200007200D01*
X287002200Y-200007200D01*
X287002200Y-10000000D01*
X10000000Y-10000000D01*
D10*
D11*
X12000000Y-12000000D02*
X12000000Y-198007200D01*
X285002200Y-198007200D01*
X285002200Y-12000000D01*
X12000000Y-12000000D01*
D10*
D11*
X60000000Y-12000000D02*
X60000000Y-10000000D01*
D10*
D11*
X110000000Y-12000000D02*
X110000000Y-10000000D01*
D10*
D11*
X160000000Y-12000000D02*
X160000000Y-10000000D01*
D10*
D11*
X210000000Y-12000000D02*
X210000000Y-10000000D01*
D10*
D11*
X260000000Y-12000000D02*
X260000000Y-10000000D01*
D10*
D11*
X36065476Y-11588095D02*
X35322619Y-11588095D01*
X35694047Y-11588095D02*
X35694047Y-10288095D01*
X35570238Y-10473809D01*
X35446428Y-10597619D01*
X35322619Y-10659523D01*
D10*
D11*
X85322619Y-10411904D02*
X85384523Y-10350000D01*
X85508333Y-10288095D01*
X85817857Y-10288095D01*
X85941666Y-10350000D01*
X86003571Y-10411904D01*
X86065476Y-10535714D01*
X86065476Y-10659523D01*
X86003571Y-10845238D01*
X85260714Y-11588095D01*
X86065476Y-11588095D01*
D10*
D11*
X135260714Y-10288095D02*
X136065476Y-10288095D01*
X135632142Y-10783333D01*
X135817857Y-10783333D01*
X135941666Y-10845238D01*
X136003571Y-10907142D01*
X136065476Y-11030952D01*
X136065476Y-11340476D01*
X136003571Y-11464285D01*
X135941666Y-11526190D01*
X135817857Y-11588095D01*
X135446428Y-11588095D01*
X135322619Y-11526190D01*
X135260714Y-11464285D01*
D10*
D11*
X185941666Y-10721428D02*
X185941666Y-11588095D01*
X185632142Y-10226190D02*
X185322619Y-11154761D01*
X186127380Y-11154761D01*
D10*
D11*
X236003571Y-10288095D02*
X235384523Y-10288095D01*
X235322619Y-10907142D01*
X235384523Y-10845238D01*
X235508333Y-10783333D01*
X235817857Y-10783333D01*
X235941666Y-10845238D01*
X236003571Y-10907142D01*
X236065476Y-11030952D01*
X236065476Y-11340476D01*
X236003571Y-11464285D01*
X235941666Y-11526190D01*
X235817857Y-11588095D01*
X235508333Y-11588095D01*
X235384523Y-11526190D01*
X235322619Y-11464285D01*
D10*
D11*
X285941666Y-10288095D02*
X285694047Y-10288095D01*
X285570238Y-10350000D01*
X285508333Y-10411904D01*
X285384523Y-10597619D01*
X285322619Y-10845238D01*
X285322619Y-11340476D01*
X285384523Y-11464285D01*
X285446428Y-11526190D01*
X285570238Y-11588095D01*
X285817857Y-11588095D01*
X285941666Y-11526190D01*
X286003571Y-11464285D01*
X286065476Y-11340476D01*
X286065476Y-11030952D01*
X286003571Y-10907142D01*
X285941666Y-10845238D01*
X285817857Y-10783333D01*
X285570238Y-10783333D01*
X285446428Y-10845238D01*
X285384523Y-10907142D01*
X285322619Y-11030952D01*
D10*
D11*
X60000000Y-198007200D02*
X60000000Y-200007200D01*
D10*
D11*
X110000000Y-198007200D02*
X110000000Y-200007200D01*
D10*
D11*
X160000000Y-198007200D02*
X160000000Y-200007200D01*
D10*
D11*
X210000000Y-198007200D02*
X210000000Y-200007200D01*
D10*
D11*
X260000000Y-198007200D02*
X260000000Y-200007200D01*
D10*
D11*
X36065476Y-199595295D02*
X35322619Y-199595295D01*
X35694047Y-199595295D02*
X35694047Y-198295295D01*
X35570238Y-198481009D01*
X35446428Y-198604819D01*
X35322619Y-198666723D01*
D10*
D11*
X85322619Y-198419104D02*
X85384523Y-198357200D01*
X85508333Y-198295295D01*
X85817857Y-198295295D01*
X85941666Y-198357200D01*
X86003571Y-198419104D01*
X86065476Y-198542914D01*
X86065476Y-198666723D01*
X86003571Y-198852438D01*
X85260714Y-199595295D01*
X86065476Y-199595295D01*
D10*
D11*
X135260714Y-198295295D02*
X136065476Y-198295295D01*
X135632142Y-198790533D01*
X135817857Y-198790533D01*
X135941666Y-198852438D01*
X136003571Y-198914342D01*
X136065476Y-199038152D01*
X136065476Y-199347676D01*
X136003571Y-199471485D01*
X135941666Y-199533390D01*
X135817857Y-199595295D01*
X135446428Y-199595295D01*
X135322619Y-199533390D01*
X135260714Y-199471485D01*
D10*
D11*
X185941666Y-198728628D02*
X185941666Y-199595295D01*
X185632142Y-198233390D02*
X185322619Y-199161961D01*
X186127380Y-199161961D01*
D10*
D11*
X236003571Y-198295295D02*
X235384523Y-198295295D01*
X235322619Y-198914342D01*
X235384523Y-198852438D01*
X235508333Y-198790533D01*
X235817857Y-198790533D01*
X235941666Y-198852438D01*
X236003571Y-198914342D01*
X236065476Y-199038152D01*
X236065476Y-199347676D01*
X236003571Y-199471485D01*
X235941666Y-199533390D01*
X235817857Y-199595295D01*
X235508333Y-199595295D01*
X235384523Y-199533390D01*
X235322619Y-199471485D01*
D10*
D11*
X285941666Y-198295295D02*
X285694047Y-198295295D01*
X285570238Y-198357200D01*
X285508333Y-198419104D01*
X285384523Y-198604819D01*
X285322619Y-198852438D01*
X285322619Y-199347676D01*
X285384523Y-199471485D01*
X285446428Y-199533390D01*
X285570238Y-199595295D01*
X285817857Y-199595295D01*
X285941666Y-199533390D01*
X286003571Y-199471485D01*
X286065476Y-199347676D01*
X286065476Y-199038152D01*
X286003571Y-198914342D01*
X285941666Y-198852438D01*
X285817857Y-198790533D01*
X285570238Y-198790533D01*
X285446428Y-198852438D01*
X285384523Y-198914342D01*
X285322619Y-199038152D01*
D10*
D11*
X10000000Y-60000000D02*
X12000000Y-60000000D01*
D10*
D11*
X10000000Y-110000000D02*
X12000000Y-110000000D01*
D10*
D11*
X10000000Y-160000000D02*
X12000000Y-160000000D01*
D10*
D11*
X10690476Y-35216666D02*
X11309523Y-35216666D01*
X10566666Y-35588095D02*
X11000000Y-34288095D01*
X11433333Y-35588095D01*
D10*
D11*
X11092857Y-84907142D02*
X11278571Y-84969047D01*
X11340476Y-85030952D01*
X11402380Y-85154761D01*
X11402380Y-85340476D01*
X11340476Y-85464285D01*
X11278571Y-85526190D01*
X11154761Y-85588095D01*
X10659523Y-85588095D01*
X10659523Y-84288095D01*
X11092857Y-84288095D01*
X11216666Y-84350000D01*
X11278571Y-84411904D01*
X11340476Y-84535714D01*
X11340476Y-84659523D01*
X11278571Y-84783333D01*
X11216666Y-84845238D01*
X11092857Y-84907142D01*
X10659523Y-84907142D01*
D10*
D11*
X11402380Y-135464285D02*
X11340476Y-135526190D01*
X11154761Y-135588095D01*
X11030952Y-135588095D01*
X10845238Y-135526190D01*
X10721428Y-135402380D01*
X10659523Y-135278571D01*
X10597619Y-135030952D01*
X10597619Y-134845238D01*
X10659523Y-134597619D01*
X10721428Y-134473809D01*
X10845238Y-134350000D01*
X11030952Y-134288095D01*
X11154761Y-134288095D01*
X11340476Y-134350000D01*
X11402380Y-134411904D01*
D10*
D11*
X10659523Y-185588095D02*
X10659523Y-184288095D01*
X10969047Y-184288095D01*
X11154761Y-184350000D01*
X11278571Y-184473809D01*
X11340476Y-184597619D01*
X11402380Y-184845238D01*
X11402380Y-185030952D01*
X11340476Y-185278571D01*
X11278571Y-185402380D01*
X11154761Y-185526190D01*
X10969047Y-185588095D01*
X10659523Y-185588095D01*
D10*
D11*
X287002200Y-60000000D02*
X285002200Y-60000000D01*
D10*
D11*
X287002200Y-110000000D02*
X285002200Y-110000000D01*
D10*
D11*
X287002200Y-160000000D02*
X285002200Y-160000000D01*
D10*
D11*
X285692676Y-35216666D02*
X286311723Y-35216666D01*
X285568866Y-35588095D02*
X286002200Y-34288095D01*
X286435533Y-35588095D01*
D10*
D11*
X286095057Y-84907142D02*
X286280771Y-84969047D01*
X286342676Y-85030952D01*
X286404580Y-85154761D01*
X286404580Y-85340476D01*
X286342676Y-85464285D01*
X286280771Y-85526190D01*
X286156961Y-85588095D01*
X285661723Y-85588095D01*
X285661723Y-84288095D01*
X286095057Y-84288095D01*
X286218866Y-84350000D01*
X286280771Y-84411904D01*
X286342676Y-84535714D01*
X286342676Y-84659523D01*
X286280771Y-84783333D01*
X286218866Y-84845238D01*
X286095057Y-84907142D01*
X285661723Y-84907142D01*
D10*
D11*
X286404580Y-135464285D02*
X286342676Y-135526190D01*
X286156961Y-135588095D01*
X286033152Y-135588095D01*
X285847438Y-135526190D01*
X285723628Y-135402380D01*
X285661723Y-135278571D01*
X285599819Y-135030952D01*
X285599819Y-134845238D01*
X285661723Y-134597619D01*
X285723628Y-134473809D01*
X285847438Y-134350000D01*
X286033152Y-134288095D01*
X286156961Y-134288095D01*
X286342676Y-134350000D01*
X286404580Y-134411904D01*
D10*
D11*
X285661723Y-185588095D02*
X285661723Y-184288095D01*
X285971247Y-184288095D01*
X286156961Y-184350000D01*
X286280771Y-184473809D01*
X286342676Y-184597619D01*
X286404580Y-184845238D01*
X286404580Y-185030952D01*
X286342676Y-185278571D01*
X286280771Y-185402380D01*
X286156961Y-185526190D01*
X285971247Y-185588095D01*
X285661723Y-185588095D01*
D10*
D11*
X200434342Y-193785771D02*
X200434342Y-192285771D01*
X200791485Y-192285771D01*
X201005771Y-192357200D01*
X201148628Y-192500057D01*
X201220057Y-192642914D01*
X201291485Y-192928628D01*
X201291485Y-193142914D01*
X201220057Y-193428628D01*
X201148628Y-193571485D01*
X201005771Y-193714342D01*
X200791485Y-193785771D01*
X200434342Y-193785771D01*
X202577200Y-193785771D02*
X202577200Y-193000057D01*
X202505771Y-192857200D01*
X202362914Y-192785771D01*
X202077200Y-192785771D01*
X201934342Y-192857200D01*
X202577200Y-193714342D02*
X202434342Y-193785771D01*
X202077200Y-193785771D01*
X201934342Y-193714342D01*
X201862914Y-193571485D01*
X201862914Y-193428628D01*
X201934342Y-193285771D01*
X202077200Y-193214342D01*
X202434342Y-193214342D01*
X202577200Y-193142914D01*
X203077200Y-192785771D02*
X203648628Y-192785771D01*
X203291485Y-192285771D02*
X203291485Y-193571485D01*
X203362914Y-193714342D01*
X203505771Y-193785771D01*
X203648628Y-193785771D01*
X204720057Y-193714342D02*
X204577200Y-193785771D01*
X204291485Y-193785771D01*
X204148628Y-193714342D01*
X204077200Y-193571485D01*
X204077200Y-193000057D01*
X204148628Y-192857200D01*
X204291485Y-192785771D01*
X204577200Y-192785771D01*
X204720057Y-192857200D01*
X204791485Y-193000057D01*
X204791485Y-193142914D01*
X204077200Y-193285771D01*
X205434342Y-193642914D02*
X205505771Y-193714342D01*
X205434342Y-193785771D01*
X205362914Y-193714342D01*
X205434342Y-193642914D01*
X205434342Y-193785771D01*
X205434342Y-192857200D02*
X205505771Y-192928628D01*
X205434342Y-193000057D01*
X205362914Y-192928628D01*
X205434342Y-192857200D01*
X205434342Y-193000057D01*
D10*
D11*
X177002200Y-194507200D02*
X285002200Y-194507200D01*
D10*
D11*
X178434342Y-196585771D02*
X178434342Y-195085771D01*
X179291485Y-196585771D02*
X178648628Y-195728628D01*
X179291485Y-195085771D02*
X178434342Y-195942914D01*
X179934342Y-196585771D02*
X179934342Y-195585771D01*
X179934342Y-195085771D02*
X179862914Y-195157200D01*
X179934342Y-195228628D01*
X180005771Y-195157200D01*
X179934342Y-195085771D01*
X179934342Y-195228628D01*
X181505771Y-196442914D02*
X181434342Y-196514342D01*
X181220057Y-196585771D01*
X181077200Y-196585771D01*
X180862914Y-196514342D01*
X180720057Y-196371485D01*
X180648628Y-196228628D01*
X180577200Y-195942914D01*
X180577200Y-195728628D01*
X180648628Y-195442914D01*
X180720057Y-195300057D01*
X180862914Y-195157200D01*
X181077200Y-195085771D01*
X181220057Y-195085771D01*
X181434342Y-195157200D01*
X181505771Y-195228628D01*
X182791485Y-196585771D02*
X182791485Y-195800057D01*
X182720057Y-195657200D01*
X182577200Y-195585771D01*
X182291485Y-195585771D01*
X182148628Y-195657200D01*
X182791485Y-196514342D02*
X182648628Y-196585771D01*
X182291485Y-196585771D01*
X182148628Y-196514342D01*
X182077200Y-196371485D01*
X182077200Y-196228628D01*
X182148628Y-196085771D01*
X182291485Y-196014342D01*
X182648628Y-196014342D01*
X182791485Y-195942914D01*
X184148628Y-196585771D02*
X184148628Y-195085771D01*
X184148628Y-196514342D02*
X184005771Y-196585771D01*
X183720057Y-196585771D01*
X183577200Y-196514342D01*
X183505771Y-196442914D01*
X183434342Y-196300057D01*
X183434342Y-195871485D01*
X183505771Y-195728628D01*
X183577200Y-195657200D01*
X183720057Y-195585771D01*
X184005771Y-195585771D01*
X184148628Y-195657200D01*
X186005771Y-195800057D02*
X186505771Y-195800057D01*
X186720057Y-196585771D02*
X186005771Y-196585771D01*
X186005771Y-195085771D01*
X186720057Y-195085771D01*
X187362914Y-196442914D02*
X187434342Y-196514342D01*
X187362914Y-196585771D01*
X187291485Y-196514342D01*
X187362914Y-196442914D01*
X187362914Y-196585771D01*
X188077200Y-196585771D02*
X188077200Y-195085771D01*
X188434342Y-195085771D01*
X188648628Y-195157200D01*
X188791485Y-195300057D01*
X188862914Y-195442914D01*
X188934342Y-195728628D01*
X188934342Y-195942914D01*
X188862914Y-196228628D01*
X188791485Y-196371485D01*
X188648628Y-196514342D01*
X188434342Y-196585771D01*
X188077200Y-196585771D01*
X189577200Y-196442914D02*
X189648628Y-196514342D01*
X189577200Y-196585771D01*
X189505771Y-196514342D01*
X189577200Y-196442914D01*
X189577200Y-196585771D01*
X190220057Y-196157200D02*
X190934342Y-196157200D01*
X190077200Y-196585771D02*
X190577200Y-195085771D01*
X191077200Y-196585771D01*
X191577200Y-196442914D02*
X191648628Y-196514342D01*
X191577200Y-196585771D01*
X191505771Y-196514342D01*
X191577200Y-196442914D01*
X191577200Y-196585771D01*
X194577200Y-196585771D02*
X194577200Y-195085771D01*
X194720057Y-196014342D02*
X195148628Y-196585771D01*
X195148628Y-195585771D02*
X194577200Y-196157200D01*
X195791485Y-196585771D02*
X195791485Y-195585771D01*
X195791485Y-195085771D02*
X195720057Y-195157200D01*
X195791485Y-195228628D01*
X195862914Y-195157200D01*
X195791485Y-195085771D01*
X195791485Y-195228628D01*
X197148628Y-196514342D02*
X197005771Y-196585771D01*
X196720057Y-196585771D01*
X196577200Y-196514342D01*
X196505771Y-196442914D01*
X196434342Y-196300057D01*
X196434342Y-195871485D01*
X196505771Y-195728628D01*
X196577200Y-195657200D01*
X196720057Y-195585771D01*
X197005771Y-195585771D01*
X197148628Y-195657200D01*
X198434342Y-196585771D02*
X198434342Y-195800057D01*
X198362914Y-195657200D01*
X198220057Y-195585771D01*
X197934342Y-195585771D01*
X197791485Y-195657200D01*
X198434342Y-196514342D02*
X198291485Y-196585771D01*
X197934342Y-196585771D01*
X197791485Y-196514342D01*
X197720057Y-196371485D01*
X197720057Y-196228628D01*
X197791485Y-196085771D01*
X197934342Y-196014342D01*
X198291485Y-196014342D01*
X198434342Y-195942914D01*
X199791485Y-196585771D02*
X199791485Y-195085771D01*
X199791485Y-196514342D02*
X199648628Y-196585771D01*
X199362914Y-196585771D01*
X199220057Y-196514342D01*
X199148628Y-196442914D01*
X199077200Y-196300057D01*
X199077200Y-195871485D01*
X199148628Y-195728628D01*
X199220057Y-195657200D01*
X199362914Y-195585771D01*
X199648628Y-195585771D01*
X199791485Y-195657200D01*
X202077200Y-197157200D02*
X202005771Y-197085771D01*
X201862914Y-196871485D01*
X201791485Y-196728628D01*
X201720057Y-196514342D01*
X201648628Y-196157200D01*
X201648628Y-195871485D01*
X201720057Y-195514342D01*
X201791485Y-195300057D01*
X201862914Y-195157200D01*
X202005771Y-194942914D01*
X202077200Y-194871485D01*
X203291485Y-195085771D02*
X203005771Y-195085771D01*
X202862914Y-195157200D01*
X202791485Y-195228628D01*
X202648628Y-195442914D01*
X202577200Y-195728628D01*
X202577200Y-196300057D01*
X202648628Y-196442914D01*
X202720057Y-196514342D01*
X202862914Y-196585771D01*
X203148628Y-196585771D01*
X203291485Y-196514342D01*
X203362914Y-196442914D01*
X203434342Y-196300057D01*
X203434342Y-195942914D01*
X203362914Y-195800057D01*
X203291485Y-195728628D01*
X203148628Y-195657200D01*
X202862914Y-195657200D01*
X202720057Y-195728628D01*
X202648628Y-195800057D01*
X202577200Y-195942914D01*
X204077200Y-196442914D02*
X204148628Y-196514342D01*
X204077200Y-196585771D01*
X204005771Y-196514342D01*
X204077200Y-196442914D01*
X204077200Y-196585771D01*
X205077200Y-195085771D02*
X205220057Y-195085771D01*
X205362914Y-195157200D01*
X205434342Y-195228628D01*
X205505771Y-195371485D01*
X205577200Y-195657200D01*
X205577200Y-196014342D01*
X205505771Y-196300057D01*
X205434342Y-196442914D01*
X205362914Y-196514342D01*
X205220057Y-196585771D01*
X205077200Y-196585771D01*
X204934342Y-196514342D01*
X204862914Y-196442914D01*
X204791485Y-196300057D01*
X204720057Y-196014342D01*
X204720057Y-195657200D01*
X204791485Y-195371485D01*
X204862914Y-195228628D01*
X204934342Y-195157200D01*
X205077200Y-195085771D01*
X206220057Y-196442914D02*
X206291485Y-196514342D01*
X206220057Y-196585771D01*
X206148628Y-196514342D01*
X206220057Y-196442914D01*
X206220057Y-196585771D01*
X207648628Y-195085771D02*
X206934342Y-195085771D01*
X206862914Y-195800057D01*
X206934342Y-195728628D01*
X207077200Y-195657200D01*
X207434342Y-195657200D01*
X207577200Y-195728628D01*
X207648628Y-195800057D01*
X207720057Y-195942914D01*
X207720057Y-196300057D01*
X207648628Y-196442914D01*
X207577200Y-196514342D01*
X207434342Y-196585771D01*
X207077200Y-196585771D01*
X206934342Y-196514342D01*
X206862914Y-196442914D01*
X208220057Y-197157200D02*
X208291485Y-197085771D01*
X208434342Y-196871485D01*
X208505771Y-196728628D01*
X208577200Y-196514342D01*
X208648628Y-196157200D01*
X208648628Y-195871485D01*
X208577200Y-195514342D01*
X208505771Y-195300057D01*
X208434342Y-195157200D01*
X208291485Y-194942914D01*
X208220057Y-194871485D01*
D10*
D11*
X177002200Y-191507200D02*
X285002200Y-191507200D01*
D10*
D12*
X264411485Y-193785771D02*
X263911485Y-193071485D01*
X263554342Y-193785771D02*
X263554342Y-192285771D01*
X264125771Y-192285771D01*
X264268628Y-192357200D01*
X264340057Y-192428628D01*
X264411485Y-192571485D01*
X264411485Y-192785771D01*
X264340057Y-192928628D01*
X264268628Y-193000057D01*
X264125771Y-193071485D01*
X263554342Y-193071485D01*
X265625771Y-193714342D02*
X265482914Y-193785771D01*
X265197200Y-193785771D01*
X265054342Y-193714342D01*
X264982914Y-193571485D01*
X264982914Y-193000057D01*
X265054342Y-192857200D01*
X265197200Y-192785771D01*
X265482914Y-192785771D01*
X265625771Y-192857200D01*
X265697200Y-193000057D01*
X265697200Y-193142914D01*
X264982914Y-193285771D01*
X266197200Y-192785771D02*
X266554342Y-193785771D01*
X266911485Y-192785771D01*
X267482914Y-193642914D02*
X267554342Y-193714342D01*
X267482914Y-193785771D01*
X267411485Y-193714342D01*
X267482914Y-193642914D01*
X267482914Y-193785771D01*
X267482914Y-192857200D02*
X267554342Y-192928628D01*
X267482914Y-193000057D01*
X267411485Y-192928628D01*
X267482914Y-192857200D01*
X267482914Y-193000057D01*
D10*
D11*
X178362914Y-193714342D02*
X178577200Y-193785771D01*
X178934342Y-193785771D01*
X179077200Y-193714342D01*
X179148628Y-193642914D01*
X179220057Y-193500057D01*
X179220057Y-193357200D01*
X179148628Y-193214342D01*
X179077200Y-193142914D01*
X178934342Y-193071485D01*
X178648628Y-193000057D01*
X178505771Y-192928628D01*
X178434342Y-192857200D01*
X178362914Y-192714342D01*
X178362914Y-192571485D01*
X178434342Y-192428628D01*
X178505771Y-192357200D01*
X178648628Y-192285771D01*
X179005771Y-192285771D01*
X179220057Y-192357200D01*
X179862914Y-193785771D02*
X179862914Y-192785771D01*
X179862914Y-192285771D02*
X179791485Y-192357200D01*
X179862914Y-192428628D01*
X179934342Y-192357200D01*
X179862914Y-192285771D01*
X179862914Y-192428628D01*
X180434342Y-192785771D02*
X181220057Y-192785771D01*
X180434342Y-193785771D01*
X181220057Y-193785771D01*
X182362914Y-193714342D02*
X182220057Y-193785771D01*
X181934342Y-193785771D01*
X181791485Y-193714342D01*
X181720057Y-193571485D01*
X181720057Y-193000057D01*
X181791485Y-192857200D01*
X181934342Y-192785771D01*
X182220057Y-192785771D01*
X182362914Y-192857200D01*
X182434342Y-193000057D01*
X182434342Y-193142914D01*
X181720057Y-193285771D01*
X183077200Y-193642914D02*
X183148628Y-193714342D01*
X183077200Y-193785771D01*
X183005771Y-193714342D01*
X183077200Y-193642914D01*
X183077200Y-193785771D01*
X183077200Y-192857200D02*
X183148628Y-192928628D01*
X183077200Y-193000057D01*
X183005771Y-192928628D01*
X183077200Y-192857200D01*
X183077200Y-193000057D01*
X184862914Y-193357200D02*
X185577200Y-193357200D01*
X184720057Y-193785771D02*
X185220057Y-192285771D01*
X185720057Y-193785771D01*
X186862914Y-192785771D02*
X186862914Y-193785771D01*
X186505771Y-192214342D02*
X186148628Y-193285771D01*
X187077200Y-193285771D01*
D10*
D11*
X263434342Y-196585771D02*
X263434342Y-195085771D01*
X264791485Y-196585771D02*
X264791485Y-195085771D01*
X264791485Y-196514342D02*
X264648628Y-196585771D01*
X264362914Y-196585771D01*
X264220057Y-196514342D01*
X264148628Y-196442914D01*
X264077200Y-196300057D01*
X264077200Y-195871485D01*
X264148628Y-195728628D01*
X264220057Y-195657200D01*
X264362914Y-195585771D01*
X264648628Y-195585771D01*
X264791485Y-195657200D01*
X265505771Y-196442914D02*
X265577200Y-196514342D01*
X265505771Y-196585771D01*
X265434342Y-196514342D01*
X265505771Y-196442914D01*
X265505771Y-196585771D01*
X265505771Y-195657200D02*
X265577200Y-195728628D01*
X265505771Y-195800057D01*
X265434342Y-195728628D01*
X265505771Y-195657200D01*
X265505771Y-195800057D01*
X268148628Y-196585771D02*
X267291485Y-196585771D01*
X267720057Y-196585771D02*
X267720057Y-195085771D01*
X267577200Y-195300057D01*
X267434342Y-195442914D01*
X267291485Y-195514342D01*
X269862914Y-195014342D02*
X268577200Y-196942914D01*
X271148628Y-196585771D02*
X270291485Y-196585771D01*
X270720057Y-196585771D02*
X270720057Y-195085771D01*
X270577200Y-195300057D01*
X270434342Y-195442914D01*
X270291485Y-195514342D01*
D10*
D11*
X177002200Y-187507200D02*
X285002200Y-187507200D01*
D10*
D13*
X178714580Y-188211961D02*
X179857438Y-188211961D01*
X179036009Y-190211961D02*
X179286009Y-188211961D01*
X180274104Y-190211961D02*
X180440771Y-188878628D01*
X180524104Y-188211961D02*
X180416961Y-188307200D01*
X180500295Y-188402438D01*
X180607438Y-188307200D01*
X180524104Y-188211961D01*
X180500295Y-188402438D01*
X181107438Y-188878628D02*
X181869342Y-188878628D01*
X181476485Y-188211961D02*
X181262200Y-189926247D01*
X181333628Y-190116723D01*
X181512200Y-190211961D01*
X181702676Y-190211961D01*
X182655057Y-190211961D02*
X182476485Y-190116723D01*
X182405057Y-189926247D01*
X182619342Y-188211961D01*
X184190771Y-190116723D02*
X183988390Y-190211961D01*
X183607438Y-190211961D01*
X183428866Y-190116723D01*
X183357438Y-189926247D01*
X183452676Y-189164342D01*
X183571723Y-188973866D01*
X183774104Y-188878628D01*
X184155057Y-188878628D01*
X184333628Y-188973866D01*
X184405057Y-189164342D01*
X184381247Y-189354819D01*
X183405057Y-189545295D01*
X185155057Y-190021485D02*
X185238390Y-190116723D01*
X185131247Y-190211961D01*
X185047914Y-190116723D01*
X185155057Y-190021485D01*
X185131247Y-190211961D01*
X185286009Y-188973866D02*
X185369342Y-189069104D01*
X185262200Y-189164342D01*
X185178866Y-189069104D01*
X185286009Y-188973866D01*
X185262200Y-189164342D01*
D10*
D11*
X178934342Y-185600057D02*
X178434342Y-185600057D01*
X178434342Y-186385771D02*
X178434342Y-184885771D01*
X179148628Y-184885771D01*
X179720057Y-186385771D02*
X179720057Y-185385771D01*
X179720057Y-184885771D02*
X179648628Y-184957200D01*
X179720057Y-185028628D01*
X179791485Y-184957200D01*
X179720057Y-184885771D01*
X179720057Y-185028628D01*
X180648628Y-186385771D02*
X180505771Y-186314342D01*
X180434342Y-186171485D01*
X180434342Y-184885771D01*
X181791485Y-186314342D02*
X181648628Y-186385771D01*
X181362914Y-186385771D01*
X181220057Y-186314342D01*
X181148628Y-186171485D01*
X181148628Y-185600057D01*
X181220057Y-185457200D01*
X181362914Y-185385771D01*
X181648628Y-185385771D01*
X181791485Y-185457200D01*
X181862914Y-185600057D01*
X181862914Y-185742914D01*
X181148628Y-185885771D01*
X182505771Y-186242914D02*
X182577200Y-186314342D01*
X182505771Y-186385771D01*
X182434342Y-186314342D01*
X182505771Y-186242914D01*
X182505771Y-186385771D01*
X182505771Y-185457200D02*
X182577200Y-185528628D01*
X182505771Y-185600057D01*
X182434342Y-185528628D01*
X182505771Y-185457200D01*
X182505771Y-185600057D01*
X185220057Y-186242914D02*
X185148628Y-186314342D01*
X184934342Y-186385771D01*
X184791485Y-186385771D01*
X184577200Y-186314342D01*
X184434342Y-186171485D01*
X184362914Y-186028628D01*
X184291485Y-185742914D01*
X184291485Y-185528628D01*
X184362914Y-185242914D01*
X184434342Y-185100057D01*
X184577200Y-184957200D01*
X184791485Y-184885771D01*
X184934342Y-184885771D01*
X185148628Y-184957200D01*
X185220057Y-185028628D01*
X186505771Y-186385771D02*
X186505771Y-185600057D01*
X186434342Y-185457200D01*
X186291485Y-185385771D01*
X186005771Y-185385771D01*
X185862914Y-185457200D01*
X186505771Y-186314342D02*
X186362914Y-186385771D01*
X186005771Y-186385771D01*
X185862914Y-186314342D01*
X185791485Y-186171485D01*
X185791485Y-186028628D01*
X185862914Y-185885771D01*
X186005771Y-185814342D01*
X186362914Y-185814342D01*
X186505771Y-185742914D01*
X187220057Y-185385771D02*
X187220057Y-186385771D01*
X187220057Y-185528628D02*
X187291485Y-185457200D01*
X187434342Y-185385771D01*
X187648628Y-185385771D01*
X187791485Y-185457200D01*
X187862914Y-185600057D01*
X187862914Y-186385771D01*
X188505771Y-186314342D02*
X188720057Y-186385771D01*
X189077200Y-186385771D01*
X189220057Y-186314342D01*
X189291485Y-186242914D01*
X189362914Y-186100057D01*
X189362914Y-185957200D01*
X189291485Y-185814342D01*
X189220057Y-185742914D01*
X189077200Y-185671485D01*
X188791485Y-185600057D01*
X188648628Y-185528628D01*
X188577200Y-185457200D01*
X188505771Y-185314342D01*
X188505771Y-185171485D01*
X188577200Y-185028628D01*
X188648628Y-184957200D01*
X188791485Y-184885771D01*
X189148628Y-184885771D01*
X189362914Y-184957200D01*
X190648628Y-186385771D02*
X190648628Y-185600057D01*
X190577200Y-185457200D01*
X190434342Y-185385771D01*
X190148628Y-185385771D01*
X190005771Y-185457200D01*
X190648628Y-186314342D02*
X190505771Y-186385771D01*
X190148628Y-186385771D01*
X190005771Y-186314342D01*
X189934342Y-186171485D01*
X189934342Y-186028628D01*
X190005771Y-185885771D01*
X190148628Y-185814342D01*
X190505771Y-185814342D01*
X190648628Y-185742914D01*
X191148628Y-185385771D02*
X191720057Y-185385771D01*
X191362914Y-184885771D02*
X191362914Y-186171485D01*
X191434342Y-186314342D01*
X191577200Y-186385771D01*
X191720057Y-186385771D01*
X193291485Y-185028628D02*
X193362914Y-184957200D01*
X193505771Y-184885771D01*
X193862914Y-184885771D01*
X194005771Y-184957200D01*
X194077200Y-185028628D01*
X194148628Y-185171485D01*
X194148628Y-185314342D01*
X194077200Y-185528628D01*
X193220057Y-186385771D01*
X194148628Y-186385771D01*
X195077200Y-184885771D02*
X195220057Y-184885771D01*
X195362914Y-184957200D01*
X195434342Y-185028628D01*
X195505771Y-185171485D01*
X195577200Y-185457200D01*
X195577200Y-185814342D01*
X195505771Y-186100057D01*
X195434342Y-186242914D01*
X195362914Y-186314342D01*
X195220057Y-186385771D01*
X195077200Y-186385771D01*
X194934342Y-186314342D01*
X194862914Y-186242914D01*
X194791485Y-186100057D01*
X194720057Y-185814342D01*
X194720057Y-185457200D01*
X194791485Y-185171485D01*
X194862914Y-185028628D01*
X194934342Y-184957200D01*
X195077200Y-184885771D01*
X196148628Y-185028628D02*
X196220057Y-184957200D01*
X196362914Y-184885771D01*
X196720057Y-184885771D01*
X196862914Y-184957200D01*
X196934342Y-185028628D01*
X197005771Y-185171485D01*
X197005771Y-185314342D01*
X196934342Y-185528628D01*
X196077200Y-186385771D01*
X197005771Y-186385771D01*
X197505771Y-184885771D02*
X198434342Y-184885771D01*
X197934342Y-185457200D01*
X198148628Y-185457200D01*
X198291485Y-185528628D01*
X198362914Y-185600057D01*
X198434342Y-185742914D01*
X198434342Y-186100057D01*
X198362914Y-186242914D01*
X198291485Y-186314342D01*
X198148628Y-186385771D01*
X197720057Y-186385771D01*
X197577200Y-186314342D01*
X197505771Y-186242914D01*
X201362914Y-185814342D02*
X202505771Y-185814342D01*
X204362914Y-185600057D02*
X204862914Y-185600057D01*
X205077200Y-186385771D02*
X204362914Y-186385771D01*
X204362914Y-184885771D01*
X205077200Y-184885771D01*
X205934342Y-186385771D02*
X205791485Y-186314342D01*
X205720057Y-186171485D01*
X205720057Y-184885771D01*
X207077200Y-186314342D02*
X206934342Y-186385771D01*
X206648628Y-186385771D01*
X206505771Y-186314342D01*
X206434342Y-186171485D01*
X206434342Y-185600057D01*
X206505771Y-185457200D01*
X206648628Y-185385771D01*
X206934342Y-185385771D01*
X207077200Y-185457200D01*
X207148628Y-185600057D01*
X207148628Y-185742914D01*
X206434342Y-185885771D01*
X207791485Y-186385771D02*
X207791485Y-184885771D01*
X207934342Y-185814342D02*
X208362914Y-186385771D01*
X208362914Y-185385771D02*
X207791485Y-185957200D01*
X208791485Y-185385771D02*
X209362914Y-185385771D01*
X209005771Y-184885771D02*
X209005771Y-186171485D01*
X209077200Y-186314342D01*
X209220057Y-186385771D01*
X209362914Y-186385771D01*
X209862914Y-186385771D02*
X209862914Y-185385771D01*
X209862914Y-185671485D02*
X209934342Y-185528628D01*
X210005771Y-185457200D01*
X210148628Y-185385771D01*
X210291485Y-185385771D01*
X211005771Y-186385771D02*
X210862914Y-186314342D01*
X210791485Y-186242914D01*
X210720057Y-186100057D01*
X210720057Y-185671485D01*
X210791485Y-185528628D01*
X210862914Y-185457200D01*
X211005771Y-185385771D01*
X211220057Y-185385771D01*
X211362914Y-185457200D01*
X211434342Y-185528628D01*
X211505771Y-185671485D01*
X211505771Y-186100057D01*
X211434342Y-186242914D01*
X211362914Y-186314342D01*
X211220057Y-186385771D01*
X211005771Y-186385771D01*
X212148628Y-186385771D02*
X212148628Y-184885771D01*
X212291485Y-185814342D02*
X212720057Y-186385771D01*
X212720057Y-185385771D02*
X212148628Y-185957200D01*
X213577200Y-186385771D02*
X213434342Y-186314342D01*
X213362914Y-186242914D01*
X213291485Y-186100057D01*
X213291485Y-185671485D01*
X213362914Y-185528628D01*
X213434342Y-185457200D01*
X213577200Y-185385771D01*
X213791485Y-185385771D01*
X213934342Y-185457200D01*
X214005771Y-185528628D01*
X214077200Y-185671485D01*
X214077200Y-186100057D01*
X214005771Y-186242914D01*
X213934342Y-186314342D01*
X213791485Y-186385771D01*
X213577200Y-186385771D01*
X214720057Y-185385771D02*
X214720057Y-186385771D01*
X214720057Y-185528628D02*
X214791485Y-185457200D01*
X214934342Y-185385771D01*
X215148628Y-185385771D01*
X215291485Y-185457200D01*
X215362914Y-185600057D01*
X215362914Y-186385771D01*
X216005771Y-186314342D02*
X216148628Y-186385771D01*
X216434342Y-186385771D01*
X216577200Y-186314342D01*
X216648628Y-186171485D01*
X216648628Y-186100057D01*
X216577200Y-185957200D01*
X216434342Y-185885771D01*
X216220057Y-185885771D01*
X216077200Y-185814342D01*
X216005771Y-185671485D01*
X216005771Y-185600057D01*
X216077200Y-185457200D01*
X216220057Y-185385771D01*
X216434342Y-185385771D01*
X216577200Y-185457200D01*
X217077200Y-185385771D02*
X217648628Y-185385771D01*
X217291485Y-184885771D02*
X217291485Y-186171485D01*
X217362914Y-186314342D01*
X217505771Y-186385771D01*
X217648628Y-186385771D01*
X218148628Y-186385771D02*
X218148628Y-185385771D01*
X218148628Y-185671485D02*
X218220057Y-185528628D01*
X218291485Y-185457200D01*
X218434342Y-185385771D01*
X218577200Y-185385771D01*
X219720057Y-185385771D02*
X219720057Y-186385771D01*
X219077200Y-185385771D02*
X219077200Y-186171485D01*
X219148628Y-186314342D01*
X219291485Y-186385771D01*
X219505771Y-186385771D01*
X219648628Y-186314342D01*
X219720057Y-186242914D01*
X220434342Y-186385771D02*
X220434342Y-184885771D01*
X220577200Y-185814342D02*
X221005771Y-186385771D01*
X221005771Y-185385771D02*
X220434342Y-185957200D01*
X222291485Y-186314342D02*
X222148628Y-186385771D01*
X221862914Y-186385771D01*
X221720057Y-186314342D01*
X221648628Y-186242914D01*
X221577200Y-186100057D01*
X221577200Y-185671485D01*
X221648628Y-185528628D01*
X221720057Y-185457200D01*
X221862914Y-185385771D01*
X222148628Y-185385771D01*
X222291485Y-185457200D01*
X223505771Y-186314342D02*
X223362914Y-186385771D01*
X223077200Y-186385771D01*
X222934342Y-186314342D01*
X222862914Y-186171485D01*
X222862914Y-185600057D01*
X222934342Y-185457200D01*
X223077200Y-185385771D01*
X223362914Y-185385771D01*
X223505771Y-185457200D01*
X223577200Y-185600057D01*
X223577200Y-185742914D01*
X222862914Y-185885771D01*
X224220057Y-186242914D02*
X224291485Y-186314342D01*
X224220057Y-186385771D01*
X224148628Y-186314342D01*
X224220057Y-186242914D01*
X224220057Y-186385771D01*
X224934342Y-186385771D02*
X224934342Y-184885771D01*
X225077200Y-185814342D02*
X225505771Y-186385771D01*
X225505771Y-185385771D02*
X224934342Y-185957200D01*
X226148628Y-186385771D02*
X226148628Y-185385771D01*
X226148628Y-184885771D02*
X226077200Y-184957200D01*
X226148628Y-185028628D01*
X226220057Y-184957200D01*
X226148628Y-184885771D01*
X226148628Y-185028628D01*
X227505771Y-186314342D02*
X227362914Y-186385771D01*
X227077200Y-186385771D01*
X226934342Y-186314342D01*
X226862914Y-186242914D01*
X226791485Y-186100057D01*
X226791485Y-185671485D01*
X226862914Y-185528628D01*
X226934342Y-185457200D01*
X227077200Y-185385771D01*
X227362914Y-185385771D01*
X227505771Y-185457200D01*
X228791485Y-186385771D02*
X228791485Y-185600057D01*
X228720057Y-185457200D01*
X228577200Y-185385771D01*
X228291485Y-185385771D01*
X228148628Y-185457200D01*
X228791485Y-186314342D02*
X228648628Y-186385771D01*
X228291485Y-186385771D01*
X228148628Y-186314342D01*
X228077200Y-186171485D01*
X228077200Y-186028628D01*
X228148628Y-185885771D01*
X228291485Y-185814342D01*
X228648628Y-185814342D01*
X228791485Y-185742914D01*
X230148628Y-186385771D02*
X230148628Y-184885771D01*
X230148628Y-186314342D02*
X230005771Y-186385771D01*
X229720057Y-186385771D01*
X229577200Y-186314342D01*
X229505771Y-186242914D01*
X229434342Y-186100057D01*
X229434342Y-185671485D01*
X229505771Y-185528628D01*
X229577200Y-185457200D01*
X229720057Y-185385771D01*
X230005771Y-185385771D01*
X230148628Y-185457200D01*
X230505771Y-186528628D02*
X231648628Y-186528628D01*
X232005771Y-185385771D02*
X232005771Y-186885771D01*
X232005771Y-185457200D02*
X232148628Y-185385771D01*
X232434342Y-185385771D01*
X232577200Y-185457200D01*
X232648628Y-185528628D01*
X232720057Y-185671485D01*
X232720057Y-186100057D01*
X232648628Y-186242914D01*
X232577200Y-186314342D01*
X232434342Y-186385771D01*
X232148628Y-186385771D01*
X232005771Y-186314342D01*
X234005771Y-186314342D02*
X233862914Y-186385771D01*
X233577200Y-186385771D01*
X233434342Y-186314342D01*
X233362914Y-186242914D01*
X233291485Y-186100057D01*
X233291485Y-185671485D01*
X233362914Y-185528628D01*
X233434342Y-185457200D01*
X233577200Y-185385771D01*
X233862914Y-185385771D01*
X234005771Y-185457200D01*
X234648628Y-186385771D02*
X234648628Y-184885771D01*
X234648628Y-185457200D02*
X234791485Y-185385771D01*
X235077200Y-185385771D01*
X235220057Y-185457200D01*
X235291485Y-185528628D01*
X235362914Y-185671485D01*
X235362914Y-186100057D01*
X235291485Y-186242914D01*
X235220057Y-186314342D01*
X235077200Y-186385771D01*
X234791485Y-186385771D01*
X234648628Y-186314342D01*
D10*
D11*
X177002200Y-181507200D02*
X285002200Y-181507200D01*
D10*
D11*
X178362914Y-183614342D02*
X178577200Y-183685771D01*
X178934342Y-183685771D01*
X179077200Y-183614342D01*
X179148628Y-183542914D01*
X179220057Y-183400057D01*
X179220057Y-183257200D01*
X179148628Y-183114342D01*
X179077200Y-183042914D01*
X178934342Y-182971485D01*
X178648628Y-182900057D01*
X178505771Y-182828628D01*
X178434342Y-182757200D01*
X178362914Y-182614342D01*
X178362914Y-182471485D01*
X178434342Y-182328628D01*
X178505771Y-182257200D01*
X178648628Y-182185771D01*
X179005771Y-182185771D01*
X179220057Y-182257200D01*
X179862914Y-183685771D02*
X179862914Y-182185771D01*
X180505771Y-183685771D02*
X180505771Y-182900057D01*
X180434342Y-182757200D01*
X180291485Y-182685771D01*
X180077200Y-182685771D01*
X179934342Y-182757200D01*
X179862914Y-182828628D01*
X181791485Y-183614342D02*
X181648628Y-183685771D01*
X181362914Y-183685771D01*
X181220057Y-183614342D01*
X181148628Y-183471485D01*
X181148628Y-182900057D01*
X181220057Y-182757200D01*
X181362914Y-182685771D01*
X181648628Y-182685771D01*
X181791485Y-182757200D01*
X181862914Y-182900057D01*
X181862914Y-183042914D01*
X181148628Y-183185771D01*
X183077200Y-183614342D02*
X182934342Y-183685771D01*
X182648628Y-183685771D01*
X182505771Y-183614342D01*
X182434342Y-183471485D01*
X182434342Y-182900057D01*
X182505771Y-182757200D01*
X182648628Y-182685771D01*
X182934342Y-182685771D01*
X183077200Y-182757200D01*
X183148628Y-182900057D01*
X183148628Y-183042914D01*
X182434342Y-183185771D01*
X183577200Y-182685771D02*
X184148628Y-182685771D01*
X183791485Y-182185771D02*
X183791485Y-183471485D01*
X183862914Y-183614342D01*
X184005771Y-183685771D01*
X184148628Y-183685771D01*
X184648628Y-183542914D02*
X184720057Y-183614342D01*
X184648628Y-183685771D01*
X184577200Y-183614342D01*
X184648628Y-183542914D01*
X184648628Y-183685771D01*
X184648628Y-182757200D02*
X184720057Y-182828628D01*
X184648628Y-182900057D01*
X184577200Y-182828628D01*
X184648628Y-182757200D01*
X184648628Y-182900057D01*
D10*
D12*
D10*
D11*
D10*
D11*
D10*
D11*
D10*
D11*
D10*
D11*
X197002200Y-191507200D02*
X197002200Y-194507200D01*
D10*
D11*
X261002200Y-191507200D02*
X261002200Y-198007200D01*
%TO.C,U2201*%
G36*
X-17157000Y15930339D02*
G01*
X-18407000Y15930339D01*
X-18407000Y16480339D01*
X-17157000Y16480339D01*
X-17157000Y15930339D01*
G37*
D14*
X-17157000Y15930339D02*
X-18407000Y15930339D01*
X-18407000Y16480339D01*
X-17157000Y16480339D01*
X-17157000Y15930339D01*
G36*
X-11632000Y15305339D02*
G01*
X-13432000Y15305339D01*
X-13432000Y17105339D01*
X-11632000Y17105339D01*
X-11632000Y15305339D01*
G37*
X-11632000Y15305339D02*
X-13432000Y15305339D01*
X-13432000Y17105339D01*
X-11632000Y17105339D01*
X-11632000Y15305339D01*
G36*
X-9157000Y18430339D02*
G01*
X-10407000Y18430339D01*
X-10407000Y18980339D01*
X-9157000Y18980339D01*
X-9157000Y18430339D01*
G37*
X-9157000Y18430339D02*
X-10407000Y18430339D01*
X-10407000Y18980339D01*
X-9157000Y18980339D01*
X-9157000Y18430339D01*
G36*
X-14132000Y17805339D02*
G01*
X-15932000Y17805339D01*
X-15932000Y19605339D01*
X-14132000Y19605339D01*
X-14132000Y17805339D01*
G37*
X-14132000Y17805339D02*
X-15932000Y17805339D01*
X-15932000Y19605339D01*
X-14132000Y19605339D01*
X-14132000Y17805339D01*
G36*
X-13507000Y12830339D02*
G01*
X-14057000Y12830339D01*
X-14057000Y14080339D01*
X-13507000Y14080339D01*
X-13507000Y12830339D01*
G37*
X-13507000Y12830339D02*
X-14057000Y12830339D01*
X-14057000Y14080339D01*
X-13507000Y14080339D01*
X-13507000Y12830339D01*
G36*
X-9157000Y19680339D02*
G01*
X-10407000Y19680339D01*
X-10407000Y20230339D01*
X-9157000Y20230339D01*
X-9157000Y19680339D01*
G37*
X-9157000Y19680339D02*
X-10407000Y19680339D01*
X-10407000Y20230339D01*
X-9157000Y20230339D01*
X-9157000Y19680339D01*
G36*
X-16007000Y12830339D02*
G01*
X-16557000Y12830339D01*
X-16557000Y14080339D01*
X-16007000Y14080339D01*
X-16007000Y12830339D01*
G37*
X-16007000Y12830339D02*
X-16557000Y12830339D01*
X-16557000Y14080339D01*
X-16007000Y14080339D01*
X-16007000Y12830339D01*
G36*
X-11007000Y20830339D02*
G01*
X-11557000Y20830339D01*
X-11557000Y22080339D01*
X-11007000Y22080339D01*
X-11007000Y20830339D01*
G37*
X-11007000Y20830339D02*
X-11557000Y20830339D01*
X-11557000Y22080339D01*
X-11007000Y22080339D01*
X-11007000Y20830339D01*
G36*
X-17157000Y17180339D02*
G01*
X-18407000Y17180339D01*
X-18407000Y17730339D01*
X-17157000Y17730339D01*
X-17157000Y17180339D01*
G37*
X-17157000Y17180339D02*
X-18407000Y17180339D01*
X-18407000Y17730339D01*
X-17157000Y17730339D01*
X-17157000Y17180339D01*
G36*
X-9157000Y15930339D02*
G01*
X-10407000Y15930339D01*
X-10407000Y16480339D01*
X-9157000Y16480339D01*
X-9157000Y15930339D01*
G37*
X-9157000Y15930339D02*
X-10407000Y15930339D01*
X-10407000Y16480339D01*
X-9157000Y16480339D01*
X-9157000Y15930339D01*
G36*
X-11007000Y12830339D02*
G01*
X-11557000Y12830339D01*
X-11557000Y14080339D01*
X-11007000Y14080339D01*
X-11007000Y12830339D01*
G37*
X-11007000Y12830339D02*
X-11557000Y12830339D01*
X-11557000Y14080339D01*
X-11007000Y14080339D01*
X-11007000Y12830339D01*
G36*
X-11632000Y17805339D02*
G01*
X-13432000Y17805339D01*
X-13432000Y19605339D01*
X-11632000Y19605339D01*
X-11632000Y17805339D01*
G37*
X-11632000Y17805339D02*
X-13432000Y17805339D01*
X-13432000Y19605339D01*
X-11632000Y19605339D01*
X-11632000Y17805339D01*
G36*
X-14757000Y12830339D02*
G01*
X-15307000Y12830339D01*
X-15307000Y14080339D01*
X-14757000Y14080339D01*
X-14757000Y12830339D01*
G37*
X-14757000Y12830339D02*
X-15307000Y12830339D01*
X-15307000Y14080339D01*
X-14757000Y14080339D01*
X-14757000Y12830339D01*
G36*
X-16007000Y20830339D02*
G01*
X-16557000Y20830339D01*
X-16557000Y22080339D01*
X-16007000Y22080339D01*
X-16007000Y20830339D01*
G37*
X-16007000Y20830339D02*
X-16557000Y20830339D01*
X-16557000Y22080339D01*
X-16007000Y22080339D01*
X-16007000Y20830339D01*
G36*
X-9157000Y17180339D02*
G01*
X-10407000Y17180339D01*
X-10407000Y17730339D01*
X-9157000Y17730339D01*
X-9157000Y17180339D01*
G37*
X-9157000Y17180339D02*
X-10407000Y17180339D01*
X-10407000Y17730339D01*
X-9157000Y17730339D01*
X-9157000Y17180339D01*
G36*
X-14757000Y20830339D02*
G01*
X-15307000Y20830339D01*
X-15307000Y22080339D01*
X-14757000Y22080339D01*
X-14757000Y20830339D01*
G37*
X-14757000Y20830339D02*
X-15307000Y20830339D01*
X-15307000Y22080339D01*
X-14757000Y22080339D01*
X-14757000Y20830339D01*
G36*
X-17157000Y20050339D02*
G01*
X-17157000Y19680339D01*
X-18407000Y19680339D01*
X-18407000Y20230339D01*
X-17337000Y20230339D01*
X-17157000Y20050339D01*
G37*
X-17157000Y20050339D02*
X-17157000Y19680339D01*
X-18407000Y19680339D01*
X-18407000Y20230339D01*
X-17337000Y20230339D01*
X-17157000Y20050339D01*
G36*
X-17157000Y14680339D02*
G01*
X-18407000Y14680339D01*
X-18407000Y15230339D01*
X-17157000Y15230339D01*
X-17157000Y14680339D01*
G37*
X-17157000Y14680339D02*
X-18407000Y14680339D01*
X-18407000Y15230339D01*
X-17157000Y15230339D01*
X-17157000Y14680339D01*
G36*
X-12257000Y20830339D02*
G01*
X-12807000Y20830339D01*
X-12807000Y22080339D01*
X-12257000Y22080339D01*
X-12257000Y20830339D01*
G37*
X-12257000Y20830339D02*
X-12807000Y20830339D01*
X-12807000Y22080339D01*
X-12257000Y22080339D01*
X-12257000Y20830339D01*
G36*
X-14132000Y15305339D02*
G01*
X-15932000Y15305339D01*
X-15932000Y17105339D01*
X-14132000Y17105339D01*
X-14132000Y15305339D01*
G37*
X-14132000Y15305339D02*
X-15932000Y15305339D01*
X-15932000Y17105339D01*
X-14132000Y17105339D01*
X-14132000Y15305339D01*
G36*
X-12257000Y12830339D02*
G01*
X-12807000Y12830339D01*
X-12807000Y14080339D01*
X-12257000Y14080339D01*
X-12257000Y12830339D01*
G37*
X-12257000Y12830339D02*
X-12807000Y12830339D01*
X-12807000Y14080339D01*
X-12257000Y14080339D01*
X-12257000Y12830339D01*
G36*
X-9157000Y14680339D02*
G01*
X-10407000Y14680339D01*
X-10407000Y15230339D01*
X-9157000Y15230339D01*
X-9157000Y14680339D01*
G37*
X-9157000Y14680339D02*
X-10407000Y14680339D01*
X-10407000Y15230339D01*
X-9157000Y15230339D01*
X-9157000Y14680339D01*
G36*
X-13507000Y20830339D02*
G01*
X-14057000Y20830339D01*
X-14057000Y22080339D01*
X-13507000Y22080339D01*
X-13507000Y20830339D01*
G37*
X-13507000Y20830339D02*
X-14057000Y20830339D01*
X-14057000Y22080339D01*
X-13507000Y22080339D01*
X-13507000Y20830339D01*
G36*
X-17157000Y18430339D02*
G01*
X-18407000Y18430339D01*
X-18407000Y18980339D01*
X-17157000Y18980339D01*
X-17157000Y18430339D01*
G37*
X-17157000Y18430339D02*
X-18407000Y18430339D01*
X-18407000Y18980339D01*
X-17157000Y18980339D01*
X-17157000Y18430339D01*
%TO.C,U1801*%
G36*
X121325000Y15875000D02*
G01*
X120075000Y15875000D01*
X120075000Y16425000D01*
X121325000Y16425000D01*
X121325000Y15875000D01*
G37*
X121325000Y15875000D02*
X120075000Y15875000D01*
X120075000Y16425000D01*
X121325000Y16425000D01*
X121325000Y15875000D01*
G36*
X121325000Y10875000D02*
G01*
X120075000Y10875000D01*
X120075000Y11425000D01*
X121325000Y11425000D01*
X121325000Y10875000D01*
G37*
X121325000Y10875000D02*
X120075000Y10875000D01*
X120075000Y11425000D01*
X121325000Y11425000D01*
X121325000Y10875000D01*
G36*
X121325000Y13375000D02*
G01*
X120075000Y13375000D01*
X120075000Y13925000D01*
X121325000Y13925000D01*
X121325000Y13375000D01*
G37*
X121325000Y13375000D02*
X120075000Y13375000D01*
X120075000Y13925000D01*
X121325000Y13925000D01*
X121325000Y13375000D01*
G36*
X113325000Y12125000D02*
G01*
X112075000Y12125000D01*
X112075000Y12675000D01*
X113325000Y12675000D01*
X113325000Y12125000D01*
G37*
X113325000Y12125000D02*
X112075000Y12125000D01*
X112075000Y12675000D01*
X113325000Y12675000D01*
X113325000Y12125000D01*
G36*
X119475000Y9025000D02*
G01*
X118925000Y9025000D01*
X118925000Y10275000D01*
X119475000Y10275000D01*
X119475000Y9025000D01*
G37*
X119475000Y9025000D02*
X118925000Y9025000D01*
X118925000Y10275000D01*
X119475000Y10275000D01*
X119475000Y9025000D01*
G36*
X116975000Y17025000D02*
G01*
X116425000Y17025000D01*
X116425000Y18275000D01*
X116975000Y18275000D01*
X116975000Y17025000D01*
G37*
X116975000Y17025000D02*
X116425000Y17025000D01*
X116425000Y18275000D01*
X116975000Y18275000D01*
X116975000Y17025000D01*
G36*
X113325000Y13375000D02*
G01*
X112075000Y13375000D01*
X112075000Y13925000D01*
X113325000Y13925000D01*
X113325000Y13375000D01*
G37*
X113325000Y13375000D02*
X112075000Y13375000D01*
X112075000Y13925000D01*
X113325000Y13925000D01*
X113325000Y13375000D01*
G36*
X114475000Y9025000D02*
G01*
X113925000Y9025000D01*
X113925000Y10275000D01*
X114475000Y10275000D01*
X114475000Y9025000D01*
G37*
X114475000Y9025000D02*
X113925000Y9025000D01*
X113925000Y10275000D01*
X114475000Y10275000D01*
X114475000Y9025000D01*
G36*
X118225000Y17025000D02*
G01*
X117675000Y17025000D01*
X117675000Y18275000D01*
X118225000Y18275000D01*
X118225000Y17025000D01*
G37*
X118225000Y17025000D02*
X117675000Y17025000D01*
X117675000Y18275000D01*
X118225000Y18275000D01*
X118225000Y17025000D01*
G36*
X114475000Y17025000D02*
G01*
X113925000Y17025000D01*
X113925000Y18275000D01*
X114475000Y18275000D01*
X114475000Y17025000D01*
G37*
X114475000Y17025000D02*
X113925000Y17025000D01*
X113925000Y18275000D01*
X114475000Y18275000D01*
X114475000Y17025000D01*
G36*
X115725000Y17025000D02*
G01*
X115175000Y17025000D01*
X115175000Y18275000D01*
X115725000Y18275000D01*
X115725000Y17025000D01*
G37*
X115725000Y17025000D02*
X115175000Y17025000D01*
X115175000Y18275000D01*
X115725000Y18275000D01*
X115725000Y17025000D01*
G36*
X121325000Y14625000D02*
G01*
X120075000Y14625000D01*
X120075000Y15175000D01*
X121325000Y15175000D01*
X121325000Y14625000D01*
G37*
X121325000Y14625000D02*
X120075000Y14625000D01*
X120075000Y15175000D01*
X121325000Y15175000D01*
X121325000Y14625000D01*
G36*
X113325000Y10875000D02*
G01*
X112075000Y10875000D01*
X112075000Y11425000D01*
X113325000Y11425000D01*
X113325000Y10875000D01*
G37*
X113325000Y10875000D02*
X112075000Y10875000D01*
X112075000Y11425000D01*
X113325000Y11425000D01*
X113325000Y10875000D01*
G36*
X118850000Y11500000D02*
G01*
X117050000Y11500000D01*
X117050000Y13300000D01*
X118850000Y13300000D01*
X118850000Y11500000D01*
G37*
X118850000Y11500000D02*
X117050000Y11500000D01*
X117050000Y13300000D01*
X118850000Y13300000D01*
X118850000Y11500000D01*
G36*
X116350000Y14000000D02*
G01*
X114550000Y14000000D01*
X114550000Y15800000D01*
X116350000Y15800000D01*
X116350000Y14000000D01*
G37*
X116350000Y14000000D02*
X114550000Y14000000D01*
X114550000Y15800000D01*
X116350000Y15800000D01*
X116350000Y14000000D01*
G36*
X121325000Y12125000D02*
G01*
X120075000Y12125000D01*
X120075000Y12675000D01*
X121325000Y12675000D01*
X121325000Y12125000D01*
G37*
X121325000Y12125000D02*
X120075000Y12125000D01*
X120075000Y12675000D01*
X121325000Y12675000D01*
X121325000Y12125000D01*
G36*
X118850000Y14000000D02*
G01*
X117050000Y14000000D01*
X117050000Y15800000D01*
X118850000Y15800000D01*
X118850000Y14000000D01*
G37*
X118850000Y14000000D02*
X117050000Y14000000D01*
X117050000Y15800000D01*
X118850000Y15800000D01*
X118850000Y14000000D01*
G36*
X116975000Y9025000D02*
G01*
X116425000Y9025000D01*
X116425000Y10275000D01*
X116975000Y10275000D01*
X116975000Y9025000D01*
G37*
X116975000Y9025000D02*
X116425000Y9025000D01*
X116425000Y10275000D01*
X116975000Y10275000D01*
X116975000Y9025000D01*
G36*
X113325000Y14625000D02*
G01*
X112075000Y14625000D01*
X112075000Y15175000D01*
X113325000Y15175000D01*
X113325000Y14625000D01*
G37*
X113325000Y14625000D02*
X112075000Y14625000D01*
X112075000Y15175000D01*
X113325000Y15175000D01*
X113325000Y14625000D01*
G36*
X115725000Y9025000D02*
G01*
X115175000Y9025000D01*
X115175000Y10275000D01*
X115725000Y10275000D01*
X115725000Y9025000D01*
G37*
X115725000Y9025000D02*
X115175000Y9025000D01*
X115175000Y10275000D01*
X115725000Y10275000D01*
X115725000Y9025000D01*
G36*
X113325000Y16245000D02*
G01*
X113325000Y15875000D01*
X112075000Y15875000D01*
X112075000Y16425000D01*
X113145000Y16425000D01*
X113325000Y16245000D01*
G37*
X113325000Y16245000D02*
X113325000Y15875000D01*
X112075000Y15875000D01*
X112075000Y16425000D01*
X113145000Y16425000D01*
X113325000Y16245000D01*
G36*
X119475000Y17025000D02*
G01*
X118925000Y17025000D01*
X118925000Y18275000D01*
X119475000Y18275000D01*
X119475000Y17025000D01*
G37*
X119475000Y17025000D02*
X118925000Y17025000D01*
X118925000Y18275000D01*
X119475000Y18275000D01*
X119475000Y17025000D01*
G36*
X118225000Y9025000D02*
G01*
X117675000Y9025000D01*
X117675000Y10275000D01*
X118225000Y10275000D01*
X118225000Y9025000D01*
G37*
X118225000Y9025000D02*
X117675000Y9025000D01*
X117675000Y10275000D01*
X118225000Y10275000D01*
X118225000Y9025000D01*
G36*
X116350000Y11500000D02*
G01*
X114550000Y11500000D01*
X114550000Y13300000D01*
X116350000Y13300000D01*
X116350000Y11500000D01*
G37*
X116350000Y11500000D02*
X114550000Y11500000D01*
X114550000Y13300000D01*
X116350000Y13300000D01*
X116350000Y11500000D01*
%TD*%
D15*
%TO.C,SW301*%
X86712500Y-84750000D03*
X86712500Y-77250000D03*
%TD*%
D16*
%TO.C,U1803*%
X3540000Y22167839D03*
D17*
X3402500Y21255339D03*
X3402500Y20755339D03*
X3402500Y20255339D03*
X3402500Y19755339D03*
D16*
X3540000Y18842839D03*
X4040000Y18842839D03*
X4540000Y18842839D03*
X5040000Y18842839D03*
X5540000Y18842839D03*
X6040000Y18842839D03*
X6540000Y18842839D03*
X7040000Y18842839D03*
X7540000Y18842839D03*
X8040000Y18842839D03*
D17*
X8177500Y19755339D03*
X8177500Y20255339D03*
X8177500Y20755339D03*
X8177500Y21255339D03*
D16*
X8040000Y22167839D03*
X7540000Y22167839D03*
X7040000Y22167839D03*
X6540000Y22167839D03*
X6040000Y22167839D03*
X5540000Y22167839D03*
X5040000Y22167839D03*
X4540000Y22167839D03*
X4040000Y22167839D03*
%TD*%
D18*
%TO.C,D1403*%
X256850000Y-48100000D03*
X260050000Y-48100000D03*
X260050000Y-43200000D03*
X256850000Y-43200000D03*
%TD*%
D19*
%TO.C,R210*%
X260580000Y86210000D03*
X261600000Y86210000D03*
%TD*%
D20*
%TO.C,R316*%
X83160000Y-62500000D03*
X82140000Y-62500000D03*
%TD*%
D19*
%TO.C,R208*%
X122845000Y97155000D03*
X123865000Y97155000D03*
%TD*%
%TO.C,R511*%
X158585000Y50785000D03*
X159605000Y50785000D03*
%TD*%
D21*
%TO.C,J404*%
X82200000Y-30650000D03*
X79700000Y-30650000D03*
X77200000Y-30650000D03*
X74700000Y-30650000D03*
D22*
X84100000Y-28500000D03*
X72800000Y-28500000D03*
%TD*%
D23*
%TO.C,C306*%
X83262500Y-57950000D03*
X83262500Y-58910000D03*
%TD*%
D24*
%TO.C,Q602*%
X35272500Y42225339D03*
X35272500Y40325339D03*
X37147500Y41275339D03*
%TD*%
D19*
%TO.C,R512*%
X163145000Y54765000D03*
X164165000Y54765000D03*
%TD*%
D18*
%TO.C,D1402*%
X256750000Y-58300000D03*
X259950000Y-58300000D03*
X259950000Y-53400000D03*
X256750000Y-53400000D03*
%TD*%
D19*
%TO.C,R521*%
X222050000Y77310000D03*
X223070000Y77310000D03*
%TD*%
D25*
%TO.C,BT601*%
X159400000Y-38300000D03*
X157400000Y-38300000D03*
D26*
X161750000Y-32550000D03*
X155050000Y-32550000D03*
%TD*%
D19*
%TO.C,R502*%
X163145000Y56755000D03*
X164165000Y56755000D03*
%TD*%
D24*
%TO.C,Q701*%
X177817500Y83945000D03*
X177817500Y82045000D03*
X179692500Y82995000D03*
%TD*%
D19*
%TO.C,R515*%
X158585000Y48795000D03*
X159605000Y48795000D03*
%TD*%
D27*
%TO.C,R304*%
X90837500Y-77490000D03*
X90837500Y-78510000D03*
%TD*%
D28*
%TO.C,C307*%
X83262500Y-60900000D03*
X83262500Y-59940000D03*
%TD*%
D29*
%TO.C,C2201*%
X-7010000Y22295339D03*
X-6050000Y22295339D03*
%TD*%
D30*
%TO.C,U302*%
X85100000Y-55300000D03*
X85100000Y-56100000D03*
X85100000Y-56900000D03*
X85100000Y-57700000D03*
X85100000Y-58500000D03*
X85100000Y-59300000D03*
X85100000Y-60100000D03*
X85100000Y-60900000D03*
X85100000Y-61700000D03*
X85100000Y-62500000D03*
X85100000Y-63300000D03*
X85100000Y-64100000D03*
X85100000Y-64900000D03*
D31*
X85800000Y-66150000D03*
X86600000Y-66150000D03*
X87400000Y-66150000D03*
X88200000Y-66150000D03*
X89000000Y-66150000D03*
X89800000Y-66150000D03*
X90600000Y-66150000D03*
X91400000Y-66150000D03*
X92200000Y-66150000D03*
X93000000Y-66150000D03*
X93800000Y-66150000D03*
X94600000Y-66150000D03*
X95400000Y-66150000D03*
X96200000Y-66150000D03*
D30*
X96900000Y-64900000D03*
X96900000Y-64100000D03*
X96900000Y-63300000D03*
X96900000Y-62500000D03*
X96900000Y-61700000D03*
X96900000Y-60900000D03*
X96900000Y-60100000D03*
X96900000Y-59300000D03*
X96900000Y-58500000D03*
X96900000Y-57700000D03*
X96900000Y-56900000D03*
X96900000Y-56100000D03*
X96900000Y-55300000D03*
D31*
X96200000Y-54050000D03*
X95400000Y-54050000D03*
X94600000Y-54050000D03*
X93800000Y-54050000D03*
X93000000Y-54050000D03*
X92200000Y-54050000D03*
X91400000Y-54050000D03*
X90600000Y-54050000D03*
X89800000Y-54050000D03*
X89000000Y-54050000D03*
X88200000Y-54050000D03*
X87400000Y-54050000D03*
X86600000Y-54050000D03*
X85800000Y-54050000D03*
D32*
X91000000Y-60100000D03*
X92500000Y-58600000D03*
X92500000Y-61600000D03*
X89500000Y-60100000D03*
X89500000Y-61600000D03*
X92500000Y-60100000D03*
D33*
X89500000Y-58600000D03*
D32*
X91000000Y-61600000D03*
X91000000Y-58600000D03*
%TD*%
D34*
%TO.C,SW202*%
X168900000Y-52640000D03*
X168900000Y-55180000D03*
X168900000Y-57720000D03*
X168900000Y-60260000D03*
X177800000Y-60260000D03*
X177800000Y-57720000D03*
X177800000Y-55180000D03*
X177800000Y-52640000D03*
%TD*%
D19*
%TO.C,R802*%
X247260000Y82230000D03*
X248280000Y82230000D03*
%TD*%
%TO.C,R519*%
X227870000Y77310000D03*
X228890000Y77310000D03*
%TD*%
D35*
%TO.C,IC1001*%
X56382000Y-57659000D03*
X56382000Y-58929000D03*
X56382000Y-60199000D03*
X56382000Y-61469000D03*
X61806000Y-61469000D03*
X61806000Y-60199000D03*
X61806000Y-58929000D03*
X61806000Y-57659000D03*
%TD*%
D20*
%TO.C,R1205*%
X210310000Y-51825000D03*
X209290000Y-51825000D03*
%TD*%
D24*
%TO.C,Q506*%
X227502500Y81480000D03*
X227502500Y79580000D03*
X229377500Y80530000D03*
%TD*%
D23*
%TO.C,C302*%
X84437500Y-74840000D03*
X84437500Y-75800000D03*
%TD*%
D18*
%TO.C,D1404*%
X257000000Y-36750000D03*
X260200000Y-36750000D03*
X260200000Y-31850000D03*
X257000000Y-31850000D03*
%TD*%
D24*
%TO.C,Q504*%
X222612500Y85930000D03*
X222612500Y84030000D03*
X224487500Y84980000D03*
%TD*%
D19*
%TO.C,R1701*%
X78940000Y3700000D03*
X79960000Y3700000D03*
%TD*%
D18*
%TO.C,D1503*%
X244150000Y-53300000D03*
X247350000Y-53300000D03*
X247350000Y-48400000D03*
X244150000Y-48400000D03*
%TD*%
D19*
%TO.C,R1801*%
X7680000Y14745339D03*
X8700000Y14745339D03*
%TD*%
D25*
%TO.C,BT602*%
X140400000Y-38200000D03*
X138400000Y-38200000D03*
D26*
X142750000Y-32450000D03*
X136050000Y-32450000D03*
%TD*%
D28*
%TO.C,C303*%
X89737500Y-80810000D03*
X89737500Y-79850000D03*
%TD*%
D18*
%TO.C,D1504*%
X244200000Y-38050000D03*
X247400000Y-38050000D03*
X247400000Y-33150000D03*
X244200000Y-33150000D03*
%TD*%
D36*
%TO.C,Q401*%
X70200000Y-68000000D03*
X70200000Y-66100000D03*
X68325000Y-67050000D03*
%TD*%
D19*
%TO.C,R805*%
X250170000Y86210000D03*
X251190000Y86210000D03*
%TD*%
%TO.C,R313*%
X81490000Y-54150000D03*
X82510000Y-54150000D03*
%TD*%
%TO.C,R214*%
X131685000Y90715000D03*
X132705000Y90715000D03*
%TD*%
%TO.C,R207*%
X260580000Y84220000D03*
X261600000Y84220000D03*
%TD*%
%TO.C,R506*%
X160005000Y52775000D03*
X161025000Y52775000D03*
%TD*%
%TO.C,R206*%
X116715000Y86905000D03*
X117735000Y86905000D03*
%TD*%
D27*
%TO.C,R302*%
X81737500Y-74840000D03*
X81737500Y-75860000D03*
%TD*%
D19*
%TO.C,R520*%
X233690000Y77310000D03*
X234710000Y77310000D03*
%TD*%
D18*
%TO.C,D1401*%
X256700000Y-68100000D03*
X259900000Y-68100000D03*
X259900000Y-63200000D03*
X256700000Y-63200000D03*
%TD*%
D37*
%TO.C,AE1701*%
X92900000Y6050000D03*
D38*
X94375000Y4525000D03*
X91425000Y4525000D03*
%TD*%
D19*
%TO.C,R804*%
X247260000Y84220000D03*
X248280000Y84220000D03*
%TD*%
D24*
%TO.C,Q505*%
X222612500Y81480000D03*
X222612500Y79580000D03*
X224487500Y80530000D03*
%TD*%
D23*
%TO.C,C1601*%
X64855000Y-31355000D03*
X64855000Y-32315000D03*
%TD*%
D24*
%TO.C,Q801*%
X187537500Y104825000D03*
X187537500Y102925000D03*
X189412500Y103875000D03*
%TD*%
D29*
%TO.C,C1805*%
X10600000Y15225339D03*
X11560000Y15225339D03*
%TD*%
D39*
%TO.C,C1003*%
X61850000Y-63100000D03*
X60890000Y-63100000D03*
%TD*%
D28*
%TO.C,C305*%
X83262500Y-56900000D03*
X83262500Y-55940000D03*
%TD*%
D19*
%TO.C,R509*%
X155445000Y47065000D03*
X156465000Y47065000D03*
%TD*%
D39*
%TO.C,C1207*%
X207980000Y-75500000D03*
X207020000Y-75500000D03*
%TD*%
D24*
%TO.C,Q203*%
X127357500Y92425000D03*
X127357500Y90525000D03*
X129232500Y91475000D03*
%TD*%
D40*
%TO.C,D301*%
X64975000Y-68000000D03*
X64975000Y-72400000D03*
%TD*%
D19*
%TO.C,R516*%
X152305000Y45075000D03*
X153325000Y45075000D03*
%TD*%
D29*
%TO.C,C308*%
X46250000Y-26510000D03*
X47210000Y-26510000D03*
%TD*%
%TO.C,C1803*%
X13470000Y18335339D03*
X14430000Y18335339D03*
%TD*%
D39*
%TO.C,C1204*%
X207950000Y-63550000D03*
X206990000Y-63550000D03*
%TD*%
D18*
%TO.C,D1505*%
X244150000Y-28050000D03*
X247350000Y-28050000D03*
X247350000Y-23150000D03*
X244150000Y-23150000D03*
%TD*%
D24*
%TO.C,Q204*%
X139307500Y104825000D03*
X139307500Y102925000D03*
X141182500Y103875000D03*
%TD*%
D41*
%TO.C,R1001*%
X64775000Y-64412500D03*
X64775000Y-61487500D03*
%TD*%
D18*
%TO.C,D1405*%
X256700000Y-27100000D03*
X259900000Y-27100000D03*
X259900000Y-22200000D03*
X256700000Y-22200000D03*
%TD*%
D42*
%TO.C,BT2101*%
X-14200000Y3200000D03*
%TD*%
D43*
%TO.C,D1201*%
X212400000Y-51835000D03*
X212400000Y-50865000D03*
%TD*%
D19*
%TO.C,R1802*%
X13350000Y22285339D03*
X14370000Y22285339D03*
%TD*%
D44*
%TO.C,R301*%
X89537500Y-78500000D03*
X89537500Y-77480000D03*
%TD*%
D19*
%TO.C,R312*%
X81490000Y-52650000D03*
X82510000Y-52650000D03*
%TD*%
D28*
%TO.C,C304*%
X67200000Y-80850000D03*
X67200000Y-79890000D03*
%TD*%
D45*
%TO.C,U701*%
X37340000Y53675339D03*
X37340000Y53025339D03*
X37340000Y52375339D03*
X39240000Y52375339D03*
X39240000Y53025339D03*
X39240000Y53675339D03*
%TD*%
D23*
%TO.C,C301*%
X86287500Y-74200000D03*
X86287500Y-75160000D03*
%TD*%
D46*
%TO.C,U1602*%
X69470000Y-31365000D03*
X69470000Y-32015000D03*
X69470000Y-32665000D03*
X69470000Y-33315000D03*
X67420000Y-33315000D03*
X67420000Y-32665000D03*
X67420000Y-32015000D03*
X67420000Y-31365000D03*
%TD*%
D47*
%TO.C,D504*%
X152795000Y49055000D03*
X153765000Y49055000D03*
%TD*%
D19*
%TO.C,R524*%
X230780000Y77310000D03*
X231800000Y77310000D03*
%TD*%
D48*
%TO.C,J406*%
X52863000Y-54142000D03*
X52863000Y-56642000D03*
X52863000Y-59142000D03*
D49*
X50713000Y-52242000D03*
X50713000Y-61042000D03*
%TD*%
D19*
%TO.C,R315*%
X63050000Y-78600000D03*
X64070000Y-78600000D03*
%TD*%
D24*
%TO.C,Q802*%
X182647500Y100375000D03*
X182647500Y98475000D03*
X184522500Y99425000D03*
%TD*%
D29*
%TO.C,C1808*%
X16270000Y20325339D03*
X17230000Y20325339D03*
%TD*%
D24*
%TO.C,Q501*%
X227502500Y85930000D03*
X227502500Y84030000D03*
X229377500Y84980000D03*
%TD*%
D29*
%TO.C,C1302*%
X252670000Y76670000D03*
X253630000Y76670000D03*
%TD*%
D19*
%TO.C,R701*%
X169705000Y73725000D03*
X170725000Y73725000D03*
%TD*%
%TO.C,R1204*%
X225790000Y-44400000D03*
X226810000Y-44400000D03*
%TD*%
D50*
%TO.C,U1202*%
X210750000Y-60900000D03*
X210750000Y-60250000D03*
X210750000Y-59600000D03*
X210750000Y-58950000D03*
X210750000Y-58300000D03*
D51*
X209850000Y-57300000D03*
X209200000Y-57300000D03*
X208550000Y-57300000D03*
X207900000Y-57300000D03*
X207250000Y-57300000D03*
D50*
X206350000Y-58300000D03*
X206350000Y-58950000D03*
X206350000Y-59600000D03*
X206350000Y-60250000D03*
X206350000Y-60900000D03*
D51*
X207250000Y-61900000D03*
X207900000Y-61900000D03*
X208550000Y-61900000D03*
X209200000Y-61900000D03*
X209850000Y-61900000D03*
%TD*%
D23*
%TO.C,C1602*%
X66155000Y-31360000D03*
X66155000Y-32320000D03*
%TD*%
D24*
%TO.C,Q201*%
X132247500Y96875000D03*
X132247500Y94975000D03*
X134122500Y95925000D03*
%TD*%
D29*
%TO.C,C1004*%
X56374000Y-63114000D03*
X57334000Y-63114000D03*
%TD*%
D47*
%TO.C,D503*%
X149655000Y49055000D03*
X150625000Y49055000D03*
%TD*%
D24*
%TO.C,Q202*%
X139307500Y100375000D03*
X139307500Y98475000D03*
X141182500Y99425000D03*
%TD*%
D29*
%TO.C,C504*%
X159870000Y46250000D03*
X160830000Y46250000D03*
%TD*%
D39*
%TO.C,C1203*%
X207980000Y-64825000D03*
X207020000Y-64825000D03*
%TD*%
D20*
%TO.C,R1201*%
X226310000Y-40050000D03*
X225290000Y-40050000D03*
%TD*%
D29*
%TO.C,C201*%
X188520000Y98380000D03*
X189480000Y98380000D03*
%TD*%
D52*
%TO.C,U1802*%
X10284000Y22291339D03*
X10850000Y22291339D03*
X11416000Y22291339D03*
X10567000Y22008339D03*
X11133000Y22008339D03*
X10284000Y21725339D03*
X11416000Y21725339D03*
X10567000Y21442339D03*
X11133000Y21442339D03*
X10284000Y21159339D03*
X10850000Y21159339D03*
X11416000Y21159339D03*
%TD*%
D19*
%TO.C,R518*%
X224960000Y77310000D03*
X225980000Y77310000D03*
%TD*%
D50*
%TO.C,U1203*%
X210800000Y-72950000D03*
X210800000Y-72300000D03*
X210800000Y-71650000D03*
X210800000Y-71000000D03*
X210800000Y-70350000D03*
D51*
X209900000Y-69350000D03*
X209250000Y-69350000D03*
X208600000Y-69350000D03*
X207950000Y-69350000D03*
X207300000Y-69350000D03*
D50*
X206400000Y-70350000D03*
X206400000Y-71000000D03*
X206400000Y-71650000D03*
X206400000Y-72300000D03*
X206400000Y-72950000D03*
D51*
X207300000Y-73950000D03*
X207950000Y-73950000D03*
X208600000Y-73950000D03*
X209250000Y-73950000D03*
X209900000Y-73950000D03*
%TD*%
D53*
%TO.C,Q303*%
X64050000Y-76737500D03*
X65950000Y-76737500D03*
X65000000Y-74862500D03*
%TD*%
D29*
%TO.C,C1802*%
X16270000Y22295339D03*
X17230000Y22295339D03*
%TD*%
D19*
%TO.C,R501*%
X161495000Y50785000D03*
X162515000Y50785000D03*
%TD*%
D54*
%TO.C,D304*%
X68800000Y-72065000D03*
D55*
X70500000Y-72065000D03*
X70500000Y-70065000D03*
X68600000Y-70065000D03*
%TD*%
D24*
%TO.C,Q803*%
X182647500Y104825000D03*
X182647500Y102925000D03*
X184522500Y103875000D03*
%TD*%
D19*
%TO.C,R801*%
X250170000Y84220000D03*
X251190000Y84220000D03*
%TD*%
%TO.C,R508*%
X155215000Y45075000D03*
X156235000Y45075000D03*
%TD*%
D29*
%TO.C,C1804*%
X10600000Y17195339D03*
X11560000Y17195339D03*
%TD*%
D15*
%TO.C,SW302*%
X70205000Y-84750000D03*
X70205000Y-77250000D03*
%TD*%
D19*
%TO.C,R601*%
X39600000Y46955339D03*
X40620000Y46955339D03*
%TD*%
D44*
%TO.C,R306*%
X93750000Y-78510000D03*
X93750000Y-77490000D03*
%TD*%
D56*
%TO.C,D302*%
X92450000Y-79830000D03*
X92450000Y-80800000D03*
%TD*%
D19*
%TO.C,R309*%
X84467500Y-72150000D03*
X85487500Y-72150000D03*
%TD*%
D29*
%TO.C,C801*%
X188520000Y93250000D03*
X189480000Y93250000D03*
%TD*%
D18*
%TO.C,D1406*%
X256950000Y-19000000D03*
X260150000Y-19000000D03*
X260150000Y-14100000D03*
X256950000Y-14100000D03*
%TD*%
D19*
%TO.C,R314*%
X65950000Y-78600000D03*
X66970000Y-78600000D03*
%TD*%
%TO.C,R215*%
X113805000Y86905000D03*
X114825000Y86905000D03*
%TD*%
D36*
%TO.C,Q301*%
X77062500Y-72150000D03*
X77062500Y-70250000D03*
X75187500Y-71200000D03*
%TD*%
D40*
%TO.C,D1001*%
X69025000Y-58500000D03*
X69025000Y-62900000D03*
%TD*%
D44*
%TO.C,R305*%
X92450000Y-78510000D03*
X92450000Y-77490000D03*
%TD*%
%TO.C,R401*%
X72112500Y-66120000D03*
X72112500Y-65100000D03*
%TD*%
D29*
%TO.C,C1301*%
X252670000Y74700000D03*
X253630000Y74700000D03*
%TD*%
D47*
%TO.C,D506*%
X149655000Y47065000D03*
X150625000Y47065000D03*
%TD*%
D19*
%TO.C,R513*%
X152535000Y47065000D03*
X153555000Y47065000D03*
%TD*%
D27*
%TO.C,R1202*%
X226400000Y-41480000D03*
X226400000Y-42500000D03*
%TD*%
D18*
%TO.C,D1501*%
X244100000Y-68250000D03*
X247300000Y-68250000D03*
X247300000Y-63350000D03*
X244100000Y-63350000D03*
%TD*%
D19*
%TO.C,R201*%
X126795000Y88255000D03*
X127815000Y88255000D03*
%TD*%
%TO.C,R202*%
X122535000Y86905000D03*
X123555000Y86905000D03*
%TD*%
%TO.C,R205*%
X134595000Y92705000D03*
X135615000Y92705000D03*
%TD*%
D24*
%TO.C,Q206*%
X127357500Y96875000D03*
X127357500Y94975000D03*
X129232500Y95925000D03*
%TD*%
D19*
%TO.C,R507*%
X162915000Y52775000D03*
X163935000Y52775000D03*
%TD*%
D39*
%TO.C,C1201*%
X207900000Y-53175000D03*
X206940000Y-53175000D03*
%TD*%
D19*
%TO.C,R209*%
X143635000Y105105000D03*
X144655000Y105105000D03*
%TD*%
D20*
%TO.C,R1206*%
X210000000Y-43725000D03*
X208980000Y-43725000D03*
%TD*%
%TO.C,R1203*%
X229885000Y-42825000D03*
X228865000Y-42825000D03*
%TD*%
D18*
%TO.C,D1502*%
X244150000Y-60800000D03*
X247350000Y-60800000D03*
X247350000Y-55900000D03*
X244150000Y-55900000D03*
%TD*%
D24*
%TO.C,Q503*%
X232392500Y85930000D03*
X232392500Y84030000D03*
X234267500Y84980000D03*
%TD*%
D48*
%TO.C,J405*%
X103875000Y-59015000D03*
X103875000Y-56515000D03*
X103875000Y-54015000D03*
D49*
X106025000Y-60915000D03*
X106025000Y-52115000D03*
%TD*%
D24*
%TO.C,Q502*%
X237282500Y85930000D03*
X237282500Y84030000D03*
X239157500Y84980000D03*
%TD*%
D57*
%TO.C,IC501*%
X150900000Y55000000D03*
X150900000Y54450000D03*
X150900000Y53900000D03*
X150900000Y53350000D03*
X150900000Y52800000D03*
D58*
X151000000Y51950000D03*
D59*
X151500000Y51950000D03*
X151900000Y51950000D03*
X152300000Y51950000D03*
X152700000Y51950000D03*
X153100000Y51950000D03*
D58*
X153600000Y51950000D03*
D60*
X154075000Y52700000D03*
X154075000Y53100000D03*
X154075000Y53500000D03*
X154075000Y53900000D03*
X154075000Y54300000D03*
X154075000Y54700000D03*
X154075000Y55100000D03*
D58*
X153600000Y55850000D03*
D59*
X153100000Y55850000D03*
X152700000Y55850000D03*
X152300000Y55850000D03*
X151900000Y55850000D03*
X151500000Y55850000D03*
D58*
X151000000Y55850000D03*
%TD*%
D61*
%TO.C,C1001*%
X57200000Y-68000000D03*
X57200000Y-65100000D03*
%TD*%
D24*
%TO.C,Q210*%
X21322500Y44825339D03*
X21322500Y42925339D03*
X23197500Y43875339D03*
%TD*%
D50*
%TO.C,U1201*%
X210750000Y-49150000D03*
X210750000Y-48500000D03*
X210750000Y-47850000D03*
X210750000Y-47200000D03*
X210750000Y-46550000D03*
D51*
X209850000Y-45550000D03*
X209200000Y-45550000D03*
X208550000Y-45550000D03*
X207900000Y-45550000D03*
X207250000Y-45550000D03*
D50*
X206350000Y-46550000D03*
X206350000Y-47200000D03*
X206350000Y-47850000D03*
X206350000Y-48500000D03*
X206350000Y-49150000D03*
D51*
X207250000Y-50150000D03*
X207900000Y-50150000D03*
X208550000Y-50150000D03*
X209200000Y-50150000D03*
X209850000Y-50150000D03*
%TD*%
D19*
%TO.C,R803*%
X247260000Y86210000D03*
X248280000Y86210000D03*
%TD*%
D24*
%TO.C,Q507*%
X232392500Y81480000D03*
X232392500Y79580000D03*
X234267500Y80530000D03*
%TD*%
D19*
%TO.C,R1102*%
X207750000Y-27100000D03*
X208770000Y-27100000D03*
%TD*%
%TO.C,R514*%
X149395000Y45075000D03*
X150415000Y45075000D03*
%TD*%
%TO.C,R213*%
X119625000Y86905000D03*
X120645000Y86905000D03*
%TD*%
%TO.C,R523*%
X236720000Y81760000D03*
X237740000Y81760000D03*
%TD*%
D62*
%TO.C,SW201*%
X147150000Y-83400000D03*
X150150000Y-83400000D03*
X151650000Y-83400000D03*
D63*
X145750000Y-84185000D03*
X153050000Y-86115000D03*
X153050000Y-84185000D03*
X145750000Y-86115000D03*
%TD*%
D64*
%TO.C,D1701*%
X82260000Y3700000D03*
X81290000Y3700000D03*
%TD*%
D19*
%TO.C,R522*%
X236720000Y79770000D03*
X237740000Y79770000D03*
%TD*%
D29*
%TO.C,C309*%
X43380000Y-26510000D03*
X44340000Y-26510000D03*
%TD*%
D61*
%TO.C,C1002*%
X61450000Y-68000000D03*
X61450000Y-65100000D03*
%TD*%
D39*
%TO.C,C1202*%
X207900000Y-51825000D03*
X206940000Y-51825000D03*
%TD*%
D27*
%TO.C,R1601*%
X68450000Y-35675000D03*
X68450000Y-36695000D03*
%TD*%
%TO.C,R303*%
X83037500Y-74840000D03*
X83037500Y-75860000D03*
%TD*%
%TO.C,R402*%
X72112500Y-68000000D03*
X72112500Y-69020000D03*
%TD*%
D56*
%TO.C,D303*%
X93750000Y-79830000D03*
X93750000Y-80800000D03*
%TD*%
D65*
%TO.C,C1005*%
X72240000Y-42600000D03*
X72240000Y-48800000D03*
%TD*%
D47*
%TO.C,D502*%
X157355000Y56755000D03*
X158325000Y56755000D03*
%TD*%
D29*
%TO.C,C1801*%
X114290000Y7450000D03*
X115250000Y7450000D03*
%TD*%
D24*
%TO.C,Q302*%
X80300000Y-70250000D03*
X80300000Y-72150000D03*
X82175000Y-71200000D03*
%TD*%
D18*
%TO.C,D1506*%
X244150000Y-46050000D03*
X247350000Y-46050000D03*
X247350000Y-41150000D03*
X244150000Y-41150000D03*
%TD*%
D29*
%TO.C,C1205*%
X213350000Y-35000000D03*
X214310000Y-35000000D03*
%TD*%
D44*
%TO.C,R307*%
X80387500Y-75860000D03*
X80387500Y-74840000D03*
%TD*%
D47*
%TO.C,D505*%
X157355000Y54765000D03*
X158325000Y54765000D03*
%TD*%
D19*
%TO.C,R211*%
X263490000Y86210000D03*
X264510000Y86210000D03*
%TD*%
%TO.C,R505*%
X157095000Y52775000D03*
X158115000Y52775000D03*
%TD*%
D66*
%TO.C,R1002*%
X72245000Y-39530000D03*
X75170000Y-39530000D03*
%TD*%
D67*
%TO.C,L1001*%
X62180000Y-53450000D03*
X62180000Y-43550000D03*
%TD*%
D68*
%TO.C,U1301*%
X206825000Y-24705000D03*
X206825000Y-25205000D03*
X206825000Y-25805000D03*
X209725000Y-25805000D03*
X209725000Y-25205000D03*
X209725000Y-24705000D03*
%TD*%
D24*
%TO.C,Q601*%
X35272500Y46675339D03*
X35272500Y44775339D03*
X37147500Y45725339D03*
%TD*%
D19*
%TO.C,R204*%
X131685000Y92705000D03*
X132705000Y92705000D03*
%TD*%
D27*
%TO.C,R311*%
X82150000Y-59890000D03*
X82150000Y-60910000D03*
%TD*%
D19*
%TO.C,R602*%
X42510000Y46955339D03*
X43530000Y46955339D03*
%TD*%
D42*
%TO.C,BT1701*%
X3950000Y41800000D03*
%TD*%
D29*
%TO.C,C1807*%
X13470000Y16365339D03*
X14430000Y16365339D03*
%TD*%
D39*
%TO.C,C1206*%
X207985000Y-76725000D03*
X207025000Y-76725000D03*
%TD*%
D19*
%TO.C,R216*%
X110895000Y86905000D03*
X111915000Y86905000D03*
%TD*%
D69*
%TO.C,IC1201*%
X206445000Y-38750000D03*
X207715000Y-38750000D03*
X208985000Y-38750000D03*
X210255000Y-38750000D03*
X210255000Y-31450000D03*
X208985000Y-31450000D03*
X207715000Y-31450000D03*
X206445000Y-31450000D03*
%TD*%
D70*
%TO.C,U1701*%
X79950000Y9150000D03*
X81050000Y9150000D03*
X82150000Y9150000D03*
X83250000Y9150000D03*
X84350000Y9150000D03*
X85450000Y9150000D03*
X86550000Y9150000D03*
X89550000Y9150000D03*
X90650000Y9150000D03*
X91750000Y9150000D03*
X92850000Y9150000D03*
X93950000Y9150000D03*
X93950000Y21150000D03*
X92850000Y21150000D03*
X91750000Y21150000D03*
X90650000Y21150000D03*
X89550000Y21150000D03*
X86550000Y21150000D03*
X85450000Y21150000D03*
X84350000Y21150000D03*
X83250000Y21150000D03*
X82150000Y21150000D03*
X81050000Y21150000D03*
X79950000Y21150000D03*
%TD*%
D29*
%TO.C,C1806*%
X13360000Y20305339D03*
X14320000Y20305339D03*
%TD*%
D28*
%TO.C,C1701*%
X88500000Y25390000D03*
X88500000Y26350000D03*
%TD*%
D71*
%TO.C,U301*%
X90037500Y-71580000D03*
X91157500Y-71580000D03*
X91157500Y-72700000D03*
X88917500Y-71580000D03*
X88917500Y-72700000D03*
X91157500Y-73820000D03*
X88917500Y-73820000D03*
X90037500Y-73820000D03*
X90037500Y-72700000D03*
D72*
X87587500Y-71200000D03*
X87587500Y-71700000D03*
X87587500Y-72200000D03*
X87587500Y-72700000D03*
X87587500Y-73200000D03*
X87587500Y-73700000D03*
X87587500Y-74200000D03*
D73*
X88537500Y-75150000D03*
X89037500Y-75150000D03*
X89537500Y-75150000D03*
X90037500Y-75150000D03*
X90537500Y-75150000D03*
X91037500Y-75150000D03*
X91537500Y-75150000D03*
D72*
X92487500Y-74200000D03*
X92487500Y-73700000D03*
X92487500Y-73200000D03*
X92487500Y-72700000D03*
X92487500Y-72200000D03*
X92487500Y-71700000D03*
X92487500Y-71200000D03*
D73*
X91537500Y-70250000D03*
X91037500Y-70250000D03*
X90537500Y-70250000D03*
X90037500Y-70250000D03*
X89537500Y-70250000D03*
X89037500Y-70250000D03*
X88537500Y-70250000D03*
%TD*%
D19*
%TO.C,R1803*%
X10240000Y19175339D03*
X11260000Y19175339D03*
%TD*%
%TO.C,R1101*%
X207740000Y-28500000D03*
X208760000Y-28500000D03*
%TD*%
D44*
%TO.C,R1207*%
X212400000Y-49525000D03*
X212400000Y-48505000D03*
%TD*%
D19*
%TO.C,R510*%
X160235000Y54765000D03*
X161255000Y54765000D03*
%TD*%
%TO.C,R203*%
X136575000Y96205000D03*
X137595000Y96205000D03*
%TD*%
%TO.C,R504*%
X160235000Y56755000D03*
X161255000Y56755000D03*
%TD*%
D44*
%TO.C,R308*%
X77250000Y-75850000D03*
X77250000Y-74830000D03*
%TD*%
D19*
%TO.C,R503*%
X155675000Y49055000D03*
X156695000Y49055000D03*
%TD*%
D20*
%TO.C,R310*%
X85487500Y-70250000D03*
X84467500Y-70250000D03*
%TD*%
D24*
%TO.C,Q1001*%
X64262500Y-57575000D03*
X64262500Y-59475000D03*
X66137500Y-58525000D03*
%TD*%
D19*
%TO.C,R1804*%
X7680000Y16735339D03*
X8700000Y16735339D03*
%TD*%
M02*
