  0
SECTION
  2
HEADER
  9
$ANGBASE
  50
0.0
  9
$ANGDIR
  70
1
  9
$MEASUREMENT
  70
0
  0
ENDSEC
  0
SECTION
  2
TABLES
  0
TABLE
  2
LTYPE
  70
4
  0
LTYPE
  5
40F
  2
CONTINUOUS
  70
0
  3
Solid line
  72
65
  73
0
  40
0.0
  0
LTYPE
  5
410
  2
DASHDOT
 70
0
  3
Dash Dot ____ _ ____ _
 72
65
 73
4
 40
2.0
 49
1.25
 49
-0.25
 49
0.25
 49
-0.25
  0
LTYPE
  5
411
  2
DASHED
 70
0
  3
Dashed __ __ __ __ __
 72
65
 73
2
 40
0.75
 49
0.5
 49
-0.25
  0
LTYPE
  5
43B
  2
DOTTED
 70
0
  3
Dotted .  .  .  .
 72
65
 73
2
 40
0.2
 49
0.0
 49
-0.2
  0
ENDTAB
  0
TABLE
  2
STYLE
  70
4
  0
STYLE
  2
KICAD
  70
0
  40
0
  41
1
  42
1
  50
0
  71
0
  3
isocp.shx
  0
STYLE
  2
KICADB
  70
0
  40
0
  41
1
  42
1
  50
0
  71
0
  3
isocp.shx
  0
STYLE
  2
KICADI
  70
0
  40
0
  41
1
  42
1
  50
15
  71
0
  3
isocp.shx
  0
STYLE
  2
KICADBI
  70
0
  40
0
  41
1
  42
1
  50
15
  71
0
  3
isocp.shx
  0
ENDTAB
  0
TABLE
  2
LAYER
  70
1
  0
LAYER
  2
BLACK
  70
0
  62
7
  6
CONTINUOUS
  0
ENDTAB
  0
ENDSEC
  0
SECTION
  2
ENTITIES
0
LINE
8
BLACK
6
CONTINUOUS
10
2.75521
20
-2.59912
11
2.75492
21
-2.59843
0
LINE
8
BLACK
6
CONTINUOUS
10
2.75492
20
-2.59843
11
2.75492
21
-1.9685
0
LINE
8
BLACK
6
CONTINUOUS
10
2.75492
20
-1.9685
11
2.75521
21
-1.96781
0
LINE
8
BLACK
6
CONTINUOUS
10
2.75521
20
-1.96781
11
2.75591
21
-1.96752
0
LINE
8
BLACK
6
CONTINUOUS
10
2.75591
20
-1.96752
11
3.66142
21
-1.96752
0
LINE
8
BLACK
6
CONTINUOUS
10
3.66142
20
-1.96752
11
3.66211
21
-1.96781
0
LINE
8
BLACK
6
CONTINUOUS
10
3.66211
20
-1.96781
11
3.6624
21
-1.9685
0
LINE
8
BLACK
6
CONTINUOUS
10
3.6624
20
-1.9685
11
3.6624
21
-2.59843
0
LINE
8
BLACK
6
CONTINUOUS
10
3.6624
20
-2.59843
11
3.66211
21
-2.59912
0
LINE
8
BLACK
6
CONTINUOUS
10
3.66211
20
-2.59912
11
3.66142
21
-2.59941
0
LINE
8
BLACK
6
CONTINUOUS
10
3.66142
20
-2.59941
11
2.75591
21
-2.59941
0
LINE
8
BLACK
6
CONTINUOUS
10
2.75591
20
-2.59941
11
2.75521
21
-2.59912
0
LINE
8
BLACK
6
CONTINUOUS
10
2.75689
20
-1.96949
11
2.75689
21
-2.59744
0
LINE
8
BLACK
6
CONTINUOUS
10
2.75689
20
-2.59744
11
3.66043
21
-2.59744
0
LINE
8
BLACK
6
CONTINUOUS
10
3.66043
20
-2.59744
11
3.66043
21
-1.96949
0
LINE
8
BLACK
6
CONTINUOUS
10
3.66043
20
-1.96949
11
2.75689
21
-1.96949
0
LINE
8
BLACK
6
CONTINUOUS
10
2.79155
20
-2.55884
11
2.78376
21
-2.55721
0
LINE
8
BLACK
6
CONTINUOUS
10
2.78376
20
-2.55721
11
2.77646
21
-2.55405
0
LINE
8
BLACK
6
CONTINUOUS
10
2.77646
20
-2.55405
11
2.76994
21
-2.54949
0
LINE
8
BLACK
6
CONTINUOUS
10
2.76994
20
-2.54949
11
2.76448
21
-2.54371
0
LINE
8
BLACK
6
CONTINUOUS
10
2.76448
20
-2.54371
11
2.76028
21
-2.53694
0
LINE
8
BLACK
6
CONTINUOUS
10
2.76028
20
-2.53694
11
2.75754
21
-2.52948
0
LINE
8
BLACK
6
CONTINUOUS
10
2.75754
20
-2.52948
11
2.75635
21
-2.52161
0
LINE
8
BLACK
6
CONTINUOUS
10
2.75635
20
-2.52161
11
2.75676
21
-2.51366
0
LINE
8
BLACK
6
CONTINUOUS
10
2.75676
20
-2.51366
11
2.75877
21
-2.50596
0
LINE
8
BLACK
6
CONTINUOUS
10
2.75877
20
-2.50596
11
2.76228
21
-2.49882
0
LINE
8
BLACK
6
CONTINUOUS
10
2.76228
20
-2.49882
11
2.76716
21
-2.49253
0
LINE
8
BLACK
6
CONTINUOUS
10
2.76716
20
-2.49253
11
2.7732
21
-2.48736
0
LINE
8
BLACK
6
CONTINUOUS
10
2.7732
20
-2.48736
11
2.78016
21
-2.4835
0
LINE
8
BLACK
6
CONTINUOUS
10
2.78016
20
-2.4835
11
2.78775
21
-2.48112
0
LINE
8
BLACK
6
CONTINUOUS
10
2.78775
20
-2.48112
11
2.79567
21
-2.48031
0
LINE
8
BLACK
6
CONTINUOUS
10
2.79567
20
-2.48031
11
2.8937
21
-2.48031
0
LINE
8
BLACK
6
CONTINUOUS
10
2.8937
20
-2.48031
11
2.8937
21
-2.20472
0
LINE
8
BLACK
6
CONTINUOUS
10
2.8937
20
-2.20472
11
2.89392
21
-2.20061
0
LINE
8
BLACK
6
CONTINUOUS
10
2.89392
20
-2.20061
11
2.89554
21
-2.19282
0
LINE
8
BLACK
6
CONTINUOUS
10
2.89554
20
-2.19282
11
2.8987
21
-2.18552
0
LINE
8
BLACK
6
CONTINUOUS
10
2.8987
20
-2.18552
11
2.90327
21
-2.179
0
LINE
8
BLACK
6
CONTINUOUS
10
2.90327
20
-2.179
11
2.90905
21
-2.17353
0
LINE
8
BLACK
6
CONTINUOUS
10
2.90905
20
-2.17353
11
2.91339
21
-2.17084
0
LINE
8
BLACK
6
CONTINUOUS
10
2.91339
20
-2.17084
11
2.91339
21
-2.10531
0
LINE
8
BLACK
6
CONTINUOUS
10
2.91339
20
-2.10531
11
2.95276
21
-2.10531
0
LINE
8
BLACK
6
CONTINUOUS
10
2.95276
20
-2.10531
11
2.95276
21
-2.17076
0
LINE
8
BLACK
6
CONTINUOUS
10
2.95276
20
-2.17076
11
2.95393
21
-2.17134
0
LINE
8
BLACK
6
CONTINUOUS
10
2.95393
20
-2.17134
11
2.96022
21
-2.17621
0
LINE
8
BLACK
6
CONTINUOUS
10
2.96022
20
-2.17621
11
2.9654
21
-2.18226
0
LINE
8
BLACK
6
CONTINUOUS
10
2.9654
20
-2.18226
11
2.96926
21
-2.18921
0
LINE
8
BLACK
6
CONTINUOUS
10
2.96926
20
-2.18921
11
2.97164
21
-2.19681
0
LINE
8
BLACK
6
CONTINUOUS
10
2.97164
20
-2.19681
11
2.97244
21
-2.20472
0
LINE
8
BLACK
6
CONTINUOUS
10
2.97244
20
-2.20472
11
2.97244
21
-2.48031
0
LINE
8
BLACK
6
CONTINUOUS
10
2.97244
20
-2.48031
11
3.22835
21
-2.48031
0
LINE
8
BLACK
6
CONTINUOUS
10
3.22835
20
-2.48031
11
3.22835
21
-2.08661
0
LINE
8
BLACK
6
CONTINUOUS
10
3.22835
20
-2.08661
11
3.11024
21
-2.08661
0
LINE
8
BLACK
6
CONTINUOUS
10
3.11024
20
-2.08661
11
3.10612
21
-2.0864
0
LINE
8
BLACK
6
CONTINUOUS
10
3.10612
20
-2.0864
11
3.09833
21
-2.08477
0
LINE
8
BLACK
6
CONTINUOUS
10
3.09833
20
-2.08477
11
3.09103
21
-2.08161
0
LINE
8
BLACK
6
CONTINUOUS
10
3.09103
20
-2.08161
11
3.08451
21
-2.07705
0
LINE
8
BLACK
6
CONTINUOUS
10
3.08451
20
-2.07705
11
3.07904
21
-2.07127
0
LINE
8
BLACK
6
CONTINUOUS
10
3.07904
20
-2.07127
11
3.07635
21
-2.06693
0
LINE
8
BLACK
6
CONTINUOUS
10
3.07635
20
-2.06693
11
3.018
21
-2.06693
0
LINE
8
BLACK
6
CONTINUOUS
10
3.018
20
-2.06693
11
3.01181
21
-2.07311
0
LINE
8
BLACK
6
CONTINUOUS
10
3.01181
20
-2.07311
11
3.01181
21
-2.10925
0
LINE
8
BLACK
6
CONTINUOUS
10
3.01181
20
-2.10925
11
2.97047
21
-2.10925
0
LINE
8
BLACK
6
CONTINUOUS
10
2.97047
20
-2.10925
11
2.97047
21
-2.02264
0
LINE
8
BLACK
6
CONTINUOUS
10
2.97047
20
-2.02264
11
3.01181
21
-2.02264
0
LINE
8
BLACK
6
CONTINUOUS
10
3.01181
20
-2.02264
11
3.01181
21
-2.02756
0
LINE
8
BLACK
6
CONTINUOUS
10
3.01181
20
-2.02756
11
3.07627
21
-2.02756
0
LINE
8
BLACK
6
CONTINUOUS
10
3.07627
20
-2.02756
11
3.07685
21
-2.02638
0
LINE
8
BLACK
6
CONTINUOUS
10
3.07685
20
-2.02638
11
3.08173
21
-2.02009
0
LINE
8
BLACK
6
CONTINUOUS
10
3.08173
20
-2.02009
11
3.08777
21
-2.01492
0
LINE
8
BLACK
6
CONTINUOUS
10
3.08777
20
-2.01492
11
3.09473
21
-2.01106
0
LINE
8
BLACK
6
CONTINUOUS
10
3.09473
20
-2.01106
11
3.10232
21
-2.00868
0
LINE
8
BLACK
6
CONTINUOUS
10
3.10232
20
-2.00868
11
3.11024
21
-2.00787
0
LINE
8
BLACK
6
CONTINUOUS
10
3.11024
20
-2.00787
11
3.28319
21
-2.00787
0
LINE
8
BLACK
6
CONTINUOUS
10
3.28319
20
-2.00787
11
3.28535
21
-2.00755
0
LINE
8
BLACK
6
CONTINUOUS
10
3.28535
20
-2.00755
11
3.29158
21
-2.00787
0
LINE
8
BLACK
6
CONTINUOUS
10
3.29158
20
-2.00787
11
3.32677
21
-2.00787
0
LINE
8
BLACK
6
CONTINUOUS
10
3.32677
20
-2.00787
11
3.33089
21
-2.00809
0
LINE
8
BLACK
6
CONTINUOUS
10
3.33089
20
-2.00809
11
3.33183
21
-2.00829
0
LINE
8
BLACK
6
CONTINUOUS
10
3.33183
20
-2.00829
11
3.33279
21
-2.00834
0
LINE
8
BLACK
6
CONTINUOUS
10
3.33279
20
-2.00834
11
3.33572
21
-2.0091
0
LINE
8
BLACK
6
CONTINUOUS
10
3.33572
20
-2.0091
11
3.33868
21
-2.00972
0
LINE
8
BLACK
6
CONTINUOUS
10
3.33868
20
-2.00972
11
3.33956
21
-2.0101
0
LINE
8
BLACK
6
CONTINUOUS
10
3.33956
20
-2.0101
11
3.34049
21
-2.01034
0
LINE
8
BLACK
6
CONTINUOUS
10
3.34049
20
-2.01034
11
3.34321
21
-2.01168
0
LINE
8
BLACK
6
CONTINUOUS
10
3.34321
20
-2.01168
11
3.34598
21
-2.01288
0
LINE
8
BLACK
6
CONTINUOUS
10
3.34598
20
-2.01288
11
3.34677
21
-2.01343
0
LINE
8
BLACK
6
CONTINUOUS
10
3.34677
20
-2.01343
11
3.34763
21
-2.01386
0
LINE
8
BLACK
6
CONTINUOUS
10
3.34763
20
-2.01386
11
3.35002
21
-2.01571
0
LINE
8
BLACK
6
CONTINUOUS
10
3.35002
20
-2.01571
11
3.3525
21
-2.01744
0
LINE
8
BLACK
6
CONTINUOUS
10
3.3525
20
-2.01744
11
3.35316
21
-2.01814
0
LINE
8
BLACK
6
CONTINUOUS
10
3.35316
20
-2.01814
11
3.35392
21
-2.01873
0
LINE
8
BLACK
6
CONTINUOUS
10
3.35392
20
-2.01873
11
3.35589
21
-2.02103
0
LINE
8
BLACK
6
CONTINUOUS
10
3.35589
20
-2.02103
11
3.35796
21
-2.02322
0
LINE
8
BLACK
6
CONTINUOUS
10
3.35796
20
-2.02322
11
3.35847
21
-2.02404
0
LINE
8
BLACK
6
CONTINUOUS
10
3.35847
20
-2.02404
11
3.3591
21
-2.02478
0
LINE
8
BLACK
6
CONTINUOUS
10
3.3591
20
-2.02478
11
3.36057
21
-2.02742
0
LINE
8
BLACK
6
CONTINUOUS
10
3.36057
20
-2.02742
11
3.36216
21
-2.02999
0
LINE
8
BLACK
6
CONTINUOUS
10
3.36216
20
-2.02999
11
3.36249
21
-2.03089
0
LINE
8
BLACK
6
CONTINUOUS
10
3.36249
20
-2.03089
11
3.36296
21
-2.03173
0
LINE
8
BLACK
6
CONTINUOUS
10
3.36296
20
-2.03173
11
3.36386
21
-2.03462
0
LINE
8
BLACK
6
CONTINUOUS
10
3.36386
20
-2.03462
11
3.3649
21
-2.03745
0
LINE
8
BLACK
6
CONTINUOUS
10
3.3649
20
-2.03745
11
3.36505
21
-2.03841
0
LINE
8
BLACK
6
CONTINUOUS
10
3.36505
20
-2.03841
11
3.36534
21
-2.03933
0
LINE
8
BLACK
6
CONTINUOUS
10
3.36534
20
-2.03933
11
3.36564
21
-2.04233
0
LINE
8
BLACK
6
CONTINUOUS
10
3.36564
20
-2.04233
11
3.36609
21
-2.04532
0
LINE
8
BLACK
6
CONTINUOUS
10
3.36609
20
-2.04532
11
3.36604
21
-2.04628
0
LINE
8
BLACK
6
CONTINUOUS
10
3.36604
20
-2.04628
11
3.36614
21
-2.04724
0
LINE
8
BLACK
6
CONTINUOUS
10
3.36614
20
-2.04724
11
3.36614
21
-2.51969
0
LINE
8
BLACK
6
CONTINUOUS
10
3.36614
20
-2.51969
11
3.36593
21
-2.5238
0
LINE
8
BLACK
6
CONTINUOUS
10
3.36593
20
-2.5238
11
3.36573
21
-2.52474
0
LINE
8
BLACK
6
CONTINUOUS
10
3.36573
20
-2.52474
11
3.36568
21
-2.52571
0
LINE
8
BLACK
6
CONTINUOUS
10
3.36568
20
-2.52571
11
3.36492
21
-2.52863
0
LINE
8
BLACK
6
CONTINUOUS
10
3.36492
20
-2.52863
11
3.3643
21
-2.53159
0
LINE
8
BLACK
6
CONTINUOUS
10
3.3643
20
-2.53159
11
3.36392
21
-2.53247
0
LINE
8
BLACK
6
CONTINUOUS
10
3.36392
20
-2.53247
11
3.36367
21
-2.53341
0
LINE
8
BLACK
6
CONTINUOUS
10
3.36367
20
-2.53341
11
3.36234
21
-2.53612
0
LINE
8
BLACK
6
CONTINUOUS
10
3.36234
20
-2.53612
11
3.36114
21
-2.53889
0
LINE
8
BLACK
6
CONTINUOUS
10
3.36114
20
-2.53889
11
3.36059
21
-2.53968
0
LINE
8
BLACK
6
CONTINUOUS
10
3.36059
20
-2.53968
11
3.36016
21
-2.54055
0
LINE
8
BLACK
6
CONTINUOUS
10
3.36016
20
-2.54055
11
3.35831
21
-2.54294
0
LINE
8
BLACK
6
CONTINUOUS
10
3.35831
20
-2.54294
11
3.35657
21
-2.54541
0
LINE
8
BLACK
6
CONTINUOUS
10
3.35657
20
-2.54541
11
3.35587
21
-2.54607
0
LINE
8
BLACK
6
CONTINUOUS
10
3.35587
20
-2.54607
11
3.35528
21
-2.54684
0
LINE
8
BLACK
6
CONTINUOUS
10
3.35528
20
-2.54684
11
3.35299
21
-2.5488
0
LINE
8
BLACK
6
CONTINUOUS
10
3.35299
20
-2.5488
11
3.35079
21
-2.55088
0
LINE
8
BLACK
6
CONTINUOUS
10
3.35079
20
-2.55088
11
3.34997
21
-2.55139
0
LINE
8
BLACK
6
CONTINUOUS
10
3.34997
20
-2.55139
11
3.34924
21
-2.55201
0
LINE
8
BLACK
6
CONTINUOUS
10
3.34924
20
-2.55201
11
3.3466
21
-2.55348
0
LINE
8
BLACK
6
CONTINUOUS
10
3.3466
20
-2.55348
11
3.34403
21
-2.55507
0
LINE
8
BLACK
6
CONTINUOUS
10
3.34403
20
-2.55507
11
3.34312
21
-2.5554
0
LINE
8
BLACK
6
CONTINUOUS
10
3.34312
20
-2.5554
11
3.34228
21
-2.55587
0
LINE
8
BLACK
6
CONTINUOUS
10
3.34228
20
-2.55587
11
3.3394
21
-2.55677
0
LINE
8
BLACK
6
CONTINUOUS
10
3.3394
20
-2.55677
11
3.33656
21
-2.55782
0
LINE
8
BLACK
6
CONTINUOUS
10
3.33656
20
-2.55782
11
3.33561
21
-2.55796
0
LINE
8
BLACK
6
CONTINUOUS
10
3.33561
20
-2.55796
11
3.33469
21
-2.55825
0
LINE
8
BLACK
6
CONTINUOUS
10
3.33469
20
-2.55825
11
3.33168
21
-2.55856
0
LINE
8
BLACK
6
CONTINUOUS
10
3.33168
20
-2.55856
11
3.32869
21
-2.55901
0
LINE
8
BLACK
6
CONTINUOUS
10
3.32869
20
-2.55901
11
3.32773
21
-2.55896
0
LINE
8
BLACK
6
CONTINUOUS
10
3.32773
20
-2.55896
11
3.32677
21
-2.55906
0
LINE
8
BLACK
6
CONTINUOUS
10
3.32677
20
-2.55906
11
2.79567
21
-2.55906
0
LINE
8
BLACK
6
CONTINUOUS
10
2.79567
20
-2.55906
11
2.79155
21
-2.55884
0
LINE
8
BLACK
6
CONTINUOUS
10
2.89567
20
-2.10925
11
2.85433
21
-2.10925
0
LINE
8
BLACK
6
CONTINUOUS
10
2.85433
20
-2.10925
11
2.85433
21
-2.02264
0
LINE
8
BLACK
6
CONTINUOUS
10
2.85433
20
-2.02264
11
2.89567
21
-2.02264
0
LINE
8
BLACK
6
CONTINUOUS
10
2.89567
20
-2.02264
11
2.89567
21
-2.10925
0
LINE
8
BLACK
6
CONTINUOUS
10
2.95276
20
-2.02657
11
2.91339
21
-2.02657
0
LINE
8
BLACK
6
CONTINUOUS
10
2.91339
20
-2.02657
11
2.91339
21
-1.98524
0
LINE
8
BLACK
6
CONTINUOUS
10
2.91339
20
-1.98524
11
2.95276
21
-1.98524
0
LINE
8
BLACK
6
CONTINUOUS
10
2.95276
20
-1.98524
11
2.95276
21
-2.02657
  0
ENDSEC
  0
EOF
