ISO-10303-21;
HEADER;
/* Generated by software containing ST-Developer
 * from STEP Tools, Inc. (www.steptools.com) 
 */

FILE_DESCRIPTION(
/* description */ (''),
/* implementation_level */ '2;1');

FILE_NAME(
/* name */ 'Suitcase filling - Top 2.step',
/* time_stamp */ '2023-06-18T21:18:27+02:00',
/* author */ (''),
/* organization */ (''),
/* preprocessor_version */ 'ST-DEVELOPER v19.2',
/* originating_system */ 'Autodesk Translation Framework v12.6.0.85',
/* authorisation */ '');

FILE_SCHEMA (('AUTOMOTIVE_DESIGN { 1 0 10303 214 3 1 1 }'));
ENDSEC;

DATA;
#10=MECHANICAL_DESIGN_GEOMETRIC_PRESENTATION_REPRESENTATION('',(#17),#665);
#11=ITEM_DEFINED_TRANSFORMATION($,$,#401,#444);
#12=(
REPRESENTATION_RELATIONSHIP($,$,#676,#675)
REPRESENTATION_RELATIONSHIP_WITH_TRANSFORMATION(#11)
SHAPE_REPRESENTATION_RELATIONSHIP()
);
#13=CONTEXT_DEPENDENT_SHAPE_REPRESENTATION(#12,#674);
#14=NEXT_ASSEMBLY_USAGE_OCCURRENCE('Component1:1','Component1:1',
'Component1:1',#678,#679,'Component1:1');
#15=SHAPE_REPRESENTATION_RELATIONSHIP('SRR','None',#676,#16);
#16=ADVANCED_BREP_SHAPE_REPRESENTATION('',(#18),#664);
#17=STYLED_ITEM('',(#690),#18);
#18=MANIFOLD_SOLID_BREP('Body1',#387);
#19=CYLINDRICAL_SURFACE('',#432,5.);
#20=CYLINDRICAL_SURFACE('',#433,5.);
#21=CYLINDRICAL_SURFACE('',#434,5.);
#22=CYLINDRICAL_SURFACE('',#435,5.);
#23=CYLINDRICAL_SURFACE('',#436,5.);
#24=CYLINDRICAL_SURFACE('',#437,5.);
#25=CYLINDRICAL_SURFACE('',#438,5.);
#26=CYLINDRICAL_SURFACE('',#439,5.);
#27=CYLINDRICAL_SURFACE('',#440,5.);
#28=CYLINDRICAL_SURFACE('',#441,5.);
#29=CYLINDRICAL_SURFACE('',#442,5.);
#30=CYLINDRICAL_SURFACE('',#443,5.);
#31=FACE_BOUND('',#98,.T.);
#32=FACE_BOUND('',#99,.T.);
#33=FACE_BOUND('',#100,.T.);
#34=FACE_BOUND('',#101,.T.);
#35=FACE_BOUND('',#102,.T.);
#36=FACE_BOUND('',#103,.T.);
#37=FACE_BOUND('',#104,.T.);
#38=FACE_BOUND('',#105,.T.);
#39=FACE_BOUND('',#106,.T.);
#40=FACE_BOUND('',#107,.T.);
#41=FACE_BOUND('',#108,.T.);
#42=FACE_BOUND('',#109,.T.);
#43=FACE_BOUND('',#111,.T.);
#44=FACE_BOUND('',#112,.T.);
#45=FACE_BOUND('',#113,.T.);
#46=FACE_BOUND('',#114,.T.);
#47=FACE_BOUND('',#115,.T.);
#48=FACE_BOUND('',#116,.T.);
#49=FACE_BOUND('',#117,.T.);
#50=FACE_BOUND('',#118,.T.);
#51=FACE_BOUND('',#119,.T.);
#52=FACE_BOUND('',#120,.T.);
#53=FACE_BOUND('',#121,.T.);
#54=FACE_BOUND('',#122,.T.);
#55=CIRCLE('',#403,5.);
#56=CIRCLE('',#404,5.);
#57=CIRCLE('',#405,5.);
#58=CIRCLE('',#406,5.);
#59=CIRCLE('',#407,5.);
#60=CIRCLE('',#408,5.);
#61=CIRCLE('',#409,5.);
#62=CIRCLE('',#410,5.);
#63=CIRCLE('',#411,5.);
#64=CIRCLE('',#412,5.);
#65=CIRCLE('',#413,5.);
#66=CIRCLE('',#414,5.);
#67=CIRCLE('',#416,5.);
#68=CIRCLE('',#417,5.);
#69=CIRCLE('',#418,5.);
#70=CIRCLE('',#419,5.);
#71=CIRCLE('',#420,5.);
#72=CIRCLE('',#421,5.);
#73=CIRCLE('',#422,5.);
#74=CIRCLE('',#423,5.);
#75=CIRCLE('',#424,5.);
#76=CIRCLE('',#425,5.);
#77=CIRCLE('',#426,5.);
#78=CIRCLE('',#427,5.);
#79=FACE_OUTER_BOUND('',#97,.T.);
#80=FACE_OUTER_BOUND('',#110,.T.);
#81=FACE_OUTER_BOUND('',#123,.T.);
#82=FACE_OUTER_BOUND('',#124,.T.);
#83=FACE_OUTER_BOUND('',#125,.T.);
#84=FACE_OUTER_BOUND('',#126,.T.);
#85=FACE_OUTER_BOUND('',#127,.T.);
#86=FACE_OUTER_BOUND('',#128,.T.);
#87=FACE_OUTER_BOUND('',#129,.T.);
#88=FACE_OUTER_BOUND('',#130,.T.);
#89=FACE_OUTER_BOUND('',#131,.T.);
#90=FACE_OUTER_BOUND('',#132,.T.);
#91=FACE_OUTER_BOUND('',#133,.T.);
#92=FACE_OUTER_BOUND('',#134,.T.);
#93=FACE_OUTER_BOUND('',#135,.T.);
#94=FACE_OUTER_BOUND('',#136,.T.);
#95=FACE_OUTER_BOUND('',#137,.T.);
#96=FACE_OUTER_BOUND('',#138,.T.);
#97=EDGE_LOOP('',(#267,#268,#269,#270));
#98=EDGE_LOOP('',(#271));
#99=EDGE_LOOP('',(#272));
#100=EDGE_LOOP('',(#273));
#101=EDGE_LOOP('',(#274));
#102=EDGE_LOOP('',(#275));
#103=EDGE_LOOP('',(#276));
#104=EDGE_LOOP('',(#277));
#105=EDGE_LOOP('',(#278));
#106=EDGE_LOOP('',(#279));
#107=EDGE_LOOP('',(#280));
#108=EDGE_LOOP('',(#281));
#109=EDGE_LOOP('',(#282));
#110=EDGE_LOOP('',(#283,#284,#285,#286));
#111=EDGE_LOOP('',(#287));
#112=EDGE_LOOP('',(#288));
#113=EDGE_LOOP('',(#289));
#114=EDGE_LOOP('',(#290));
#115=EDGE_LOOP('',(#291));
#116=EDGE_LOOP('',(#292));
#117=EDGE_LOOP('',(#293));
#118=EDGE_LOOP('',(#294));
#119=EDGE_LOOP('',(#295));
#120=EDGE_LOOP('',(#296));
#121=EDGE_LOOP('',(#297));
#122=EDGE_LOOP('',(#298));
#123=EDGE_LOOP('',(#299,#300,#301,#302));
#124=EDGE_LOOP('',(#303,#304,#305,#306));
#125=EDGE_LOOP('',(#307,#308,#309,#310));
#126=EDGE_LOOP('',(#311,#312,#313,#314));
#127=EDGE_LOOP('',(#315,#316,#317,#318));
#128=EDGE_LOOP('',(#319,#320,#321,#322));
#129=EDGE_LOOP('',(#323,#324,#325,#326));
#130=EDGE_LOOP('',(#327,#328,#329,#330));
#131=EDGE_LOOP('',(#331,#332,#333,#334));
#132=EDGE_LOOP('',(#335,#336,#337,#338));
#133=EDGE_LOOP('',(#339,#340,#341,#342));
#134=EDGE_LOOP('',(#343,#344,#345,#346));
#135=EDGE_LOOP('',(#347,#348,#349,#350));
#136=EDGE_LOOP('',(#351,#352,#353,#354));
#137=EDGE_LOOP('',(#355,#356,#357,#358));
#138=EDGE_LOOP('',(#359,#360,#361,#362));
#139=LINE('',#564,#163);
#140=LINE('',#566,#164);
#141=LINE('',#568,#165);
#142=LINE('',#569,#166);
#143=LINE('',#597,#167);
#144=LINE('',#599,#168);
#145=LINE('',#601,#169);
#146=LINE('',#602,#170);
#147=LINE('',#628,#171);
#148=LINE('',#629,#172);
#149=LINE('',#631,#173);
#150=LINE('',#633,#174);
#151=LINE('',#636,#175);
#152=LINE('',#638,#176);
#153=LINE('',#640,#177);
#154=LINE('',#642,#178);
#155=LINE('',#644,#179);
#156=LINE('',#646,#180);
#157=LINE('',#648,#181);
#158=LINE('',#650,#182);
#159=LINE('',#652,#183);
#160=LINE('',#654,#184);
#161=LINE('',#656,#185);
#162=LINE('',#658,#186);
#163=VECTOR('',#451,325.);
#164=VECTOR('',#452,449.);
#165=VECTOR('',#453,325.);
#166=VECTOR('',#454,449.);
#167=VECTOR('',#481,325.);
#168=VECTOR('',#482,449.);
#169=VECTOR('',#483,325.);
#170=VECTOR('',#484,449.);
#171=VECTOR('',#511,7.);
#172=VECTOR('',#512,7.);
#173=VECTOR('',#515,7.);
#174=VECTOR('',#518,7.);
#175=VECTOR('',#523,5.);
#176=VECTOR('',#526,5.);
#177=VECTOR('',#529,5.);
#178=VECTOR('',#532,5.);
#179=VECTOR('',#535,5.);
#180=VECTOR('',#538,5.);
#181=VECTOR('',#541,5.);
#182=VECTOR('',#544,5.);
#183=VECTOR('',#547,5.);
#184=VECTOR('',#550,5.);
#185=VECTOR('',#553,5.);
#186=VECTOR('',#556,5.);
#187=VERTEX_POINT('',#562);
#188=VERTEX_POINT('',#563);
#189=VERTEX_POINT('',#565);
#190=VERTEX_POINT('',#567);
#191=VERTEX_POINT('',#570);
#192=VERTEX_POINT('',#572);
#193=VERTEX_POINT('',#574);
#194=VERTEX_POINT('',#576);
#195=VERTEX_POINT('',#578);
#196=VERTEX_POINT('',#580);
#197=VERTEX_POINT('',#582);
#198=VERTEX_POINT('',#584);
#199=VERTEX_POINT('',#586);
#200=VERTEX_POINT('',#588);
#201=VERTEX_POINT('',#590);
#202=VERTEX_POINT('',#592);
#203=VERTEX_POINT('',#595);
#204=VERTEX_POINT('',#596);
#205=VERTEX_POINT('',#598);
#206=VERTEX_POINT('',#600);
#207=VERTEX_POINT('',#603);
#208=VERTEX_POINT('',#605);
#209=VERTEX_POINT('',#607);
#210=VERTEX_POINT('',#609);
#211=VERTEX_POINT('',#611);
#212=VERTEX_POINT('',#613);
#213=VERTEX_POINT('',#615);
#214=VERTEX_POINT('',#617);
#215=VERTEX_POINT('',#619);
#216=VERTEX_POINT('',#621);
#217=VERTEX_POINT('',#623);
#218=VERTEX_POINT('',#625);
#219=EDGE_CURVE('',#187,#188,#139,.T.);
#220=EDGE_CURVE('',#189,#187,#140,.T.);
#221=EDGE_CURVE('',#190,#189,#141,.T.);
#222=EDGE_CURVE('',#188,#190,#142,.T.);
#223=EDGE_CURVE('',#191,#191,#55,.T.);
#224=EDGE_CURVE('',#192,#192,#56,.T.);
#225=EDGE_CURVE('',#193,#193,#57,.T.);
#226=EDGE_CURVE('',#194,#194,#58,.T.);
#227=EDGE_CURVE('',#195,#195,#59,.T.);
#228=EDGE_CURVE('',#196,#196,#60,.T.);
#229=EDGE_CURVE('',#197,#197,#61,.T.);
#230=EDGE_CURVE('',#198,#198,#62,.T.);
#231=EDGE_CURVE('',#199,#199,#63,.T.);
#232=EDGE_CURVE('',#200,#200,#64,.T.);
#233=EDGE_CURVE('',#201,#201,#65,.T.);
#234=EDGE_CURVE('',#202,#202,#66,.T.);
#235=EDGE_CURVE('',#203,#204,#143,.T.);
#236=EDGE_CURVE('',#204,#205,#144,.T.);
#237=EDGE_CURVE('',#205,#206,#145,.T.);
#238=EDGE_CURVE('',#206,#203,#146,.T.);
#239=EDGE_CURVE('',#207,#207,#67,.T.);
#240=EDGE_CURVE('',#208,#208,#68,.T.);
#241=EDGE_CURVE('',#209,#209,#69,.T.);
#242=EDGE_CURVE('',#210,#210,#70,.T.);
#243=EDGE_CURVE('',#211,#211,#71,.T.);
#244=EDGE_CURVE('',#212,#212,#72,.T.);
#245=EDGE_CURVE('',#213,#213,#73,.T.);
#246=EDGE_CURVE('',#214,#214,#74,.T.);
#247=EDGE_CURVE('',#215,#215,#75,.T.);
#248=EDGE_CURVE('',#216,#216,#76,.T.);
#249=EDGE_CURVE('',#217,#217,#77,.T.);
#250=EDGE_CURVE('',#218,#218,#78,.T.);
#251=EDGE_CURVE('',#204,#188,#147,.T.);
#252=EDGE_CURVE('',#203,#187,#148,.T.);
#253=EDGE_CURVE('',#206,#189,#149,.T.);
#254=EDGE_CURVE('',#205,#190,#150,.T.);
#255=EDGE_CURVE('',#218,#202,#151,.T.);
#256=EDGE_CURVE('',#217,#201,#152,.T.);
#257=EDGE_CURVE('',#216,#200,#153,.T.);
#258=EDGE_CURVE('',#215,#199,#154,.T.);
#259=EDGE_CURVE('',#214,#198,#155,.T.);
#260=EDGE_CURVE('',#213,#197,#156,.T.);
#261=EDGE_CURVE('',#212,#196,#157,.T.);
#262=EDGE_CURVE('',#211,#195,#158,.T.);
#263=EDGE_CURVE('',#210,#194,#159,.T.);
#264=EDGE_CURVE('',#209,#193,#160,.T.);
#265=EDGE_CURVE('',#208,#192,#161,.T.);
#266=EDGE_CURVE('',#207,#191,#162,.T.);
#267=ORIENTED_EDGE('',*,*,#219,.F.);
#268=ORIENTED_EDGE('',*,*,#220,.F.);
#269=ORIENTED_EDGE('',*,*,#221,.F.);
#270=ORIENTED_EDGE('',*,*,#222,.F.);
#271=ORIENTED_EDGE('',*,*,#223,.F.);
#272=ORIENTED_EDGE('',*,*,#224,.F.);
#273=ORIENTED_EDGE('',*,*,#225,.F.);
#274=ORIENTED_EDGE('',*,*,#226,.F.);
#275=ORIENTED_EDGE('',*,*,#227,.F.);
#276=ORIENTED_EDGE('',*,*,#228,.F.);
#277=ORIENTED_EDGE('',*,*,#229,.F.);
#278=ORIENTED_EDGE('',*,*,#230,.F.);
#279=ORIENTED_EDGE('',*,*,#231,.F.);
#280=ORIENTED_EDGE('',*,*,#232,.F.);
#281=ORIENTED_EDGE('',*,*,#233,.F.);
#282=ORIENTED_EDGE('',*,*,#234,.F.);
#283=ORIENTED_EDGE('',*,*,#235,.T.);
#284=ORIENTED_EDGE('',*,*,#236,.T.);
#285=ORIENTED_EDGE('',*,*,#237,.T.);
#286=ORIENTED_EDGE('',*,*,#238,.T.);
#287=ORIENTED_EDGE('',*,*,#239,.F.);
#288=ORIENTED_EDGE('',*,*,#240,.F.);
#289=ORIENTED_EDGE('',*,*,#241,.F.);
#290=ORIENTED_EDGE('',*,*,#242,.F.);
#291=ORIENTED_EDGE('',*,*,#243,.F.);
#292=ORIENTED_EDGE('',*,*,#244,.F.);
#293=ORIENTED_EDGE('',*,*,#245,.F.);
#294=ORIENTED_EDGE('',*,*,#246,.F.);
#295=ORIENTED_EDGE('',*,*,#247,.F.);
#296=ORIENTED_EDGE('',*,*,#248,.F.);
#297=ORIENTED_EDGE('',*,*,#249,.F.);
#298=ORIENTED_EDGE('',*,*,#250,.F.);
#299=ORIENTED_EDGE('',*,*,#219,.T.);
#300=ORIENTED_EDGE('',*,*,#251,.F.);
#301=ORIENTED_EDGE('',*,*,#235,.F.);
#302=ORIENTED_EDGE('',*,*,#252,.T.);
#303=ORIENTED_EDGE('',*,*,#220,.T.);
#304=ORIENTED_EDGE('',*,*,#252,.F.);
#305=ORIENTED_EDGE('',*,*,#238,.F.);
#306=ORIENTED_EDGE('',*,*,#253,.T.);
#307=ORIENTED_EDGE('',*,*,#221,.T.);
#308=ORIENTED_EDGE('',*,*,#253,.F.);
#309=ORIENTED_EDGE('',*,*,#237,.F.);
#310=ORIENTED_EDGE('',*,*,#254,.T.);
#311=ORIENTED_EDGE('',*,*,#222,.T.);
#312=ORIENTED_EDGE('',*,*,#254,.F.);
#313=ORIENTED_EDGE('',*,*,#236,.F.);
#314=ORIENTED_EDGE('',*,*,#251,.T.);
#315=ORIENTED_EDGE('',*,*,#250,.T.);
#316=ORIENTED_EDGE('',*,*,#255,.T.);
#317=ORIENTED_EDGE('',*,*,#234,.T.);
#318=ORIENTED_EDGE('',*,*,#255,.F.);
#319=ORIENTED_EDGE('',*,*,#249,.T.);
#320=ORIENTED_EDGE('',*,*,#256,.T.);
#321=ORIENTED_EDGE('',*,*,#233,.T.);
#322=ORIENTED_EDGE('',*,*,#256,.F.);
#323=ORIENTED_EDGE('',*,*,#248,.T.);
#324=ORIENTED_EDGE('',*,*,#257,.T.);
#325=ORIENTED_EDGE('',*,*,#232,.T.);
#326=ORIENTED_EDGE('',*,*,#257,.F.);
#327=ORIENTED_EDGE('',*,*,#247,.T.);
#328=ORIENTED_EDGE('',*,*,#258,.T.);
#329=ORIENTED_EDGE('',*,*,#231,.T.);
#330=ORIENTED_EDGE('',*,*,#258,.F.);
#331=ORIENTED_EDGE('',*,*,#246,.T.);
#332=ORIENTED_EDGE('',*,*,#259,.T.);
#333=ORIENTED_EDGE('',*,*,#230,.T.);
#334=ORIENTED_EDGE('',*,*,#259,.F.);
#335=ORIENTED_EDGE('',*,*,#245,.T.);
#336=ORIENTED_EDGE('',*,*,#260,.T.);
#337=ORIENTED_EDGE('',*,*,#229,.T.);
#338=ORIENTED_EDGE('',*,*,#260,.F.);
#339=ORIENTED_EDGE('',*,*,#244,.T.);
#340=ORIENTED_EDGE('',*,*,#261,.T.);
#341=ORIENTED_EDGE('',*,*,#228,.T.);
#342=ORIENTED_EDGE('',*,*,#261,.F.);
#343=ORIENTED_EDGE('',*,*,#243,.T.);
#344=ORIENTED_EDGE('',*,*,#262,.T.);
#345=ORIENTED_EDGE('',*,*,#227,.T.);
#346=ORIENTED_EDGE('',*,*,#262,.F.);
#347=ORIENTED_EDGE('',*,*,#242,.T.);
#348=ORIENTED_EDGE('',*,*,#263,.T.);
#349=ORIENTED_EDGE('',*,*,#226,.T.);
#350=ORIENTED_EDGE('',*,*,#263,.F.);
#351=ORIENTED_EDGE('',*,*,#241,.T.);
#352=ORIENTED_EDGE('',*,*,#264,.T.);
#353=ORIENTED_EDGE('',*,*,#225,.T.);
#354=ORIENTED_EDGE('',*,*,#264,.F.);
#355=ORIENTED_EDGE('',*,*,#240,.T.);
#356=ORIENTED_EDGE('',*,*,#265,.T.);
#357=ORIENTED_EDGE('',*,*,#224,.T.);
#358=ORIENTED_EDGE('',*,*,#265,.F.);
#359=ORIENTED_EDGE('',*,*,#239,.T.);
#360=ORIENTED_EDGE('',*,*,#266,.T.);
#361=ORIENTED_EDGE('',*,*,#223,.T.);
#362=ORIENTED_EDGE('',*,*,#266,.F.);
#363=PLANE('',#402);
#364=PLANE('',#415);
#365=PLANE('',#428);
#366=PLANE('',#429);
#367=PLANE('',#430);
#368=PLANE('',#431);
#369=ADVANCED_FACE('',(#79,#31,#32,#33,#34,#35,#36,#37,#38,#39,#40,#41,
#42),#363,.T.);
#370=ADVANCED_FACE('',(#80,#43,#44,#45,#46,#47,#48,#49,#50,#51,#52,#53,
#54),#364,.T.);
#371=ADVANCED_FACE('',(#81),#365,.T.);
#372=ADVANCED_FACE('',(#82),#366,.T.);
#373=ADVANCED_FACE('',(#83),#367,.T.);
#374=ADVANCED_FACE('',(#84),#368,.T.);
#375=ADVANCED_FACE('',(#85),#19,.F.);
#376=ADVANCED_FACE('',(#86),#20,.F.);
#377=ADVANCED_FACE('',(#87),#21,.F.);
#378=ADVANCED_FACE('',(#88),#22,.F.);
#379=ADVANCED_FACE('',(#89),#23,.F.);
#380=ADVANCED_FACE('',(#90),#24,.F.);
#381=ADVANCED_FACE('',(#91),#25,.F.);
#382=ADVANCED_FACE('',(#92),#26,.F.);
#383=ADVANCED_FACE('',(#93),#27,.F.);
#384=ADVANCED_FACE('',(#94),#28,.F.);
#385=ADVANCED_FACE('',(#95),#29,.F.);
#386=ADVANCED_FACE('',(#96),#30,.F.);
#387=CLOSED_SHELL('',(#369,#370,#371,#372,#373,#374,#375,#376,#377,#378,
#379,#380,#381,#382,#383,#384,#385,#386));
#388=DERIVED_UNIT_ELEMENT(#390,1.);
#389=DERIVED_UNIT_ELEMENT(#667,-3.);
#390=(
MASS_UNIT()
NAMED_UNIT(*)
SI_UNIT(.KILO.,.GRAM.)
);
#391=DERIVED_UNIT((#388,#389));
#392=MEASURE_REPRESENTATION_ITEM('density measure',
POSITIVE_RATIO_MEASURE(7850.),#391);
#393=PROPERTY_DEFINITION_REPRESENTATION(#398,#395);
#394=PROPERTY_DEFINITION_REPRESENTATION(#399,#396);
#395=REPRESENTATION('material name',(#397),#664);
#396=REPRESENTATION('density',(#392),#664);
#397=DESCRIPTIVE_REPRESENTATION_ITEM('Steel','Steel');
#398=PROPERTY_DEFINITION('material property','material name',#679);
#399=PROPERTY_DEFINITION('material property','density of part',#679);
#400=AXIS2_PLACEMENT_3D('',#559,#445,#446);
#401=AXIS2_PLACEMENT_3D('',#560,#447,#448);
#402=AXIS2_PLACEMENT_3D('',#561,#449,#450);
#403=AXIS2_PLACEMENT_3D('',#571,#455,#456);
#404=AXIS2_PLACEMENT_3D('',#573,#457,#458);
#405=AXIS2_PLACEMENT_3D('',#575,#459,#460);
#406=AXIS2_PLACEMENT_3D('',#577,#461,#462);
#407=AXIS2_PLACEMENT_3D('',#579,#463,#464);
#408=AXIS2_PLACEMENT_3D('',#581,#465,#466);
#409=AXIS2_PLACEMENT_3D('',#583,#467,#468);
#410=AXIS2_PLACEMENT_3D('',#585,#469,#470);
#411=AXIS2_PLACEMENT_3D('',#587,#471,#472);
#412=AXIS2_PLACEMENT_3D('',#589,#473,#474);
#413=AXIS2_PLACEMENT_3D('',#591,#475,#476);
#414=AXIS2_PLACEMENT_3D('',#593,#477,#478);
#415=AXIS2_PLACEMENT_3D('',#594,#479,#480);
#416=AXIS2_PLACEMENT_3D('',#604,#485,#486);
#417=AXIS2_PLACEMENT_3D('',#606,#487,#488);
#418=AXIS2_PLACEMENT_3D('',#608,#489,#490);
#419=AXIS2_PLACEMENT_3D('',#610,#491,#492);
#420=AXIS2_PLACEMENT_3D('',#612,#493,#494);
#421=AXIS2_PLACEMENT_3D('',#614,#495,#496);
#422=AXIS2_PLACEMENT_3D('',#616,#497,#498);
#423=AXIS2_PLACEMENT_3D('',#618,#499,#500);
#424=AXIS2_PLACEMENT_3D('',#620,#501,#502);
#425=AXIS2_PLACEMENT_3D('',#622,#503,#504);
#426=AXIS2_PLACEMENT_3D('',#624,#505,#506);
#427=AXIS2_PLACEMENT_3D('',#626,#507,#508);
#428=AXIS2_PLACEMENT_3D('',#627,#509,#510);
#429=AXIS2_PLACEMENT_3D('',#630,#513,#514);
#430=AXIS2_PLACEMENT_3D('',#632,#516,#517);
#431=AXIS2_PLACEMENT_3D('',#634,#519,#520);
#432=AXIS2_PLACEMENT_3D('',#635,#521,#522);
#433=AXIS2_PLACEMENT_3D('',#637,#524,#525);
#434=AXIS2_PLACEMENT_3D('',#639,#527,#528);
#435=AXIS2_PLACEMENT_3D('',#641,#530,#531);
#436=AXIS2_PLACEMENT_3D('',#643,#533,#534);
#437=AXIS2_PLACEMENT_3D('',#645,#536,#537);
#438=AXIS2_PLACEMENT_3D('',#647,#539,#540);
#439=AXIS2_PLACEMENT_3D('',#649,#542,#543);
#440=AXIS2_PLACEMENT_3D('',#651,#545,#546);
#441=AXIS2_PLACEMENT_3D('',#653,#548,#549);
#442=AXIS2_PLACEMENT_3D('',#655,#551,#552);
#443=AXIS2_PLACEMENT_3D('',#657,#554,#555);
#444=AXIS2_PLACEMENT_3D('',#659,#557,#558);
#445=DIRECTION('axis',(0.,0.,1.));
#446=DIRECTION('refdir',(1.,0.,0.));
#447=DIRECTION('axis',(0.,0.,1.));
#448=DIRECTION('refdir',(1.,0.,0.));
#449=DIRECTION('center_axis',(0.,0.,1.));
#450=DIRECTION('ref_axis',(1.,0.,0.));
#451=DIRECTION('',(0.,-1.,0.));
#452=DIRECTION('',(1.,0.,0.));
#453=DIRECTION('',(0.,1.,0.));
#454=DIRECTION('',(-1.,0.,0.));
#455=DIRECTION('center_axis',(0.,0.,1.));
#456=DIRECTION('ref_axis',(1.,0.,0.));
#457=DIRECTION('center_axis',(0.,0.,1.));
#458=DIRECTION('ref_axis',(1.,0.,0.));
#459=DIRECTION('center_axis',(0.,0.,1.));
#460=DIRECTION('ref_axis',(1.,0.,0.));
#461=DIRECTION('center_axis',(0.,0.,1.));
#462=DIRECTION('ref_axis',(1.,0.,0.));
#463=DIRECTION('center_axis',(0.,0.,1.));
#464=DIRECTION('ref_axis',(1.,0.,0.));
#465=DIRECTION('center_axis',(0.,0.,1.));
#466=DIRECTION('ref_axis',(1.,0.,0.));
#467=DIRECTION('center_axis',(0.,0.,1.));
#468=DIRECTION('ref_axis',(1.,0.,0.));
#469=DIRECTION('center_axis',(0.,0.,1.));
#470=DIRECTION('ref_axis',(1.,0.,0.));
#471=DIRECTION('center_axis',(0.,0.,1.));
#472=DIRECTION('ref_axis',(1.,0.,0.));
#473=DIRECTION('center_axis',(0.,0.,1.));
#474=DIRECTION('ref_axis',(1.,0.,0.));
#475=DIRECTION('center_axis',(0.,0.,1.));
#476=DIRECTION('ref_axis',(1.,0.,0.));
#477=DIRECTION('center_axis',(0.,0.,1.));
#478=DIRECTION('ref_axis',(1.,0.,0.));
#479=DIRECTION('center_axis',(0.,0.,-1.));
#480=DIRECTION('ref_axis',(-1.,0.,0.));
#481=DIRECTION('',(0.,-1.,0.));
#482=DIRECTION('',(-1.,0.,0.));
#483=DIRECTION('',(0.,1.,0.));
#484=DIRECTION('',(1.,0.,0.));
#485=DIRECTION('center_axis',(0.,0.,-1.));
#486=DIRECTION('ref_axis',(-1.,0.,0.));
#487=DIRECTION('center_axis',(0.,0.,-1.));
#488=DIRECTION('ref_axis',(-1.,0.,0.));
#489=DIRECTION('center_axis',(0.,0.,-1.));
#490=DIRECTION('ref_axis',(-1.,0.,0.));
#491=DIRECTION('center_axis',(0.,0.,-1.));
#492=DIRECTION('ref_axis',(-1.,0.,0.));
#493=DIRECTION('center_axis',(0.,0.,-1.));
#494=DIRECTION('ref_axis',(-1.,0.,0.));
#495=DIRECTION('center_axis',(0.,0.,-1.));
#496=DIRECTION('ref_axis',(-1.,0.,0.));
#497=DIRECTION('center_axis',(0.,0.,-1.));
#498=DIRECTION('ref_axis',(-1.,0.,0.));
#499=DIRECTION('center_axis',(0.,0.,-1.));
#500=DIRECTION('ref_axis',(-1.,0.,0.));
#501=DIRECTION('center_axis',(0.,0.,-1.));
#502=DIRECTION('ref_axis',(-1.,0.,0.));
#503=DIRECTION('center_axis',(0.,0.,-1.));
#504=DIRECTION('ref_axis',(-1.,0.,0.));
#505=DIRECTION('center_axis',(0.,0.,-1.));
#506=DIRECTION('ref_axis',(-1.,0.,0.));
#507=DIRECTION('center_axis',(0.,0.,-1.));
#508=DIRECTION('ref_axis',(-1.,0.,0.));
#509=DIRECTION('center_axis',(1.,0.,0.));
#510=DIRECTION('ref_axis',(0.,-1.,0.));
#511=DIRECTION('',(0.,0.,1.));
#512=DIRECTION('',(0.,0.,1.));
#513=DIRECTION('center_axis',(0.,1.,0.));
#514=DIRECTION('ref_axis',(1.,0.,0.));
#515=DIRECTION('',(0.,0.,1.));
#516=DIRECTION('center_axis',(-1.,0.,0.));
#517=DIRECTION('ref_axis',(0.,1.,0.));
#518=DIRECTION('',(0.,0.,1.));
#519=DIRECTION('center_axis',(0.,-1.,0.));
#520=DIRECTION('ref_axis',(-1.,0.,0.));
#521=DIRECTION('center_axis',(0.,0.,1.));
#522=DIRECTION('ref_axis',(-1.,0.,0.));
#523=DIRECTION('',(0.,0.,1.));
#524=DIRECTION('center_axis',(0.,0.,1.));
#525=DIRECTION('ref_axis',(-1.,0.,0.));
#526=DIRECTION('',(0.,0.,1.));
#527=DIRECTION('center_axis',(0.,0.,1.));
#528=DIRECTION('ref_axis',(-1.,0.,0.));
#529=DIRECTION('',(0.,0.,1.));
#530=DIRECTION('center_axis',(0.,0.,1.));
#531=DIRECTION('ref_axis',(-1.,0.,0.));
#532=DIRECTION('',(0.,0.,1.));
#533=DIRECTION('center_axis',(0.,0.,1.));
#534=DIRECTION('ref_axis',(-1.,0.,0.));
#535=DIRECTION('',(0.,0.,1.));
#536=DIRECTION('center_axis',(0.,0.,1.));
#537=DIRECTION('ref_axis',(-1.,0.,0.));
#538=DIRECTION('',(0.,0.,1.));
#539=DIRECTION('center_axis',(0.,0.,1.));
#540=DIRECTION('ref_axis',(-1.,0.,0.));
#541=DIRECTION('',(0.,0.,1.));
#542=DIRECTION('center_axis',(0.,0.,1.));
#543=DIRECTION('ref_axis',(-1.,0.,0.));
#544=DIRECTION('',(0.,0.,1.));
#545=DIRECTION('center_axis',(0.,0.,1.));
#546=DIRECTION('ref_axis',(-1.,0.,0.));
#547=DIRECTION('',(0.,0.,1.));
#548=DIRECTION('center_axis',(0.,0.,1.));
#549=DIRECTION('ref_axis',(-1.,0.,0.));
#550=DIRECTION('',(0.,0.,1.));
#551=DIRECTION('center_axis',(0.,0.,1.));
#552=DIRECTION('ref_axis',(-1.,0.,0.));
#553=DIRECTION('',(0.,0.,1.));
#554=DIRECTION('center_axis',(0.,0.,1.));
#555=DIRECTION('ref_axis',(-1.,0.,0.));
#556=DIRECTION('',(0.,0.,1.));
#557=DIRECTION('',(-3.22237711505882E-17,-4.02475192555892E-32,0.999999999999995));
#558=DIRECTION('',(1.,0.,7.28583859910255E-17));
#559=CARTESIAN_POINT('',(0.,0.,0.));
#560=CARTESIAN_POINT('',(0.,0.,0.));
#561=CARTESIAN_POINT('Origin',(-1.48999999999994,-626.506168828678,18.8663807191131));
#562=CARTESIAN_POINT('',(452.,-297.016168828678,18.8663807191132));
#563=CARTESIAN_POINT('',(452.,-622.016168828678,18.8663807191131));
#564=CARTESIAN_POINT('',(452.,-297.016168828678,18.8663807191132));
#565=CARTESIAN_POINT('',(3.00000000000006,-297.016168828678,18.8663807191132));
#566=CARTESIAN_POINT('',(3.00000000000006,-297.016168828678,18.8663807191132));
#567=CARTESIAN_POINT('',(3.00000000000006,-622.016168828678,18.8663807191131));
#568=CARTESIAN_POINT('',(3.00000000000006,-622.016168828678,18.8663807191131));
#569=CARTESIAN_POINT('',(452.,-622.016168828678,18.8663807191131));
#570=CARTESIAN_POINT('',(57.5,-569.516168828678,18.8663807191131));
#571=CARTESIAN_POINT('Origin',(52.5,-569.516168828678,18.8663807191131));
#572=CARTESIAN_POINT('',(77.5,-589.516168828678,18.8663807191131));
#573=CARTESIAN_POINT('Origin',(72.5,-589.516168828678,18.8663807191131));
#574=CARTESIAN_POINT('',(222.5,-589.516168828678,18.8663807191131));
#575=CARTESIAN_POINT('Origin',(217.5,-589.516168828678,18.8663807191131));
#576=CARTESIAN_POINT('',(242.5,-589.516168828678,18.8663807191131));
#577=CARTESIAN_POINT('Origin',(237.5,-589.516168828678,18.8663807191131));
#578=CARTESIAN_POINT('',(387.5,-589.516168828678,18.8663807191131));
#579=CARTESIAN_POINT('Origin',(382.5,-589.516168828678,18.8663807191131));
#580=CARTESIAN_POINT('',(407.5,-569.516168828678,18.8663807191131));
#581=CARTESIAN_POINT('Origin',(402.5,-569.516168828678,18.8663807191131));
#582=CARTESIAN_POINT('',(407.5,-349.516168828678,18.8663807191132));
#583=CARTESIAN_POINT('Origin',(402.5,-349.516168828678,18.8663807191132));
#584=CARTESIAN_POINT('',(387.5,-329.516168828678,18.8663807191132));
#585=CARTESIAN_POINT('Origin',(382.5,-329.516168828678,18.8663807191132));
#586=CARTESIAN_POINT('',(242.5,-329.516168828678,18.8663807191132));
#587=CARTESIAN_POINT('Origin',(237.5,-329.516168828678,18.8663807191132));
#588=CARTESIAN_POINT('',(222.5,-329.516168828678,18.8663807191132));
#589=CARTESIAN_POINT('Origin',(217.5,-329.516168828678,18.8663807191132));
#590=CARTESIAN_POINT('',(77.5,-329.516168828678,18.8663807191132));
#591=CARTESIAN_POINT('Origin',(72.5,-329.516168828678,18.8663807191132));
#592=CARTESIAN_POINT('',(57.5,-349.516168828678,18.8663807191132));
#593=CARTESIAN_POINT('Origin',(52.5,-349.516168828678,18.8663807191132));
#594=CARTESIAN_POINT('Origin',(456.49,-626.506168828678,11.8663807191131));
#595=CARTESIAN_POINT('',(452.,-297.016168828678,11.8663807191132));
#596=CARTESIAN_POINT('',(452.,-622.016168828678,11.8663807191131));
#597=CARTESIAN_POINT('',(452.,-297.016168828678,11.8663807191132));
#598=CARTESIAN_POINT('',(3.00000000000006,-622.016168828678,11.8663807191131));
#599=CARTESIAN_POINT('',(452.,-622.016168828678,11.8663807191131));
#600=CARTESIAN_POINT('',(3.00000000000006,-297.016168828678,11.8663807191132));
#601=CARTESIAN_POINT('',(3.00000000000006,-622.016168828678,11.8663807191131));
#602=CARTESIAN_POINT('',(3.00000000000006,-297.016168828678,11.8663807191132));
#603=CARTESIAN_POINT('',(57.5,-569.516168828678,11.8663807191131));
#604=CARTESIAN_POINT('Origin',(52.5,-569.516168828678,11.8663807191131));
#605=CARTESIAN_POINT('',(77.5,-589.516168828678,11.8663807191131));
#606=CARTESIAN_POINT('Origin',(72.5,-589.516168828678,11.8663807191131));
#607=CARTESIAN_POINT('',(222.5,-589.516168828678,11.8663807191131));
#608=CARTESIAN_POINT('Origin',(217.5,-589.516168828678,11.8663807191131));
#609=CARTESIAN_POINT('',(242.5,-589.516168828678,11.8663807191131));
#610=CARTESIAN_POINT('Origin',(237.5,-589.516168828678,11.8663807191131));
#611=CARTESIAN_POINT('',(387.5,-589.516168828678,11.8663807191131));
#612=CARTESIAN_POINT('Origin',(382.5,-589.516168828678,11.8663807191131));
#613=CARTESIAN_POINT('',(407.5,-569.516168828678,11.8663807191131));
#614=CARTESIAN_POINT('Origin',(402.5,-569.516168828678,11.8663807191131));
#615=CARTESIAN_POINT('',(407.5,-349.516168828678,11.8663807191132));
#616=CARTESIAN_POINT('Origin',(402.5,-349.516168828678,11.8663807191132));
#617=CARTESIAN_POINT('',(387.5,-329.516168828678,11.8663807191132));
#618=CARTESIAN_POINT('Origin',(382.5,-329.516168828678,11.8663807191132));
#619=CARTESIAN_POINT('',(242.5,-329.516168828678,11.8663807191132));
#620=CARTESIAN_POINT('Origin',(237.5,-329.516168828678,11.8663807191132));
#621=CARTESIAN_POINT('',(222.5,-329.516168828678,11.8663807191132));
#622=CARTESIAN_POINT('Origin',(217.5,-329.516168828678,11.8663807191132));
#623=CARTESIAN_POINT('',(77.5,-329.516168828678,11.8663807191132));
#624=CARTESIAN_POINT('Origin',(72.5,-329.516168828678,11.8663807191132));
#625=CARTESIAN_POINT('',(57.5,-349.516168828678,11.8663807191132));
#626=CARTESIAN_POINT('Origin',(52.5,-349.516168828678,11.8663807191132));
#627=CARTESIAN_POINT('Origin',(452.,-293.766168828678,22.1163807191132));
#628=CARTESIAN_POINT('',(452.,-622.016168828678,11.8663807191131));
#629=CARTESIAN_POINT('',(452.,-297.016168828678,11.8663807191132));
#630=CARTESIAN_POINT('Origin',(-1.48999999999994,-297.016168828678,23.3563807191132));
#631=CARTESIAN_POINT('',(3.00000000000006,-297.016168828678,11.8663807191132));
#632=CARTESIAN_POINT('Origin',(3.00000000000006,-625.266168828678,22.1163807191131));
#633=CARTESIAN_POINT('',(3.00000000000006,-622.016168828678,11.8663807191131));
#634=CARTESIAN_POINT('Origin',(456.49,-622.016168828678,23.3563807191132));
#635=CARTESIAN_POINT('Origin',(52.5,-349.516168828678,11.8663807191132));
#636=CARTESIAN_POINT('',(57.5,-349.516168828678,11.8663807191132));
#637=CARTESIAN_POINT('Origin',(72.5,-329.516168828678,11.8663807191132));
#638=CARTESIAN_POINT('',(77.5,-329.516168828678,11.8663807191132));
#639=CARTESIAN_POINT('Origin',(217.5,-329.516168828678,11.8663807191132));
#640=CARTESIAN_POINT('',(222.5,-329.516168828678,11.8663807191132));
#641=CARTESIAN_POINT('Origin',(237.5,-329.516168828678,11.8663807191132));
#642=CARTESIAN_POINT('',(242.5,-329.516168828678,11.8663807191132));
#643=CARTESIAN_POINT('Origin',(382.5,-329.516168828678,11.8663807191132));
#644=CARTESIAN_POINT('',(387.5,-329.516168828678,11.8663807191132));
#645=CARTESIAN_POINT('Origin',(402.5,-349.516168828678,11.8663807191132));
#646=CARTESIAN_POINT('',(407.5,-349.516168828678,11.8663807191132));
#647=CARTESIAN_POINT('Origin',(402.5,-569.516168828678,11.8663807191131));
#648=CARTESIAN_POINT('',(407.5,-569.516168828678,11.8663807191131));
#649=CARTESIAN_POINT('Origin',(382.5,-589.516168828678,11.8663807191131));
#650=CARTESIAN_POINT('',(387.5,-589.516168828678,11.8663807191131));
#651=CARTESIAN_POINT('Origin',(237.5,-589.516168828678,11.8663807191131));
#652=CARTESIAN_POINT('',(242.5,-589.516168828678,11.8663807191131));
#653=CARTESIAN_POINT('Origin',(217.5,-589.516168828678,11.8663807191131));
#654=CARTESIAN_POINT('',(222.5,-589.516168828678,11.8663807191131));
#655=CARTESIAN_POINT('Origin',(72.5,-589.516168828678,11.8663807191131));
#656=CARTESIAN_POINT('',(77.5,-589.516168828678,11.8663807191131));
#657=CARTESIAN_POINT('Origin',(52.5,-569.516168828678,11.8663807191131));
#658=CARTESIAN_POINT('',(57.5,-569.516168828678,11.8663807191131));
#659=CARTESIAN_POINT('',(-3.00000000000119,622.016168828678,-11.866380719113));
#660=UNCERTAINTY_MEASURE_WITH_UNIT(LENGTH_MEASURE(0.01),#666,
'DISTANCE_ACCURACY_VALUE',
'Maximum model space distance between geometric entities at asserted c
onnectivities');
#661=UNCERTAINTY_MEASURE_WITH_UNIT(LENGTH_MEASURE(0.01),#666,
'DISTANCE_ACCURACY_VALUE',
'Maximum model space distance between geometric entities at asserted c
onnectivities');
#662=UNCERTAINTY_MEASURE_WITH_UNIT(LENGTH_MEASURE(0.01),#666,
'DISTANCE_ACCURACY_VALUE',
'Maximum model space distance between geometric entities at asserted c
onnectivities');
#663=(
GEOMETRIC_REPRESENTATION_CONTEXT(3)
GLOBAL_UNCERTAINTY_ASSIGNED_CONTEXT((#660))
GLOBAL_UNIT_ASSIGNED_CONTEXT((#666,#668,#669))
REPRESENTATION_CONTEXT('','3D')
);
#664=(
GEOMETRIC_REPRESENTATION_CONTEXT(3)
GLOBAL_UNCERTAINTY_ASSIGNED_CONTEXT((#661))
GLOBAL_UNIT_ASSIGNED_CONTEXT((#666,#668,#669))
REPRESENTATION_CONTEXT('','3D')
);
#665=(
GEOMETRIC_REPRESENTATION_CONTEXT(3)
GLOBAL_UNCERTAINTY_ASSIGNED_CONTEXT((#662))
GLOBAL_UNIT_ASSIGNED_CONTEXT((#666,#668,#669))
REPRESENTATION_CONTEXT('','3D')
);
#666=(
LENGTH_UNIT()
NAMED_UNIT(*)
SI_UNIT(.MILLI.,.METRE.)
);
#667=(
LENGTH_UNIT()
NAMED_UNIT(*)
SI_UNIT($,.METRE.)
);
#668=(
NAMED_UNIT(*)
PLANE_ANGLE_UNIT()
SI_UNIT($,.RADIAN.)
);
#669=(
NAMED_UNIT(*)
SI_UNIT($,.STERADIAN.)
SOLID_ANGLE_UNIT()
);
#670=SHAPE_DEFINITION_REPRESENTATION(#672,#675);
#671=SHAPE_DEFINITION_REPRESENTATION(#673,#676);
#672=PRODUCT_DEFINITION_SHAPE('',$,#678);
#673=PRODUCT_DEFINITION_SHAPE('',$,#679);
#674=PRODUCT_DEFINITION_SHAPE($,$,#14);
#675=SHAPE_REPRESENTATION('',(#400,#444),#663);
#676=SHAPE_REPRESENTATION('',(#401),#664);
#677=PRODUCT_DEFINITION_CONTEXT('part definition',#685,'design');
#678=PRODUCT_DEFINITION('Suitcase filling - Top 2',
'Suitcase filling - Top 2 v2',#680,#677);
#679=PRODUCT_DEFINITION('Component1','Component1',#681,#677);
#680=PRODUCT_DEFINITION_FORMATION('',$,#687);
#681=PRODUCT_DEFINITION_FORMATION('',$,#688);
#682=PRODUCT_RELATED_PRODUCT_CATEGORY('Suitcase filling - Top 2 v2',
'Suitcase filling - Top 2 v2',(#687));
#683=PRODUCT_RELATED_PRODUCT_CATEGORY('Component1','Component1',(#688));
#684=APPLICATION_PROTOCOL_DEFINITION('international standard',
'automotive_design',2009,#685);
#685=APPLICATION_CONTEXT(
'Core Data for Automotive Mechanical Design Process');
#686=PRODUCT_CONTEXT('part definition',#685,'mechanical');
#687=PRODUCT('Suitcase filling - Top 2','Suitcase filling - Top 2 v2',$,
(#686));
#688=PRODUCT('Component1','Component1',$,(#686));
#689=PRESENTATION_STYLE_ASSIGNMENT((#691));
#690=PRESENTATION_STYLE_ASSIGNMENT((#692));
#691=SURFACE_STYLE_USAGE(.BOTH.,#693);
#692=SURFACE_STYLE_USAGE(.BOTH.,#694);
#693=SURFACE_SIDE_STYLE('',(#695));
#694=SURFACE_SIDE_STYLE('',(#696));
#695=SURFACE_STYLE_FILL_AREA(#697);
#696=SURFACE_STYLE_FILL_AREA(#698);
#697=FILL_AREA_STYLE('Steel - Satin',(#699));
#698=FILL_AREA_STYLE('Opaque(0,88,28)',(#700));
#699=FILL_AREA_STYLE_COLOUR('Steel - Satin',#701);
#700=FILL_AREA_STYLE_COLOUR('Opaque(0,88,28)',#702);
#701=COLOUR_RGB('Steel - Satin',0.627450980392157,0.627450980392157,0.627450980392157);
#702=COLOUR_RGB('Opaque(0,88,28)',0.,0.345098039215686,0.109803921568627);
ENDSEC;
END-ISO-10303-21;
