ISO-10303-21;
HEADER;
/* Generated by software containing ST-Developer
 * from STEP Tools, Inc. (www.steptools.com) 
 */

FILE_DESCRIPTION(
/* description */ (''),
/* implementation_level */ '2;1');

FILE_NAME(
/* name */ 'Suitcase filling - Top 1.step',
/* time_stamp */ '2023-06-18T21:18:45+02:00',
/* author */ (''),
/* organization */ (''),
/* preprocessor_version */ 'ST-DEVELOPER v19.2',
/* originating_system */ 'Autodesk Translation Framework v12.6.0.85',
/* authorisation */ '');

FILE_SCHEMA (('AUTOMOTIVE_DESIGN { 1 0 10303 214 3 1 1 }'));
ENDSEC;

DATA;
#10=MECHANICAL_DESIGN_GEOMETRIC_PRESENTATION_REPRESENTATION('',(#17),#908);
#11=ITEM_DEFINED_TRANSFORMATION($,$,#556,#598);
#12=(
REPRESENTATION_RELATIONSHIP($,$,#919,#918)
REPRESENTATION_RELATIONSHIP_WITH_TRANSFORMATION(#11)
SHAPE_REPRESENTATION_RELATIONSHIP()
);
#13=CONTEXT_DEPENDENT_SHAPE_REPRESENTATION(#12,#917);
#14=NEXT_ASSEMBLY_USAGE_OCCURRENCE('Component1:1','Component1:1',
'Component1:1',#921,#922,'Component1:1');
#15=SHAPE_REPRESENTATION_RELATIONSHIP('SRR','None',#919,#16);
#16=ADVANCED_BREP_SHAPE_REPRESENTATION('',(#18),#907);
#17=STYLED_ITEM('',(#933),#18);
#18=MANIFOLD_SOLID_BREP('Body1',#542);
#19=CYLINDRICAL_SURFACE('',#578,4.);
#20=CYLINDRICAL_SURFACE('',#580,4.);
#21=CYLINDRICAL_SURFACE('',#583,4.);
#22=CYLINDRICAL_SURFACE('',#585,4.);
#23=CYLINDRICAL_SURFACE('',#589,4.);
#24=CYLINDRICAL_SURFACE('',#591,4.);
#25=CYLINDRICAL_SURFACE('',#594,4.00000000000006);
#26=FACE_BOUND('',#70,.T.);
#27=FACE_BOUND('',#72,.T.);
#28=CIRCLE('',#558,4.);
#29=CIRCLE('',#559,4.);
#30=CIRCLE('',#560,4.);
#31=CIRCLE('',#561,4.);
#32=CIRCLE('',#562,4.);
#33=CIRCLE('',#563,4.);
#34=CIRCLE('',#564,4.00000000000006);
#35=CIRCLE('',#566,4.00000000000006);
#36=CIRCLE('',#567,4.);
#37=CIRCLE('',#568,4.);
#38=CIRCLE('',#569,4.);
#39=CIRCLE('',#570,4.);
#40=CIRCLE('',#571,4.);
#41=CIRCLE('',#572,4.);
#42=FACE_OUTER_BOUND('',#69,.T.);
#43=FACE_OUTER_BOUND('',#71,.T.);
#44=FACE_OUTER_BOUND('',#73,.T.);
#45=FACE_OUTER_BOUND('',#74,.T.);
#46=FACE_OUTER_BOUND('',#75,.T.);
#47=FACE_OUTER_BOUND('',#76,.T.);
#48=FACE_OUTER_BOUND('',#77,.T.);
#49=FACE_OUTER_BOUND('',#78,.T.);
#50=FACE_OUTER_BOUND('',#79,.T.);
#51=FACE_OUTER_BOUND('',#80,.T.);
#52=FACE_OUTER_BOUND('',#81,.T.);
#53=FACE_OUTER_BOUND('',#82,.T.);
#54=FACE_OUTER_BOUND('',#83,.T.);
#55=FACE_OUTER_BOUND('',#84,.T.);
#56=FACE_OUTER_BOUND('',#85,.T.);
#57=FACE_OUTER_BOUND('',#86,.T.);
#58=FACE_OUTER_BOUND('',#87,.T.);
#59=FACE_OUTER_BOUND('',#88,.T.);
#60=FACE_OUTER_BOUND('',#89,.T.);
#61=FACE_OUTER_BOUND('',#90,.T.);
#62=FACE_OUTER_BOUND('',#91,.T.);
#63=FACE_OUTER_BOUND('',#92,.T.);
#64=FACE_OUTER_BOUND('',#93,.T.);
#65=FACE_OUTER_BOUND('',#94,.T.);
#66=FACE_OUTER_BOUND('',#95,.T.);
#67=FACE_OUTER_BOUND('',#96,.T.);
#68=FACE_OUTER_BOUND('',#97,.T.);
#69=EDGE_LOOP('',(#345,#346,#347,#348));
#70=EDGE_LOOP('',(#349,#350,#351,#352,#353,#354,#355,#356,#357,#358,#359,
#360,#361,#362,#363,#364,#365,#366,#367,#368,#369));
#71=EDGE_LOOP('',(#370,#371,#372,#373));
#72=EDGE_LOOP('',(#374,#375,#376,#377,#378,#379,#380,#381,#382,#383,#384,
#385,#386,#387,#388,#389,#390,#391,#392,#393,#394));
#73=EDGE_LOOP('',(#395,#396,#397,#398));
#74=EDGE_LOOP('',(#399,#400,#401,#402));
#75=EDGE_LOOP('',(#403,#404,#405,#406));
#76=EDGE_LOOP('',(#407,#408,#409,#410));
#77=EDGE_LOOP('',(#411,#412,#413,#414));
#78=EDGE_LOOP('',(#415,#416,#417,#418));
#79=EDGE_LOOP('',(#419,#420,#421,#422));
#80=EDGE_LOOP('',(#423,#424,#425,#426));
#81=EDGE_LOOP('',(#427,#428,#429,#430));
#82=EDGE_LOOP('',(#431,#432,#433,#434));
#83=EDGE_LOOP('',(#435,#436,#437,#438));
#84=EDGE_LOOP('',(#439,#440,#441,#442));
#85=EDGE_LOOP('',(#443,#444,#445,#446));
#86=EDGE_LOOP('',(#447,#448,#449,#450));
#87=EDGE_LOOP('',(#451,#452,#453,#454));
#88=EDGE_LOOP('',(#455,#456,#457,#458));
#89=EDGE_LOOP('',(#459,#460,#461,#462));
#90=EDGE_LOOP('',(#463,#464,#465,#466));
#91=EDGE_LOOP('',(#467,#468,#469,#470));
#92=EDGE_LOOP('',(#471,#472,#473,#474));
#93=EDGE_LOOP('',(#475,#476,#477,#478));
#94=EDGE_LOOP('',(#479,#480,#481,#482));
#95=EDGE_LOOP('',(#483,#484,#485,#486));
#96=EDGE_LOOP('',(#487,#488,#489,#490));
#97=EDGE_LOOP('',(#491,#492,#493,#494));
#98=LINE('',#753,#159);
#99=LINE('',#755,#160);
#100=LINE('',#757,#161);
#101=LINE('',#758,#162);
#102=LINE('',#761,#163);
#103=LINE('',#765,#164);
#104=LINE('',#769,#165);
#105=LINE('',#771,#166);
#106=LINE('',#775,#167);
#107=LINE('',#779,#168);
#108=LINE('',#781,#169);
#109=LINE('',#783,#170);
#110=LINE('',#787,#171);
#111=LINE('',#791,#172);
#112=LINE('',#793,#173);
#113=LINE('',#797,#174);
#114=LINE('',#799,#175);
#115=LINE('',#800,#176);
#116=LINE('',#804,#177);
#117=LINE('',#806,#178);
#118=LINE('',#808,#179);
#119=LINE('',#809,#180);
#120=LINE('',#812,#181);
#121=LINE('',#814,#182);
#122=LINE('',#816,#183);
#123=LINE('',#818,#184);
#124=LINE('',#822,#185);
#125=LINE('',#824,#186);
#126=LINE('',#828,#187);
#127=LINE('',#832,#188);
#128=LINE('',#834,#189);
#129=LINE('',#836,#190);
#130=LINE('',#840,#191);
#131=LINE('',#844,#192);
#132=LINE('',#846,#193);
#133=LINE('',#850,#194);
#134=LINE('',#853,#195);
#135=LINE('',#854,#196);
#136=LINE('',#856,#197);
#137=LINE('',#858,#198);
#138=LINE('',#861,#199);
#139=LINE('',#862,#200);
#140=LINE('',#864,#201);
#141=LINE('',#866,#202);
#142=LINE('',#868,#203);
#143=LINE('',#870,#204);
#144=LINE('',#872,#205);
#145=LINE('',#874,#206);
#146=LINE('',#876,#207);
#147=LINE('',#878,#208);
#148=LINE('',#880,#209);
#149=LINE('',#882,#210);
#150=LINE('',#884,#211);
#151=LINE('',#886,#212);
#152=LINE('',#888,#213);
#153=LINE('',#890,#214);
#154=LINE('',#892,#215);
#155=LINE('',#894,#216);
#156=LINE('',#896,#217);
#157=LINE('',#898,#218);
#158=LINE('',#900,#219);
#159=VECTOR('',#605,449.);
#160=VECTOR('',#606,325.);
#161=VECTOR('',#607,449.);
#162=VECTOR('',#608,325.);
#163=VECTOR('',#609,16.0000000000034);
#164=VECTOR('',#612,31.9999999999999);
#165=VECTOR('',#615,181.);
#166=VECTOR('',#616,180.999999999999);
#167=VECTOR('',#619,31.9999999999998);
#168=VECTOR('',#622,16.000000000005);
#169=VECTOR('',#623,200.);
#170=VECTOR('',#624,16.000000000005);
#171=VECTOR('',#627,31.9999999999998);
#172=VECTOR('',#630,180.999999999999);
#173=VECTOR('',#631,181.);
#174=VECTOR('',#634,75.);
#175=VECTOR('',#635,20.0000000000107);
#176=VECTOR('',#636,161.000000000002);
#177=VECTOR('',#639,449.);
#178=VECTOR('',#640,325.);
#179=VECTOR('',#641,449.);
#180=VECTOR('',#642,325.);
#181=VECTOR('',#643,16.0000000000034);
#182=VECTOR('',#644,161.000000000002);
#183=VECTOR('',#645,20.0000000000107);
#184=VECTOR('',#646,75.);
#185=VECTOR('',#649,181.);
#186=VECTOR('',#650,180.999999999999);
#187=VECTOR('',#653,31.9999999999998);
#188=VECTOR('',#656,16.000000000005);
#189=VECTOR('',#657,200.);
#190=VECTOR('',#658,16.000000000005);
#191=VECTOR('',#661,31.9999999999998);
#192=VECTOR('',#664,180.999999999999);
#193=VECTOR('',#665,181.);
#194=VECTOR('',#668,31.9999999999999);
#195=VECTOR('',#673,33.);
#196=VECTOR('',#674,33.);
#197=VECTOR('',#677,33.);
#198=VECTOR('',#680,33.);
#199=VECTOR('',#685,33.);
#200=VECTOR('',#686,33.);
#201=VECTOR('',#689,33.);
#202=VECTOR('',#692,33.);
#203=VECTOR('',#695,33.);
#204=VECTOR('',#698,33.);
#205=VECTOR('',#701,33.);
#206=VECTOR('',#704,33.);
#207=VECTOR('',#707,33.);
#208=VECTOR('',#710,33.);
#209=VECTOR('',#713,33.);
#210=VECTOR('',#716,33.);
#211=VECTOR('',#719,33.);
#212=VECTOR('',#722,33.);
#213=VECTOR('',#725,33.);
#214=VECTOR('',#728,33.);
#215=VECTOR('',#731,33.);
#216=VECTOR('',#734,33.);
#217=VECTOR('',#737,33.);
#218=VECTOR('',#740,33.);
#219=VECTOR('',#743,33.);
#220=VERTEX_POINT('',#751);
#221=VERTEX_POINT('',#752);
#222=VERTEX_POINT('',#754);
#223=VERTEX_POINT('',#756);
#224=VERTEX_POINT('',#759);
#225=VERTEX_POINT('',#760);
#226=VERTEX_POINT('',#762);
#227=VERTEX_POINT('',#764);
#228=VERTEX_POINT('',#766);
#229=VERTEX_POINT('',#768);
#230=VERTEX_POINT('',#770);
#231=VERTEX_POINT('',#772);
#232=VERTEX_POINT('',#774);
#233=VERTEX_POINT('',#776);
#234=VERTEX_POINT('',#778);
#235=VERTEX_POINT('',#780);
#236=VERTEX_POINT('',#782);
#237=VERTEX_POINT('',#784);
#238=VERTEX_POINT('',#786);
#239=VERTEX_POINT('',#788);
#240=VERTEX_POINT('',#790);
#241=VERTEX_POINT('',#792);
#242=VERTEX_POINT('',#794);
#243=VERTEX_POINT('',#796);
#244=VERTEX_POINT('',#798);
#245=VERTEX_POINT('',#802);
#246=VERTEX_POINT('',#803);
#247=VERTEX_POINT('',#805);
#248=VERTEX_POINT('',#807);
#249=VERTEX_POINT('',#810);
#250=VERTEX_POINT('',#811);
#251=VERTEX_POINT('',#813);
#252=VERTEX_POINT('',#815);
#253=VERTEX_POINT('',#817);
#254=VERTEX_POINT('',#819);
#255=VERTEX_POINT('',#821);
#256=VERTEX_POINT('',#823);
#257=VERTEX_POINT('',#825);
#258=VERTEX_POINT('',#827);
#259=VERTEX_POINT('',#829);
#260=VERTEX_POINT('',#831);
#261=VERTEX_POINT('',#833);
#262=VERTEX_POINT('',#835);
#263=VERTEX_POINT('',#837);
#264=VERTEX_POINT('',#839);
#265=VERTEX_POINT('',#841);
#266=VERTEX_POINT('',#843);
#267=VERTEX_POINT('',#845);
#268=VERTEX_POINT('',#847);
#269=VERTEX_POINT('',#849);
#270=EDGE_CURVE('',#220,#221,#98,.T.);
#271=EDGE_CURVE('',#222,#220,#99,.T.);
#272=EDGE_CURVE('',#223,#222,#100,.T.);
#273=EDGE_CURVE('',#221,#223,#101,.T.);
#274=EDGE_CURVE('',#224,#225,#102,.T.);
#275=EDGE_CURVE('',#226,#224,#28,.T.);
#276=EDGE_CURVE('',#227,#226,#103,.T.);
#277=EDGE_CURVE('',#228,#227,#29,.T.);
#278=EDGE_CURVE('',#229,#228,#104,.T.);
#279=EDGE_CURVE('',#230,#229,#105,.T.);
#280=EDGE_CURVE('',#231,#230,#30,.T.);
#281=EDGE_CURVE('',#232,#231,#106,.T.);
#282=EDGE_CURVE('',#233,#232,#31,.T.);
#283=EDGE_CURVE('',#234,#233,#107,.T.);
#284=EDGE_CURVE('',#235,#234,#108,.T.);
#285=EDGE_CURVE('',#236,#235,#109,.T.);
#286=EDGE_CURVE('',#237,#236,#32,.T.);
#287=EDGE_CURVE('',#238,#237,#110,.T.);
#288=EDGE_CURVE('',#239,#238,#33,.T.);
#289=EDGE_CURVE('',#240,#239,#111,.T.);
#290=EDGE_CURVE('',#241,#240,#112,.T.);
#291=EDGE_CURVE('',#242,#241,#34,.T.);
#292=EDGE_CURVE('',#243,#242,#113,.T.);
#293=EDGE_CURVE('',#244,#243,#114,.T.);
#294=EDGE_CURVE('',#225,#244,#115,.T.);
#295=EDGE_CURVE('',#245,#246,#116,.T.);
#296=EDGE_CURVE('',#246,#247,#117,.T.);
#297=EDGE_CURVE('',#247,#248,#118,.T.);
#298=EDGE_CURVE('',#248,#245,#119,.T.);
#299=EDGE_CURVE('',#249,#250,#120,.T.);
#300=EDGE_CURVE('',#250,#251,#121,.T.);
#301=EDGE_CURVE('',#251,#252,#122,.T.);
#302=EDGE_CURVE('',#252,#253,#123,.T.);
#303=EDGE_CURVE('',#254,#253,#35,.T.);
#304=EDGE_CURVE('',#254,#255,#124,.T.);
#305=EDGE_CURVE('',#255,#256,#125,.T.);
#306=EDGE_CURVE('',#257,#256,#36,.T.);
#307=EDGE_CURVE('',#257,#258,#126,.T.);
#308=EDGE_CURVE('',#259,#258,#37,.T.);
#309=EDGE_CURVE('',#259,#260,#127,.T.);
#310=EDGE_CURVE('',#260,#261,#128,.T.);
#311=EDGE_CURVE('',#261,#262,#129,.T.);
#312=EDGE_CURVE('',#263,#262,#38,.T.);
#313=EDGE_CURVE('',#263,#264,#130,.T.);
#314=EDGE_CURVE('',#265,#264,#39,.T.);
#315=EDGE_CURVE('',#265,#266,#131,.T.);
#316=EDGE_CURVE('',#266,#267,#132,.T.);
#317=EDGE_CURVE('',#268,#267,#40,.T.);
#318=EDGE_CURVE('',#268,#269,#133,.T.);
#319=EDGE_CURVE('',#249,#269,#41,.T.);
#320=EDGE_CURVE('',#246,#221,#134,.T.);
#321=EDGE_CURVE('',#245,#220,#135,.T.);
#322=EDGE_CURVE('',#248,#222,#136,.T.);
#323=EDGE_CURVE('',#247,#223,#137,.T.);
#324=EDGE_CURVE('',#250,#225,#138,.T.);
#325=EDGE_CURVE('',#249,#224,#139,.T.);
#326=EDGE_CURVE('',#269,#226,#140,.T.);
#327=EDGE_CURVE('',#268,#227,#141,.T.);
#328=EDGE_CURVE('',#267,#228,#142,.T.);
#329=EDGE_CURVE('',#266,#229,#143,.T.);
#330=EDGE_CURVE('',#265,#230,#144,.T.);
#331=EDGE_CURVE('',#264,#231,#145,.T.);
#332=EDGE_CURVE('',#263,#232,#146,.T.);
#333=EDGE_CURVE('',#262,#233,#147,.T.);
#334=EDGE_CURVE('',#261,#234,#148,.T.);
#335=EDGE_CURVE('',#260,#235,#149,.T.);
#336=EDGE_CURVE('',#259,#236,#150,.T.);
#337=EDGE_CURVE('',#258,#237,#151,.T.);
#338=EDGE_CURVE('',#257,#238,#152,.T.);
#339=EDGE_CURVE('',#256,#239,#153,.T.);
#340=EDGE_CURVE('',#255,#240,#154,.T.);
#341=EDGE_CURVE('',#254,#241,#155,.T.);
#342=EDGE_CURVE('',#253,#242,#156,.T.);
#343=EDGE_CURVE('',#252,#243,#157,.T.);
#344=EDGE_CURVE('',#251,#244,#158,.T.);
#345=ORIENTED_EDGE('',*,*,#270,.F.);
#346=ORIENTED_EDGE('',*,*,#271,.F.);
#347=ORIENTED_EDGE('',*,*,#272,.F.);
#348=ORIENTED_EDGE('',*,*,#273,.F.);
#349=ORIENTED_EDGE('',*,*,#274,.F.);
#350=ORIENTED_EDGE('',*,*,#275,.F.);
#351=ORIENTED_EDGE('',*,*,#276,.F.);
#352=ORIENTED_EDGE('',*,*,#277,.F.);
#353=ORIENTED_EDGE('',*,*,#278,.F.);
#354=ORIENTED_EDGE('',*,*,#279,.F.);
#355=ORIENTED_EDGE('',*,*,#280,.F.);
#356=ORIENTED_EDGE('',*,*,#281,.F.);
#357=ORIENTED_EDGE('',*,*,#282,.F.);
#358=ORIENTED_EDGE('',*,*,#283,.F.);
#359=ORIENTED_EDGE('',*,*,#284,.F.);
#360=ORIENTED_EDGE('',*,*,#285,.F.);
#361=ORIENTED_EDGE('',*,*,#286,.F.);
#362=ORIENTED_EDGE('',*,*,#287,.F.);
#363=ORIENTED_EDGE('',*,*,#288,.F.);
#364=ORIENTED_EDGE('',*,*,#289,.F.);
#365=ORIENTED_EDGE('',*,*,#290,.F.);
#366=ORIENTED_EDGE('',*,*,#291,.F.);
#367=ORIENTED_EDGE('',*,*,#292,.F.);
#368=ORIENTED_EDGE('',*,*,#293,.F.);
#369=ORIENTED_EDGE('',*,*,#294,.F.);
#370=ORIENTED_EDGE('',*,*,#295,.T.);
#371=ORIENTED_EDGE('',*,*,#296,.T.);
#372=ORIENTED_EDGE('',*,*,#297,.T.);
#373=ORIENTED_EDGE('',*,*,#298,.T.);
#374=ORIENTED_EDGE('',*,*,#299,.T.);
#375=ORIENTED_EDGE('',*,*,#300,.T.);
#376=ORIENTED_EDGE('',*,*,#301,.T.);
#377=ORIENTED_EDGE('',*,*,#302,.T.);
#378=ORIENTED_EDGE('',*,*,#303,.F.);
#379=ORIENTED_EDGE('',*,*,#304,.T.);
#380=ORIENTED_EDGE('',*,*,#305,.T.);
#381=ORIENTED_EDGE('',*,*,#306,.F.);
#382=ORIENTED_EDGE('',*,*,#307,.T.);
#383=ORIENTED_EDGE('',*,*,#308,.F.);
#384=ORIENTED_EDGE('',*,*,#309,.T.);
#385=ORIENTED_EDGE('',*,*,#310,.T.);
#386=ORIENTED_EDGE('',*,*,#311,.T.);
#387=ORIENTED_EDGE('',*,*,#312,.F.);
#388=ORIENTED_EDGE('',*,*,#313,.T.);
#389=ORIENTED_EDGE('',*,*,#314,.F.);
#390=ORIENTED_EDGE('',*,*,#315,.T.);
#391=ORIENTED_EDGE('',*,*,#316,.T.);
#392=ORIENTED_EDGE('',*,*,#317,.F.);
#393=ORIENTED_EDGE('',*,*,#318,.T.);
#394=ORIENTED_EDGE('',*,*,#319,.F.);
#395=ORIENTED_EDGE('',*,*,#270,.T.);
#396=ORIENTED_EDGE('',*,*,#320,.F.);
#397=ORIENTED_EDGE('',*,*,#295,.F.);
#398=ORIENTED_EDGE('',*,*,#321,.T.);
#399=ORIENTED_EDGE('',*,*,#271,.T.);
#400=ORIENTED_EDGE('',*,*,#321,.F.);
#401=ORIENTED_EDGE('',*,*,#298,.F.);
#402=ORIENTED_EDGE('',*,*,#322,.T.);
#403=ORIENTED_EDGE('',*,*,#272,.T.);
#404=ORIENTED_EDGE('',*,*,#322,.F.);
#405=ORIENTED_EDGE('',*,*,#297,.F.);
#406=ORIENTED_EDGE('',*,*,#323,.T.);
#407=ORIENTED_EDGE('',*,*,#273,.T.);
#408=ORIENTED_EDGE('',*,*,#323,.F.);
#409=ORIENTED_EDGE('',*,*,#296,.F.);
#410=ORIENTED_EDGE('',*,*,#320,.T.);
#411=ORIENTED_EDGE('',*,*,#274,.T.);
#412=ORIENTED_EDGE('',*,*,#324,.F.);
#413=ORIENTED_EDGE('',*,*,#299,.F.);
#414=ORIENTED_EDGE('',*,*,#325,.T.);
#415=ORIENTED_EDGE('',*,*,#275,.T.);
#416=ORIENTED_EDGE('',*,*,#325,.F.);
#417=ORIENTED_EDGE('',*,*,#319,.T.);
#418=ORIENTED_EDGE('',*,*,#326,.T.);
#419=ORIENTED_EDGE('',*,*,#276,.T.);
#420=ORIENTED_EDGE('',*,*,#326,.F.);
#421=ORIENTED_EDGE('',*,*,#318,.F.);
#422=ORIENTED_EDGE('',*,*,#327,.T.);
#423=ORIENTED_EDGE('',*,*,#277,.T.);
#424=ORIENTED_EDGE('',*,*,#327,.F.);
#425=ORIENTED_EDGE('',*,*,#317,.T.);
#426=ORIENTED_EDGE('',*,*,#328,.T.);
#427=ORIENTED_EDGE('',*,*,#278,.T.);
#428=ORIENTED_EDGE('',*,*,#328,.F.);
#429=ORIENTED_EDGE('',*,*,#316,.F.);
#430=ORIENTED_EDGE('',*,*,#329,.T.);
#431=ORIENTED_EDGE('',*,*,#279,.T.);
#432=ORIENTED_EDGE('',*,*,#329,.F.);
#433=ORIENTED_EDGE('',*,*,#315,.F.);
#434=ORIENTED_EDGE('',*,*,#330,.T.);
#435=ORIENTED_EDGE('',*,*,#280,.T.);
#436=ORIENTED_EDGE('',*,*,#330,.F.);
#437=ORIENTED_EDGE('',*,*,#314,.T.);
#438=ORIENTED_EDGE('',*,*,#331,.T.);
#439=ORIENTED_EDGE('',*,*,#281,.T.);
#440=ORIENTED_EDGE('',*,*,#331,.F.);
#441=ORIENTED_EDGE('',*,*,#313,.F.);
#442=ORIENTED_EDGE('',*,*,#332,.T.);
#443=ORIENTED_EDGE('',*,*,#282,.T.);
#444=ORIENTED_EDGE('',*,*,#332,.F.);
#445=ORIENTED_EDGE('',*,*,#312,.T.);
#446=ORIENTED_EDGE('',*,*,#333,.T.);
#447=ORIENTED_EDGE('',*,*,#283,.T.);
#448=ORIENTED_EDGE('',*,*,#333,.F.);
#449=ORIENTED_EDGE('',*,*,#311,.F.);
#450=ORIENTED_EDGE('',*,*,#334,.T.);
#451=ORIENTED_EDGE('',*,*,#284,.T.);
#452=ORIENTED_EDGE('',*,*,#334,.F.);
#453=ORIENTED_EDGE('',*,*,#310,.F.);
#454=ORIENTED_EDGE('',*,*,#335,.T.);
#455=ORIENTED_EDGE('',*,*,#285,.T.);
#456=ORIENTED_EDGE('',*,*,#335,.F.);
#457=ORIENTED_EDGE('',*,*,#309,.F.);
#458=ORIENTED_EDGE('',*,*,#336,.T.);
#459=ORIENTED_EDGE('',*,*,#286,.T.);
#460=ORIENTED_EDGE('',*,*,#336,.F.);
#461=ORIENTED_EDGE('',*,*,#308,.T.);
#462=ORIENTED_EDGE('',*,*,#337,.T.);
#463=ORIENTED_EDGE('',*,*,#287,.T.);
#464=ORIENTED_EDGE('',*,*,#337,.F.);
#465=ORIENTED_EDGE('',*,*,#307,.F.);
#466=ORIENTED_EDGE('',*,*,#338,.T.);
#467=ORIENTED_EDGE('',*,*,#288,.T.);
#468=ORIENTED_EDGE('',*,*,#338,.F.);
#469=ORIENTED_EDGE('',*,*,#306,.T.);
#470=ORIENTED_EDGE('',*,*,#339,.T.);
#471=ORIENTED_EDGE('',*,*,#289,.T.);
#472=ORIENTED_EDGE('',*,*,#339,.F.);
#473=ORIENTED_EDGE('',*,*,#305,.F.);
#474=ORIENTED_EDGE('',*,*,#340,.T.);
#475=ORIENTED_EDGE('',*,*,#290,.T.);
#476=ORIENTED_EDGE('',*,*,#340,.F.);
#477=ORIENTED_EDGE('',*,*,#304,.F.);
#478=ORIENTED_EDGE('',*,*,#341,.T.);
#479=ORIENTED_EDGE('',*,*,#291,.T.);
#480=ORIENTED_EDGE('',*,*,#341,.F.);
#481=ORIENTED_EDGE('',*,*,#303,.T.);
#482=ORIENTED_EDGE('',*,*,#342,.T.);
#483=ORIENTED_EDGE('',*,*,#292,.T.);
#484=ORIENTED_EDGE('',*,*,#342,.F.);
#485=ORIENTED_EDGE('',*,*,#302,.F.);
#486=ORIENTED_EDGE('',*,*,#343,.T.);
#487=ORIENTED_EDGE('',*,*,#293,.T.);
#488=ORIENTED_EDGE('',*,*,#343,.F.);
#489=ORIENTED_EDGE('',*,*,#301,.F.);
#490=ORIENTED_EDGE('',*,*,#344,.T.);
#491=ORIENTED_EDGE('',*,*,#294,.T.);
#492=ORIENTED_EDGE('',*,*,#344,.F.);
#493=ORIENTED_EDGE('',*,*,#300,.F.);
#494=ORIENTED_EDGE('',*,*,#324,.T.);
#495=PLANE('',#557);
#496=PLANE('',#565);
#497=PLANE('',#573);
#498=PLANE('',#574);
#499=PLANE('',#575);
#500=PLANE('',#576);
#501=PLANE('',#577);
#502=PLANE('',#579);
#503=PLANE('',#581);
#504=PLANE('',#582);
#505=PLANE('',#584);
#506=PLANE('',#586);
#507=PLANE('',#587);
#508=PLANE('',#588);
#509=PLANE('',#590);
#510=PLANE('',#592);
#511=PLANE('',#593);
#512=PLANE('',#595);
#513=PLANE('',#596);
#514=PLANE('',#597);
#515=ADVANCED_FACE('',(#42,#26),#495,.T.);
#516=ADVANCED_FACE('',(#43,#27),#496,.T.);
#517=ADVANCED_FACE('',(#44),#497,.T.);
#518=ADVANCED_FACE('',(#45),#498,.T.);
#519=ADVANCED_FACE('',(#46),#499,.T.);
#520=ADVANCED_FACE('',(#47),#500,.T.);
#521=ADVANCED_FACE('',(#48),#501,.T.);
#522=ADVANCED_FACE('',(#49),#19,.F.);
#523=ADVANCED_FACE('',(#50),#502,.T.);
#524=ADVANCED_FACE('',(#51),#20,.F.);
#525=ADVANCED_FACE('',(#52),#503,.T.);
#526=ADVANCED_FACE('',(#53),#504,.T.);
#527=ADVANCED_FACE('',(#54),#21,.F.);
#528=ADVANCED_FACE('',(#55),#505,.T.);
#529=ADVANCED_FACE('',(#56),#22,.F.);
#530=ADVANCED_FACE('',(#57),#506,.T.);
#531=ADVANCED_FACE('',(#58),#507,.T.);
#532=ADVANCED_FACE('',(#59),#508,.T.);
#533=ADVANCED_FACE('',(#60),#23,.F.);
#534=ADVANCED_FACE('',(#61),#509,.T.);
#535=ADVANCED_FACE('',(#62),#24,.F.);
#536=ADVANCED_FACE('',(#63),#510,.T.);
#537=ADVANCED_FACE('',(#64),#511,.T.);
#538=ADVANCED_FACE('',(#65),#25,.F.);
#539=ADVANCED_FACE('',(#66),#512,.T.);
#540=ADVANCED_FACE('',(#67),#513,.T.);
#541=ADVANCED_FACE('',(#68),#514,.T.);
#542=CLOSED_SHELL('',(#515,#516,#517,#518,#519,#520,#521,#522,#523,#524,
#525,#526,#527,#528,#529,#530,#531,#532,#533,#534,#535,#536,#537,#538,#539,
#540,#541));
#543=DERIVED_UNIT_ELEMENT(#545,1.);
#544=DERIVED_UNIT_ELEMENT(#910,-3.);
#545=(
MASS_UNIT()
NAMED_UNIT(*)
SI_UNIT(.KILO.,.GRAM.)
);
#546=DERIVED_UNIT((#543,#544));
#547=MEASURE_REPRESENTATION_ITEM('density measure',
POSITIVE_RATIO_MEASURE(7850.),#546);
#548=PROPERTY_DEFINITION_REPRESENTATION(#553,#550);
#549=PROPERTY_DEFINITION_REPRESENTATION(#554,#551);
#550=REPRESENTATION('material name',(#552),#907);
#551=REPRESENTATION('density',(#547),#907);
#552=DESCRIPTIVE_REPRESENTATION_ITEM('Steel','Steel');
#553=PROPERTY_DEFINITION('material property','material name',#922);
#554=PROPERTY_DEFINITION('material property','density of part',#922);
#555=AXIS2_PLACEMENT_3D('',#748,#599,#600);
#556=AXIS2_PLACEMENT_3D('',#749,#601,#602);
#557=AXIS2_PLACEMENT_3D('',#750,#603,#604);
#558=AXIS2_PLACEMENT_3D('',#763,#610,#611);
#559=AXIS2_PLACEMENT_3D('',#767,#613,#614);
#560=AXIS2_PLACEMENT_3D('',#773,#617,#618);
#561=AXIS2_PLACEMENT_3D('',#777,#620,#621);
#562=AXIS2_PLACEMENT_3D('',#785,#625,#626);
#563=AXIS2_PLACEMENT_3D('',#789,#628,#629);
#564=AXIS2_PLACEMENT_3D('',#795,#632,#633);
#565=AXIS2_PLACEMENT_3D('',#801,#637,#638);
#566=AXIS2_PLACEMENT_3D('',#820,#647,#648);
#567=AXIS2_PLACEMENT_3D('',#826,#651,#652);
#568=AXIS2_PLACEMENT_3D('',#830,#654,#655);
#569=AXIS2_PLACEMENT_3D('',#838,#659,#660);
#570=AXIS2_PLACEMENT_3D('',#842,#662,#663);
#571=AXIS2_PLACEMENT_3D('',#848,#666,#667);
#572=AXIS2_PLACEMENT_3D('',#851,#669,#670);
#573=AXIS2_PLACEMENT_3D('',#852,#671,#672);
#574=AXIS2_PLACEMENT_3D('',#855,#675,#676);
#575=AXIS2_PLACEMENT_3D('',#857,#678,#679);
#576=AXIS2_PLACEMENT_3D('',#859,#681,#682);
#577=AXIS2_PLACEMENT_3D('',#860,#683,#684);
#578=AXIS2_PLACEMENT_3D('',#863,#687,#688);
#579=AXIS2_PLACEMENT_3D('',#865,#690,#691);
#580=AXIS2_PLACEMENT_3D('',#867,#693,#694);
#581=AXIS2_PLACEMENT_3D('',#869,#696,#697);
#582=AXIS2_PLACEMENT_3D('',#871,#699,#700);
#583=AXIS2_PLACEMENT_3D('',#873,#702,#703);
#584=AXIS2_PLACEMENT_3D('',#875,#705,#706);
#585=AXIS2_PLACEMENT_3D('',#877,#708,#709);
#586=AXIS2_PLACEMENT_3D('',#879,#711,#712);
#587=AXIS2_PLACEMENT_3D('',#881,#714,#715);
#588=AXIS2_PLACEMENT_3D('',#883,#717,#718);
#589=AXIS2_PLACEMENT_3D('',#885,#720,#721);
#590=AXIS2_PLACEMENT_3D('',#887,#723,#724);
#591=AXIS2_PLACEMENT_3D('',#889,#726,#727);
#592=AXIS2_PLACEMENT_3D('',#891,#729,#730);
#593=AXIS2_PLACEMENT_3D('',#893,#732,#733);
#594=AXIS2_PLACEMENT_3D('',#895,#735,#736);
#595=AXIS2_PLACEMENT_3D('',#897,#738,#739);
#596=AXIS2_PLACEMENT_3D('',#899,#741,#742);
#597=AXIS2_PLACEMENT_3D('',#901,#744,#745);
#598=AXIS2_PLACEMENT_3D('',#902,#746,#747);
#599=DIRECTION('axis',(0.,0.,1.));
#600=DIRECTION('refdir',(1.,0.,0.));
#601=DIRECTION('axis',(0.,0.,1.));
#602=DIRECTION('refdir',(1.,0.,0.));
#603=DIRECTION('center_axis',(0.,0.,1.));
#604=DIRECTION('ref_axis',(1.,0.,0.));
#605=DIRECTION('',(-1.,0.,0.));
#606=DIRECTION('',(0.,-1.,0.));
#607=DIRECTION('',(1.,0.,0.));
#608=DIRECTION('',(0.,1.,0.));
#609=DIRECTION('',(1.,0.,0.));
#610=DIRECTION('center_axis',(0.,0.,1.));
#611=DIRECTION('ref_axis',(-1.,0.,0.));
#612=DIRECTION('',(0.,-1.,0.));
#613=DIRECTION('center_axis',(0.,0.,1.));
#614=DIRECTION('ref_axis',(0.,1.,0.));
#615=DIRECTION('',(-1.,0.,0.));
#616=DIRECTION('',(-1.,0.,0.));
#617=DIRECTION('center_axis',(0.,0.,1.));
#618=DIRECTION('ref_axis',(1.,0.,0.));
#619=DIRECTION('',(0.,1.,0.));
#620=DIRECTION('center_axis',(0.,0.,1.));
#621=DIRECTION('ref_axis',(0.,-1.,0.));
#622=DIRECTION('',(1.,0.,0.));
#623=DIRECTION('',(0.,1.,0.));
#624=DIRECTION('',(-1.,0.,0.));
#625=DIRECTION('center_axis',(0.,0.,1.));
#626=DIRECTION('ref_axis',(1.,0.,0.));
#627=DIRECTION('',(0.,1.,0.));
#628=DIRECTION('center_axis',(0.,0.,1.));
#629=DIRECTION('ref_axis',(0.,-1.,0.));
#630=DIRECTION('',(1.,0.,0.));
#631=DIRECTION('',(1.,0.,0.));
#632=DIRECTION('center_axis',(0.,0.,1.));
#633=DIRECTION('ref_axis',(-1.,0.,0.));
#634=DIRECTION('',(0.,-1.,0.));
#635=DIRECTION('',(-1.,0.,0.));
#636=DIRECTION('',(0.,-1.,0.));
#637=DIRECTION('center_axis',(0.,0.,-1.));
#638=DIRECTION('ref_axis',(-1.,0.,0.));
#639=DIRECTION('',(-1.,0.,0.));
#640=DIRECTION('',(0.,1.,0.));
#641=DIRECTION('',(1.,0.,0.));
#642=DIRECTION('',(0.,-1.,0.));
#643=DIRECTION('',(1.,0.,0.));
#644=DIRECTION('',(0.,-1.,0.));
#645=DIRECTION('',(-1.,0.,0.));
#646=DIRECTION('',(0.,-1.,0.));
#647=DIRECTION('center_axis',(0.,0.,-1.));
#648=DIRECTION('ref_axis',(0.,-1.,0.));
#649=DIRECTION('',(1.,0.,0.));
#650=DIRECTION('',(1.,0.,0.));
#651=DIRECTION('center_axis',(0.,0.,-1.));
#652=DIRECTION('ref_axis',(1.,0.,0.));
#653=DIRECTION('',(0.,1.,0.));
#654=DIRECTION('center_axis',(0.,0.,-1.));
#655=DIRECTION('ref_axis',(0.,1.,0.));
#656=DIRECTION('',(-1.,0.,0.));
#657=DIRECTION('',(0.,1.,0.));
#658=DIRECTION('',(1.,0.,0.));
#659=DIRECTION('center_axis',(0.,0.,-1.));
#660=DIRECTION('ref_axis',(1.,0.,0.));
#661=DIRECTION('',(0.,1.,0.));
#662=DIRECTION('center_axis',(0.,0.,-1.));
#663=DIRECTION('ref_axis',(0.,1.,0.));
#664=DIRECTION('',(-1.,0.,0.));
#665=DIRECTION('',(-1.,0.,0.));
#666=DIRECTION('center_axis',(0.,0.,-1.));
#667=DIRECTION('ref_axis',(-1.,0.,0.));
#668=DIRECTION('',(0.,-1.,0.));
#669=DIRECTION('center_axis',(0.,0.,-1.));
#670=DIRECTION('ref_axis',(0.,-1.,0.));
#671=DIRECTION('center_axis',(0.,-1.,0.));
#672=DIRECTION('ref_axis',(-1.,0.,0.));
#673=DIRECTION('',(0.,0.,1.));
#674=DIRECTION('',(0.,0.,1.));
#675=DIRECTION('center_axis',(1.,0.,0.));
#676=DIRECTION('ref_axis',(0.,-1.,0.));
#677=DIRECTION('',(0.,0.,1.));
#678=DIRECTION('center_axis',(0.,1.,0.));
#679=DIRECTION('ref_axis',(1.,0.,0.));
#680=DIRECTION('',(0.,0.,1.));
#681=DIRECTION('center_axis',(-1.,0.,0.));
#682=DIRECTION('ref_axis',(0.,1.,0.));
#683=DIRECTION('center_axis',(0.,1.,0.));
#684=DIRECTION('ref_axis',(1.,0.,0.));
#685=DIRECTION('',(0.,0.,1.));
#686=DIRECTION('',(0.,0.,1.));
#687=DIRECTION('center_axis',(0.,0.,1.));
#688=DIRECTION('ref_axis',(-1.,0.,0.));
#689=DIRECTION('',(0.,0.,1.));
#690=DIRECTION('center_axis',(1.,0.,0.));
#691=DIRECTION('ref_axis',(0.,-1.,0.));
#692=DIRECTION('',(0.,0.,1.));
#693=DIRECTION('center_axis',(0.,0.,1.));
#694=DIRECTION('ref_axis',(0.,1.,0.));
#695=DIRECTION('',(0.,0.,1.));
#696=DIRECTION('center_axis',(0.,-1.,0.));
#697=DIRECTION('ref_axis',(-1.,0.,0.));
#698=DIRECTION('',(0.,0.,1.));
#699=DIRECTION('center_axis',(0.,-1.,0.));
#700=DIRECTION('ref_axis',(-1.,0.,0.));
#701=DIRECTION('',(0.,0.,1.));
#702=DIRECTION('center_axis',(0.,0.,1.));
#703=DIRECTION('ref_axis',(1.,0.,0.));
#704=DIRECTION('',(0.,0.,1.));
#705=DIRECTION('center_axis',(-1.,0.,0.));
#706=DIRECTION('ref_axis',(0.,1.,0.));
#707=DIRECTION('',(0.,0.,1.));
#708=DIRECTION('center_axis',(0.,0.,1.));
#709=DIRECTION('ref_axis',(0.,-1.,0.));
#710=DIRECTION('',(0.,0.,1.));
#711=DIRECTION('center_axis',(0.,1.,0.));
#712=DIRECTION('ref_axis',(1.,0.,0.));
#713=DIRECTION('',(0.,0.,1.));
#714=DIRECTION('center_axis',(-1.,0.,0.));
#715=DIRECTION('ref_axis',(0.,1.,0.));
#716=DIRECTION('',(0.,0.,1.));
#717=DIRECTION('center_axis',(0.,-1.,0.));
#718=DIRECTION('ref_axis',(-1.,0.,0.));
#719=DIRECTION('',(0.,0.,1.));
#720=DIRECTION('center_axis',(0.,0.,1.));
#721=DIRECTION('ref_axis',(1.,0.,0.));
#722=DIRECTION('',(0.,0.,1.));
#723=DIRECTION('center_axis',(-1.,0.,0.));
#724=DIRECTION('ref_axis',(0.,1.,0.));
#725=DIRECTION('',(0.,0.,1.));
#726=DIRECTION('center_axis',(0.,0.,1.));
#727=DIRECTION('ref_axis',(0.,-1.,0.));
#728=DIRECTION('',(0.,0.,1.));
#729=DIRECTION('center_axis',(0.,1.,0.));
#730=DIRECTION('ref_axis',(1.,0.,0.));
#731=DIRECTION('',(0.,0.,1.));
#732=DIRECTION('center_axis',(0.,1.,0.));
#733=DIRECTION('ref_axis',(1.,0.,0.));
#734=DIRECTION('',(0.,0.,1.));
#735=DIRECTION('center_axis',(0.,0.,1.));
#736=DIRECTION('ref_axis',(-1.,0.,0.));
#737=DIRECTION('',(0.,0.,1.));
#738=DIRECTION('center_axis',(1.,0.,0.));
#739=DIRECTION('ref_axis',(0.,-1.,0.));
#740=DIRECTION('',(0.,0.,1.));
#741=DIRECTION('center_axis',(0.,-1.,0.));
#742=DIRECTION('ref_axis',(-1.,0.,0.));
#743=DIRECTION('',(0.,0.,1.));
#744=DIRECTION('center_axis',(1.,0.,0.));
#745=DIRECTION('ref_axis',(0.,-1.,0.));
#746=DIRECTION('',(2.95174549557882E-17,9.8312874360756E-33,1.00000000000001));
#747=DIRECTION('',(0.999999999999997,0.,4.77048955893622E-17));
#748=CARTESIAN_POINT('',(0.,0.,0.));
#749=CARTESIAN_POINT('',(0.,0.,0.));
#750=CARTESIAN_POINT('Origin',(-1.48999999999994,-659.506168828678,44.8663807191131));
#751=CARTESIAN_POINT('',(452.,-655.016168828678,44.8663807191131));
#752=CARTESIAN_POINT('',(3.00000000000006,-655.016168828678,44.8663807191131));
#753=CARTESIAN_POINT('',(452.,-655.016168828678,44.8663807191131));
#754=CARTESIAN_POINT('',(452.,-330.016168828678,44.8663807191132));
#755=CARTESIAN_POINT('',(452.,-330.016168828678,44.8663807191132));
#756=CARTESIAN_POINT('',(3.00000000000006,-330.016168828678,44.8663807191132));
#757=CARTESIAN_POINT('',(3.00000000000006,-330.016168828678,44.8663807191132));
#758=CARTESIAN_POINT('',(3.00000000000006,-655.016168828678,44.8663807191131));
#759=CARTESIAN_POINT('',(46.4999999999958,-392.516168828678,44.8663807191132));
#760=CARTESIAN_POINT('',(62.4999999999992,-392.516168828678,44.8663807191132));
#761=CARTESIAN_POINT('',(46.4999999999958,-392.516168828678,44.8663807191132));
#762=CARTESIAN_POINT('',(42.4999999999952,-388.516168828677,44.8663807191132));
#763=CARTESIAN_POINT('Origin',(46.4999999999951,-388.516168828678,44.8663807191132));
#764=CARTESIAN_POINT('',(42.5000000000009,-356.516168828677,44.8663807191132));
#765=CARTESIAN_POINT('',(42.5000000000011,-356.516168828677,44.8663807191132));
#766=CARTESIAN_POINT('',(46.5000000000009,-352.516168828678,44.8663807191132));
#767=CARTESIAN_POINT('Origin',(46.5000000000006,-356.516168828678,44.8663807191132));
#768=CARTESIAN_POINT('',(227.5,-352.516168828678,44.8663807191132));
#769=CARTESIAN_POINT('',(227.5,-352.516168828678,44.8663807191132));
#770=CARTESIAN_POINT('',(408.499999999999,-352.516168828678,44.8663807191132));
#771=CARTESIAN_POINT('',(408.499999999999,-352.516168828678,44.8663807191132));
#772=CARTESIAN_POINT('',(412.499999999999,-356.516168828677,44.8663807191132));
#773=CARTESIAN_POINT('Origin',(408.499999999999,-356.516168828678,44.8663807191132));
#774=CARTESIAN_POINT('',(412.500000000005,-388.516168828677,44.8663807191132));
#775=CARTESIAN_POINT('',(412.500000000005,-388.516168828677,44.8663807191132));
#776=CARTESIAN_POINT('',(408.500000000006,-392.516168828678,44.8663807191132));
#777=CARTESIAN_POINT('Origin',(408.500000000005,-388.516168828678,44.8663807191132));
#778=CARTESIAN_POINT('',(392.500000000001,-392.516168828678,44.8663807191132));
#779=CARTESIAN_POINT('',(392.500000000001,-392.516168828678,44.8663807191132));
#780=CARTESIAN_POINT('',(392.500000000001,-592.516168828678,44.8663807191131));
#781=CARTESIAN_POINT('',(392.500000000001,-592.516168828678,44.8663807191131));
#782=CARTESIAN_POINT('',(408.500000000006,-592.516168828679,44.8663807191131));
#783=CARTESIAN_POINT('',(408.500000000006,-592.516168828679,44.8663807191131));
#784=CARTESIAN_POINT('',(412.500000000005,-596.516168828679,44.8663807191131));
#785=CARTESIAN_POINT('Origin',(408.500000000005,-596.516168828679,44.8663807191131));
#786=CARTESIAN_POINT('',(412.499999999999,-628.516168828679,44.8663807191131));
#787=CARTESIAN_POINT('',(412.499999999999,-628.516168828679,44.8663807191131));
#788=CARTESIAN_POINT('',(408.499999999999,-632.516168828678,44.8663807191131));
#789=CARTESIAN_POINT('Origin',(408.499999999999,-628.516168828679,44.8663807191131));
#790=CARTESIAN_POINT('',(227.5,-632.516168828678,44.8663807191131));
#791=CARTESIAN_POINT('',(227.5,-632.516168828678,44.8663807191131));
#792=CARTESIAN_POINT('',(46.5000000000006,-632.516168828679,44.8663807191131));
#793=CARTESIAN_POINT('',(46.5000000000002,-632.516168828679,44.8663807191131));
#794=CARTESIAN_POINT('',(42.5000000000008,-628.516168828679,44.8663807191131));
#795=CARTESIAN_POINT('Origin',(46.5000000000006,-628.516168828678,44.8663807191131));
#796=CARTESIAN_POINT('',(42.4999999999875,-553.516168828679,44.8663807191131));
#797=CARTESIAN_POINT('',(42.4999999999875,-553.516168828679,44.8663807191131));
#798=CARTESIAN_POINT('',(62.4999999999985,-553.516168828679,44.8663807191131));
#799=CARTESIAN_POINT('',(62.4999999999982,-553.516168828679,44.8663807191131));
#800=CARTESIAN_POINT('',(62.4999999999992,-392.516168828678,44.8663807191132));
#801=CARTESIAN_POINT('Origin',(456.49,-659.506168828678,11.8663807191131));
#802=CARTESIAN_POINT('',(452.,-655.016168828678,11.8663807191131));
#803=CARTESIAN_POINT('',(3.00000000000006,-655.016168828678,11.8663807191131));
#804=CARTESIAN_POINT('',(452.,-655.016168828678,11.8663807191131));
#805=CARTESIAN_POINT('',(3.00000000000006,-330.016168828678,11.8663807191132));
#806=CARTESIAN_POINT('',(3.00000000000006,-655.016168828678,11.8663807191131));
#807=CARTESIAN_POINT('',(452.,-330.016168828678,11.8663807191132));
#808=CARTESIAN_POINT('',(3.00000000000006,-330.016168828678,11.8663807191132));
#809=CARTESIAN_POINT('',(452.,-330.016168828678,11.8663807191132));
#810=CARTESIAN_POINT('',(46.4999999999958,-392.516168828678,11.8663807191132));
#811=CARTESIAN_POINT('',(62.4999999999992,-392.516168828678,11.8663807191132));
#812=CARTESIAN_POINT('',(46.4999999999958,-392.516168828678,11.8663807191132));
#813=CARTESIAN_POINT('',(62.4999999999985,-553.516168828679,11.8663807191131));
#814=CARTESIAN_POINT('',(62.4999999999992,-392.516168828678,11.8663807191132));
#815=CARTESIAN_POINT('',(42.4999999999875,-553.516168828679,11.8663807191131));
#816=CARTESIAN_POINT('',(62.4999999999982,-553.516168828679,11.8663807191131));
#817=CARTESIAN_POINT('',(42.5000000000008,-628.516168828679,11.8663807191131));
#818=CARTESIAN_POINT('',(42.4999999999875,-553.516168828679,11.8663807191131));
#819=CARTESIAN_POINT('',(46.5000000000006,-632.516168828679,11.8663807191131));
#820=CARTESIAN_POINT('Origin',(46.5000000000006,-628.516168828678,11.8663807191131));
#821=CARTESIAN_POINT('',(227.5,-632.516168828678,11.8663807191131));
#822=CARTESIAN_POINT('',(46.5000000000002,-632.516168828679,11.8663807191131));
#823=CARTESIAN_POINT('',(408.499999999999,-632.516168828678,11.8663807191131));
#824=CARTESIAN_POINT('',(227.5,-632.516168828678,11.8663807191131));
#825=CARTESIAN_POINT('',(412.499999999999,-628.516168828679,11.8663807191131));
#826=CARTESIAN_POINT('Origin',(408.499999999999,-628.516168828679,11.8663807191131));
#827=CARTESIAN_POINT('',(412.500000000005,-596.516168828679,11.8663807191131));
#828=CARTESIAN_POINT('',(412.499999999999,-628.516168828679,11.8663807191131));
#829=CARTESIAN_POINT('',(408.500000000006,-592.516168828679,11.8663807191131));
#830=CARTESIAN_POINT('Origin',(408.500000000005,-596.516168828679,11.8663807191131));
#831=CARTESIAN_POINT('',(392.500000000001,-592.516168828678,11.8663807191131));
#832=CARTESIAN_POINT('',(408.500000000006,-592.516168828679,11.8663807191131));
#833=CARTESIAN_POINT('',(392.500000000001,-392.516168828678,11.8663807191132));
#834=CARTESIAN_POINT('',(392.500000000001,-592.516168828678,11.8663807191131));
#835=CARTESIAN_POINT('',(408.500000000006,-392.516168828678,11.8663807191132));
#836=CARTESIAN_POINT('',(392.500000000001,-392.516168828678,11.8663807191132));
#837=CARTESIAN_POINT('',(412.500000000005,-388.516168828677,11.8663807191132));
#838=CARTESIAN_POINT('Origin',(408.500000000005,-388.516168828678,11.8663807191132));
#839=CARTESIAN_POINT('',(412.499999999999,-356.516168828677,11.8663807191132));
#840=CARTESIAN_POINT('',(412.500000000005,-388.516168828677,11.8663807191132));
#841=CARTESIAN_POINT('',(408.499999999999,-352.516168828678,11.8663807191132));
#842=CARTESIAN_POINT('Origin',(408.499999999999,-356.516168828678,11.8663807191132));
#843=CARTESIAN_POINT('',(227.5,-352.516168828678,11.8663807191132));
#844=CARTESIAN_POINT('',(408.499999999999,-352.516168828678,11.8663807191132));
#845=CARTESIAN_POINT('',(46.5000000000009,-352.516168828678,11.8663807191132));
#846=CARTESIAN_POINT('',(227.5,-352.516168828678,11.8663807191132));
#847=CARTESIAN_POINT('',(42.5000000000009,-356.516168828677,11.8663807191132));
#848=CARTESIAN_POINT('Origin',(46.5000000000006,-356.516168828678,11.8663807191132));
#849=CARTESIAN_POINT('',(42.4999999999952,-388.516168828677,11.8663807191132));
#850=CARTESIAN_POINT('',(42.5000000000011,-356.516168828677,11.8663807191132));
#851=CARTESIAN_POINT('Origin',(46.4999999999951,-388.516168828678,11.8663807191132));
#852=CARTESIAN_POINT('Origin',(456.49,-655.016168828678,49.3563807191131));
#853=CARTESIAN_POINT('',(3.00000000000006,-655.016168828678,11.8663807191131));
#854=CARTESIAN_POINT('',(452.,-655.016168828678,11.8663807191131));
#855=CARTESIAN_POINT('Origin',(452.,-326.766168828678,48.1163807191132));
#856=CARTESIAN_POINT('',(452.,-330.016168828678,11.8663807191132));
#857=CARTESIAN_POINT('Origin',(-1.48999999999994,-330.016168828678,49.3563807191132));
#858=CARTESIAN_POINT('',(3.00000000000006,-330.016168828678,11.8663807191132));
#859=CARTESIAN_POINT('Origin',(3.00000000000006,-658.266168828678,48.1163807191131));
#860=CARTESIAN_POINT('Origin',(46.1699999999958,-392.516168828678,45.1963807191132));
#861=CARTESIAN_POINT('',(62.4999999999992,-392.516168828678,11.8663807191132));
#862=CARTESIAN_POINT('',(46.4999999999958,-392.516168828678,11.8663807191132));
#863=CARTESIAN_POINT('Origin',(46.4999999999951,-388.516168828678,11.8663807191132));
#864=CARTESIAN_POINT('',(42.4999999999951,-388.516168828677,11.8663807191132));
#865=CARTESIAN_POINT('Origin',(42.5000000000012,-356.186168828677,45.1963807191132));
#866=CARTESIAN_POINT('',(42.5000000000011,-356.516168828677,11.8663807191132));
#867=CARTESIAN_POINT('Origin',(46.5000000000006,-356.516168828678,11.8663807191132));
#868=CARTESIAN_POINT('',(46.5000000000013,-352.516168828678,11.8663807191132));
#869=CARTESIAN_POINT('Origin',(229.31,-352.516168828678,46.6763807191132));
#870=CARTESIAN_POINT('',(227.5,-352.516168828678,11.8663807191132));
#871=CARTESIAN_POINT('Origin',(410.309999999999,-352.516168828678,46.6763807191132));
#872=CARTESIAN_POINT('',(408.499999999999,-352.516168828678,11.8663807191132));
#873=CARTESIAN_POINT('Origin',(408.499999999999,-356.516168828678,11.8663807191132));
#874=CARTESIAN_POINT('',(412.499999999999,-356.516168828677,11.8663807191132));
#875=CARTESIAN_POINT('Origin',(412.500000000005,-388.846168828677,45.1963807191132));
#876=CARTESIAN_POINT('',(412.500000000005,-388.516168828677,11.8663807191132));
#877=CARTESIAN_POINT('Origin',(408.500000000005,-388.516168828678,11.8663807191132));
#878=CARTESIAN_POINT('',(408.500000000006,-392.516168828678,11.8663807191132));
#879=CARTESIAN_POINT('Origin',(392.170000000001,-392.516168828678,45.1963807191132));
#880=CARTESIAN_POINT('',(392.500000000001,-392.516168828678,11.8663807191132));
#881=CARTESIAN_POINT('Origin',(392.500000000001,-594.516168828678,46.8663807191131));
#882=CARTESIAN_POINT('',(392.500000000001,-592.516168828678,11.8663807191131));
#883=CARTESIAN_POINT('Origin',(408.830000000006,-592.516168828679,45.1963807191131));
#884=CARTESIAN_POINT('',(408.500000000006,-592.516168828679,11.8663807191131));
#885=CARTESIAN_POINT('Origin',(408.500000000005,-596.516168828679,11.8663807191131));
#886=CARTESIAN_POINT('',(412.500000000005,-596.516168828679,11.8663807191131));
#887=CARTESIAN_POINT('Origin',(412.499999999999,-628.846168828679,45.1963807191131));
#888=CARTESIAN_POINT('',(412.499999999999,-628.516168828679,11.8663807191131));
#889=CARTESIAN_POINT('Origin',(408.499999999999,-628.516168828679,11.8663807191131));
#890=CARTESIAN_POINT('',(408.499999999999,-632.516168828679,11.8663807191131));
#891=CARTESIAN_POINT('Origin',(225.69,-632.516168828678,46.6763807191131));
#892=CARTESIAN_POINT('',(227.5,-632.516168828678,11.8663807191131));
#893=CARTESIAN_POINT('Origin',(44.6900000000002,-632.516168828679,46.6763807191131));
#894=CARTESIAN_POINT('',(46.5000000000002,-632.516168828679,11.8663807191131));
#895=CARTESIAN_POINT('Origin',(46.5000000000006,-628.516168828678,11.8663807191131));
#896=CARTESIAN_POINT('',(42.5000000000005,-628.516168828679,11.8663807191131));
#897=CARTESIAN_POINT('Origin',(42.4999999999874,-552.766168828679,45.6163807191131));
#898=CARTESIAN_POINT('',(42.4999999999875,-553.516168828679,11.8663807191131));
#899=CARTESIAN_POINT('Origin',(62.8299999999982,-553.516168828679,45.1963807191131));
#900=CARTESIAN_POINT('',(62.4999999999982,-553.516168828679,11.8663807191131));
#901=CARTESIAN_POINT('Origin',(62.4999999999992,-390.906168828678,46.4763807191132));
#902=CARTESIAN_POINT('',(-3.00000000000026,655.016168828678,-11.8663807191131));
#903=UNCERTAINTY_MEASURE_WITH_UNIT(LENGTH_MEASURE(0.01),#909,
'DISTANCE_ACCURACY_VALUE',
'Maximum model space distance between geometric entities at asserted c
onnectivities');
#904=UNCERTAINTY_MEASURE_WITH_UNIT(LENGTH_MEASURE(0.01),#909,
'DISTANCE_ACCURACY_VALUE',
'Maximum model space distance between geometric entities at asserted c
onnectivities');
#905=UNCERTAINTY_MEASURE_WITH_UNIT(LENGTH_MEASURE(0.01),#909,
'DISTANCE_ACCURACY_VALUE',
'Maximum model space distance between geometric entities at asserted c
onnectivities');
#906=(
GEOMETRIC_REPRESENTATION_CONTEXT(3)
GLOBAL_UNCERTAINTY_ASSIGNED_CONTEXT((#903))
GLOBAL_UNIT_ASSIGNED_CONTEXT((#909,#911,#912))
REPRESENTATION_CONTEXT('','3D')
);
#907=(
GEOMETRIC_REPRESENTATION_CONTEXT(3)
GLOBAL_UNCERTAINTY_ASSIGNED_CONTEXT((#904))
GLOBAL_UNIT_ASSIGNED_CONTEXT((#909,#911,#912))
REPRESENTATION_CONTEXT('','3D')
);
#908=(
GEOMETRIC_REPRESENTATION_CONTEXT(3)
GLOBAL_UNCERTAINTY_ASSIGNED_CONTEXT((#905))
GLOBAL_UNIT_ASSIGNED_CONTEXT((#909,#911,#912))
REPRESENTATION_CONTEXT('','3D')
);
#909=(
LENGTH_UNIT()
NAMED_UNIT(*)
SI_UNIT(.MILLI.,.METRE.)
);
#910=(
LENGTH_UNIT()
NAMED_UNIT(*)
SI_UNIT($,.METRE.)
);
#911=(
NAMED_UNIT(*)
PLANE_ANGLE_UNIT()
SI_UNIT($,.RADIAN.)
);
#912=(
NAMED_UNIT(*)
SI_UNIT($,.STERADIAN.)
SOLID_ANGLE_UNIT()
);
#913=SHAPE_DEFINITION_REPRESENTATION(#915,#918);
#914=SHAPE_DEFINITION_REPRESENTATION(#916,#919);
#915=PRODUCT_DEFINITION_SHAPE('',$,#921);
#916=PRODUCT_DEFINITION_SHAPE('',$,#922);
#917=PRODUCT_DEFINITION_SHAPE($,$,#14);
#918=SHAPE_REPRESENTATION('',(#555,#598),#906);
#919=SHAPE_REPRESENTATION('',(#556),#907);
#920=PRODUCT_DEFINITION_CONTEXT('part definition',#928,'design');
#921=PRODUCT_DEFINITION('Suitcase filling - Top 1',
'Suitcase filling - Top 1 v2',#923,#920);
#922=PRODUCT_DEFINITION('Component1','Component1',#924,#920);
#923=PRODUCT_DEFINITION_FORMATION('',$,#930);
#924=PRODUCT_DEFINITION_FORMATION('',$,#931);
#925=PRODUCT_RELATED_PRODUCT_CATEGORY('Suitcase filling - Top 1 v2',
'Suitcase filling - Top 1 v2',(#930));
#926=PRODUCT_RELATED_PRODUCT_CATEGORY('Component1','Component1',(#931));
#927=APPLICATION_PROTOCOL_DEFINITION('international standard',
'automotive_design',2009,#928);
#928=APPLICATION_CONTEXT(
'Core Data for Automotive Mechanical Design Process');
#929=PRODUCT_CONTEXT('part definition',#928,'mechanical');
#930=PRODUCT('Suitcase filling - Top 1','Suitcase filling - Top 1 v2',$,
(#929));
#931=PRODUCT('Component1','Component1',$,(#929));
#932=PRESENTATION_STYLE_ASSIGNMENT((#934));
#933=PRESENTATION_STYLE_ASSIGNMENT((#935));
#934=SURFACE_STYLE_USAGE(.BOTH.,#936);
#935=SURFACE_STYLE_USAGE(.BOTH.,#937);
#936=SURFACE_SIDE_STYLE('',(#938));
#937=SURFACE_SIDE_STYLE('',(#939));
#938=SURFACE_STYLE_FILL_AREA(#940);
#939=SURFACE_STYLE_FILL_AREA(#941);
#940=FILL_AREA_STYLE('Steel - Satin',(#942));
#941=FILL_AREA_STYLE('Opaque(0,88,28)',(#943));
#942=FILL_AREA_STYLE_COLOUR('Steel - Satin',#944);
#943=FILL_AREA_STYLE_COLOUR('Opaque(0,88,28)',#945);
#944=COLOUR_RGB('Steel - Satin',0.627450980392157,0.627450980392157,0.627450980392157);
#945=COLOUR_RGB('Opaque(0,88,28)',0.,0.345098039215686,0.109803921568627);
ENDSEC;
END-ISO-10303-21;
